<svg width="766" height="1200" viewBox="0 0 766 1200" fill="none" xmlns="http://www.w3.org/2000/svg">
<path d="M7.4 0.899982C7.7 1.39998 6.9 3.29998 5.6 5.19998C2.7 9.49998 0 17.4 0 21.6C0 23.3 0.7 26.4 1.5 28.3C2.3 30.3 3 33.3 3 35C3 36.7 4.2 40.4 5.7 43.3C7.2 46.2 8.7 51.1 9 54.5C9.4 57.8 10.7 62.5 11.9 65C14.5 70.2 17 78.2 19.5 89C20.5 93.1 22.2 98.3 23.2 100.4C24.9 103.7 25 104.7 23.9 106.6C22.4 109.4 23.4 124.9 25.5 132.7C26.3 135.6 27.7 140.4 28.5 143.3C29.3 146.3 30 149.5 30 150.6C30 152.7 33.4 167.1 35.4 174C36.2 176.5 37.6 182.8 38.5 188C40.4 199.1 41.8 205.6 43.6 212.4C44.4 215.1 45 220.1 45 223.4C45 226.8 45.5 231.3 46 233.5C47.5 239.5 50.7 255.1 53 267.5C55 278.7 56.1 283.6 58.5 292.5C59.2 295.2 60.3 300.2 60.8 303.5C61.3 306.8 62.5 312 63.5 315C64.9 319.4 65.4 326.1 66 349.5C66.7 377.2 67.5 384.9 69.9 387.3C70.7 388.1 71 385.4 71 377.8C71 367.2 72.2 360.8 73.9 362.6C74.4 363.1 75 365.5 75.3 368C75.6 370.5 76.9 376.5 78.3 381.5C80.8 390.5 85.1 407.1 87.7 418.5C88.5 421.8 90.3 428.5 91.7 433.5C93.2 438.4 94.9 445.4 95.6 449C97.1 456.6 98.6 462.7 100.6 469.1C101.4 471.7 102 475.2 102 476.9C102 478.6 103.2 483.3 104.6 487.3C106 491.2 108.1 498.3 109.1 503C110.2 507.7 112 514.2 113.1 517.4C114.2 520.6 115.7 526.3 116.5 529.9C117.3 533.5 118.6 539 119.6 542C120.5 545 121.8 550.4 122.6 554C123.3 557.6 124.2 561.6 124.6 562.9C125.3 565.1 125.1 565.2 122.2 564.8C118.4 564.3 118.1 565.8 120.6 571.8C121.4 573.8 123.9 580.7 126 587C128.1 593.3 130.5 600.3 131.4 602.5C132.2 604.7 134.2 610.1 135.9 614.5C137.5 618.9 140.5 626.8 142.5 632C144.5 637.2 147 644.6 148.1 648.5C150.8 657.7 151 658.4 159.5 681.4C160.9 685.2 162 689.1 162 690C162 691 163.3 694.8 164.9 698.6C168 706.3 169.8 711 171 715.5C172.6 721.4 178 735.4 179 736.4C179.5 736.9 180 738.3 180 739.4C180.1 740.6 181.2 744.6 182.6 748.5C186.6 759.9 193 779.1 194.5 784.5C196 789.8 198.6 797.4 207 821C209.9 829 212.5 837.3 212.9 839.5C213.3 841.7 214.8 845.3 216.3 847.5C217.8 849.7 219 852.4 219 853.5C219 854.6 219.7 856.8 220.6 858.5C221.4 860.1 223.7 866 225.5 871.5C227.4 877 230.5 886 232.5 891.5C236.5 902.8 237.7 906.4 238.4 910.1C239.2 913.8 242.8 918 245.3 918C246.5 918 248.7 919.1 250.1 920.4C252.2 922.2 252.7 923.4 252.3 925.4C252 926.9 252.2 929.1 252.8 930.3C253.4 931.5 254.1 934.3 254.3 936.6C254.6 938.9 255.5 942.2 256.3 944.1C257.2 946 258.1 948.6 258.5 950C258.9 951.4 261.2 958.1 263.6 965C266 971.9 268 978.7 268 980C268 981.4 269.1 985.9 270.4 990C271.7 994.1 273.5 1000.4 274.5 1004C275.4 1007.6 277.5 1014.7 279.1 1019.9C280.7 1025 282 1030.5 282 1032.1C282 1033.7 282.6 1036.7 283.4 1038.7C285.6 1044.9 288 1053.5 288 1055.6C288 1056.6 289.2 1061.3 290.5 1066C291.9 1070.7 293.9 1078.8 295 1084C298.2 1099.4 297.6 1102 291.2 1102C288.4 1102 286.9 1101.1 283.4 1097.4L279.1 1092.7L272.4 1093.3C262.8 1094.2 262.6 1094.4 263.2 1107.1C263.8 1118.4 266.4 1131.8 271 1146.4C274.7 1157.9 273.6 1160.9 265.4 1161C261.7 1161 251 1162.3 232.5 1165C228.7 1165.6 224.4 1166.5 223 1167C221.6 1167.6 216.5 1168.4 211.5 1168.8L202.6 1169.5L202.5 1173V1176.5L196.5 1177.2C193.2 1177.5 188.9 1178.3 187 1178.9C185.1 1179.5 180.1 1180 175.9 1180C168.8 1180 168.3 1179.8 167.2 1177.5C166.2 1175.3 165.4 1175 161 1175C155.3 1175 151.7 1176.5 148.1 1180.4C146.1 1182.5 144.7 1183 140.7 1183C136.7 1183 135.2 1182.5 132.5 1180.1C130.5 1178.4 127.1 1176.8 124 1176.1C118 1174.8 117.2 1175.2 113.3 1181.3C112 1183.4 109.9 1185.5 108.6 1186C107.3 1186.4 106 1187.6 105.6 1188.6C104.7 1190.8 107.5 1194.9 110.3 1195.4C111.5 1195.7 113.6 1196.1 115 1196.4C116.4 1196.7 119.4 1197.4 121.7 1198.1C125 1199.1 126.9 1199.1 130.7 1198.2C137.5 1196.5 156.2 1195.1 180 1194.4C191.3 1194.2 202.1 1193.7 204 1193.5C205.9 1193.2 214.5 1192.6 223 1192C231.5 1191.5 242.6 1190.6 247.7 1190C260.3 1188.6 283.7 1188.7 284.6 1190.1C286 1192.5 282.5 1193.3 266.8 1194.2C243.4 1195.5 218 1197.9 216.1 1199C215.1 1199.6 241.3 1200 287.2 1200C338.3 1200 360.1 1199.7 360.6 1198.9C361 1198.2 364.7 1197.9 370.4 1198C382.2 1198.3 388.1 1197.3 390.1 1194.7C391.6 1192.9 393.4 1192.6 405.6 1191.9C413.3 1191.5 426.9 1191.1 436 1191C445.1 1191 458.6 1190.3 466 1189.5C505.2 1185.4 502 1186 502 1183.1C502 1180.2 499.8 1179 494 1179C491 1178.9 485.8 1178.4 482.5 1177.7C477.7 1176.7 476.4 1176 476.2 1174.4C475.9 1172.4 476.5 1172.3 486 1171.7C495.7 1171.1 496.5 1171.2 503.8 1174.1C508 1175.8 512.6 1178.2 514 1179.5C515.4 1180.9 517.4 1182.1 518.5 1182.2C521 1182.5 531.4 1181.1 536 1179.9C543.7 1177.8 582 1176.2 601.5 1177.2C612 1177.7 621.6 1178.1 623 1178.1C628.8 1178 639 1180.5 645.7 1183.7C654.4 1187.9 656.5 1187.7 664 1181.5C667 1179 670 1177 670.5 1177C671.1 1177 673.8 1175.6 676.6 1173.8C688 1166.6 705.9 1162.6 728 1162.5H734.5L734.1 1168.9C733.9 1172.4 733.2 1176.8 732.4 1178.6C730.6 1183 730.6 1186.4 732.5 1188C733.8 1189.1 734.9 1188.9 739 1187C746.6 1183.4 749.6 1179.7 750.9 1172C751.5 1168.4 752.5 1163 753 1160C754.3 1153.1 753.5 1149.6 750.4 1147.6C748.6 1146.3 748 1145.1 748 1142.1C748 1136.3 747 1132.2 745.3 1131.6C744.6 1131.3 741.5 1132.4 738.5 1134.1C733.4 1136.9 732 1137.2 721 1137.7C706.5 1138.4 706.3 1138.1 715.1 1128.9C725.6 1117.8 735.2 1101.7 739 1088.7C740 1085.3 742.7 1078.3 744.9 1073.2C747.2 1068.1 749 1063.5 749 1063C749 1061.3 745.8 1059 743.4 1059C742.1 1059 737.2 1057.8 732.7 1056.4C719.4 1052.2 714.8 1051 708.5 1050C698.8 1048.5 696.5 1047.6 696.2 1045.2C696 1043.7 696.6 1042.7 698.2 1042.1C699.6 1041.6 701.6 1039 703.3 1035.7C704.8 1032.6 706.9 1029.9 707.8 1029.6C710.7 1028.8 725.9 1029.5 726.9 1030.5C727.8 1031.5 731.3 1042.1 732.4 1047.3C733.2 1050.9 737.2 1052.9 739.6 1050.9C741.5 1049.3 741 1042.4 738.3 1034.1C736.7 1029.1 736.7 1028.8 738.7 1026.2C739.9 1024.6 742.2 1020.7 743.9 1017.4C747.4 1010.6 748.5 1009.3 756 1002.7C763.8 995.7 766 992.4 766 987.5C766 982.5 764.7 981 760.2 981C756.2 981 751.6 984 749.8 987.8C748.6 990.3 748 990.5 742.5 990.5C739.2 990.6 734.9 990.9 732.9 991.4C728 992.4 724.3 989.3 723.1 983C722.6 980.5 721.7 977.1 721.1 975.5C720.5 973.8 717.1 963.7 713.6 953C710.1 942.3 706.5 931.9 705.7 930C704.4 926.9 704.4 926.2 705.7 923.7C707.1 920.9 706.9 920.2 702.1 907.9C696.5 893.9 696.5 893.5 698.1 886.2C699.7 879.4 698.7 876.5 694 873.5C690.9 871.6 689.2 869.3 686.8 864.2C685.1 860.5 682 853.9 679.9 849.5C677.9 845.1 675.2 839 674 836C672.8 833 670.5 827.4 668.9 823.6C667.3 819.8 666 816.2 666 815.5C666 814.8 664.7 811.2 663.1 807.4C657.9 795 652.1 779.7 649.2 770.5C647.6 765.5 643.8 755.6 640.7 748.5C637.7 741.3 634.5 733.3 633.5 730.5C632.6 727.8 631.5 725.1 631.1 724.5C630.6 724 629.4 721 628.2 718C627.1 715 624.4 708.5 622.1 703.6C619.8 698.7 618 694.3 618 693.8C618 693.4 616.7 690.2 615.1 686.7C613.5 683.3 609.4 674.4 606 667C591.6 635.7 578 609.6 573 603.7C569.7 599.9 563 590.6 559.3 585C558.4 583.6 556.5 580.7 555 578.5C553.5 576.3 552.1 573.8 551.8 572.9C551.4 572 549 568 546.4 563.9C543.8 559.8 540.5 554.5 539.1 552C537.8 549.5 535.6 545.7 534.3 543.5C533.1 541.3 531.3 538.1 530.4 536.5C529.5 534.8 526.6 530.5 523.9 526.8C521.2 523.1 517.1 516.1 514.7 511.3C509.6 501.1 502 488 498.2 483C496.7 481.1 494.1 477.4 492.3 474.8C490.5 472.3 487.9 469 486.4 467.5L483.8 464.9L484.5 447.7C484.8 438.2 485.3 421.3 485.5 410C485.7 398.7 486.2 385.4 486.7 380.5C487.1 375.5 487.5 365.9 487.5 359C487.6 334 489.2 274.3 490 268.5C491.5 256.6 487.1 254.1 478.7 261.9C474.7 265.6 473.8 267.5 472.9 274.9C470.8 290.7 469.3 295 465.9 295C464.8 295 460.6 292.2 456.6 288.7C444.8 278.5 424.9 262.7 420.8 260.2C418.7 258.9 417 257.5 417 256.9C417 256.4 416.6 256 416.1 256C415.6 256 413 254 410.3 251.5C407.7 249 405 247 404.4 247C403.7 247 403 246.3 402.6 245.5C402 243.8 399 243.4 399 245C399 245.6 400.1 246.5 401.4 247C408.2 249.5 448.9 292.2 458.3 306.5C462.2 312.5 462.2 312.6 461.6 320.1C461.3 324.3 460.1 331.3 458.9 335.6C457.7 340 456.4 345.5 455.9 348C455.5 350.5 454.5 354.5 453.6 357C452.8 359.5 451 365.5 449.5 370.5C448.1 375.4 446.3 381.1 445.6 383C444.8 384.9 443.8 387.8 443.4 389.5C441.7 395.1 439.2 393.9 430.5 383C426.1 377.5 421.5 371.6 420.2 369.8C419 368.1 415.8 364.3 413.2 361.5C410.6 358.7 403.1 349.9 396.5 342C389.9 334.1 382.4 325.4 379.9 322.6C377.4 319.8 369.6 310.7 362.5 302.5C338.9 275 324.5 259.7 297.9 234C247.9 185.7 246.3 184 242.5 174.1C240.7 169.2 238.1 165.2 233 159.4C220.2 144.9 212.7 139.4 210.5 142.9C209.3 144.9 201.2 148.2 199.7 147.4C198.8 146.9 190.9 139.5 182 131C173 122.5 163.6 113.9 160.9 112C157.4 109.5 155.8 107.5 155 104.7C154.4 102.7 153.5 101 153 101C152.5 101 149.5 98.9 146.3 96.2C136.7 88.4 133.7 86.4 128 83.9C120.1 80.5 87.7 53.9 82.7 46.6C81.2 44.4 79.1 41.7 78.2 40.7C75.1 37.3 57.1 26 51.3 23.8C48.1 22.7 43.4 20.4 40.7 18.8C38.1 17.3 35.6 16 35.1 16C33.7 16 30.6 11.9 29.5 8.69998C28.8 6.49998 27.3 4.99998 24.8 3.69998C22.7 2.79998 21 1.49998 21 0.999982C21 0.399982 17.9 -1.78814e-05 13.9 -1.78814e-05C10.1 -1.78814e-05 7.1 0.399982 7.4 0.899982ZM66.2 69.7C69.5 71.8 75.8 76.1 80.2 79.4C84.7 82.6 93.3 88.6 99.4 92.8C105.5 96.9 110.7 100.7 111 101C111.3 101.4 119.6 107.2 129.5 113.9C150.9 128.4 157.2 132.9 160.8 136.2C162.3 137.6 168.2 142.2 174 146.6C188.5 157.5 195 163.4 198.7 169.3C200.6 172.5 203.7 175.5 206.7 177.4C221.4 186.5 226.3 190.9 276.2 239C300.3 262.2 307.9 272 302 272C300.9 272 300 271.6 300 271.1C300 270.6 297.6 268.5 294.8 266.4C291.9 264.3 286.8 260.3 283.5 257.5C280.2 254.7 271.9 248.5 265 243.9C245 230.3 238.9 226 232.9 221.4C229.9 219 227 217 226.6 217C226.2 217 222.8 215 219 212.5C215.2 210 211.8 208 211.4 208C211 208 208.1 206.1 205.1 203.7C185.1 188.1 168.5 180.5 162.1 184C159.6 185.3 159.2 190.7 161.4 194.8C165.9 203.3 184.8 216.8 208.7 228.5C240.8 244.3 244.1 246 253.8 252.3C259.2 255.9 269.2 263 276 268.1C282.8 273.3 292.2 280.2 296.9 283.4C301.6 286.6 307.9 291.6 310.8 294.4C313.7 297.2 318.4 301 321.1 302.8C323.8 304.7 327.5 307.6 329.3 309.4C331.1 311.2 336.1 315.6 340.5 319.2C354 330.1 366.3 342.5 374.1 352.7C387.1 370 394.4 379.2 397.8 382.7C400.6 385.6 401 385.8 401 384C401 382.9 401.5 382 402.1 382C403.4 382 409.5 388.6 415.3 396.4C417.4 399.1 421.3 403.9 424 407C430.1 414 430.9 416.8 428.1 421.3C426 424.7 425.5 428.4 426.6 431.4C427.1 432.7 427.7 432.6 430.4 430.5C434.8 427.1 435.4 427.3 434.6 431.9C434.2 434.3 434.6 437.4 435.5 440C436.3 442.3 436.8 444.5 436.6 444.9C436.3 445.3 436.9 448.7 437.8 452.5C439.8 461.4 440 489.2 438.1 508C437.4 515.4 436.8 522.6 436.8 524C437 536.2 432.7 605.9 431 617.5C430.5 621.3 429.7 631 429.4 639C429.1 647 428.2 658.1 427.4 663.8C426.6 669.4 426 677.8 426 682.3C426 686.8 425.3 693 424.5 696C423.2 700.9 421.2 727.9 421.4 738.5C421.5 747.9 418.8 783.6 417.8 784.7C417.2 785.5 415.8 785.7 414.3 785.4C412.1 784.8 411.9 785 412.2 787.1C412.3 788.4 413 789.5 413.7 789.5C414.3 789.5 415.1 789.8 415.5 790.2C416.5 791.2 415 797 413.8 796.7C411.4 796.2 410 809.6 410 833C410.1 849.1 408.5 869.5 405 899.5C404.4 904.4 403.3 914.6 402.4 922C399.2 949.4 393.8 969.9 388.8 973.4C385.8 975.5 384.8 980.5 384 997C383.5 1005.5 382.7 1016.1 382.1 1020.5C381.3 1026.3 381.3 1030.1 382.1 1034.2C384 1044 381.1 1052 375.4 1052C373.4 1052 365.1 1043.4 357.1 1033C351.6 1025.7 350.2 1024 344.9 1017.6C343.5 1015.9 340 1011 337.1 1006.8C334.1 1002.5 331.5 999 331.2 999C328.7 999 324 1001.7 323.8 1003.3C323.6 1004.4 322.5 1005.9 321.3 1006.7C319.4 1008 318.9 1007.8 315.8 1005.1C313.9 1003.4 310.2 997.9 307.5 992.8C304.9 987.7 302.3 982.9 301.8 982.3C300.4 980.5 290.9 961.5 288.4 955.5C287.3 952.7 285.3 948 284.1 945C280.3 935.9 276.8 920.9 277.5 916.7C278 912.9 275.9 907 274 907C273.5 907 272.6 905.3 272 903.2C271.5 901 270.1 898.5 269 897.5C267.9 896.5 267 894.5 267 893.1C267 891.6 266.3 889.4 265.4 888.1C264.2 886.5 263.9 884.7 264.4 881.9C264.9 878.8 264.7 877.8 263.4 877.3C261.5 876.6 255 862.9 255 859.6C255 858.3 253.7 854.6 252.1 851.4C250.6 848.2 248.4 843.2 247.4 840.5C245.8 836.4 245 835.4 242.8 835.2C241.3 835 239.2 835.4 238.1 835.9C235.1 837.5 231.5 835.5 229.6 831.1C228.8 829.1 226.5 823.2 224.5 818C222.5 812.8 219.1 804.9 217 800.5C212.7 791.8 208.5 781.2 207.5 776.5C207.1 774.8 206.4 772.6 205.9 771.5C204.4 768 201.9 760.6 201 757C200.6 755.1 199.3 750.8 198.2 747.5C197.1 744.2 195.5 738.8 194.5 735.5C193.6 732.2 192.1 727.2 191 724.5C190 721.7 187.1 712.7 184.5 704.5C181.9 696.2 179.1 688 178.4 686.2C177.6 684.4 177 682.1 177 681.1C177 680.2 175.4 674.9 173.4 669.4C171.4 664 169.3 657.7 168.8 655.5C168.2 653.3 167.1 649.4 166.4 646.8C165.6 644.2 165 640.3 165 638.1C165 635.9 164.2 632.5 163.3 630.6C161.7 627.2 161.8 626.9 163.4 625.1C165.3 623 165.2 621.4 162.9 615C158.8 603.7 157.6 601.2 154.9 599.4C153 598.2 151.6 596.1 150.9 593.5C150.3 591.3 148.5 585.5 146.9 580.6C145.3 575.7 144 570.9 144 569.9C144 568.9 142.7 564.8 141.1 560.7C139.6 556.6 137.9 551.5 137.5 549.4C137.1 547.2 135.7 543.1 134.3 540.2C132.9 537.3 131.6 533 131.3 530.7C131 528.4 129.9 523.8 128.7 520.5C127.6 517.2 126.3 512.5 125.9 510C125.1 505.3 124 500.6 121 490C119.2 483.7 118.1 480.4 115.5 473C113.2 466.8 110 454.6 110 452.3C110 451 109.4 448.3 108.6 446.3C107.9 444.2 106.5 438.9 105.5 434.5C104.6 430.1 103.1 423.8 102.3 420.5C101.5 417.2 100.4 412.2 99.9 409.4C99.4 406.6 98.3 402.4 97.5 400C96.7 397.7 96 393.8 96 391.4C96 389 95.4 385.3 94.6 383.3C93.9 381.2 92.5 375.9 91.5 371.5C90.6 367.1 89.2 360.8 88.4 357.4C87.6 354.1 87 349.7 87 347.7C87 344.2 85.6 337.7 82.4 326.4C81.6 323.6 81 318.1 81 314.2C81 310.3 80.4 305.1 79.6 302.8C78.8 300.4 77.8 295.8 77.5 292.5C77.1 289.2 75.7 281.2 74.4 274.6C73.1 268.1 72 259.3 72 255.1C72 250.9 71.5 245.9 70.9 244C69.8 240.4 67.7 224.8 66.1 208.5C65.6 203.5 64.7 197 64.1 194C63.5 191 62.6 181.5 62 173C61.5 164.5 60.3 150.1 59.4 141C58.5 131.9 57.6 120 57.5 114.5C57.2 97.8 57.3 98.4 53.1 93.9C49.8 90.6 49 89 48.5 84.5C46.4 67.9 53.7 61.9 66.2 69.7ZM465.2 357.6C463.7 389.4 462.1 405.2 460 409.4C457.4 414.5 456.3 414 448.8 404.6C443.7 398.5 443.2 396.7 445.3 394.1C446.1 393.2 448.2 388.7 450 384C451.8 379.3 454.1 373.6 455.1 371.3C456.2 369 457 366.7 457 366.2C457 365.7 458.1 362.7 459.4 359.4C460.6 356.2 462 352.7 462.4 351.7C462.7 350.7 463.6 350 464.3 350.3C465.1 350.6 465.4 352.7 465.2 357.6ZM499.4 519.5C503.8 525.7 522.5 553.8 526.8 560.5C534.9 573.5 546 592.1 546 592.8C546 593.3 547.7 596.1 549.9 599.1C552 602.1 555.4 608.3 557.4 612.9C562.9 625.7 562.4 626.7 554.3 619C551.4 616.2 548.6 614 548.1 614C546.8 614 551.6 624.2 555.6 630C557.3 632.5 562.7 642.1 567.5 651.5C581.2 678 581.9 679.2 583.4 680.9C584.1 681.8 586.8 686.5 589.4 691.3C592 696.1 595.9 703.1 598.1 706.7C600.3 710.3 602.6 714.4 603.1 715.8C603.6 717.1 605.1 719.7 606.3 721.4C609.7 726.1 627.9 762 633 774C634.5 777.6 639.2 788.3 643.4 797.9C647.6 807.5 651 815.9 651 816.6C651 817.3 652.4 820.9 654 824.6C655.7 828.3 657 832.5 656.8 833.9C656.5 836.1 655.9 836.6 652.5 837C649 837.4 648.4 837.9 647.3 841C645.4 846.5 645.7 848.6 649.9 857.8C657.5 874.8 661.3 884.7 670.4 912C673.4 921.1 676.4 929.8 676.9 931.5C677.5 933.1 680 941 682.6 949C688.3 966.8 688.1 966.4 691.4 966.8C693.4 967.1 695 966.2 697.9 963.3C700 961.2 701.9 958.9 702.2 958.1C702.4 957.2 703.3 956.9 704.3 957.3C706.6 958.2 712.6 967.7 713.5 972C713.9 973.9 714.6 976.1 715.1 977C716.8 979.9 720 989.1 720 990.8C720 992.7 714.9 998 711.3 999.9C710.1 1000.5 706.9 1001 704.3 1001C700.1 1001 698.1 1001.8 689.5 1007.2C673.4 1017.1 673.2 1017.2 667 1016.4C664 1016 658.8 1014.4 655.6 1012.7L649.6 1009.7L645.3 1012C642.9 1013.3 639.5 1016.4 637.6 1019L634.2 1023.7L625.9 1024.2C614.8 1024.9 612.7 1024.2 611.7 1019.9C611.3 1018 610.4 1014.9 609.8 1013C609.2 1011.1 608.6 1007.3 608.5 1004.5C608.3 999.7 605.4 992 603.8 992C603.4 992 602.7 993.2 602.4 994.7C602 996.3 601 998.3 600.2 999.3C598.8 1000.8 598.9 1001.3 600.5 1004.4C602.5 1008.1 601.9 1011.3 599.3 1010.8C598.2 1010.6 596.9 1008.7 596 1006C595.1 1003.5 593.9 1000.5 593.2 999.3C590.9 995.2 588 984.5 588 980.2C588 977.8 587.5 975 586.9 973.8C586.3 972.7 584.7 967.2 583.3 961.7C581.9 956.1 580.5 951 580 950.5C579.6 949.9 579 947.7 578.7 945.5C578.3 943.3 577.2 939.7 576.2 937.6C574.3 933.8 574.3 933.8 573.8 936.3C573.5 937.7 573.9 940.6 574.7 942.7C575.5 944.8 576.5 950.9 577.1 956.4C577.6 961.8 578.9 968.9 580 972.1C581.1 975.3 582 979.8 582 982C582 984.2 582.7 987.7 583.5 989.7C585.8 995.1 585.5 1008.1 583.1 1011.1C581.3 1013.4 580.7 1013.5 570.5 1013.1C563.7 1012.9 556.6 1012 550.8 1010.5C539.8 1007.7 538.1 1006 538 998.3C538 991.8 537.3 990.1 534.3 988.9C528.6 986.7 516.9 995.7 512.4 1005.8C509.1 1013 509.1 1023.3 512.3 1027.2C514.1 1029.4 515.5 1029.9 520.5 1030.3C523.8 1030.5 532.8 1032.2 540.5 1034C550.2 1036.3 556.5 1037.3 561 1037.1C568.5 1036.9 572.4 1038 574 1040.9C575.5 1043.7 573.2 1047 567 1051C563 1053.6 560.3 1054.3 550.9 1055.6C544.6 1056.4 537.9 1056.9 535.8 1056.6C533.8 1056.3 527.8 1056.9 522.3 1057.9C516.9 1059 510.3 1060.2 507.5 1060.6C504.8 1060.9 501.9 1061.7 501.3 1062.2C499.5 1063.7 499.7 1067 501.7 1069.3C503.4 1071.1 503.4 1071.3 501.1 1073.1C499.8 1074.1 498.2 1075 497.6 1075C495.9 1075 491.8 1079.5 492.7 1080.3C494.2 1081.9 500.7 1080.7 511.7 1076.9C518.2 1074.7 524.3 1072.6 525.3 1072.3C526.3 1072 528 1072.6 529 1073.5C530.8 1075.1 531.6 1075.2 536.8 1074.1C539.9 1073.4 545.2 1072.5 548.5 1072C551.8 1071.5 556.3 1070.6 558.5 1070.1C565.6 1068.2 569.1 1068.7 572.5 1072C574.1 1073.6 577.3 1075.3 579.5 1075.8L583.5 1076.7L580.5 1077.4C578.9 1077.9 576.1 1078.8 574.4 1079.6C572.7 1080.3 568.1 1081.3 564.1 1081.6C556.5 1082.3 555 1083.4 560.3 1084.4C565.1 1085.4 561.8 1087 554.8 1087C550.4 1087 548.8 1086.6 547.8 1085.2C547 1084.1 544.7 1083.1 542 1082.7C537.8 1082.2 500.7 1084.3 491.3 1085.6C487.2 1086.2 485.5 1085 488 1083.5C489.7 1082.4 489.1 1080.2 486.8 1079.4C485 1078.9 484 1079.5 481.5 1082.4C478.8 1085.6 477.9 1086.1 474.9 1085.8C471.8 1085.5 471.4 1085.1 470.4 1081C469.2 1075.9 467.1 1028.5 467.6 1017C468.6 993.9 469.9 919.9 469.8 891.5C469.5 823.7 471.1 740.4 473 726.5C473.5 722.1 473.8 716.9 473.5 714.9C473.1 712.9 473.4 707.5 474 702.9C474.6 698.3 475.3 686.2 475.5 676C475.7 665.8 476.3 653.4 476.9 648.5C477.5 643.5 478.4 632.7 479 624.5C479.6 616.2 480.3 608.9 480.5 608.2C481.3 605.8 484.9 606.9 486.6 610.2C489.2 615.2 494.1 629 494.9 633.5C495.3 635.7 496.1 638.4 496.7 639.5C497.3 640.6 498.1 644.4 498.4 648C499.2 655.2 501.3 660.7 505.9 667.4C508.2 670.7 509 673 509 676.1C509 680.2 512.5 692.5 514.1 694.4C515.3 695.8 520 693.4 520 691.4C520 690.5 518.9 686 517.4 681.4C515.3 674.3 515 672.3 515.8 668C516.8 662.6 516.4 659.6 513.5 652C512.6 649.5 510.8 642.1 509.4 635.5C508 628.9 506.2 621.1 505.3 618.2C504.5 615.2 503.4 610.5 503 607.7C502.6 604.8 501.5 599.3 500.5 595.5C499.6 591.6 498 584.4 496.9 579.5C494.8 569.9 492.6 561.3 490.4 554C489.7 551.5 488.6 541.3 488 531.2C486.9 514.1 486.9 512.7 488.6 510.9C490.4 508.9 490.4 508.9 493.1 511.7C494.6 513.2 497.5 516.7 499.4 519.5ZM462.6 596.5C464.5 601.1 464.4 604.9 462.3 607.2C460.7 609 460.7 609.3 462.3 612C463.9 614.6 464 616.3 463.2 625.7C462.7 631.7 462.5 638.5 462.8 640.8C463 643.2 462.8 645.6 462.3 646.1C461.7 646.7 461.9 649.5 462.7 653.5C463.8 659 463.8 660.8 462.5 666.2C460.6 674.3 460.6 677.9 462.6 682.5C464.1 686.1 464 686.7 462 693.1L459.8 699.9L461.8 703.9C463.7 707.5 463.8 708.3 462.6 711.2C461.9 713 460.9 719.4 460.5 725.5C460.1 731.5 459.6 738.1 459.4 740C459.2 741.9 458.8 753.8 458.5 766.5C458.1 783.8 457.6 790.8 456.4 794.7C455.2 798.4 455 801.1 455.5 803.7C456.8 810.1 456.5 813.5 454.1 816.7C451.9 819.6 451.8 820.6 452.1 832.2C452.9 861.3 451.7 925 450.4 927.2C450 927.8 449.5 934.4 449.3 941.9C448.5 969.7 446.4 1000.1 444.9 1006.7C444.2 1009.5 444 1014.2 444.3 1017C444.7 1019.9 444.5 1024.3 444 1026.8C442 1037.7 440.8 1047.1 440.4 1055.5C440.2 1060.4 439.4 1067.6 438.7 1071.5C437.6 1077.5 437 1078.7 434.7 1079.8C433.2 1080.5 431.5 1080.8 431 1080.5C430.4 1080.2 430 1075.1 429.9 1069.2C429.9 1063.3 429.5 1053.8 429 1048C428.5 1041.3 428.7 1027.6 429.5 1010C430.2 994.9 430.8 979.8 430.8 976.5C430.7 973.2 431.2 964.6 431.9 957.5C432.5 950.3 433.2 937.9 433.5 929.7C433.7 921.6 434.2 914.4 434.6 913.8C435 913.1 435.7 906.5 436.1 899C436.5 891.6 437.4 881.4 438.1 876.5C438.7 871.5 439.4 863.9 439.5 859.5C439.7 855.1 440.3 849.9 440.9 848C442.4 843.4 442.4 815.3 440.9 814.5C438.9 813.2 441.2 779.2 443.8 771.2C444.4 769.4 444.6 766.4 444.3 764.5C444 762.6 444.3 758.3 444.9 754.8C447.9 737.9 449 719.5 449 681.6C449 667.9 449.3 664.2 450.5 662.3C451.4 661 452 659.1 451.9 658.2C451.6 654.7 452 652.9 453 653.5C454.3 654.3 457 652.2 457 650.5C457 649.7 456.2 649 455.3 648.8C453.7 648.5 453.5 647.5 453.8 641.5C454.1 635.7 454.5 634.2 456.3 632.8C458.3 631.2 458.4 630.9 457.1 627.8C456.3 626 455.8 623.6 455.9 622.5C456 621.4 456.3 617 456.6 612.6C457.1 605.9 457.5 604.7 459.1 604.3C460.8 603.8 461 603.2 460.4 600.6C459.7 597.2 459.7 597.2 459.9 594.7C460.1 592.1 461 592.6 462.6 596.5ZM238.8 842.8C239.1 843.7 238.6 844.1 237.4 843.8C236.5 843.7 235.5 842.9 235.2 842.2C234.9 841.3 235.4 840.9 236.6 841.2C237.5 841.3 238.5 842.1 238.8 842.8ZM259.6 914.7C260.7 916.3 261.5 919.4 261.5 922.1C261.6 925.3 262.4 927.7 264.2 930.1C266.5 933.2 269 941.5 273.6 961.5C275 968 275.4 974 274.3 974C272.7 974 270 970.5 270 968.4C270 967.1 269.4 964.3 268.6 962.3C267.8 960.2 266.4 955.2 265.4 951.3C264.5 947.3 263.1 943.5 262.4 942.9C261.6 942.3 261 940 261 938C261 935 260.4 933.7 258.4 932.3C255 929.8 252.5 920.1 254.1 915.2C255.4 911.3 257.2 911.1 259.6 914.7ZM397.7 1039.7C397.5 1041.3 397.3 1040.2 397.3 1037.5C397.3 1034.7 397.5 1033.5 397.7 1034.7C397.9 1036 397.9 1038.2 397.7 1039.7ZM463.1 1035.7C464.1 1038.4 463.4 1047.7 462 1050C460.4 1052.6 459 1049.7 459 1043.7C459 1033.6 460.9 1029.9 463.1 1035.7ZM653.7 1037.7C654.5 1040.1 648.9 1042.5 642.8 1042.4C635.5 1042.3 633.5 1040.7 636.9 1037.9C638.9 1036.3 640.6 1036 646.3 1036.2C650.6 1036.4 653.5 1037 653.7 1037.7ZM317.7 1043.7C318 1044.7 319.8 1047.7 321.5 1050.5C323.3 1053.2 326.9 1059.3 329.6 1064C332.3 1068.7 336.1 1074.9 338.2 1077.9C340.3 1080.9 342 1083.7 342 1084.1C342 1084.6 343.1 1086.6 344.5 1088.6C348.2 1094 347.8 1094.6 340.9 1095.4C337.5 1095.7 334.1 1096.5 333.4 1097.1C332.7 1097.7 331.1 1098 329.9 1097.8C327 1097.4 321 1082.8 321 1076.1C321 1073.5 320.1 1068.8 318.9 1065.6C317.8 1062.4 316.7 1057.2 316.5 1054.1C316.3 1051 315.8 1047 315.4 1045.2C314.7 1041.8 316.5 1040.5 317.7 1043.7ZM617 1044.8C617 1046.6 611.4 1050 608.4 1050C605.3 1050 607.3 1045.8 611 1044.5C616 1042.7 617 1042.8 617 1044.8ZM591 1052C591 1052.5 590.3 1053 589.5 1053C588.7 1053 588 1052.5 588 1052C588 1051.4 588.7 1051 589.5 1051C590.3 1051 591 1051.4 591 1052ZM668.5 1054.5C671.4 1057.4 671.6 1059.1 669.3 1061.2C667.7 1062.5 666.1 1062.6 657.2 1061.6C649 1060.7 646.2 1060.7 643.8 1061.7C642.1 1062.4 639.9 1063 638.9 1063C636 1063 633 1066.6 633 1070.1C633 1074.7 631.4 1077 628.1 1077C624.8 1077 624 1075.6 624 1069.6C624 1062.7 628.2 1057.8 635.8 1055.7C639.2 1054.8 644.3 1054 647.2 1053.9C650.1 1053.9 654.8 1053.5 657.5 1053C665.5 1051.8 666 1051.9 668.5 1054.5ZM657.4 1076.2C657.7 1077.9 658.7 1080.1 659.6 1081.1C660.9 1082.6 660.9 1082.8 659.6 1083.3C658.8 1083.6 657.2 1085.7 656.1 1087.9C653.7 1092.5 649.6 1096 646.6 1096C645.4 1096 643.5 1096.6 642.4 1097.4C640.7 1098.7 640.3 1098.6 638.8 1097.3C636.7 1095.4 636.5 1091.2 638.4 1088.8C639.1 1087.8 641.1 1086.7 642.9 1086.4C645.9 1085.8 647.3 1084 644.8 1084C644.1 1084 644.7 1083 646.3 1081.9C647.8 1080.8 649 1079.1 649 1078.2C649 1075.9 652 1073 654.5 1073C656.2 1073 656.9 1073.8 657.4 1076.2ZM439 1087.5C439 1089.2 436.2 1090.2 433.8 1089.4C431.9 1088.8 431.9 1088.7 434.1 1086.4C435.8 1084.6 436.6 1084.3 437.7 1085.1C438.4 1085.7 439 1086.8 439 1087.5ZM600.9 1084.9C603.4 1086.5 600.2 1087.1 589.7 1087.1C584.1 1087.1 577.7 1087.5 575.5 1087.9C569.6 1089 562.5 1086.1 567.8 1084.7C571 1083.8 599.5 1084 600.9 1084.9ZM726 1093.8C726 1100.6 723.8 1107.8 720.1 1113.5C718.6 1115.7 716.9 1118.7 716.3 1120.2C715 1123 710.4 1126.7 709.4 1125.7C708.3 1124.6 710.8 1119.3 715.4 1113C719.3 1107.7 720 1106.1 720 1102C720 1097.2 723.3 1088 725 1088C725.6 1088 726 1090.6 726 1093.8ZM561.4 1101.5C564.7 1102.6 566.5 1102.8 568.6 1102C570.1 1101.4 575.9 1101 581.4 1101C587 1101.1 593.1 1101 595 1100.9C599.8 1100.5 611.5 1101.6 613.4 1102.7C615.4 1103.8 619.6 1110.1 620.4 1113.3C620.9 1115.3 620.5 1116.8 619 1118.8L617 1121.5L604 1121.4L590.9 1121.3L587.6 1118.1C584.5 1115.1 584 1114.9 574.1 1114.5L563.9 1114L562.2 1117C560.5 1119.9 560.3 1120 553.1 1120C545.2 1120 534.3 1121.6 532 1123C530.8 1123.7 530.8 1124.2 531.8 1125.2C533.1 1126.5 539.9 1127 562.5 1127.4C575.4 1127.6 598.9 1129.6 599.8 1130.5C600.9 1131.5 596.7 1131.9 581 1132.2C567.3 1132.5 563.8 1132.9 560.5 1134.5L556.5 1136.4L564 1137.1C568.1 1137.5 574.7 1138.3 578.5 1138.8C582.4 1139.3 589 1139.5 593.2 1139.2C597.4 1139 601.7 1139 602.6 1139.4C606.9 1141.1 600.9 1142.1 580.9 1143C569.2 1143.6 556.8 1144.5 553.5 1145C548.3 1145.9 518.3 1146.7 457.5 1147.4C448.7 1147.5 433 1148.1 422.5 1148.7C400.9 1149.9 390.6 1149.3 390.4 1147C390.2 1143.7 389.9 1143.2 388.3 1142.5C385 1141.2 363.5 1137.1 359.6 1137C357.2 1137 352.7 1135.5 347.1 1132.8C339.3 1128.9 337.8 1128.5 331.3 1128.6C322.3 1128.6 318.7 1130.9 314.7 1139C312.3 1143.8 312 1145.1 312.9 1146.9C313.6 1148 315.1 1149 316.3 1149.1C317.5 1149.1 320.1 1149.8 322 1150.6C325.3 1151.9 324.8 1152 315.5 1151.4C309.1 1151.1 304.7 1150.3 303.2 1149.4C301.1 1148 300.6 1148 298.9 1149.6C297.9 1150.5 297 1152.1 297 1153.2C297 1154.2 296.6 1155 296.1 1155C295.6 1155 294.9 1152.6 294.6 1149.7C294.3 1146.9 293.7 1140.7 293.2 1136C292.7 1131.3 292.7 1126.4 293.2 1125C293.6 1123.6 294.1 1120.9 294.3 1119C294.6 1114.9 294.9 1114.8 316 1113.1C358.6 1109.8 362.5 1109.6 394.5 1109C404.3 1108.9 448.6 1106.5 479 1104.5C518.7 1101.9 535.4 1101.1 539.5 1101.6C541.7 1101.9 545.5 1101.7 548 1101.2C554.6 1099.8 556.4 1099.8 561.4 1101.5ZM655.5 1101.9C663.2 1101.7 674 1101.5 679.5 1101.5H689.5L689.2 1105.8C689.1 1108.2 688.1 1111.9 687 1114.1C685.4 1117.2 684.2 1118.1 680.7 1119C678.4 1119.6 674.3 1120.8 671.6 1121.6C668.4 1122.5 661.9 1123 653.5 1123C640.6 1123 640.3 1123 639.2 1120.6C638.6 1119.3 636.3 1117.2 634.1 1116C631.9 1114.7 629.6 1112.4 629 1110.9C628.3 1109.3 627.2 1107.5 626.4 1106.9C621.8 1103.1 628 1099.7 636.5 1101.4C639.3 1101.9 647.8 1102.2 655.5 1101.9ZM714.8 1143.6C717.8 1144.5 717.6 1146.8 714.3 1148.1C709.9 1149.8 696.3 1152.2 693 1151.8L690.1 1151.5L695.1 1147.2C699.9 1143.3 700.6 1143 706.4 1143C709.7 1143 713.5 1143.3 714.8 1143.6ZM666.5 1151C668.4 1151.7 668.3 1151.8 665.8 1152.5C662.4 1153.4 658.1 1152.2 660.1 1150.9C661.8 1149.8 663.8 1149.9 666.5 1151Z" fill="white"/>
<path d="M570.5 920C569.6 921.4 570.8 927.7 572 928.5C572.6 928.9 573 927.2 573 924.6C573 920.2 571.8 917.9 570.5 920Z" fill="white"/>
<path d="M597.6 972.5C597.2 973.5 597.6 976.4 598.4 978.9C599.3 981.4 600.2 984.7 600.5 986.2C601.5 991.2 603 989.1 603 982.7C603 977.7 602.5 975.9 600.7 973.6C598.6 971 598.3 970.9 597.6 972.5Z" fill="white"/>
<path d="M453.6 681.7C452.5 682.8 453 684 454.5 684C455.3 684 456 683.6 456 683.1C456 681.8 454.4 680.9 453.6 681.7Z" fill="white"/>
<path d="M453.7 688.7C452.6 689.8 452.9 699.2 454 698.5C454.6 698.2 455 697 455 695.9C455 694.9 455.9 693.1 457 692C458.1 690.9 459 689.5 459 689C459 687.9 454.7 687.6 453.7 688.7Z" fill="white"/>
<path d="M450.5 734.4C450.1 736.8 450.2 739.6 450.8 740.6C451.7 742.2 451.8 742.2 452.9 740.1C454.1 737.9 453.5 731.4 452 730.5C451.5 730.2 450.8 732 450.5 734.4Z" fill="white"/>
<path d="M453.3 777.6C453 778.4 453.2 779.6 453.9 780.3C454.7 781.1 455 780.7 455 778.7C455 775.7 454.3 775.2 453.3 777.6Z" fill="white"/>
<path d="M70.2 394C70.2 395.9 70.4 396.7 70.7 395.7C70.9 394.8 70.9 393.2 70.7 392.2C70.4 391.3 70.2 392.1 70.2 394Z" fill="white"/>
</svg>
