<svg width="4491" height="1196" viewBox="0 0 4491 1196" fill="none" xmlns="http://www.w3.org/2000/svg">
<path d="M581.316 210.837C570.173 219.875 545.175 224.124 531.265 226.936C531.008 226.989 530.752 227.043 530.495 227.096C527.237 227.737 524.2 228.577 520.609 229.596C512.059 232.056 500.617 235.25 475.446 239.84C468.52 242.42 461.656 244.967 454.712 247.516C405.782 265.486 356.379 284.067 307.022 303.633C284.034 312.532 262.149 323.172 241.502 336.065C240.816 336.621 240.13 337.184 239.428 337.763C225.698 348.935 210.505 364.208 199.604 372.724C185.652 383.499 176.195 391.45 168.388 398.161C138.665 432.004 116.713 471.866 97.4628 519.26C92.802 529.942 89.3971 541.302 87.2829 553.176C84.3195 569.762 83.9018 587.335 85.7196 605.191C87.3875 621.635 90.8556 638.319 95.6743 654.91C99.5756 664.284 103.97 673.014 108.259 681.022C114.289 692.282 120.106 702.139 124.218 710.597C133.761 730.317 142.711 754.044 150.098 772.412C150.302 772.939 150.505 773.46 150.707 773.973C151.754 776.635 152.766 779.093 153.763 781.372C161.119 792.959 169.33 803.56 178.418 813.216C178.579 814.226 178.735 815.256 178.9 816.309C181.047 829.435 191.013 840.418 209.435 854.896C217.512 861.198 227.292 868.15 239.369 876.25C247.142 881.439 250.035 886.18 252.482 890.127C253.201 891.284 253.857 892.35 254.608 893.332C257.188 896.697 261.697 897.062 267.001 897.402C273.905 897.851 282.036 898.211 289.827 905.283C314.946 927.76 331.573 927.025 343.397 926.504C345.315 926.418 347.143 926.337 348.909 926.349L340.346 923.925C341.806 923.64 343.231 923.428 344.65 923.339C354.74 922.706 368.144 927.365 378.1 932.262C385.989 936.155 403.046 936.313 416.158 935.046C421.118 934.571 427.576 935.517 435.194 936.613C443.075 937.747 452.204 939.042 462.16 939.062C487.319 939.101 500.667 939.132 511.398 939.179C514.458 939.19 517.305 939.206 520.154 939.203C529.153 939.197 540.261 939.634 551.512 940.038C564.977 940.525 578.645 940.958 589.126 940.6C591.526 941.024 593.924 941.449 596.32 941.876L588.88 941.482C609.03 942.779 635.467 942.534 660.657 943.247C675.06 943.606 689.193 949.04 699.579 958.538C709.951 968.042 715.724 980.704 715.904 993.872C716.06 1007.05 710.697 1019.81 701.308 1029.79C691.866 1039.76 679.171 1046.11 665.628 1047.81C641.409 1050.69 618.241 1054.61 589.693 1056.62C588.42 1056.51 584.612 1056.54 583.36 1056.28C579.931 1056.11 576.489 1055.92 573.059 1055.73C538.491 1053.8 503.937 1050.92 469.562 1046.26C445.517 1043 421.51 1039.23 397.555 1034.97C395.09 1034.54 392.622 1034.09 390.157 1033.64C369.463 1033.71 348.791 1033.26 334.374 1031.84C329.609 1031.37 325.417 1030.56 321.663 1029.59C319.156 1028.91 311.737 1027.29 309.417 1026.12C303.972 1023.48 299.78 1020.73 295.79 1018.14C291.255 1015.18 287.352 1012.57 282.876 1010.83C280.48 1009.89 277.27 1008.74 273.241 1007.24C257.056 1001.28 229.236 990.335 206.258 973.71C196.078 966.384 184.987 956.442 174.835 946.361C160.197 931.966 147.892 917.269 139.987 911.674C125.978 901.931 113.226 886.458 103.497 872.03C94.1172 858.271 87.3205 845.656 81.1756 839.869C74.0234 833.108 70.7351 825.429 66.8099 814.311C66.7232 814.051 66.6358 813.789 66.5475 813.524C64.1152 806.223 61.1318 797.23 56.1301 785.365C50.3642 771.651 47.7913 761.183 45.7097 752.273C42.8121 739.717 40.8312 730.341 33.0692 717.87C24.4497 704.001 17.3114 688.247 14.911 674.849C13.8077 668.761 12.0115 661.914 10.3358 654.683C8.11059 645.121 6.12352 634.842 6.04562 625.182C5.97786 617.22 7.88581 610.441 9.7051 604.555C10.2732 602.718 10.8303 600.964 11.3225 599.272C10.917 593.058 10.6786 586.804 10.6159 580.516C10.2063 579.498 9.7581 578.42 9.30251 577.29C7.0211 571.625 4.35896 564.444 3.71459 555.441C2.72445 541.176 6.27252 528.778 10.9044 516.337C13.9402 508.215 17.444 500.059 20.915 490.845C21.4639 489.397 22.0063 487.851 22.5393 486.198C24.6801 479.529 26.5611 471.419 28.6183 463.244C31.6174 451.194 35.0862 439.009 39.529 431.427C41.1885 428.587 43.7983 426.732 46.4298 424.854C46.4439 424.847 46.4579 424.84 46.472 424.833C46.6505 424.706 46.8271 424.577 47.0052 424.449C54.8069 404.759 63.8169 385.126 74.2719 366.014C74.947 364.18 75.6239 362.377 76.3163 360.582C79.7295 351.749 83.3989 343.254 84.7443 336.857C86.1782 329.91 94.7001 315.759 104.946 301.497C111.617 292.141 119.023 282.695 124.816 274.797C128.271 270.105 133.324 267.637 138.577 265.188C143.528 262.861 148.462 260.717 152.63 256.69C154.726 254.667 156.679 252.17 158.795 249.529C160.663 247.199 162.681 244.736 165.027 242.401C167.196 240.243 173.028 236.914 180.752 232.856C185.424 230.417 190.898 227.645 196.498 224.786C209.86 214.856 223.629 205.769 238.015 197.368C240.383 194.526 242.217 191.51 243.301 188.286C244.079 185.973 244.502 183.465 244.964 180.893C245.343 178.783 245.746 176.627 246.391 174.494C246.713 173.139 247.123 171.8 247.678 170.499C248.771 167.936 250.675 166.233 252.485 166.242C253.328 166.247 254.144 166.616 254.883 166.949C255.729 167.33 256.483 167.669 257.076 167.376C257.502 167.163 257.743 166.503 258.044 165.701C258.525 164.421 259.156 162.763 260.884 161.921C267.361 158.764 275.023 155.724 282.46 152.835C290.883 149.551 298.874 146.515 305.214 143.371C312.21 139.892 323.181 137.222 334.134 134.677C341.771 132.901 349.536 131.121 355.843 129.158C362.17 127.175 368.086 123.742 373.871 120.427C380.926 116.405 387.497 112.673 394.26 111.873C395.612 111.719 397.845 113.022 400.628 114.661C402.601 115.823 404.859 117.152 407.266 118.261C415.02 115.415 422.74 112.733 430.63 110.134C430.816 109.782 431.01 109.422 431.201 109.056C431.204 109.048 431.206 109.04 431.208 109.032C435.481 100.799 441.629 89.4556 455.711 90.3087C459.338 90.5117 462.098 92.1851 464.574 93.6949C467.005 95.1786 469.167 96.5129 471.584 96.1718C474.292 95.7955 477.088 93.5287 480.055 91.1036C484.229 87.6958 488.91 83.9137 494.949 84.3213C495.359 84.3499 495.8 84.3839 496.256 84.4138C500.566 84.7024 507.002 85.1392 513.984 87.8084C531.414 84.1534 549.029 81.0649 566.847 78.5769C596.523 74.4593 626.827 71.8816 657.873 71.7882C672.991 71.7479 688.206 77.1752 698.813 86.9157C709.441 96.6589 714.452 109.588 713.61 122.464C712.882 135.382 707.076 147.482 698.787 157.2C690.388 166.895 679.666 173.423 667.82 175.994C648.47 180.149 628.728 185.7 609.113 191.884C608.115 192.363 607.107 192.838 606.097 193.299C598.614 196.722 592.106 201.93 585.764 207.194C584.292 208.407 582.808 209.63 581.316 210.837Z" fill="white"/>
<path d="M338.882 100.432C345.179 109.804 342.83 128.027 341.532 137.936C341.511 138.122 341.49 138.307 341.469 138.493C341.162 140.92 341.097 143.165 341.028 145.735C340.862 151.966 340.639 160.596 336.839 178.158C337.03 183.482 337.149 188.281 337.192 193.574C337.287 205.134 337.153 216.614 336.831 228.446C335.607 272.172 331.675 316.147 327.086 359.945C327.122 360.649 327.16 361.365 327.197 362.089C327.928 375.961 328.829 393.225 326.636 404.054C323.849 417.924 321.239 427.162 318.984 434.944C314.287 478.91 310.098 523.04 308.488 567.04C307.983 580.847 307.736 594.637 307.801 608.44C307.861 621.144 308.115 633.863 308.54 646.554C309.92 653.913 311.551 661.001 313.062 667.5C315.185 676.612 317.069 684.839 317.699 691.555C319.218 707.776 316.986 726.23 315.323 739.921C315.051 742.151 314.794 744.252 314.572 746.191C315.452 757.178 316.389 767.846 317.343 778.84C316.83 779.569 316.296 780.302 315.747 781.047C308.905 790.271 309.023 801.76 309.186 819.686C309.257 827.56 309.333 836.505 308.851 847.253C308.54 854.101 305.821 857.573 303.603 860.526C302.95 861.384 302.34 862.186 301.847 862.997C300.159 865.776 301.989 868.685 304.15 872.09C306.953 876.415 310.32 881.985 307.283 889.001C297.604 911.539 304.157 921.525 309.117 928.973C309.957 930.229 310.75 931.411 311.41 932.568C311.893 933.46 312.306 934.337 312.613 935.219C314.973 942.016 312.604 951.236 309.357 958.503C306.784 964.015 309.279 975.52 312.464 984.09C313.668 987.435 313.678 991.703 313.678 996.908C313.677 1002.44 313.668 1008.36 314.988 1015.19C318.324 1032.01 319.907 1040.92 321.173 1048.15C321.533 1050.23 321.86 1052.14 322.202 1054.01C323.281 1060.08 324.132 1067.66 324.978 1075.13C325.988 1084.32 326.989 1093.58 328.402 1100.58C326.424 1118.74 323.912 1137.19 321.355 1155.11C320.034 1164.3 313.891 1172.76 304.024 1178.92C294.147 1185.08 281.398 1188.53 268.223 1188.38C255.052 1188.2 242.38 1184.34 232.768 1177.46C223.163 1170.59 217.496 1161.31 216.72 1152.05C215.186 1133.37 213.571 1115.01 212.245 1096.52C210.635 1074.08 209.506 1051.44 209.699 1028.93C209.834 1013.15 210.246 997.257 210.881 981.437C210.947 979.737 211.017 978.229 211.087 976.602C207.899 963.223 204.983 949.86 203.949 940.677C203.616 937.662 203.678 934.923 203.964 932.404C204.413 928.658 205.413 925.435 206.32 922.481C207.343 919.172 208.247 916.085 208.105 913.17C208.029 911.602 207.831 909.45 207.591 906.826C206.615 895.928 204.946 877.777 208.094 861.116C209.491 853.578 212.249 845.244 214.879 836.874C218.64 825.287 222.14 814.078 221.046 808.698C219.124 799.039 220.706 787.856 222.105 778.042C223.438 768.556 224.601 760.488 222.392 755.792C219.752 750.206 220.806 745.425 222.366 738.39C223.449 733.513 224.769 727.398 225.28 719.267C225.87 709.87 227.682 703.107 229.223 697.445C231.392 689.481 233.022 683.438 229.944 674.475C226.524 664.583 224.329 654.109 225.361 645.951C225.831 642.222 225.694 637.954 225.55 633.507C225.36 627.608 225.162 621.446 226.348 615.79C227.327 611.131 229.866 607.269 232.113 603.851C232.814 602.785 233.483 601.764 234.071 600.774C234.021 597.069 233.955 593.362 233.861 589.656C233.447 589.058 232.988 588.429 232.514 587.772C230.137 584.478 227.222 580.431 225.754 575.405C223.431 567.449 224.825 560.463 226.304 553.085C227.456 547.332 228.658 541.351 228.18 534.519C227.853 529.875 226.779 524.531 225.715 519.273C224.134 511.458 222.578 503.76 223.51 498.364C223.859 496.348 225.456 494.609 227.044 492.89C227.053 492.883 227.063 492.875 227.073 492.867C227.181 492.751 227.286 492.633 227.393 492.517C226.096 479.511 224.671 466.379 223.173 453.32C222.753 452.185 222.339 451.04 221.932 449.906C219.94 444.363 218.005 439.01 215.283 435.539C212.331 431.73 210.57 422.106 208.713 412.125C207.496 405.466 206.239 398.643 204.58 393.118C203.611 389.912 205.245 386.763 206.931 383.558C208.504 380.565 210.119 377.505 209.693 374.191C209.48 372.531 208.783 370.746 208.038 368.847C207.381 367.194 206.686 365.362 206.254 363.481C205.855 361.729 206.731 357.817 207.844 352.859C208.533 349.772 209.311 346.405 209.944 342.646C208.847 332.856 207.794 323.35 206.806 313.568C205.342 311.56 203.446 309.831 201.019 308.473C199.277 307.499 197.198 306.675 195.072 305.831C192.18 304.69 189.19 303.484 186.801 301.781C184.935 300.455 184.184 298.888 184.947 297.83C185.304 297.337 185.979 296.957 186.589 296.611C187.289 296.216 187.91 295.863 187.89 295.438C187.873 295.132 187.374 294.817 186.769 294.43C185.803 293.812 184.557 293.008 184.504 291.778C184.308 287.225 184.667 282.005 185.022 276.82C185.416 271.056 185.8 265.746 185.395 261.143C184.942 256.034 186.738 249.304 188.523 241.965C189.608 237.603 190.688 233.323 191.274 229.572C191.361 228.982 191.437 228.405 191.501 227.842C191.982 223.582 190.927 219.252 189.898 215.148C188.662 210.183 187.466 205.15 189.053 201.12C189.375 200.297 191.368 199.265 193.862 197.981C195.629 197.081 197.649 195.935 199.509 194.702C199.465 189.293 199.506 184.418 199.612 178.955C199.339 178.77 199.061 178.579 198.777 178.389C198.771 178.386 198.764 178.383 198.758 178.38C192.352 174.076 183.592 168.369 188.715 159.994C190.018 157.896 192.447 156.617 194.632 155.397C196.778 154.173 198.698 153.084 199.089 151.531C199.533 149.768 198.19 147.727 196.73 145.545C194.681 142.57 192.386 138.814 194.457 135.36C194.599 135.12 194.754 134.864 194.909 134.597C196.382 132.166 198.557 128.146 202.975 124.408C204.054 113.202 205.332 102.087 206.725 90.9212C209.047 72.3774 211.704 53.6471 214.254 35.2335C215.511 26.3044 221.374 17.625 230.899 11.0501C240.436 4.45528 252.806 0.428977 265.728 0.0315163C278.645 -0.364238 291.247 2.79488 301.155 9.04822C311.05 15.2858 317.326 24.166 318.915 33.2866C321.483 48.274 323.976 63.1513 326.271 77.9274C326.549 78.6971 326.818 79.4787 327.071 80.2655C328.951 86.0484 332.65 91.4017 336.351 96.6965C337.201 97.9209 338.054 99.2426 338.882 100.432Z" fill="white"/>
<path d="M2871.21 242.304C2860.39 251.266 2836 255.346 2822.42 258.055C2822.17 258.106 2821.92 258.158 2821.67 258.21C2818.49 258.827 2815.53 259.644 2812.03 260.636C2803.69 263.029 2792.53 266.137 2767.94 270.523C2761.19 273.043 2754.49 275.53 2747.72 278.017C2699.98 295.548 2651.75 313.63 2603.55 332.655C2581.17 341.268 2559.86 351.565 2539.75 364.054C2539.09 364.596 2538.42 365.144 2537.74 365.708C2524.4 376.586 2509.65 391.445 2499 399.682C2485.38 410.103 2476.12 417.792 2468.47 424.286C2439.47 457.165 2418 495.916 2399.15 542.186C2394.61 552.544 2391.29 563.566 2389.23 575.097C2386.33 591.203 2385.92 608.289 2387.68 625.664C2389.31 641.664 2392.69 657.91 2397.39 674.07C2401.23 683.193 2405.55 691.687 2409.76 699.479C2415.69 710.434 2421.4 720.025 2425.43 728.264C2434.76 747.473 2443.44 770.636 2450.61 788.581C2450.81 789.095 2451.01 789.601 2451.2 790.101C2452.21 792.693 2453.19 795.086 2454.16 797.305C2461.33 808.558 2469.33 818.841 2478.17 828.202C2478.32 829.192 2478.46 830.203 2478.61 831.236C2480.54 844.114 2490.24 854.799 2508.17 868.885C2516.03 875.017 2525.55 881.784 2537.31 889.686C2544.88 894.748 2547.66 899.43 2550.02 903.326C2550.72 904.468 2551.35 905.521 2552.07 906.489C2554.57 909.807 2558.99 910.123 2564.19 910.408C2570.95 910.784 2578.92 911.06 2586.48 918.025C2610.89 940.166 2627.19 939.308 2638.77 938.688C2640.65 938.586 2642.44 938.49 2644.17 938.488L2635.6 936.064C2637.03 935.773 2638.42 935.556 2639.81 935.461C2649.67 934.788 2662.75 939.391 2672.46 944.248C2680.15 948.109 2696.82 948.204 2709.63 946.892C2714.48 946.399 2720.78 947.323 2728.22 948.392C2735.92 949.499 2744.83 950.762 2754.56 950.75C2779.14 950.707 2792.18 950.699 2802.66 950.714C2805.65 950.716 2808.43 950.722 2811.21 950.712C2820 950.678 2830.85 951.083 2841.84 951.456C2854.99 951.904 2868.34 952.3 2878.58 951.914C2880.92 952.332 2883.26 952.75 2885.6 953.17L2878.16 952.777C2897.74 954.082 2923.6 953.885 2948.22 954.624C2962.29 954.998 2976.12 960.443 2986.27 969.946C2996.42 979.456 3002.06 992.119 3002.24 1005.29C3002.4 1018.46 2997.16 1031.22 2988 1041.2C2978.79 1051.16 2966.41 1057.5 2953.19 1059.19C2929.54 1062.04 2906.95 1065.91 2878.98 1067.91C2877.7 1067.8 2873.89 1067.83 2872.64 1067.58C2869.29 1067.41 2865.93 1067.24 2862.58 1067.05C2828.8 1065.21 2795.04 1062.44 2761.45 1057.88C2737.96 1054.69 2714.51 1051 2691.1 1046.83C2688.69 1046.4 2686.28 1045.96 2683.88 1045.53C2663.64 1045.66 2643.43 1045.3 2629.34 1043.93C2624.68 1043.47 2620.59 1042.69 2616.92 1041.73C2614.41 1041.05 2606.99 1039.43 2604.67 1038.26C2599.35 1035.67 2595.26 1032.96 2591.37 1030.41C2586.94 1027.49 2583.13 1024.92 2578.75 1023.22C2576.41 1022.31 2573.27 1021.18 2569.33 1019.73C2553.49 1013.92 2526.25 1003.24 2503.78 986.9C2493.83 979.702 2483 969.916 2473.08 959.997C2458.79 945.832 2446.78 931.379 2439.02 925.914C2425.27 916.395 2412.79 901.204 2403.28 887.045C2394.1 873.542 2387.46 861.169 2381.4 855.521C2374.35 848.923 2371.14 841.386 2367.33 830.481C2367.24 830.226 2367.16 829.969 2367.07 829.71C2364.72 822.562 2361.83 813.759 2356.95 802.153C2351.32 788.739 2348.85 778.486 2346.84 769.76C2344.05 757.463 2342.15 748.283 2334.5 736.107C2326 722.567 2318.97 707.161 2316.64 694.042C2315.57 688.08 2313.81 681.379 2312.16 674.301C2309.98 664.94 2308.03 654.875 2307.98 645.412C2307.94 637.612 2309.86 630.967 2311.69 625.201C2312.26 623.4 2312.82 621.682 2313.31 620.025C2312.91 613.94 2312.68 607.816 2312.61 601.659C2312.21 600.661 2311.76 599.606 2311.3 598.499C2309.02 592.95 2306.35 585.911 2305.69 577.085C2304.68 563.098 2308.18 550.942 2312.75 538.752C2315.75 530.794 2319.2 522.804 2322.61 513.772C2323.14 512.358 2323.67 510.848 2324.19 509.232C2326.27 502.717 2328.09 494.782 2330.08 486.78C2332.98 474.986 2336.34 463.051 2340.71 455.642C2342.34 452.866 2344.93 451.065 2347.53 449.242C2347.55 449.236 2347.56 449.229 2347.57 449.222C2347.75 449.099 2347.93 448.974 2348.1 448.85C2355.71 429.575 2364.5 410.347 2374.71 391.623C2375.36 389.823 2376.02 388.053 2376.69 386.291C2380 377.622 2383.56 369.282 2384.83 362.984C2386.19 356.145 2394.51 342.262 2404.52 328.265C2411.03 319.083 2418.27 309.81 2423.93 302.047C2427.3 297.437 2432.27 295.041 2437.44 292.667C2442.32 290.412 2447.17 288.337 2451.25 284.385C2453.3 282.4 2455.2 279.943 2457.27 277.344C2459.09 275.051 2461.06 272.627 2463.35 270.333C2465.47 268.212 2471.2 264.965 2478.78 261.008C2483.36 258.631 2488.73 255.929 2494.23 253.14C2507.3 243.396 2520.78 234.478 2534.86 226.233C2537.17 223.422 2538.95 220.434 2539.99 217.231C2540.73 214.934 2541.13 212.439 2541.56 209.881C2541.92 207.781 2542.3 205.636 2542.92 203.516C2543.22 202.17 2543.61 200.839 2544.15 199.548C2545.2 197.005 2547.05 195.325 2548.83 195.35C2549.66 195.362 2550.46 195.736 2551.19 196.074C2552.02 196.461 2552.76 196.806 2553.34 196.518C2553.76 196.31 2553.99 195.655 2554.28 194.859C2554.74 193.587 2555.35 191.942 2557.03 191.117C2563.36 188.028 2570.86 185.064 2578.13 182.248C2586.37 179.047 2594.19 176.087 2600.38 173.006C2607.22 169.596 2617.96 167.024 2628.68 164.574C2636.16 162.864 2643.76 161.15 2649.93 159.242C2656.12 157.314 2661.9 153.936 2667.54 150.675C2674.43 146.717 2680.85 143.044 2687.47 142.297C2688.8 142.153 2691 143.468 2693.74 145.123C2695.68 146.296 2697.9 147.638 2700.27 148.761C2707.85 145.979 2715.4 143.359 2723.12 140.822C2723.3 140.471 2723.48 140.113 2723.67 139.749C2723.67 139.742 2723.67 139.734 2723.67 139.726C2727.8 131.542 2733.75 120.267 2747.56 121.21C2751.12 121.437 2753.83 123.124 2756.27 124.647C2758.66 126.143 2760.79 127.489 2763.16 127.164C2765.81 126.806 2768.53 124.561 2771.42 122.159C2775.49 118.784 2780.06 115.038 2785.97 115.481C2786.38 115.512 2786.81 115.548 2787.26 115.581C2791.48 115.895 2797.79 116.369 2804.64 119.074C2821.69 115.525 2838.93 112.534 2856.36 110.133C2885.4 106.159 2915.06 103.699 2945.46 103.668C2960.26 103.659 2975.17 109.099 2985.55 118.839C2995.95 128.582 3000.83 141.501 2999.99 154.378C2999.26 167.295 2993.59 179.405 2985.52 189.123C2977.35 198.819 2966.93 205.334 2955.4 207.874C2936.57 211.979 2917.34 217.446 2898.23 223.526C2897.26 223.999 2896.28 224.468 2895.3 224.924C2888.01 228.305 2881.69 233.471 2875.53 238.693C2874.1 239.895 2872.66 241.108 2871.21 242.304Z" fill="white"/>
<path d="M2635.76 132.731C2642.05 141.884 2639.7 159.685 2638.4 169.364C2638.38 169.545 2638.36 169.727 2638.34 169.908C2638.03 172.279 2637.97 174.471 2637.89 176.982C2637.73 183.068 2637.5 191.498 2633.7 208.652C2633.89 213.852 2634.01 218.54 2634.05 223.71C2634.14 235.001 2634.01 246.214 2633.68 257.772C2632.45 300.48 2628.51 343.433 2623.91 386.213C2623.95 386.9 2623.99 387.6 2624.03 388.308C2624.75 401.857 2625.65 418.718 2623.46 429.296C2620.67 442.844 2618.06 451.867 2615.8 459.469C2611.1 502.412 2606.9 545.516 2605.29 588.493C2604.78 601.978 2604.53 615.447 2604.6 628.929C2604.66 641.337 2604.91 653.761 2605.33 666.156C2606.71 673.344 2608.34 680.267 2609.85 686.614C2611.97 695.514 2613.86 703.55 2614.49 710.11C2616 725.953 2613.77 743.978 2612.11 757.351C2611.84 759.529 2611.58 761.581 2611.36 763.474C2612.23 774.206 2613.17 784.626 2614.12 795.365C2613.61 796.076 2613.08 796.792 2612.53 797.52C2605.69 806.53 2605.8 817.751 2605.97 835.261C2606.04 842.951 2606.11 851.689 2605.63 862.186C2605.32 868.876 2602.6 872.267 2600.38 875.151C2599.73 875.989 2599.12 876.773 2598.63 877.565C2596.94 880.279 2598.77 883.121 2600.93 886.446C2603.73 890.671 2607.1 896.111 2604.06 902.964C2594.38 924.979 2600.93 934.732 2605.89 942.007C2606.73 943.235 2607.53 944.389 2608.19 945.519C2608.67 946.39 2609.08 947.247 2609.39 948.108C2611.75 954.748 2609.38 963.753 2606.14 970.851C2603.56 976.235 2606.06 987.473 2609.25 995.845C2610.45 999.112 2610.46 1003.28 2610.46 1008.37C2610.46 1013.77 2610.45 1019.56 2611.77 1026.23C2615.11 1042.66 2616.7 1051.36 2617.97 1058.43C2618.33 1060.46 2618.65 1062.32 2619 1064.15C2620.08 1070.08 2620.93 1077.48 2621.78 1084.78C2622.79 1093.76 2623.8 1102.81 2625.21 1109.65C2623.24 1127.39 2620.74 1145.42 2618.2 1162.91C2616.88 1171.9 2610.74 1180.15 2600.88 1186.16C2591.01 1192.16 2578.26 1195.53 2565.08 1195.38C2551.91 1195.2 2539.24 1191.42 2529.62 1184.69C2520.02 1177.97 2514.34 1168.91 2513.56 1159.86C2512.01 1141.61 2510.39 1123.69 2509.05 1105.63C2507.43 1083.72 2506.3 1061.61 2506.49 1039.62C2506.62 1024.22 2507.03 1008.69 2507.66 993.243C2507.73 991.583 2507.8 990.11 2507.87 988.521C2504.68 975.454 2501.76 962.403 2500.73 953.435C2500.39 950.49 2500.46 947.815 2500.74 945.354C2501.19 941.696 2502.19 938.548 2503.1 935.664C2504.12 932.432 2505.02 929.417 2504.88 926.57C2504.81 925.038 2504.61 922.936 2504.37 920.374C2503.39 909.731 2501.72 892.002 2504.87 875.73C2506.27 868.368 2509.03 860.228 2511.66 852.053C2515.42 840.735 2518.92 829.787 2517.83 824.533C2515.9 815.099 2517.49 804.176 2518.89 794.591C2520.22 785.326 2521.38 777.445 2519.18 772.859C2516.54 767.403 2517.59 762.733 2519.15 755.862C2520.23 751.099 2521.55 745.126 2522.07 737.184C2522.66 728.006 2524.47 721.401 2526.01 715.871C2528.18 708.092 2529.81 702.189 2526.73 693.435C2523.31 683.774 2521.12 673.544 2522.15 665.576C2522.62 661.934 2522.49 657.765 2522.34 653.421C2522.15 647.66 2521.96 641.641 2523.14 636.116C2524.12 631.566 2526.66 627.794 2528.91 624.455C2529.61 623.414 2530.28 622.417 2530.87 621.45C2530.82 617.831 2530.75 614.211 2530.66 610.59C2530.25 610.006 2529.79 609.392 2529.31 608.751C2526.94 605.534 2524.02 601.581 2522.55 596.672C2520.23 588.902 2521.63 582.078 2523.11 574.872C2524.26 569.253 2525.46 563.411 2524.98 556.738C2524.66 552.202 2523.59 546.982 2522.52 541.847C2520.94 534.214 2519.39 526.696 2520.32 521.426C2520.67 519.456 2522.27 517.758 2523.85 516.078C2523.86 516.071 2523.87 516.064 2523.88 516.056C2523.99 515.942 2524.1 515.828 2524.2 515.714C2522.91 503.01 2521.49 490.184 2519.99 477.43C2519.57 476.322 2519.16 475.203 2518.75 474.095C2516.76 468.682 2514.82 463.454 2512.1 460.064C2509.15 456.344 2507.39 446.945 2505.53 437.196C2504.32 430.692 2503.06 424.028 2501.4 418.633C2500.44 415.501 2502.07 412.425 2503.76 409.294C2505.33 406.372 2506.95 403.382 2506.52 400.145C2506.31 398.524 2505.61 396.781 2504.87 394.926C2504.21 393.312 2503.51 391.522 2503.08 389.685C2502.68 387.974 2503.56 384.153 2504.68 379.31C2505.36 376.295 2506.14 373.006 2506.78 369.334C2505.68 359.773 2504.63 350.488 2503.64 340.934C2502.18 338.973 2500.28 337.285 2497.86 335.959C2496.12 335.008 2494.04 334.204 2491.91 333.379C2489.02 332.265 2486.03 331.088 2483.64 329.425C2481.77 328.13 2481.02 326.6 2481.79 325.567C2482.14 325.085 2482.82 324.713 2483.43 324.376C2484.13 323.989 2484.75 323.645 2484.73 323.23C2484.71 322.931 2484.21 322.623 2483.61 322.245C2482.64 321.642 2481.4 320.857 2481.34 319.655C2481.15 315.209 2481.51 310.111 2481.86 305.046C2482.26 299.416 2482.64 294.229 2482.24 289.734C2481.79 284.744 2483.59 278.17 2485.37 271.003C2486.46 266.742 2487.54 262.561 2488.13 258.897C2488.21 258.321 2488.29 257.758 2488.35 257.207C2488.83 253.047 2487.78 248.817 2486.75 244.809C2485.52 239.96 2484.32 235.045 2485.91 231.109C2486.23 230.305 2488.22 229.296 2490.72 228.041C2492.49 227.162 2494.51 226.043 2496.37 224.838C2496.32 219.555 2496.37 214.794 2496.47 209.458C2496.2 209.277 2495.92 209.091 2495.64 208.905C2495.63 208.902 2495.62 208.899 2495.62 208.896C2489.21 204.694 2480.45 199.121 2485.58 190.941C2486.88 188.891 2489.31 187.642 2491.5 186.45C2493.64 185.254 2495.56 184.19 2495.96 182.673C2496.4 180.951 2495.06 178.959 2493.6 176.827C2491.55 173.922 2489.26 170.254 2491.33 166.88C2491.47 166.646 2491.62 166.395 2491.78 166.135C2493.25 163.761 2495.43 159.833 2499.85 156.182C2500.93 145.237 2502.21 134.381 2503.61 123.475C2505.93 105.364 2508.59 87.0705 2511.15 69.0897C2512.41 60.3705 2518.28 51.895 2527.81 45.4688C2537.35 39.0232 2549.72 35.0805 2562.65 34.6831C2575.56 34.2873 2588.16 37.3628 2598.07 43.4669C2607.96 49.5557 2614.23 58.232 2615.81 67.1429C2618.38 81.7857 2620.86 96.3179 2623.15 110.751C2623.43 111.503 2623.7 112.266 2623.95 113.035C2625.83 118.683 2629.53 123.912 2633.23 129.083C2634.08 130.279 2634.93 131.569 2635.76 132.731Z" fill="white"/>
<path d="M4309.72 254.722C4303.79 252.569 4299.39 240.465 4290.57 223.59C4291.64 225.015 4292.66 226.089 4293.51 226.869C4293.63 226.988 4293.75 227.103 4293.88 227.213C4295.47 228.6 4296.55 229.403 4297.15 229.764C4298.27 230.771 4298.39 227.84 4280.13 219.704C4274.52 218.682 4268.32 217.827 4261.83 217.151C4256.96 216.643 4251.91 216.251 4246.76 215.97C4250.82 214.122 4229.13 220.063 4210.52 234.692C4191.03 248.822 4170.58 267.865 4150.83 288.357C4143.53 295.461 4140.12 298.54 4137.87 314.077C4137.89 314.801 4137.92 315.557 4137.96 316.34C4138.32 325.296 4140.27 338.575 4141.92 353.336C4141.96 354.644 4141.9 356.061 4142.35 359.106C4143.97 369.061 4151.79 382.651 4157.28 392.197C4174.71 414.743 4196.51 438.126 4218.43 461.181C4238 482.281 4271.59 505.363 4301.01 532.363C4304.82 535.806 4308.59 539.256 4312.33 542.712C4330.06 559.098 4347.24 575.56 4364.37 592.149C4377.86 605.235 4391.25 618.399 4404.62 632.039C4407 634.473 4409.22 636.773 4411.57 639.252C4421.74 648.324 4431.53 657.389 4440.47 666.811C4453.01 679.969 4463.76 694.144 4470.67 707.542C4488.39 740.453 4490.09 781.094 4490 804.262C4490.01 804.534 4490.02 804.805 4490.02 805.075C4490.18 811.654 4489.76 817.549 4489.11 822.734C4487.27 851.813 4478.68 873.165 4470.98 892.406C4469.93 893.438 4468.85 894.469 4467.76 895.481C4460.36 902.355 4454.28 910.529 4448.15 920.691C4441.95 931.23 4434.69 943.212 4424.76 956.307C4415.34 968.724 4403.49 982.122 4388.07 995.57C4378.1 1004.21 4371.13 1006.23 4365.55 1007.86C4363.91 1008.33 4362.36 1008.77 4360.89 1009.29C4355.82 1011.08 4352.65 1015.74 4348.7 1021.19C4343.6 1028.23 4337.11 1036.71 4324.29 1040.94C4313.28 1044.53 4304.25 1047.84 4296.76 1051.08C4269.78 1062.54 4255.12 1066.69 4242.91 1071.31C4238.02 1072.98 4233.52 1074.28 4228.97 1074.85C4214.05 1076.82 4194.67 1071.27 4182.02 1064.75C4171.77 1059.76 4150.75 1055.91 4134.76 1053.13C4128.68 1052.12 4121.14 1049.15 4112.48 1045.44C4112.28 1045.36 4112.08 1045.27 4111.88 1045.18C4101.75 1040.84 4090.56 1035.2 4078.59 1029.38C4047.76 1013.97 4033.99 1002.5 4022.77 994.026C4019.6 991.539 4016.72 989.196 4013.87 986.847C4004.86 979.448 3994.53 969.513 3985.12 960.078C3983.41 958.374 3981.71 956.678 3980.11 955.101C3979.01 954.008 3976.41 950.174 3975.46 948.947C3966.46 937.124 3958.12 924.82 3951.45 914.824C3935.94 881.815 3925.56 844.715 3922.26 808.104C3920.83 792.973 3923.76 778.145 3930.01 766.532C3929.93 765.804 3930.06 763.611 3930.04 762.878C3931.8 759.987 3933.75 757.178 3935.91 754.588C3947.17 740.91 3960.62 739.404 3973.66 740.526C3986.87 741.755 3998.02 751.808 4006.89 761.003C4008.64 762.866 4010.28 764.809 4011.78 766.916L4011.81 764.005C4018.67 772.711 4023.41 782.491 4025.78 792.6C4031.68 818.018 4041.89 841.117 4055.72 863.406C4060.42 871.002 4065.53 878.505 4070.99 885.96L4066.66 880.244C4085.23 900.201 4101.12 915.945 4118.39 929.188C4129.65 937.845 4141.15 944.959 4152.91 950.34C4159.98 953.538 4167.01 956.56 4173.96 959.342C4176.18 960.231 4178.42 961.108 4180.62 961.944C4199.99 965.377 4217.48 966.109 4227.28 965.884C4235.44 965.775 4239.87 967.141 4243.54 968.162C4246.01 968.848 4248.03 969.296 4249.52 968.683C4250.31 968.356 4251.27 967.802 4252.16 967.123C4252.38 966.95 4252.61 966.769 4252.83 966.581C4266.39 958.519 4286.72 944.809 4305.56 933.535C4314.54 928.24 4325.27 922.463 4334.95 916.224C4348.84 907.406 4360.33 897.382 4363.23 890.665C4364.92 886.862 4366.82 883.093 4368.77 879.335C4374.18 868.951 4380.36 859.245 4385.33 850.733C4392.43 838.719 4396.78 829.109 4395.76 823.787C4394.67 817.952 4395.76 814.567 4396.92 811.195C4396.97 810.363 4397.03 809.52 4397.08 808.665C4397.55 800.854 4398.16 791.343 4396.86 780.046C4395.32 767.136 4394.58 759.029 4393.38 751.663C4391.62 741.467 4389.13 733.274 4379.54 724.494C4368.87 714.801 4357.17 704.491 4349.29 694.402C4347.94 692.667 4346.41 690.893 4344.71 689.043C4341.96 686.057 4338.9 682.988 4335.73 679.85C4328.92 673.102 4321.62 666.031 4315.86 658.666C4311.09 652.581 4308.33 646.345 4305.83 640.816C4305.06 639.095 4304.3 637.437 4303.53 635.885C4299.07 631.678 4294.58 627.509 4290.05 623.392C4289.04 623.017 4287.97 622.643 4286.86 622.249C4281.25 620.274 4274.38 617.881 4267.31 613.453C4259 608.26 4252.69 602.243 4246.7 595.919C4244.67 593.771 4242.69 591.601 4240.64 589.4C4234.45 582.766 4227.76 575.943 4218.59 569.591C4212.34 565.261 4204.63 560.887 4196.72 556.304C4185.02 549.556 4172.67 541.909 4165.33 534.244C4162.59 531.395 4161.1 527.892 4159.7 524.402C4159.7 524.384 4159.69 524.367 4159.69 524.35C4159.64 524.238 4159.6 524.127 4159.55 524.016C4159.52 523.901 4159.48 523.787 4159.44 523.672C4142.33 509.301 4125.17 494.917 4107.94 479.546C4106.22 478.388 4104.5 477.226 4102.83 476.084C4094.54 470.406 4086.44 464.51 4079.99 461.335C4073.08 457.82 4059.48 445.9 4045.16 426.692C4035.82 414.23 4026.41 396.742 4021.35 380.021C4020.14 376.143 4019.52 372.198 4019.34 368.296C4019.4 365.131 4020 361.817 4020.61 358.339C4021.57 352.91 4022.55 347.127 4021.57 340.656C4021.08 337.408 4020.12 333.843 4019.16 329.863C4018.32 326.36 4017.49 322.528 4017.02 318.34C4016.61 314.461 4017.37 305.615 4019.85 293.531C4021.39 286.085 4023.66 277.401 4026.85 268.343C4031.78 246.477 4042.68 224.88 4056.16 207.947C4057.41 206.301 4058.68 204.642 4059.98 202.972C4061.26 199.267 4061.98 195.584 4061.85 192.083C4061.77 189.563 4061.28 186.991 4060.77 184.381C4060.09 180.823 4059.44 177.087 4059.84 173.135C4060.16 170.037 4061.65 167.335 4063.58 166.407C4064.48 165.973 4065.46 165.914 4066.36 165.861C4067.38 165.8 4068.29 165.744 4068.84 165.143C4069.23 164.71 4069.29 163.927 4069.37 162.969C4069.5 161.439 4069.69 159.446 4071.33 157.691C4077.42 151.177 4085.01 144.226 4092.84 137.522C4101.53 130.06 4110.54 122.907 4117.71 116.745C4125.74 109.828 4139.26 102.005 4154.71 94.9917C4165.44 90.0998 4177.13 85.6604 4187.97 81.9565C4198.56 78.3262 4210.22 73.6501 4223.41 70.5096C4233 68.2166 4243.34 66.8255 4253.48 67.2091C4257.18 67.3213 4260.73 67.7373 4264.01 68.6062C4265.71 69.0553 4267.69 71.2108 4270.14 73.9359C4271.88 75.8684 4273.84 78.088 4276.11 80.2053C4286.79 81.3232 4297.67 82.9955 4308.93 85.5283C4309.38 85.3465 4309.85 85.1639 4310.32 84.9769C4310.32 84.972 4310.33 84.967 4310.34 84.9621C4320.85 80.8504 4337.1 75.3186 4356.43 89.2514C4361.31 92.8517 4363.67 96.7979 4365.69 100.354C4367.7 103.876 4369.38 107.03 4373.06 109.811C4377.27 113.009 4383.31 115.544 4390.18 119.476C4399.7 124.854 4411.34 133.821 4417.28 147.914C4417.3 147.96 4417.32 148.007 4417.34 148.053C4417.41 148.442 4417.49 148.863 4417.58 149.304C4418.43 153.67 4420.14 160.77 4419.98 169.584C4429.88 189.574 4440.77 216.101 4442.06 246.755C4443.09 267.874 4438.93 289.617 4431.31 307.884C4422.51 328.438 4411.63 347.425 4399 365.11C4388.47 379.887 4372.9 390.456 4357.43 393.451C4341.88 396.521 4328.41 391.804 4319.53 382.472C4310.59 373.113 4305.92 360.43 4304.23 347.514C4302.63 334.53 4304.43 322.01 4309.39 311.011C4315.37 297.832 4319.98 284.038 4322.91 270.557C4323.23 267.845 4323.14 265.577 4322.82 263.598C4322.6 263.191 4322.38 262.785 4322.17 262.408C4320.56 259.542 4316.71 257.655 4312.6 255.944C4311.66 255.544 4310.69 255.142 4309.72 254.722Z" fill="white"/>
<path d="M3280.92 68.2067C3283.92 61.4364 3292.12 62.6741 3296.62 63.3708C3296.7 63.3809 3296.78 63.3909 3296.86 63.401C3297.93 63.5649 3298.92 63.4964 3300.06 63.4113C3302.78 63.2103 3306.47 62.9309 3314.69 65.679C3316.88 65.2006 3319.11 64.787 3321.32 64.4593C3345.36 60.8944 3370.38 62.8355 3395.27 66.3921C3395.58 66.3277 3395.89 66.2619 3396.2 66.1955C3402.19 64.9151 3409.71 63.3757 3414.65 65.1832C3420.97 67.4746 3425.26 69.7765 3428.81 71.7806C3439.11 73.5104 3449.35 75.1952 3459.52 76.531C3468.73 77.7418 3477.86 78.6689 3486.95 79.0712C3492.94 79.3364 3498.9 79.369 3504.83 79.1121C3510.31 78.8743 3515.76 78.4608 3521.2 77.8914C3524.33 76.4279 3527.31 74.7216 3530.06 73.1456C3533.93 70.9304 3537.39 68.9709 3540.26 68.2808C3547.22 66.6163 3555.18 68.7085 3561.1 70.2783C3562.07 70.5346 3562.97 70.7779 3563.81 70.9873C3568.44 70.0366 3573.09 69.0347 3577.72 68.021C3578.04 68.5296 3578.37 69.0603 3578.69 69.6044C3582.79 76.395 3587.67 76.2181 3595.31 75.9744C3598.66 75.8683 3602.5 75.7534 3607.07 76.1918C3610 76.4745 3611.53 79.1793 3612.79 81.386C3613.16 82.0352 3613.5 82.642 3613.85 83.1316C3615.05 84.8089 3616.27 82.9676 3617.71 80.7934C3619.57 77.973 3621.81 74.5859 3624.86 77.5951C3634.53 87.1854 3638.68 80.5904 3641.84 75.598C3642.77 74.1339 3643.61 72.8111 3644.48 72.0738C3647.29 69.6834 3651.31 72.0081 3654.37 75.2164C3656.79 77.7601 3661.57 75.2007 3665.22 71.9599C3666.59 70.7344 3668.45 70.696 3670.65 70.6586C3672.92 70.6198 3675.55 70.5832 3678.36 69.2063C3685.47 65.7272 3689.23 64.0441 3692.27 62.6964C3693.13 62.3123 3693.94 61.9626 3694.74 61.5979C3697.28 60.4456 3700.44 59.4951 3703.63 58.537C3707.45 57.3905 3711.34 56.2276 3714.28 54.6782C3721.93 56.3094 3729.58 58.3327 3737.21 60.3526C3741.14 61.4013 3744.9 67.3103 3747.67 77.0516C3750.44 86.8007 3752 99.5128 3752 112.687C3752 125.861 3750.44 138.573 3747.67 148.322C3744.9 158.064 3741.14 163.983 3737.23 165.032C3729.34 167.124 3721.45 169.219 3713.58 170.892C3703.98 172.929 3694.4 174.342 3684.83 174.366C3678.13 174.383 3671.43 174.092 3664.75 173.557C3664.06 173.502 3663.37 173.441 3662.68 173.38C3657.08 176.65 3651.49 179.633 3647.56 180.71C3644.32 181.599 3641.93 179.885 3639.89 178.42C3638.48 177.411 3637.25 176.519 3635.99 176.673C3635.32 176.755 3634.4 176.963 3633.29 177.212C3628.78 178.232 3621.14 179.97 3614.11 176.887C3611 175.518 3607.36 172.795 3603.88 170.199C3598.93 166.486 3594.25 163.035 3591.97 164.154C3587.92 166.121 3583.26 164.593 3579.1 163.248C3575.14 161.965 3571.69 160.85 3569.78 163.087C3567.49 165.76 3565.51 164.735 3562.5 163.222C3560.42 162.173 3557.88 160.893 3554.45 160.442C3550.47 159.923 3547.66 158.164 3545.22 156.671C3541.8 154.57 3539.27 152.993 3535.6 156.155C3531.55 159.667 3527.29 161.967 3523.85 161.026C3522.28 160.597 3520.51 160.782 3518.66 160.978C3516.21 161.237 3513.68 161.51 3511.26 160.398C3509.28 159.481 3507.57 156.995 3506.05 154.797C3505.58 154.111 3505.13 153.456 3504.69 152.883C3503.15 152.985 3501.6 153.104 3500.06 153.252C3499.83 153.675 3499.59 154.143 3499.34 154.626C3498.07 157.049 3496.54 160.022 3494.51 161.568C3491.32 164.014 3488.39 162.737 3485.24 161.39C3482.8 160.341 3480.27 159.249 3477.45 159.859C3475.53 160.275 3473.43 161.45 3471.31 162.623C3469.26 163.757 3467.25 164.883 3465.47 165.305C3464.51 165.532 3463.62 165.558 3462.83 165.276C3461.98 164.974 3461.15 163.421 3460.34 161.876C3460.33 161.867 3460.33 161.857 3460.33 161.848C3460.27 161.743 3460.22 161.641 3460.16 161.536C3454.87 163.136 3449.58 164.889 3444.33 166.739C3443.9 167.188 3443.47 167.632 3443.04 168.069C3440.91 170.209 3438.87 172.291 3437.67 175.105C3436.38 178.154 3432.61 180.191 3428.69 182.356C3426.09 183.776 3423.48 185.245 3421.36 187.084C3420.13 188.158 3418.72 186.634 3417.26 185.065C3415.91 183.6 3414.49 182.102 3413.18 182.642C3412.52 182.914 3411.86 183.671 3411.16 184.481C3410.54 185.195 3409.89 185.95 3409.18 186.447C3408.51 186.908 3406.84 186.179 3404.7 185.257C3403.38 184.688 3401.88 184.047 3400.31 183.559C3396.5 185.022 3392.67 186.459 3388.86 187.838C3388.21 189.377 3387.73 191.333 3387.46 193.801C3387.26 195.571 3387.17 197.671 3387.07 199.818C3386.94 202.739 3386.81 205.758 3386.43 208.2C3386.13 210.108 3385.6 210.918 3385.08 210.205C3384.84 209.872 3384.61 209.218 3384.4 208.627C3384.16 207.949 3383.94 207.347 3383.77 207.386C3383.65 207.415 3383.58 207.924 3383.5 208.541C3383.37 209.526 3383.2 210.798 3382.71 210.904C3380.89 211.297 3378.76 211.166 3376.65 211.043C3374.31 210.905 3372.03 210.777 3370.3 211.382C3368.36 212.058 3365.28 210.609 3362.18 209.178C3360.02 208.179 3357.84 207.193 3356.05 206.915C3354.31 206.642 3352.7 207.902 3351.15 209.132C3349.28 210.609 3347.51 212.035 3345.6 210.678C3345.22 210.402 3344.51 208.483 3343.62 206.084C3342.98 204.383 3342.26 202.439 3341.5 200.661C3339.38 200.975 3337.22 201.216 3335.07 201.387C3335.03 201.667 3335 201.952 3334.96 202.242C3334.96 202.249 3334.96 202.256 3334.96 202.262C3334.17 208.824 3333.1 217.798 3328.96 213.181C3327.9 212.008 3326.98 209.681 3326.16 207.586C3325.35 205.53 3324.63 203.69 3323.94 203.387C3323.16 203.044 3322.52 204.483 3321.84 206.05C3320.86 208.25 3319.78 210.708 3318.02 208.859C3317.89 208.733 3317.76 208.594 3317.63 208.456C3316.35 207.143 3314.45 205.205 3312.2 201.056C3307.44 200.617 3302.62 199.994 3297.76 199.254C3289.67 198.022 3281.48 196.47 3273.25 194.936C3269.24 194.172 3264.6 188.808 3260.3 179.69C3255.99 170.559 3252.39 158.496 3250.22 145.753C3248.06 133.011 3247.46 120.443 3248.51 110.401C3249.57 100.372 3252.19 93.773 3255.76 91.7265C3261.59 88.4156 3267.45 85.1027 3273.36 81.9751C3273.65 81.6557 3273.94 81.3447 3274.23 81.05C3276.38 78.8566 3278.05 74.8931 3279.74 70.9232C3280.13 70.0114 3280.52 69.0975 3280.92 68.2067Z" fill="white"/>
<path d="M3361.05 156.117C3366.97 163.729 3363.92 177.957 3362.25 185.828C3362.23 185.972 3362.2 186.118 3362.17 186.26C3361.78 188.107 3361.63 189.864 3361.46 191.924C3361.07 196.839 3360.53 203.471 3356.11 217.291C3356.12 221.362 3356.06 225.418 3355.92 229.453C3354.46 273.213 3347.97 316.722 3340.63 360.302C3340.65 360.855 3340.66 361.417 3340.68 361.985C3341.03 372.949 3341.47 386.597 3339 395.077C3335.86 405.867 3333.02 413.142 3330.58 419.182C3324.82 453.752 3319.7 488.54 3317.36 523.127C3316.62 534.07 3316.16 544.981 3316.04 555.788C3315.92 565.76 3316.02 575.936 3316.3 585.884C3317.6 591.697 3319.17 597.201 3320.62 602.418C3322.65 609.702 3324.48 616.128 3325.06 621.405C3326.46 633.966 3324.15 648.831 3322.45 659.405C3322.18 661.146 3321.92 662.787 3321.69 664.302C3322.55 672.962 3323.49 681.536 3324.47 689.989C3323.96 690.557 3323.43 691.13 3322.88 691.711C3316.06 698.799 3316.22 708.215 3316.51 722.121C3316.64 728.104 3316.8 735.409 3316.45 743.786C3316.22 749.185 3313.55 751.969 3311.37 754.251C3310.73 754.921 3310.13 755.55 3309.65 756.182C3308 758.353 3309.87 760.542 3312.09 763.272C3314.97 766.77 3318.43 770.929 3315.53 776.526C3306.29 794.071 3313.15 802.173 3318.31 807.697C3319.82 809.352 3321.2 810.841 3321.98 812.381C3324.53 817.206 3322.49 825.015 3319.5 830.645C3317.14 835.238 3320.06 843.504 3323.65 850.285C3325 852.769 3325.21 856.185 3325.47 860.13C3325.73 864.225 3326.03 868.781 3327.75 873.986C3332.06 886.752 3334.26 892.97 3336.06 898.491C3336.57 900.011 3337.04 901.411 3337.53 902.793C3339.06 907.151 3340.51 912.424 3342.06 918.082C3343.9 924.685 3345.79 930.822 3348.01 935.798C3347.97 948.15 3348.19 961.796 3348.68 971.654C3349 977.054 3344.49 981.816 3336.24 987.116C3327.95 992.439 3317.74 999.965 3307.64 1008.46C3297.59 1016.86 3284.69 1021.8 3271.87 1017.72C3265.91 1016.54 3260.53 1013.75 3256.2 1009.81C3252.11 1006.6 3249.13 1002.67 3247.37 998.008C3240.86 981.042 3236.26 964.597 3232.58 949.336C3228.09 930.317 3225 911.549 3223.62 892.837C3222.67 879.795 3222.21 866.906 3222.1 853.81C3222.09 852.452 3222.08 851.088 3222.08 849.718C3218.31 839.265 3214.91 828.518 3213.57 820.777C3212.47 814.678 3214.04 810.064 3215.39 806.102C3216.32 803.373 3217.15 800.946 3216.93 798.511C3216.81 797.203 3216.56 795.415 3216.25 793.246C3215.02 784.814 3212.98 769.885 3215.89 756.483C3217.18 750.58 3219.82 743.635 3222.37 736.936C3226 727.225 3229.43 718.8 3228.3 714.313C3226.32 706.594 3227.85 697.44 3229.23 689.749C3230.55 682.304 3231.71 675.718 3229.5 671.967C3226.86 667.479 3227.92 663.63 3229.5 658.068C3230.6 654.185 3231.93 649.41 3232.48 642.867C3233.11 635.322 3234.97 629.871 3236.54 625.449C3238.77 619.141 3240.44 614.381 3237.44 607.206C3234.11 599.205 3232.02 590.887 3233.14 584.424C3233.65 581.468 3233.56 578.074 3233.47 574.531C3233.35 569.84 3233.23 564.887 3234.5 560.366C3235.54 556.66 3238.13 553.679 3240.43 551.004C3241.14 550.172 3241.82 549.373 3242.43 548.598C3242.43 545.66 3242.42 542.716 3242.38 539.766C3241.98 539.283 3241.53 538.775 3241.06 538.245C3238.74 535.582 3235.89 532.302 3234.5 528.258C3232.31 521.813 3233.82 516.37 3235.43 510.533C3236.68 505.998 3238 501.272 3237.65 495.807C3237.41 492.088 3236.44 487.791 3235.48 483.602C3234.05 477.385 3232.65 471.221 3233.7 466.971C3234.09 465.379 3235.72 464.035 3237.35 462.705C3237.36 462.699 3237.37 462.693 3237.38 462.687C3237.49 462.597 3237.6 462.506 3237.71 462.416C3236.69 451.966 3235.56 441.559 3234.37 431.15C3233.97 430.241 3233.59 429.322 3233.2 428.411C3231.34 423.96 3229.54 419.627 3226.9 416.766C3224.05 413.657 3222.52 406.009 3220.92 397.958C3219.87 392.683 3218.8 387.22 3217.28 382.741C3216.4 380.123 3218.12 377.703 3219.89 375.213C3221.54 372.889 3223.24 370.508 3222.9 367.854C3222.74 366.524 3222.09 365.075 3221.4 363.528C3220.79 362.166 3220.14 360.725 3219.76 359.225C3219.41 357.83 3220.39 354.772 3221.65 350.85C3222.42 348.427 3223.3 345.673 3224.04 342.777C3223.22 335.045 3222.45 327.317 3221.75 319.593C3220.35 317.945 3218.51 316.496 3216.12 315.322C3214.41 314.48 3212.36 313.745 3210.26 312.991C3207.41 311.964 3204.46 310.901 3202.12 309.487C3200.29 308.381 3199.59 307.12 3200.39 306.311C3200.76 305.934 3201.44 305.657 3202.06 305.405C3202.77 305.116 3203.41 304.858 3203.4 304.521C3203.39 304.277 3202.9 304.009 3202.31 303.68C3201.36 303.155 3200.14 302.472 3200.13 301.487C3200.07 297.822 3200.6 293.677 3201.11 289.606C3201.69 285.083 3202.25 280.665 3201.99 277.124C3201.69 273.158 3203.72 267.584 3205.73 262.01C3207.14 258.125 3208.55 254.222 3209.18 250.85C3209.8 247.548 3208.89 244.062 3208.01 240.688C3206.94 236.638 3205.92 232.745 3207.64 229.527C3207.99 228.876 3210.02 228.121 3212.56 227.174C3214.36 226.504 3216.41 225.731 3218.31 224.838C3218.45 220.685 3218.68 216.513 3218.97 212.335C3218.7 212.178 3218.43 212.017 3218.16 211.855C3218.15 211.852 3218.14 211.85 3218.14 211.847C3211.89 208.198 3203.34 203.2 3208.77 196.799C3210.14 195.172 3212.62 194.205 3214.85 193.334C3217.03 192.478 3218.99 191.714 3219.44 190.512C3219.95 189.147 3218.68 187.47 3217.31 185.644C3215.37 183.08 3213.21 180.218 3215.41 177.466C3215.57 177.279 3215.73 177.078 3215.9 176.868C3217.46 174.879 3219.78 171.938 3224.34 169.097C3225.85 160.234 3227.56 151.448 3229.41 142.643C3232.49 127.792 3235.92 113.334 3239.38 98.5186C3241.08 91.3445 3247.41 84.6888 3257.31 80.008C3267.22 75.327 3279.82 72.9922 3292.74 73.4977C3305.65 74.0053 3318.02 77.3175 3327.54 82.7438C3337.05 88.17 3342.84 95.2712 3343.99 102.53C3345.82 114.471 3347.68 126.016 3349.36 137.867C3349.6 138.492 3349.84 139.119 3350.06 139.743C3351.7 144.379 3355.18 148.798 3358.66 153.117C3359.46 154.115 3360.27 155.115 3361.05 156.117Z" fill="white"/>
<path d="M3314.88 505.827C3317.54 499.112 3325.01 500.448 3329.12 501.184C3329.2 501.194 3329.27 501.205 3329.35 501.216C3330.32 501.389 3331.21 501.331 3332.25 501.256C3334.72 501.076 3338.07 500.834 3345.59 503.612C3347.56 503.144 3349.56 502.74 3351.56 502.415C3373.21 498.908 3395.75 500.538 3418.47 503.305C3418.74 503.232 3419.02 503.157 3419.29 503.081C3424.67 501.613 3431.34 499.808 3435.94 501.408C3441.8 503.44 3445.85 505.541 3449.22 507.373C3467.3 509.747 3485.26 511.714 3502.95 511.268C3508.48 511.132 3514 510.751 3519.49 510.078C3524.53 509.46 3529.56 508.663 3534.6 507.71C3537.38 506.033 3540.04 504.121 3542.49 502.358C3545.9 499.883 3549.04 497.684 3551.67 496.801C3551.81 496.754 3551.95 496.709 3552.09 496.665C3558.46 494.727 3565.87 496.249 3571.46 497.411C3572.39 497.606 3573.27 497.792 3574.07 497.948C3578.41 496.707 3582.71 495.428 3587.04 494.147C3587.38 494.636 3587.71 495.147 3588.06 495.671C3592.38 502.211 3596.95 501.759 3604.18 501.122C3607.34 500.845 3610.99 500.537 3615.32 500.764C3618.11 500.911 3619.72 503.544 3621 505.694C3621.38 506.326 3621.73 506.917 3622.09 507.391C3623.28 509.016 3624.36 507.124 3625.62 504.892C3627.26 501.996 3629.24 498.521 3632.26 501.409C3641.81 510.623 3645.46 503.914 3648.29 498.823C3649.12 497.331 3649.88 495.984 3650.68 495.221C3653.26 492.748 3657.19 494.959 3660.16 498.09C3662.53 500.57 3666.99 497.899 3670.38 494.585C3671.65 493.331 3673.43 493.255 3675.51 493.177C3677.66 493.097 3680.17 493.015 3682.8 491.595C3689.48 488.009 3693.04 486.287 3695.9 484.907C3696.72 484.514 3697.48 484.156 3698.24 483.784C3700.63 482.607 3703.62 481.63 3706.63 480.65C3710.24 479.477 3713.9 478.294 3716.68 476.732C3723.91 478.33 3731.09 480.341 3738.23 482.356C3741.89 483.402 3745.4 489.311 3747.98 499.052C3750.55 508.801 3752 521.513 3752 534.687C3752 547.861 3750.55 560.573 3747.98 570.323C3745.41 580.064 3741.93 585.983 3738.31 587.036C3731.02 589.133 3723.78 591.241 3716.57 592.947C3707.8 595.026 3699.09 596.509 3690.42 596.653C3684.34 596.753 3678.29 596.567 3672.24 596.165C3671.62 596.124 3670.99 596.077 3670.37 596.031C3665.39 599.415 3660.46 602.533 3656.96 603.716C3654.08 604.691 3651.88 603.048 3650 601.644C3648.7 600.678 3647.55 599.826 3646.43 600.019C3645.83 600.122 3645.02 600.359 3644.04 600.645C3639.99 601.811 3633.25 603.817 3626.79 601.028C3623.92 599.789 3620.51 597.225 3617.23 594.791C3612.56 591.308 3608.13 588.094 3606.12 589.326C3602.56 591.493 3598.24 590.214 3594.39 589.1C3590.72 588.036 3587.48 587.125 3585.91 589.467C3584.01 592.268 3582.12 591.363 3579.29 590.035C3577.33 589.114 3574.91 587.995 3571.75 587.761C3568.07 587.496 3565.38 585.923 3563.03 584.594C3562.39 584.229 3561.78 583.883 3561.19 583.586C3558.77 582.359 3556.67 581.985 3554.16 584.722C3550.75 588.494 3546.98 591.083 3543.75 590.382C3542.27 590.063 3540.63 590.373 3538.95 590.695C3536.73 591.122 3534.38 591.575 3532.06 590.634C3530.17 589.857 3528.38 587.499 3526.8 585.415C3526.3 584.765 3525.83 584.144 3525.37 583.603C3523.94 583.814 3522.53 584.039 3521.11 584.293C3520.93 584.731 3520.75 585.213 3520.55 585.712C3519.58 588.214 3518.38 591.286 3516.63 592.965C3513.88 595.62 3511 594.553 3507.98 593.421C3505.63 592.539 3503.16 591.622 3500.58 592.415C3498.83 592.955 3496.93 594.267 3495.04 595.571C3492.23 597.507 3489.49 599.414 3487.28 598.75C3486.46 598.501 3485.57 597.004 3484.69 595.513C3484.68 595.504 3484.68 595.495 3484.68 595.485C3484.62 595.384 3484.56 595.286 3484.5 595.185C3479.65 597.099 3474.8 599.152 3469.96 601.286C3469.58 601.758 3469.2 602.225 3468.82 602.685C3466.98 604.931 3465.18 607.116 3464.22 609.986C3463.17 613.099 3459.76 615.32 3456.14 617.672C3453.77 619.213 3451.34 620.803 3449.44 622.731C3448.33 623.858 3446.88 622.402 3445.41 620.898C3444.04 619.495 3442.62 618.057 3441.4 618.65C3440.79 618.948 3440.2 619.731 3439.57 620.569C3439.02 621.306 3438.42 622.087 3437.77 622.611C3437.16 623.096 3435.54 622.432 3433.45 621.592C3432.16 621.073 3430.7 620.489 3429.18 620.056C3425.62 621.647 3422.02 623.207 3418.45 624.695C3417.9 626.25 3417.51 628.216 3417.35 630.688C3417.24 632.462 3417.23 634.562 3417.22 636.709C3417.21 639.63 3417.2 642.649 3416.92 645.099C3416.7 647.013 3416.22 647.839 3415.69 647.14C3415.45 646.814 3415.2 646.167 3414.98 645.582C3414.72 644.912 3414.49 644.316 3414.33 644.359C3414.22 644.391 3414.17 644.902 3414.11 645.52C3414.02 646.507 3413.91 647.782 3413.44 647.9C3411.7 648.34 3409.63 648.265 3407.59 648.19C3405.34 648.106 3403.13 648.028 3401.48 648.665C3399.63 649.38 3396.62 647.991 3393.6 646.61C3391.49 645.647 3389.37 644.693 3387.66 644.438C3385.97 644.189 3384.46 645.466 3383 646.711C3381.25 648.205 3379.56 649.648 3377.71 648.307C3377.34 648.034 3376.62 646.123 3375.72 643.732C3375.08 642.038 3374.35 640.101 3373.58 638.33C3371.56 638.659 3369.52 638.907 3367.47 639.086C3367.44 639.365 3367.41 639.65 3367.38 639.941C3367.38 639.947 3367.38 639.954 3367.38 639.96C3366.74 646.517 3365.87 655.485 3361.83 650.878C3360.8 649.707 3359.9 647.382 3359.08 645.29C3358.28 643.236 3357.57 641.397 3356.91 641.094C3356.16 640.75 3355.58 642.187 3354.94 643.751C3354.05 645.945 3353.06 648.398 3351.35 646.545C3351.24 646.419 3351.11 646.28 3350.98 646.141C3349.75 644.826 3347.93 642.882 3345.75 638.726C3341.22 638.264 3336.67 637.601 3332.09 636.815C3324.46 635.504 3316.76 633.849 3309.06 632.196C3305.31 631.375 3300.95 625.949 3296.87 616.781C3292.79 607.6 3289.35 595.502 3287.24 582.749C3285.13 569.998 3284.49 557.445 3285.39 547.44C3286.3 537.447 3288.69 530.904 3291.98 528.919C3297.35 525.709 3302.72 522.495 3308.14 519.459C3308.39 519.145 3308.65 518.839 3308.92 518.549C3310.87 516.391 3312.35 512.459 3313.85 508.521C3314.19 507.617 3314.54 506.71 3314.88 505.827Z" fill="white"/>
<path d="M3280.92 929.207C3283.92 922.436 3292.12 923.674 3296.62 924.371C3296.7 924.381 3296.78 924.391 3296.86 924.401C3297.93 924.565 3298.92 924.496 3300.06 924.411C3302.78 924.21 3306.47 923.931 3314.69 926.679C3316.88 926.201 3319.11 925.787 3321.32 925.459C3345.36 921.894 3370.38 923.835 3395.27 927.392C3395.58 927.328 3395.89 927.262 3396.2 927.196C3402.19 925.915 3409.71 924.376 3414.65 926.183C3420.97 928.475 3425.26 930.777 3428.81 932.781C3439.11 934.51 3449.35 936.195 3459.52 937.531C3468.73 938.742 3477.86 939.669 3486.95 940.071C3492.94 940.336 3498.9 940.369 3504.83 940.112C3510.31 939.874 3515.76 939.461 3521.2 938.891C3524.33 937.428 3527.31 935.722 3530.06 934.146C3533.93 931.93 3537.39 929.971 3540.26 929.281C3547.22 927.616 3555.18 929.709 3561.1 931.278C3562.07 931.535 3562.97 931.778 3563.81 931.987C3568.44 931.037 3573.09 930.035 3577.72 929.021C3578.04 929.53 3578.37 930.06 3578.69 930.604C3582.79 937.395 3587.67 937.218 3595.31 936.974C3598.66 936.868 3602.5 936.753 3607.07 937.192C3610 937.474 3611.53 940.179 3612.79 942.386C3613.16 943.035 3613.5 943.642 3613.85 944.132C3615.05 945.809 3616.27 943.968 3617.71 941.793C3619.57 938.973 3621.81 935.586 3624.86 938.595C3634.53 948.185 3638.68 941.59 3641.84 936.598C3642.77 935.134 3643.61 933.811 3644.48 933.074C3647.29 930.683 3651.31 933.008 3654.37 936.216C3656.79 938.76 3661.57 936.201 3665.22 932.96C3666.59 931.734 3668.45 931.696 3670.65 931.659C3672.92 931.62 3675.55 931.583 3678.36 930.206C3685.47 926.727 3689.23 925.044 3692.27 923.696C3693.13 923.312 3693.94 922.963 3694.74 922.598C3697.28 921.446 3700.44 920.495 3703.63 919.537C3707.45 918.39 3711.34 917.228 3714.28 915.678C3721.93 917.309 3729.58 919.333 3737.21 921.353C3741.14 922.401 3744.9 928.31 3747.67 938.052C3750.44 947.801 3752 960.513 3752 973.687C3752 986.861 3750.44 999.573 3747.67 1009.32C3744.9 1019.06 3741.14 1024.98 3737.23 1026.03C3729.34 1028.12 3721.45 1030.22 3713.58 1031.89C3703.98 1033.93 3694.4 1035.34 3684.83 1035.37C3678.13 1035.38 3671.43 1035.09 3664.75 1034.56C3664.06 1034.5 3663.37 1034.44 3662.68 1034.38C3657.08 1037.65 3651.49 1040.63 3647.56 1041.71C3644.32 1042.6 3641.93 1040.89 3639.89 1039.42C3638.48 1038.41 3637.25 1037.52 3635.99 1037.67C3635.32 1037.75 3634.4 1037.96 3633.29 1038.21C3628.78 1039.23 3621.14 1040.97 3614.11 1037.89C3611 1036.52 3607.36 1033.79 3603.88 1031.2C3598.93 1027.49 3594.25 1024.03 3591.97 1025.15C3587.92 1027.12 3583.26 1025.59 3579.1 1024.25C3575.14 1022.96 3571.69 1021.85 3569.78 1024.09C3567.49 1026.76 3565.51 1025.73 3562.5 1024.22C3560.42 1023.17 3557.88 1021.89 3554.45 1021.44C3550.47 1020.92 3547.66 1019.16 3545.22 1017.67C3541.8 1015.57 3539.27 1013.99 3535.6 1017.15C3531.55 1020.67 3527.29 1022.97 3523.85 1022.03C3522.28 1021.6 3520.51 1021.78 3518.66 1021.98C3516.21 1022.24 3513.68 1022.51 3511.26 1021.4C3509.28 1020.48 3507.57 1018 3506.05 1015.8C3505.58 1015.11 3505.13 1014.46 3504.69 1013.88C3503.15 1013.98 3501.6 1014.1 3500.06 1014.25C3499.83 1014.68 3499.59 1015.14 3499.34 1015.63C3498.07 1018.05 3496.54 1021.02 3494.51 1022.57C3491.32 1025.01 3488.39 1023.74 3485.24 1022.39C3482.8 1021.34 3480.27 1020.25 3477.45 1020.86C3475.53 1021.28 3473.43 1022.45 3471.31 1023.62C3469.26 1024.76 3467.25 1025.88 3465.47 1026.31C3464.51 1026.53 3463.62 1026.56 3462.83 1026.28C3461.98 1025.97 3461.15 1024.42 3460.34 1022.88C3460.33 1022.87 3460.33 1022.86 3460.33 1022.85C3460.27 1022.74 3460.22 1022.64 3460.16 1022.54C3454.87 1024.14 3449.58 1025.89 3444.33 1027.74C3443.9 1028.19 3443.47 1028.63 3443.04 1029.07C3440.91 1031.21 3438.87 1033.29 3437.67 1036.1C3436.38 1039.15 3432.61 1041.19 3428.69 1043.36C3426.09 1044.78 3423.48 1046.24 3421.36 1048.08C3420.13 1049.16 3418.72 1047.63 3417.26 1046.07C3415.91 1044.6 3414.49 1043.1 3413.18 1043.64C3412.52 1043.91 3411.86 1044.67 3411.16 1045.48C3410.54 1046.19 3409.89 1046.95 3409.18 1047.45C3408.51 1047.91 3406.84 1047.18 3404.7 1046.26C3403.38 1045.69 3401.88 1045.05 3400.31 1044.56C3396.5 1046.02 3392.67 1047.46 3388.86 1048.84C3388.21 1050.38 3387.73 1052.33 3387.46 1054.8C3387.26 1056.57 3387.17 1058.67 3387.07 1060.82C3386.94 1063.74 3386.81 1066.76 3386.43 1069.2C3386.13 1071.11 3385.6 1071.92 3385.08 1071.21C3384.84 1070.87 3384.61 1070.22 3384.4 1069.63C3384.16 1068.95 3383.94 1068.35 3383.77 1068.39C3383.65 1068.42 3383.58 1068.92 3383.5 1069.54C3383.37 1070.53 3383.2 1071.8 3382.71 1071.9C3380.89 1072.3 3378.76 1072.17 3376.65 1072.04C3374.31 1071.9 3372.03 1071.78 3370.3 1072.38C3368.36 1073.06 3365.28 1071.61 3362.18 1070.18C3360.02 1069.18 3357.84 1068.19 3356.05 1067.91C3354.31 1067.64 3352.7 1068.9 3351.15 1070.13C3349.28 1071.61 3347.51 1073.03 3345.6 1071.68C3345.22 1071.4 3344.51 1069.48 3343.62 1067.08C3342.98 1065.38 3342.26 1063.44 3341.5 1061.66C3339.38 1061.98 3337.22 1062.22 3335.07 1062.39C3335.03 1062.67 3335 1062.95 3334.96 1063.24C3334.96 1063.25 3334.96 1063.26 3334.96 1063.26C3334.17 1069.82 3333.1 1078.8 3328.96 1074.18C3327.9 1073.01 3326.98 1070.68 3326.16 1068.59C3325.35 1066.53 3324.63 1064.69 3323.94 1064.39C3323.16 1064.04 3322.52 1065.48 3321.84 1067.05C3320.86 1069.25 3319.78 1071.71 3318.02 1069.86C3317.89 1069.73 3317.76 1069.59 3317.63 1069.46C3316.35 1068.14 3314.45 1066.21 3312.2 1062.06C3307.44 1061.62 3302.62 1060.99 3297.76 1060.25C3289.67 1059.02 3281.48 1057.47 3273.25 1055.94C3269.24 1055.17 3264.6 1049.81 3260.3 1040.69C3255.99 1031.56 3252.39 1019.5 3250.22 1006.75C3248.06 994.011 3247.46 981.443 3248.51 971.401C3249.57 961.372 3252.19 954.773 3255.76 952.727C3261.59 949.416 3267.45 946.103 3273.36 942.975C3273.65 942.656 3273.94 942.345 3274.23 942.05C3276.38 939.857 3278.05 935.893 3279.74 931.923C3280.13 931.011 3280.52 930.098 3280.92 929.207Z" fill="white"/>
<path d="M1700.63 308.271C1707.12 324.29 1705.33 355.399 1704.44 372.519C1704.43 372.833 1704.41 373.147 1704.4 373.461C1704.19 377.523 1704.21 381.36 1704.26 385.856C1704.37 396.57 1704.49 411.04 1701.72 441.346C1702.22 450.124 1702.67 458.859 1703.06 467.643C1707.44 562.172 1708.36 656.811 1715.84 748.55C1716.05 749.685 1716.26 750.835 1716.48 751.99C1720.53 774.296 1726.45 800.857 1728.4 817.644C1728.42 817.841 1728.43 818.036 1728.45 818.23C1729.95 836.039 1732.62 848.509 1735.18 858.879C1752.83 903.457 1790.22 944.135 1835.85 976.949C1841.07 981.025 1846.42 983.213 1855.16 983.547C1868.52 984.084 1887.46 978.286 1906 969.146C1923.25 960.73 1940.72 949.817 1958.32 937.936C1961.33 935.478 1964.29 932.995 1967.19 930.53L1956.8 940.173C1960.31 933.989 1963.44 927.622 1966.28 921.382C1972.02 908.69 1976.38 896.898 1980.67 887.261C1990.96 864.213 2004.28 837.689 2013.47 817.137C2015 813.722 2016.37 810.653 2017.64 807.684C2022.7 790.57 2027.24 773.061 2031.31 755.561C2032.13 754.54 2032.99 753.512 2033.86 752.462C2044.63 739.558 2049.62 720.984 2056.29 691.54C2059.19 678.654 2062.37 663.815 2066.37 646.173C2068.92 634.927 2072.7 629.422 2075.76 625.079C2076.66 623.787 2077.5 622.57 2078.23 621.314C2080.73 617.022 2079.82 611.731 2078.68 605.671C2077.2 597.758 2075.39 588.245 2080.24 576.905C2095.67 540.511 2091.08 522.69 2087.74 509.449C2086.75 505.539 2085.84 502.058 2085.52 498.527C2084.48 487.074 2088.53 471.453 2092.91 459.688C2095.97 451.536 2095.77 435.649 2094.26 421.863L2094.14 423.96C2093.84 422.015 2093.5 420.115 2093.16 418.288C2092.1 412.767 2092.27 405.353 2092.41 396.604C2092.55 387.554 2092.66 377.064 2091.34 365.834C2087.96 337.462 2085.97 322.408 2084.41 310.296C2083.96 306.843 2083.55 303.626 2083.11 300.415C2081.73 290.262 2080.43 277.654 2079.03 264.874C2077.35 249.582 2075.53 234.042 2073.43 222.241C2073.65 191.395 2073.91 160.362 2074.03 129.202C2074.1 113.197 2079.03 97.4938 2088.03 85.559C2097.04 73.6224 2109.32 66.4513 2122.47 65.6109C2135.61 64.7762 2148.71 70.3232 2159.16 81.0416C2169.6 91.7589 2176.48 106.79 2178.51 122.817C2182.58 155.1 2186.52 187.529 2189.68 220.165C2193.52 259.917 2196.19 300 2196.47 340.335C2196.67 368.546 2196.07 396.867 2194.58 425.223C2194.54 425.927 2194.51 426.63 2194.47 427.333C2194.41 427.862 2194.4 429.462 2194.32 429.987C2194.09 432.19 2193.86 434.39 2193.63 436.588C2194.89 460.456 2195.41 484.454 2194.58 501.188C2193.89 515.06 2190.94 524.857 2188.38 533.244C2186.62 538.995 2185.04 544.089 2184.47 549.394C2184.16 552.239 2183.83 556.133 2183.42 560.811C2181.74 580.004 2178.41 612.658 2169.85 641.519C2166.07 654.314 2160.4 668.959 2154.8 682.776C2146.78 702.66 2138.89 720.764 2137.56 730.725C2135.31 748.016 2128.6 767.095 2122.31 783.688C2116.34 799.47 2110.7 813.278 2110.12 822.027C2109.48 832.359 2105.64 840.324 2099.72 851.929C2095.61 859.937 2090.51 869.722 2084.23 883.448C2077 899.193 2070.02 909.768 2064.03 918.444C2055.44 930.843 2048.85 939.821 2042.75 955.906C2037.87 968.599 2031.39 981.36 2023.78 991.951C2021.87 994.06 2016.37 999.759 2013.88 1001.14C2009.96 1003.97 2006.03 1006.51 2002.2 1008.61C1996.31 1011.85 1989.85 1016.11 1982.94 1020.49C1973.81 1026.28 1963.84 1032.28 1953.71 1036.27C1945.36 1039.57 1937.48 1040.56 1930.51 1041.22C1928.34 1041.43 1926.23 1041.62 1924.23 1041.83C1917.56 1044.72 1910.72 1047.41 1903.52 1049.83C1902.49 1050.6 1901.37 1051.43 1900.2 1052.27C1894.34 1056.5 1886.61 1061.65 1875.23 1064.79C1857.2 1069.69 1838.06 1067.8 1819.63 1060.67C1809.69 1056.82 1799.99 1051.44 1790.66 1044.86C1787.75 1042.78 1784.65 1040.65 1781.38 1038.55C1774.1 1033.88 1765.47 1028.93 1756.98 1023.69C1744.37 1015.93 1732.13 1007.42 1725.17 999.699C1722.55 996.804 1721.24 993.36 1719.98 989.925C1719.98 989.908 1719.98 989.891 1719.97 989.873C1719.89 989.64 1719.8 989.41 1719.72 989.178C1700.89 972.651 1683.06 954.033 1667.43 932.95C1665.83 931.286 1664.24 929.571 1662.68 927.842C1655.05 919.431 1648.11 910.629 1642.43 905.279C1636.24 899.547 1626 881.838 1618.05 861.543C1616 856.366 1614.08 851.094 1612.29 845.812C1609.81 838.861 1607.31 831.524 1605.07 825.703C1602.91 820.061 1603.32 813.711 1603.94 807.847C1604.5 802.272 1605.06 796.248 1603.65 790.45C1602.93 787.523 1601.71 784.414 1600.41 781.05C1599.27 778.089 1598.07 774.915 1597.14 771.693C1596.28 768.706 1596.06 761.466 1595.94 752.489C1595.87 746.985 1595.79 740.537 1595.59 733.957C1592.33 716.988 1589.33 699.692 1586.65 682.814C1584.83 679.384 1582.64 676.44 1579.98 674.197C1578.08 672.626 1575.87 671.34 1573.61 670.011C1570.53 668.202 1567.35 666.319 1564.7 663.534C1562.62 661.358 1561.62 658.636 1562.22 656.687C1562.49 655.78 1563.11 655.045 1563.66 654.379C1564.29 653.61 1564.86 652.948 1564.77 652.202C1564.71 651.665 1564.16 651.15 1563.5 650.514C1562.45 649.498 1561.08 648.174 1560.84 645.986C1559.95 637.835 1559.55 628.455 1559.22 619.381C1558.84 609.178 1558.53 599.378 1557.6 591.519C1556.55 582.675 1557.54 570.129 1558.59 557.461C1559.33 548.702 1560.08 539.792 1560.18 532.329C1560.28 524.994 1558.84 517.361 1557.47 510.038C1555.81 501.26 1554.24 492.723 1555.52 485.419C1555.78 483.941 1557.69 482.031 1560.09 479.637C1561.79 477.94 1563.73 475.989 1565.51 473.788C1565.09 464.559 1564.79 455.385 1564.58 446.168C1564.29 445.854 1564 445.531 1563.71 445.207C1563.7 445.202 1563.7 445.197 1563.69 445.192C1557.03 437.879 1547.92 427.849 1552.62 413.115C1553.82 409.375 1556.18 406.969 1558.31 404.804C1560.39 402.677 1562.26 400.779 1562.58 398.078C1562.95 395.011 1561.51 391.451 1559.95 387.561C1557.77 382.102 1555.33 375.998 1557.26 369.761C1557.39 369.335 1557.54 368.877 1557.68 368.4C1559.06 363.877 1561.09 357.171 1565.39 350.474C1566.09 330.887 1567.08 311.278 1568.26 291.746C1570.24 259.136 1572.77 226.557 1575.46 194.024C1576.79 178.229 1582.81 163.01 1592.5 151.845C1602.2 140.596 1614.7 134.46 1627.63 134.453C1640.56 134.463 1653.04 140.591 1662.78 151.725C1672.51 162.781 1678.62 177.792 1680.14 193.394C1682.58 218.871 1685.13 244.359 1687.62 269.815C1687.91 271.14 1688.19 272.472 1688.45 273.798C1690.41 283.664 1694.21 292.87 1698.02 301.965C1698.9 304.061 1699.78 306.162 1700.63 308.271Z" fill="white"/>
<path d="M999.353 252.824C1005.65 260.053 1003.22 274.149 1001.85 281.82C1001.82 281.962 1001.8 282.105 1001.78 282.247C1001.45 284.123 1001.37 285.772 1001.28 287.813C1001.06 292.687 1000.77 299.146 996.736 312.675C996.856 316.685 996.906 320.523 996.87 324.515C996.591 354.894 993.343 385.236 988.804 415.268C987.008 427.09 985.005 439.009 982.903 450.857C982.919 451.391 982.935 451.95 982.953 452.485C983.283 462.953 983.662 476.144 981.139 484.18C977.928 494.545 975.029 501.431 972.532 507.168C966.456 540.224 960.83 573.207 957.777 606.313C956.821 616.686 956.121 627.068 955.734 637.463C955.378 647.032 955.217 656.612 955.228 666.2C956.367 671.844 957.771 677.175 959.07 682.177C960.897 689.156 962.518 695.401 962.932 700.492C963.93 712.792 961.115 726.535 959.026 736.771C958.685 738.446 958.362 740.021 958.08 741.473C958.623 749.681 959.229 757.866 959.855 766.111C959.321 766.633 958.764 767.157 958.194 767.689C951.075 774.354 950.85 782.991 950.505 796.43C950.354 802.333 950.176 809.186 949.412 817.065C948.915 822.302 946.107 824.799 943.815 826.842C943.142 827.433 942.511 828.02 941.997 828.618C940.237 830.663 941.993 832.932 944.071 835.556C944.659 836.3 945.273 837.071 945.841 837.873L945.857 837.186C947.939 840.158 949.431 843.571 947.004 847.583C937.108 864.221 943.623 871.972 948.548 877.527C949.994 879.174 951.3 880.75 952.02 882.281C954.357 887.209 951.965 894.201 948.718 899.571C946.142 903.677 948.658 912.277 951.892 918.617C953.114 921.083 953.149 924.281 953.191 928.17C953.234 932.146 953.284 936.717 954.69 941.655C958.247 954.02 960.032 960.545 961.46 965.801C961.868 967.31 962.242 968.728 962.631 970.089C963.861 974.51 964.923 979.946 966.016 985.488C967.321 992.079 968.677 998.929 970.365 1004.19C969.885 1009.43 969.344 1014.79 968.725 1020.27C968.751 1020.4 968.708 1020.8 968.732 1020.93C967.609 1030.07 966.291 1037.81 965.196 1045.46C964.27 1051.78 958.603 1058.12 949.084 1063.24C939.559 1068.35 927.013 1071.69 913.848 1072.34C900.684 1072.96 887.825 1070.83 877.84 1066.11C867.867 1061.42 861.663 1054.45 860.466 1046.93C859.016 1037.82 857.826 1028.77 856.619 1020.9L856.625 1021.46C855.764 1016.18 854.891 1010.75 854.077 1005.22C851.565 988.243 849.737 970.489 849.549 953.047C849.409 940.833 849.666 928.545 850.228 916.475C850.286 915.238 850.35 913.984 850.414 912.716C847.174 902.481 844.27 892.351 843.265 885.098C842.435 879.261 844.203 874.887 845.717 871.265C846.76 868.73 847.684 866.453 847.562 864.237C847.497 863.03 847.314 861.37 847.095 859.334C846.449 853.39 845.488 844.596 846.271 835.225C846.311 835.014 846.25 834.361 846.295 834.15C846.656 830.688 847.281 827.054 848.28 823.519C849.865 818.069 852.856 811.575 855.712 805.49C859.797 796.767 863.614 788.611 862.679 784.424C861.04 776.939 862.952 768.609 864.645 761.311C866.264 754.24 867.676 748.173 865.612 744.527C863.147 740.137 864.344 736.707 866.127 731.403C867.364 727.691 868.87 723.311 869.641 717.123C870.53 710.02 872.555 705.099 874.279 700.848C876.702 694.97 878.528 690.443 875.738 683.591C872.639 675.948 870.782 668.017 872.081 661.881C872.673 659.074 872.675 655.872 872.676 652.52C872.677 648.085 872.682 643.402 874.053 639.212C875.183 635.751 877.849 632.96 880.208 630.488C880.944 629.719 881.646 628.982 882.266 628.264C882.337 625.474 882.393 622.68 882.421 619.884C882.026 619.414 881.588 618.919 881.135 618.402C878.867 615.808 876.084 612.629 874.781 608.779C872.719 602.687 874.342 597.484 876.062 592.001C877.402 587.734 878.799 583.284 878.543 578.114C878.369 574.591 877.468 570.546 876.574 566.533C875.248 560.582 873.941 554.706 875.046 550.701C875.461 549.202 877.113 547.969 878.756 546.749C878.766 546.744 878.776 546.738 878.786 546.733C878.897 546.65 879.006 546.567 879.117 546.484C878.241 536.59 877.234 526.683 876.147 516.817C875.763 515.952 875.385 515.08 875.014 514.203C873.197 509.932 871.431 505.813 868.817 503.081C865.983 500.123 864.521 492.825 862.971 485.202C861.958 480.146 860.904 475.08 859.413 470.774C858.541 468.28 860.269 466.022 862.05 463.712C863.71 461.569 865.416 459.325 865.088 456.796C864.924 455.531 864.279 454.153 863.589 452.689C862.982 451.4 862.338 450.041 861.96 448.636C861.61 447.34 862.6 444.398 863.855 440.724C864.631 438.434 865.505 435.933 866.243 433.146C865.418 425.851 864.627 418.516 863.891 411.352C863.89 411.343 863.89 411.333 863.889 411.324C862.476 409.741 860.626 408.359 858.233 407.242C856.517 406.441 854.458 405.743 852.354 405.028C849.49 404.056 846.53 403.054 844.183 401.735C842.349 400.698 841.635 399.559 842.426 398.78C842.795 398.422 843.48 398.16 844.099 397.921C844.808 397.648 845.439 397.405 845.429 397.085C845.42 396.855 844.928 396.601 844.333 396.289C843.382 395.792 842.155 395.146 842.133 394.223C842.048 390.797 842.532 386.943 843.007 383.107C843.534 378.916 844.042 374.743 843.735 371.443C843.39 367.82 845.338 362.463 847.267 357.325C848.615 353.601 849.95 350.039 850.521 346.861C851.082 343.72 850.103 340.579 849.146 337.398C847.997 333.582 846.881 330.078 848.533 326.985C848.868 326.37 850.878 325.634 853.393 324.715C855.175 324.064 857.213 323.315 859.093 322.461C859.129 318.508 859.24 314.731 859.416 310.768C859.145 310.627 858.87 310.482 858.588 310.336C858.582 310.334 858.575 310.332 858.569 310.329C852.215 307.074 843.521 302.603 848.734 296.574C850.059 295.013 852.502 294.054 854.701 293.189C856.86 292.34 858.792 291.583 859.198 290.467C859.658 289.171 858.332 287.619 856.889 285.963C854.863 283.658 852.596 281.017 854.692 278.431C854.835 278.254 854.992 278.064 855.149 277.867C856.639 276.033 858.841 273.157 863.28 270.41C864.418 262.137 865.723 253.87 867.118 245.589C869.445 231.775 872.018 217.936 874.514 203.956C875.746 197.161 881.615 190.488 891.179 185.421C900.757 180.356 913.171 177.318 926.1 176.995C939.028 176.672 951.604 179.073 961.479 183.676C971.34 188.28 977.608 194.742 979.225 201.632C981.834 212.857 984.405 224.182 986.728 235.569C987.007 236.17 987.278 236.769 987.532 237.356C989.422 241.766 993.125 245.861 996.825 249.989C997.675 250.925 998.526 251.87 999.353 252.824Z" fill="white"/>
<path d="M1029.42 86.7259C1042.08 77.5525 1070.38 75.1998 1086.04 74.8032C1086.32 74.7907 1086.61 74.7785 1086.89 74.7665C1090.65 74.6381 1094.15 74.3232 1098.23 73.9926C1108.11 73.3042 1121.38 71.936 1150.03 75.5774C1158.32 75.3949 1166.73 75.4967 1175.32 75.9552C1203.2 77.5322 1232.39 81.9936 1263.12 93.6909C1348.83 127.405 1380.36 206.738 1392.91 265.111C1393.26 266.196 1393.6 267.295 1393.94 268.411C1398.01 281.552 1401.8 296.63 1403.91 310.241C1406.12 323.66 1405.81 336.472 1404.11 346.277C1398.04 378.43 1386.5 393.91 1378.33 405.573C1367.36 423.923 1354.89 438.387 1343.66 450.811C1305.33 493.469 1259.78 515.926 1217.85 535.894C1199.87 544.295 1182.13 552.041 1165.01 559.841C1149.28 567.014 1133.95 574.186 1119.9 581.74C1119.14 582.278 1118.39 582.814 1117.66 583.348C1117.25 583.899 1117.3 584.354 1118.59 583.824C1119.82 583.074 1122.76 582.223 1127.56 574.253C1133.03 566.963 1133.22 546.717 1128.31 539.122C1124.15 530.961 1121.48 529.225 1120.42 527.776C1119.19 526.393 1119.24 526.122 1119.66 525.933C1120.09 525.775 1120.95 525.822 1121.97 525.912C1124.01 526.1 1126.65 526.469 1129.27 526.858C1132.25 527.435 1135.04 528.033 1137.67 528.69C1158.77 533.952 1182.34 543.597 1200.22 551.296C1203.15 552.552 1205.9 553.746 1208.48 554.857C1223.46 559.026 1238.75 563.504 1254.66 569.215C1255.51 570.129 1256.35 571.069 1257.19 572.031C1266.91 583.417 1281.15 589.16 1304.42 606.249C1307.53 608.189 1313.42 616.057 1315.52 619.057C1316.55 620.874 1317.6 622.735 1318.66 624.646C1324.21 634.656 1330.54 646.611 1336.68 661.434C1340.63 671.016 1340.09 677.065 1339.62 681.865C1339.48 683.276 1339.35 684.618 1339.32 685.915C1339.22 690.357 1342.43 693.776 1346.17 697.978C1350.99 703.389 1356.78 710.274 1356.72 721.388C1356.08 756.406 1363.96 768.78 1370.79 778.914C1372.72 781.835 1374.46 784.532 1375.61 787.332C1379.35 796.492 1378.72 810.182 1376.64 820.456C1375.37 826.767 1377.61 837.455 1380.7 847.289C1380.71 847.349 1380.72 847.531 1380.73 847.59C1381.6 850.348 1382.56 853.238 1383.53 855.745C1385.16 860.104 1385.74 866.052 1386.41 873.142C1387.11 880.425 1387.9 888.889 1390.06 897.841C1395.51 920.454 1398.18 932.532 1400.32 942.217C1400.93 945.026 1401.48 947.535 1402.05 950.13C1403.86 958.245 1405.6 968.438 1407.34 978.674C1409.42 990.965 1411.48 1003.44 1413.7 1012.91C1413.81 1037.82 1413.38 1062.76 1412.78 1087.66C1412.47 1100.45 1407.22 1113.01 1397.94 1122.42C1388.66 1131.85 1376.19 1137.42 1363.02 1137.98C1349.85 1138.53 1336.91 1134.06 1326.71 1125.63C1316.53 1117.22 1309.97 1105.49 1308.21 1093.04C1304.67 1067.96 1300.96 1042.92 1297.51 1017.84C1293.32 987.301 1289.52 956.746 1286.91 926.11C1285.09 904.668 1283.47 883.175 1282.03 861.681C1281.91 859.865 1281.79 858.076 1281.68 856.316L1281.71 856.703C1281.68 856.279 1281.65 855.856 1281.62 855.435C1276.6 837.921 1271.67 821.037 1269 809.356C1266.81 799.734 1267.42 792.613 1267.88 786.528C1268.19 782.315 1268.43 778.635 1267.6 775.139C1267.15 773.254 1266.44 770.719 1265.55 767.701C1261.93 755.213 1255.1 735.837 1250.96 716.985C1249.17 708.574 1247.65 698.27 1245.62 688.167C1243.68 678.376 1241.31 668.838 1238.54 661.965L1250.73 676.044C1249.31 674.375 1247.64 673.077 1246.09 672.476C1237.71 669.168 1227.25 662.221 1216.77 656.328C1206.84 650.706 1197.22 646.01 1190.84 646.075C1183.19 646.16 1177.69 643.166 1169.25 638.736C1163.39 635.666 1156.12 631.926 1145.67 628.061C1133.6 623.6 1125.34 619.081 1118.32 615.206C1112.99 612.264 1108.37 609.702 1103.22 607.793C1097.99 605.855 1092.48 604.436 1084.22 602.095C1079.82 600.767 1074.96 599.095 1068.69 595.11C1063.22 590.796 1050.89 584.762 1047.07 560.367C1045.78 548.608 1049.86 537.615 1053.68 531.445C1057.59 525.007 1061.26 521.461 1064.27 518.702C1070.41 513.301 1074.82 510.917 1078.81 508.866C1080.24 508.172 1081.66 507.542 1083.06 506.985C1088.17 504.943 1093.62 502.15 1099.3 499.314C1106.78 495.575 1114.53 491.818 1122.12 489.686C1128.38 487.926 1134.22 488.087 1139.35 488.235C1140.96 488.28 1142.5 488.317 1143.96 488.3C1148.49 486.191 1153 484.065 1157.46 481.901C1158.01 481.19 1158.57 480.422 1159.16 479.625C1162.14 475.62 1165.74 470.71 1171 466.545C1179.31 459.949 1187.9 457.184 1196.84 454.071C1203.78 451.65 1210.96 449.011 1217.94 444.207C1222.69 440.936 1227.58 436.528 1232.12 432.09C1238.91 425.491 1244.82 418.839 1249.97 415.63C1251.91 414.428 1254.42 414.338 1256.92 414.207C1256.94 414.208 1256.95 414.21 1256.96 414.211C1257.13 414.202 1257.3 414.191 1257.47 414.181C1263.14 407.962 1268.13 401.517 1272.31 394.925C1276.35 388.824 1279.99 383.03 1283.12 377.404C1283.51 376.111 1283.9 374.815 1284.25 373.553C1286.01 367.367 1287 361.732 1286.04 357.663C1285.09 353.236 1286.82 345.139 1285.95 339.63C1285.47 335.959 1284.21 333.371 1282.38 331.706C1282.01 331.373 1281.94 331.034 1282.05 330.64C1281.98 328.193 1282.63 325.618 1283.27 323.016C1284.17 319.326 1285.03 315.493 1283.77 311.81C1283.13 309.964 1281.98 308.09 1280.73 306.127C1279.63 304.394 1278.45 302.599 1277.49 300.665C1276.59 298.869 1276.3 294.434 1275.69 288.824C1275.31 285.361 1274.81 281.451 1274.01 277.472C1269.3 267.92 1264.11 259.152 1258.58 251.601C1256.35 250.664 1253.88 250.262 1251.18 250.52C1249.25 250.706 1247.11 251.225 1244.95 251.799C1242.01 252.58 1239.01 253.471 1236.36 253.843C1234.29 254.132 1233.07 253.733 1233.24 252.7C1233.32 252.218 1233.7 251.602 1234.03 251.041C1234.42 250.4 1234.76 249.823 1234.56 249.606C1234.42 249.45 1233.89 249.591 1233.26 249.767C1232.25 250.048 1230.96 250.428 1230.42 249.868C1228.41 247.775 1226.61 245.387 1224.87 243.375C1222.95 241.131 1221.06 239.334 1219.22 238.676C1217.46 238.046 1216.01 235.834 1213.9 233.453C1213.29 232.965 1212.66 232.468 1211.99 231.972C1208.73 229.546 1204.9 227.204 1201.18 225.843C1197.59 224.515 1193.28 224.76 1189.07 225.143C1184.01 225.599 1179.02 226.233 1174.91 224.282C1174.08 223.885 1173.14 221.809 1171.89 219.218C1171 217.382 1170 215.29 1168.75 213.352C1162.92 213.041 1157.04 212.831 1151.05 212.713C1150.84 212.986 1150.62 213.263 1150.41 213.547C1150.4 213.553 1150.4 213.56 1150.4 213.566C1145.49 219.978 1139.47 228.799 1129.7 224.239C1127.21 223.084 1125.46 220.773 1123.87 218.698C1122.32 216.66 1120.92 214.841 1119.07 214.602C1116.97 214.331 1114.61 215.892 1112.16 217.605C1108.67 220.014 1104.83 222.751 1100.38 221.227C1100.07 221.123 1099.74 221.009 1099.4 220.896C1096.11 219.833 1091.36 218.285 1086.02 214.635C1072.3 215.646 1058.41 217.023 1044.43 218.778C1021.15 221.696 997.537 225.677 974.031 230.849C962.564 233.353 950.019 231.632 938.519 225.741C927.083 219.81 917.675 210.203 912.625 198.276C907.578 186.362 907.325 172.877 912.191 160.459C917.094 148.041 926.756 137.853 938.842 132.117C958.467 122.811 978.655 114.182 999.395 106.569C1000.44 106.018 1001.49 105.477 1002.54 104.955C1010.43 101.06 1017.35 95.6666 1024.46 90.3551C1026.08 89.1391 1027.75 87.9167 1029.42 86.7259Z" fill="white"/>
</svg>
