<svg width="963" height="779" viewBox="0 0 963 779" fill="none" xmlns="http://www.w3.org/2000/svg">
<path d="M806.891 586.948C819.572 580.547 842.397 564.605 855.803 552.89C862.808 546.73 894.329 515.331 898.556 510.259C908.217 498.664 926.937 471.974 932.13 462.553C936.719 454.099 944.449 438.279 946.743 432.361C951.816 419.559 952.661 417.264 954.473 410.622C958.7 395.043 959.907 388.883 961.235 378.739C963.409 361.71 968.119 363.039 905.318 362.193C876.696 361.831 827.904 361.952 797.107 362.555C750.369 363.401 740.707 363.279 739.379 361.951C737.93 360.622 737.93 356.395 739.017 336.952C739.741 324.152 740.587 313.163 740.949 312.556C741.312 312.073 742.036 300.358 742.64 286.591C743.727 261.832 744.089 256.397 748.437 200.721C750.973 168.838 751.215 168.355 760.997 166.544C774.282 164.249 781.287 158.693 781.287 150.36C781.287 144.563 778.992 143.235 769.935 144.201L762.205 145.047L757.615 139.491L753.026 133.814L754.597 125.24C755.442 120.409 756.65 112.68 757.133 108.091C758.824 93.598 762.688 70.0473 765.707 56.7625C766.432 53.7432 767.398 48.3084 768.002 44.6853C769.089 37.1981 772.108 28.262 773.315 28.6228C773.678 28.8643 774.885 28.9851 775.852 28.9851C776.938 28.9851 778.026 29.951 778.509 31.0378C780.079 35.5064 783.944 39.8542 786.238 39.8542C790.103 39.8542 791.19 34.5402 790.707 18.5984C790.224 2.53621 789.258 -0.000220466 783.702 -0.000244141C781.287 -0.000244141 779.234 1.20778 776.818 4.1062C772.833 9.05782 769.33 15.9418 763.171 30.7966C759.427 40.096 757.133 49.637 757.133 56.7625C757.012 61.1102 756.528 67.0283 755.804 70.0476C754.475 75.8446 753.509 84.2988 750.973 109.781C749.886 120.892 748.799 126.085 747.712 126.447C745.176 127.534 739.017 120.771 739.017 117.027C739.016 110.143 734.186 111.352 731.287 118.719C729.838 122.704 729.596 124.878 730.562 128.017C731.287 130.312 731.771 134.056 731.771 136.23C731.771 140.82 736.48 149.877 741.553 155.191C744.21 158.09 745.056 160.143 745.056 163.645C745.056 169.926 742.882 201.567 741.433 216.18C737.206 257.605 731.771 327.893 731.771 339.367C731.771 352.893 730.562 360.623 727.905 363.521C725.973 365.574 724.162 365.937 716.916 365.937C708.1 365.937 683.945 368.231 659.911 371.492C652.665 372.458 644.212 373.183 641.192 373.183C638.173 373.183 633.101 374.029 629.84 374.995C626.579 375.961 621.144 376.806 617.883 376.806C614.501 376.806 608.704 377.531 605.081 378.497C601.337 379.463 593.97 381.033 588.656 382.12C526.218 395.042 489.141 410.502 470.422 431.274C461.968 440.694 460.035 445.404 460.035 456.515C460.035 467.505 461.605 471.733 469.214 481.878C482.982 500.114 513.9 519.679 551.218 534.051C562.932 538.64 567.159 540.21 570.541 541.659C575.13 543.591 581.652 545.765 586.241 547.094C588.294 547.697 591.555 548.663 593.487 549.267C609.188 554.581 643.004 563.519 653.27 565.21C656.289 565.693 661.482 566.779 664.742 567.504C683.22 571.972 686.843 572.697 702.785 575.354C708.461 576.32 715.466 577.649 718.485 578.374C726.939 580.306 744.814 583.204 752.905 583.928C756.891 584.291 762.567 585.137 765.586 585.741C768.605 586.345 777.422 587.793 785.272 588.76L799.644 590.692L806.891 586.948Z" fill="white"/>
<path d="M806.891 586.948C819.572 580.547 842.397 564.605 855.803 552.89C862.808 546.73 894.329 515.331 898.556 510.259C908.217 498.664 926.937 471.974 932.13 462.553C936.719 454.099 944.449 438.279 946.743 432.361C951.816 419.559 952.661 417.264 954.473 410.622C958.7 395.043 959.907 388.883 961.235 378.739C963.409 361.71 968.119 363.039 905.318 362.193C876.696 361.831 827.904 361.952 797.107 362.555C750.369 363.401 740.707 363.279 739.379 361.951C737.93 360.622 737.93 356.395 739.017 336.952C739.741 324.152 740.587 313.163 740.949 312.556C741.312 312.073 742.036 300.358 742.64 286.591C743.727 261.832 744.089 256.397 748.437 200.721C750.973 168.838 751.215 168.355 760.997 166.544C774.282 164.249 781.287 158.693 781.287 150.36C781.287 144.563 778.992 143.235 769.935 144.201L762.205 145.047L757.615 139.491L753.026 133.814L754.597 125.24C755.442 120.409 756.65 112.68 757.133 108.091C758.824 93.598 762.688 70.0473 765.707 56.7625C766.432 53.7432 767.398 48.3084 768.002 44.6853C769.089 37.1981 772.108 28.262 773.315 28.6228C773.678 28.8643 774.885 28.9851 775.852 28.9851C776.938 28.9851 778.026 29.951 778.509 31.0378C780.079 35.5064 783.944 39.8542 786.238 39.8542C790.103 39.8542 791.19 34.5402 790.707 18.5984C790.224 2.53621 789.258 -0.000220466 783.702 -0.000244141C781.287 -0.000244141 779.234 1.20778 776.818 4.1062C772.833 9.05782 769.33 15.9418 763.171 30.7966C759.427 40.096 757.133 49.637 757.133 56.7625C757.012 61.1102 756.528 67.0283 755.804 70.0476C754.475 75.8446 753.509 84.2988 750.973 109.781C749.886 120.892 748.799 126.085 747.712 126.447C745.176 127.534 739.017 120.771 739.017 117.027C739.016 110.143 734.186 111.352 731.287 118.719C729.838 122.704 729.596 124.878 730.562 128.017C731.287 130.312 731.771 134.056 731.771 136.23C731.771 140.82 736.48 149.877 741.553 155.191C744.21 158.09 745.056 160.143 745.056 163.645C745.056 169.926 742.882 201.567 741.433 216.18C737.206 257.605 731.771 327.893 731.771 339.367C731.771 352.893 730.562 360.623 727.905 363.521C725.973 365.574 724.162 365.937 716.916 365.937C708.1 365.937 683.945 368.231 659.911 371.492C652.665 372.458 644.212 373.183 641.192 373.183C638.173 373.183 633.101 374.029 629.84 374.995C626.579 375.961 621.144 376.806 617.883 376.806C614.501 376.806 608.704 377.531 605.081 378.497C601.337 379.463 593.97 381.033 588.656 382.12C526.218 395.042 489.141 410.502 470.422 431.274C461.968 440.694 460.035 445.404 460.035 456.515C460.035 467.505 461.605 471.733 469.214 481.878C482.982 500.114 513.9 519.679 551.218 534.051C562.932 538.64 567.159 540.21 570.541 541.659C575.13 543.591 581.652 545.765 586.241 547.094C588.294 547.697 591.555 548.663 593.487 549.267C609.188 554.581 643.004 563.519 653.27 565.21C656.289 565.693 661.482 566.779 664.742 567.504C683.22 571.972 686.843 572.697 702.785 575.354C708.461 576.32 715.466 577.649 718.485 578.374C726.939 580.306 744.814 583.204 752.905 583.928C756.891 584.291 762.567 585.137 765.586 585.741C768.605 586.345 777.422 587.793 785.272 588.76L799.644 590.692L806.891 586.948Z" stroke="white"/>
<path d="M204.845 290.334C216.077 298.184 233.468 292.629 226.463 283.45C225.497 282.242 224.41 276.808 223.927 271.373C223.082 260.987 224.048 256.639 231.777 236.712C233.226 233.089 235.521 226.446 236.97 222.099C238.54 217.63 241.318 212.195 243.25 210.021C245.304 207.727 247.719 203.5 248.564 200.48C249.53 197.461 251.704 193.113 253.395 190.818C259.433 182.727 263.057 176.447 267.284 166.544C269.699 161.109 271.631 156.036 271.631 155.312C271.633 154.586 274.531 151.326 278.153 147.945C282.742 143.718 285.037 140.457 286.003 137.075C287.091 132.968 299.771 114.492 302.791 112.438C305.447 110.627 319.095 91.3032 322.959 83.8154C325.496 78.9847 330.205 72.7045 334.07 68.8398C337.814 65.2167 343.37 58.4536 346.268 53.8643C351.099 46.3764 351.703 44.9269 351.703 38.043C351.823 25.1206 344.215 17.029 335.399 20.5312C330.568 22.4636 317.524 32.7292 307.379 42.5117C303.273 46.4972 297.114 52.1735 293.491 55.3135C289.868 58.4535 284.07 63.526 280.689 66.666C277.187 69.9265 274.047 72.4626 273.564 72.4629C272.598 72.4629 258.467 82.9697 256.535 85.1436C252.307 89.8538 217.888 119.563 216.68 119.563C216.314 119.567 210.518 123.672 203.878 128.742C197.236 133.694 188.662 139.732 184.676 142.147C180.812 144.442 176.343 147.583 174.773 149.032C166.44 157.003 156.899 158.693 156.899 152.051C156.899 149.273 161.126 142.389 166.44 136.472C168.614 134.177 172.841 128.983 175.86 124.998C179 121.013 185.521 113.284 190.352 107.729C195.182 102.295 199.167 96.9809 199.168 96.0137C199.168 94.9268 200.256 94.2023 201.705 94.2021C205.569 94.2021 211.97 89.7331 214.869 85.2646C217.284 81.1584 226.222 73.0665 234.193 67.6318C236.487 66.0621 238.66 64.3713 239.023 64.0088C239.868 62.9218 261.97 48.0671 265.593 46.1348C267.163 45.2893 270.183 43.5983 272.236 42.3906C277.671 39.1299 289.506 36.7145 291.197 38.4053C293.612 40.8205 299.409 40.0962 301.945 37.0771C304.602 33.9371 306.051 27.7778 304.843 24.2754C303.877 21.0146 298.201 18.1156 293.128 18.2363C290.954 18.3572 285.641 19.6863 281.293 21.377C276.946 22.947 272.114 24.7584 270.423 25.3623C266.921 26.4493 263.298 28.3816 256.293 32.9707C253.396 34.7818 250.739 36.2308 250.255 36.2314C249.289 36.2314 243.613 39.9753 226.342 51.5693C222.357 54.2263 218.009 57.7285 216.68 59.1777C215.352 60.627 211.004 64.3714 207.019 67.3906C203.034 70.4099 196.27 75.9654 191.922 79.8301C187.575 83.5738 181.899 88.1626 179.242 89.8535C171.512 95.1675 153.88 115.578 146.271 128.139C144.822 130.433 142.527 133.453 141.078 134.781C133.711 141.424 131.175 157.002 136.247 164.49C140.957 171.133 157.503 182.485 162.696 182.364C168.01 182.123 174.531 178.5 179.483 172.824C184.555 167.027 185.159 166.664 190.714 166.664C196.27 166.664 196.754 166.423 200.498 161.351C202.551 158.331 206.174 155.07 208.468 153.983C210.763 152.896 216.923 148.79 222.116 144.805C227.43 140.94 232.019 137.68 232.381 137.68C234.678 137.678 251.463 123.549 256.293 117.511C261.849 110.506 268.009 105.071 270.303 105.071C270.907 105.071 271.632 104.588 271.874 103.984C272.477 102.173 286.608 90.5781 288.298 90.5781C291.679 90.5784 289.505 94.5646 278.877 108.332C275.254 113.042 268.492 122.22 263.782 128.621C259.192 135.022 254.12 140.94 252.67 142.027C251.1 142.994 249.893 144.805 249.893 146.134C249.893 147.462 248.444 150.24 246.632 152.413C244.7 154.587 242.163 158.573 240.834 161.229C239.506 163.886 236.245 169.08 233.588 172.703C225.859 183.452 218.13 197.944 216.198 205.915C215.473 208.572 212.937 213.523 210.401 216.784C207.865 220.166 205.208 224.273 204.483 225.843C203.637 227.534 201.343 232.243 199.29 236.229C197.237 240.334 195.546 245.044 195.545 246.735C195.545 248.305 194.7 251.688 193.734 253.982C192.647 256.519 191.922 262.074 191.922 267.388C191.922 275.721 192.285 276.808 195.908 281.518C198.082 284.416 202.067 288.402 204.845 290.334Z" fill="white"/>
<path d="M204.845 290.334C216.077 298.184 233.468 292.629 226.463 283.45C225.497 282.242 224.41 276.808 223.927 271.373C223.082 260.987 224.048 256.639 231.777 236.712C233.226 233.089 235.521 226.446 236.97 222.099C238.54 217.63 241.318 212.195 243.25 210.021C245.304 207.727 247.719 203.5 248.564 200.48C249.53 197.461 251.704 193.113 253.395 190.818C259.433 182.727 263.057 176.447 267.284 166.544C269.699 161.109 271.631 156.036 271.631 155.312C271.633 154.586 274.531 151.326 278.153 147.945C282.742 143.718 285.037 140.457 286.003 137.075C287.091 132.968 299.771 114.492 302.791 112.438C305.447 110.627 319.095 91.3032 322.959 83.8154C325.496 78.9847 330.205 72.7045 334.07 68.8398C337.814 65.2167 343.37 58.4536 346.268 53.8643C351.099 46.3764 351.703 44.9269 351.703 38.043C351.823 25.1206 344.215 17.029 335.399 20.5312C330.568 22.4636 317.524 32.7292 307.379 42.5117C303.273 46.4972 297.114 52.1735 293.491 55.3135C289.868 58.4535 284.07 63.526 280.689 66.666C277.187 69.9265 274.047 72.4626 273.564 72.4629C272.598 72.4629 258.467 82.9697 256.535 85.1436C252.307 89.8538 217.888 119.563 216.68 119.563C216.314 119.567 210.518 123.672 203.878 128.742C197.236 133.694 188.662 139.732 184.676 142.147C180.812 144.442 176.343 147.583 174.773 149.032C166.44 157.003 156.899 158.693 156.899 152.051C156.899 149.273 161.126 142.389 166.44 136.472C168.614 134.177 172.841 128.983 175.86 124.998C179 121.013 185.521 113.284 190.352 107.729C195.182 102.295 199.167 96.9809 199.168 96.0137C199.168 94.9268 200.256 94.2023 201.705 94.2021C205.569 94.2021 211.97 89.7331 214.869 85.2646C217.284 81.1584 226.222 73.0665 234.193 67.6318C236.487 66.0621 238.66 64.3713 239.023 64.0088C239.868 62.9218 261.97 48.0671 265.593 46.1348C267.163 45.2893 270.183 43.5983 272.236 42.3906C277.671 39.1299 289.506 36.7145 291.197 38.4053C293.612 40.8205 299.409 40.0962 301.945 37.0771C304.602 33.9371 306.051 27.7778 304.843 24.2754C303.877 21.0146 298.201 18.1156 293.128 18.2363C290.954 18.3572 285.641 19.6863 281.293 21.377C276.946 22.947 272.114 24.7584 270.423 25.3623C266.921 26.4493 263.298 28.3816 256.293 32.9707C253.396 34.7818 250.739 36.2308 250.255 36.2314C249.289 36.2314 243.613 39.9753 226.342 51.5693C222.357 54.2263 218.009 57.7285 216.68 59.1777C215.352 60.627 211.004 64.3714 207.019 67.3906C203.034 70.4099 196.27 75.9654 191.922 79.8301C187.575 83.5738 181.899 88.1626 179.242 89.8535C171.512 95.1675 153.88 115.578 146.271 128.139C144.822 130.433 142.527 133.453 141.078 134.781C133.711 141.424 131.175 157.002 136.247 164.49C140.957 171.133 157.503 182.485 162.696 182.364C168.01 182.123 174.531 178.5 179.483 172.824C184.555 167.027 185.159 166.664 190.714 166.664C196.27 166.664 196.754 166.423 200.498 161.351C202.551 158.331 206.174 155.07 208.468 153.983C210.763 152.896 216.923 148.79 222.116 144.805C227.43 140.94 232.019 137.68 232.381 137.68C234.678 137.678 251.463 123.549 256.293 117.511C261.849 110.506 268.009 105.071 270.303 105.071C270.907 105.071 271.632 104.588 271.874 103.984C272.477 102.173 286.608 90.5781 288.298 90.5781C291.679 90.5784 289.505 94.5646 278.877 108.332C275.254 113.042 268.492 122.22 263.782 128.621C259.192 135.022 254.12 140.94 252.67 142.027C251.1 142.994 249.893 144.805 249.893 146.134C249.893 147.462 248.444 150.24 246.632 152.413C244.7 154.587 242.163 158.573 240.834 161.229C239.506 163.886 236.245 169.08 233.588 172.703C225.859 183.452 218.13 197.944 216.198 205.915C215.473 208.572 212.937 213.523 210.401 216.784C207.865 220.166 205.208 224.273 204.483 225.843C203.637 227.534 201.343 232.243 199.29 236.229C197.237 240.334 195.546 245.044 195.545 246.735C195.545 248.305 194.7 251.688 193.734 253.982C192.647 256.519 191.922 262.074 191.922 267.388C191.922 275.721 192.285 276.808 195.908 281.518C198.082 284.416 202.067 288.402 204.845 290.334Z" stroke="white"/>
<path d="M398.804 309.295C402.91 311.469 403.514 311.469 406.171 309.778C409.673 307.483 410.519 304.706 410.519 295.648C410.519 287.556 412.572 272.701 414.384 267.508C414.988 265.455 415.953 261.711 416.437 259.054C416.92 256.397 418.007 253.016 418.731 251.567C419.577 250.118 420.181 248.064 420.181 247.098C420.181 246.132 421.509 243.354 423.079 241.059C424.649 238.643 427.185 232.726 428.514 228.016C431.171 219.321 437.693 205.312 442.161 198.911C443.852 196.495 445.543 195.65 448.32 195.65C450.494 195.65 455.688 194.804 460.035 193.717C464.383 192.751 468.971 192.147 470.421 192.509C473.078 193.234 476.339 192.388 486.604 188.403C490.228 186.954 494.576 185.384 496.267 184.78C509.672 180.07 514.382 177.172 514.382 173.307C514.382 169.805 512.087 167.872 500.614 161.955C491.798 157.245 490.952 157.003 486.726 158.332C481.412 160.022 474.045 162.799 468.852 164.973C464.262 167.026 458.102 167.147 456.895 165.335C455.688 163.281 460.156 149.635 463.537 144.925C467.643 139.37 470.421 134.177 471.267 130.312C471.75 128.621 473.32 126.568 475.011 125.843C476.701 125.118 479.237 121.858 481.049 118.115C482.74 114.613 485.155 109.782 486.483 107.487C487.691 105.192 489.986 100.24 491.436 96.6167C492.885 93.1144 495.3 88.1629 496.749 85.7476C498.198 83.453 500.493 79.1057 501.701 76.0864C503.03 73.0671 505.565 67.9941 507.377 64.854C511.483 57.7285 511.846 49.7575 508.344 42.1489C504.238 33.0912 500.856 30.5555 495.783 32.4878C492.764 33.6956 490.107 41.1836 489.141 50.8452C488.416 58.6948 487.571 60.5066 482.016 66.3032C479.238 69.3224 474.528 78.863 474.527 81.6411C474.527 82.4865 472.595 84.6609 470.18 86.5933C465.711 89.8541 460.035 97.7042 460.035 100.482C460.035 101.811 453.996 114.25 449.648 121.979C448.803 123.67 447.958 125.843 447.958 126.93C447.958 127.896 446.026 130.916 443.61 133.573C441.316 136.109 438.779 139.37 438.175 140.699C436.846 143.718 434.914 146.858 431.05 152.171C429.359 154.466 426.823 158.452 425.615 161.109C421.751 168.717 417.644 170.529 406.292 169.925C400.857 169.563 392.645 167.993 387.572 166.302C382.621 164.732 374.529 162.317 369.698 161.109C358.467 158.331 357.017 156.278 361.969 149.998C363.78 147.582 366.558 143.597 368.007 141.302C369.335 139.008 373.925 133.815 377.91 129.83C382.016 125.844 387.572 119.564 390.35 115.941C393.006 112.318 395.905 108.815 396.871 108.332C397.716 107.848 398.441 106.279 398.441 105.071C398.442 103.742 399.891 101.931 402.064 100.844C403.997 99.8781 406.533 97.2206 407.62 95.1675C408.707 92.9937 410.881 90.2161 412.571 89.0083C414.141 87.8007 416.195 85.0233 417.04 82.9702C418.006 80.7963 420.543 77.0517 422.717 74.6362C425.011 72.1001 427.909 67.5115 429.117 64.3716C430.446 61.1109 432.982 56.5215 434.914 54.106C439.745 47.9466 439.141 44.0815 433.586 44.0815C429.963 44.0815 429.238 44.5649 428.393 47.8257C427.789 50.4825 425.253 53.2604 420.543 56.8833C416.678 59.7818 412.451 63.2846 411.122 64.7339C409.793 66.0628 405.446 70.0477 401.461 73.3081C389.022 83.6944 382.742 90.2162 381.413 94.2017C380.447 96.9794 377.306 99.6361 369.577 104.708C356.775 113.042 344.456 124.636 343.49 129.346C343.007 131.52 340.351 134.66 336.486 137.92C332.984 140.819 329.964 143.356 329.602 143.718C329.238 144.082 326.582 146.255 323.563 148.428C316.559 153.742 315.109 155.553 315.109 159.176C315.109 162.92 321.389 170.891 327.428 174.635C331.775 177.413 333.105 177.534 350.375 177.655C364.263 177.655 369.215 178.017 371.147 179.345C372.476 180.311 375.374 181.157 377.669 181.157C379.843 181.157 382.983 182.002 384.674 183.089C386.244 184.176 391.92 185.505 397.354 186.109C409.069 187.317 410.881 188.403 409.794 194.321C408.465 202.05 401.22 217.388 395.302 225.118C392.766 228.378 390.833 233.089 389.505 238.765C388.418 243.596 386.244 249.393 384.674 251.808C382.983 254.224 380.567 258.692 379.118 261.833C377.79 264.973 375.737 269.079 374.892 270.89C373.925 272.822 373.079 276.566 373.079 279.223C373.079 283.571 374.045 285.02 383.707 295.407C389.504 301.808 396.267 307.967 398.804 309.295Z" fill="white"/>
<path d="M398.804 309.295C402.91 311.469 403.514 311.469 406.171 309.778C409.673 307.483 410.519 304.706 410.519 295.648C410.519 287.556 412.572 272.701 414.384 267.508C414.988 265.455 415.953 261.711 416.437 259.054C416.92 256.397 418.007 253.016 418.731 251.567C419.577 250.118 420.181 248.064 420.181 247.098C420.181 246.132 421.509 243.354 423.079 241.059C424.649 238.643 427.185 232.726 428.514 228.016C431.171 219.321 437.693 205.312 442.161 198.911C443.852 196.495 445.543 195.65 448.32 195.65C450.494 195.65 455.688 194.804 460.035 193.717C464.383 192.751 468.971 192.147 470.421 192.509C473.078 193.234 476.339 192.388 486.604 188.403C490.228 186.954 494.576 185.384 496.267 184.78C509.672 180.07 514.382 177.172 514.382 173.307C514.382 169.805 512.087 167.872 500.614 161.955C491.798 157.245 490.952 157.003 486.726 158.332C481.412 160.022 474.045 162.799 468.852 164.973C464.262 167.026 458.102 167.147 456.895 165.335C455.688 163.281 460.156 149.635 463.537 144.925C467.643 139.37 470.421 134.177 471.267 130.312C471.75 128.621 473.32 126.568 475.011 125.843C476.701 125.118 479.237 121.858 481.049 118.115C482.74 114.613 485.155 109.782 486.483 107.487C487.691 105.192 489.986 100.24 491.436 96.6167C492.885 93.1144 495.3 88.1629 496.749 85.7476C498.198 83.453 500.493 79.1057 501.701 76.0864C503.03 73.0671 505.565 67.9941 507.377 64.854C511.483 57.7285 511.846 49.7575 508.344 42.1489C504.238 33.0912 500.856 30.5555 495.783 32.4878C492.764 33.6956 490.107 41.1836 489.141 50.8452C488.416 58.6948 487.571 60.5066 482.016 66.3032C479.238 69.3224 474.528 78.863 474.527 81.6411C474.527 82.4865 472.595 84.6609 470.18 86.5933C465.711 89.8541 460.035 97.7042 460.035 100.482C460.035 101.811 453.996 114.25 449.648 121.979C448.803 123.67 447.958 125.843 447.958 126.93C447.958 127.896 446.026 130.916 443.61 133.573C441.316 136.109 438.779 139.37 438.175 140.699C436.846 143.718 434.914 146.858 431.05 152.171C429.359 154.466 426.823 158.452 425.615 161.109C421.751 168.717 417.644 170.529 406.292 169.925C400.857 169.563 392.645 167.993 387.572 166.302C382.621 164.732 374.529 162.317 369.698 161.109C358.467 158.331 357.017 156.278 361.969 149.998C363.78 147.582 366.558 143.597 368.007 141.302C369.335 139.008 373.925 133.815 377.91 129.83C382.016 125.844 387.572 119.564 390.35 115.941C393.006 112.318 395.905 108.815 396.871 108.332C397.716 107.848 398.441 106.279 398.441 105.071C398.442 103.742 399.891 101.931 402.064 100.844C403.997 99.8781 406.533 97.2206 407.62 95.1675C408.707 92.9937 410.881 90.2161 412.571 89.0083C414.141 87.8007 416.195 85.0233 417.04 82.9702C418.006 80.7963 420.543 77.0517 422.717 74.6362C425.011 72.1001 427.909 67.5115 429.117 64.3716C430.446 61.1109 432.982 56.5215 434.914 54.106C439.745 47.9466 439.141 44.0815 433.586 44.0815C429.963 44.0815 429.238 44.5649 428.393 47.8257C427.789 50.4825 425.253 53.2604 420.543 56.8833C416.678 59.7818 412.451 63.2846 411.122 64.7339C409.793 66.0628 405.446 70.0477 401.461 73.3081C389.022 83.6944 382.742 90.2162 381.413 94.2017C380.447 96.9794 377.306 99.6361 369.577 104.708C356.775 113.042 344.456 124.636 343.49 129.346C343.007 131.52 340.351 134.66 336.486 137.92C332.984 140.819 329.964 143.356 329.602 143.718C329.238 144.082 326.582 146.255 323.563 148.428C316.559 153.742 315.109 155.553 315.109 159.176C315.109 162.92 321.389 170.891 327.428 174.635C331.775 177.413 333.105 177.534 350.375 177.655C364.263 177.655 369.215 178.017 371.147 179.345C372.476 180.311 375.374 181.157 377.669 181.157C379.843 181.157 382.983 182.002 384.674 183.089C386.244 184.176 391.92 185.505 397.354 186.109C409.069 187.317 410.881 188.403 409.794 194.321C408.465 202.05 401.22 217.388 395.302 225.118C392.766 228.378 390.833 233.089 389.505 238.765C388.418 243.596 386.244 249.393 384.674 251.808C382.983 254.224 380.567 258.692 379.118 261.833C377.79 264.973 375.737 269.079 374.892 270.89C373.925 272.822 373.079 276.566 373.079 279.223C373.079 283.571 374.045 285.02 383.707 295.407C389.504 301.808 396.267 307.967 398.804 309.295Z" stroke="white"/>
<path d="M784.305 350.237C785.512 350.237 786.116 349.029 786.116 346.855C786.116 345.043 787.203 339.85 788.531 335.14C790.464 328.256 790.826 324.754 790.102 315.092C789.377 303.378 790.705 294.441 795.174 278.982C796.14 275.963 797.71 270.045 798.797 265.697C802.299 251.446 806.526 236.471 809.666 226.447C810.511 223.79 812.081 217.268 813.289 211.954C815.946 200.601 818.121 195.65 820.536 195.65C821.985 195.65 822.348 197.462 822.348 203.862C822.348 208.451 823.192 214.731 824.279 217.872C826.091 223.186 826.091 224.876 824.279 239.006C823.192 247.581 822.348 258.33 822.348 262.919C822.348 267.629 821.502 273.788 820.536 276.566C819.57 279.344 818.725 284.054 818.725 286.953C818.725 289.851 818.12 296.252 817.396 301.325C815.946 310.745 817.396 318.232 820.415 317.266C821.14 317.024 823.434 314.005 825.487 310.624C828.627 305.43 829.353 302.653 830.077 293.836C830.56 288.04 831.406 281.277 831.889 278.982C832.493 276.687 833.82 268.233 834.907 260.262C836.115 252.291 837.685 242.992 838.651 239.731C840.946 231.398 844.086 214.852 844.086 211.47C844.086 209.9 844.932 207.002 845.777 204.949C846.743 202.775 847.71 199.394 847.951 197.461C848.193 194.805 849.038 193.718 851.091 193.476C853.144 193.114 853.748 193.717 853.869 195.891C853.99 197.461 854.472 204.103 855.076 210.746C855.68 217.388 856.646 233.089 857.371 245.649C857.975 258.209 859.182 270.528 859.786 272.823C860.511 275.238 861.357 283.813 861.84 292.025C862.564 306.638 862.685 306.88 866.188 309.899C870.777 313.764 872.226 313.16 873.312 307.243C873.796 304.706 875.245 299.271 876.694 295.286C878.144 291.3 879.714 286.349 880.197 284.417C880.68 282.363 882.612 276.687 884.424 271.736C887.805 262.678 889.255 249.755 886.96 248.91C885.511 248.306 884.907 249.514 880.317 264.489C875.849 279.102 872.346 287.436 870.776 287.436C866.67 287.436 866.429 284.053 865.704 227.775C865.1 182.486 864.617 171.133 863.168 166.665C862.202 163.645 860.511 161.109 859.545 160.868C857.25 160.385 852.782 168.235 849.642 178.138C848.434 182.124 846.622 187.558 845.656 190.215C841.429 201.326 840.584 203.862 838.289 211.954C836.84 217.268 835.391 220.408 834.304 220.408C832.854 220.408 832.734 216.181 832.976 195.65C833.459 170.892 833.337 170.892 830.197 164.491C827.178 158.573 823.918 156.399 823.072 159.66C821.985 164.007 818.362 176.205 817.396 179.345C816.671 181.278 815.343 185.626 814.377 189.007C813.411 192.268 812.081 196.615 811.478 198.668C810.874 200.601 809.545 205.311 808.579 208.934C807.613 212.557 806.285 217.389 805.561 219.442C804.836 221.616 803.628 225.238 802.903 227.292C802.179 229.465 800.85 234.296 799.884 237.919C795.657 253.62 792.879 261.229 791.067 261.833C787.807 262.915 791.31 199.272 795.295 185.504C796.261 182.244 796.985 176.809 796.985 173.427C797.106 170.046 797.831 163.766 798.797 159.418C799.763 155.071 800.488 149.636 800.608 147.341C800.608 145.047 801.575 140.457 802.662 137.317C804.232 132.969 804.473 131.037 803.507 129.467C801.574 126.569 799.039 126.448 796.744 129.105C792.638 133.936 790.464 139.733 787.928 153.379C786.478 160.988 784.787 168.356 784.062 169.684C783.338 171.013 781.768 174.274 780.682 177.051C778.749 181.882 778.749 182.003 781.769 186.471C783.459 189.007 785.15 193.475 785.633 196.495C786.478 202.533 785.512 228.258 783.821 243.354C783.217 248.668 782.613 262.678 782.613 274.513C782.493 289.247 781.889 298.064 780.802 302.291C778.869 309.416 776.937 324.028 777.541 328.498C777.662 330.068 778.87 333.691 780.198 336.589C781.406 339.367 782.493 343.595 782.493 345.889C782.493 348.908 782.976 350.237 784.305 350.237Z" fill="white"/>
<path d="M784.305 350.237C785.512 350.237 786.116 349.029 786.116 346.855C786.116 345.043 787.203 339.85 788.531 335.14C790.464 328.256 790.826 324.754 790.102 315.092C789.377 303.378 790.705 294.441 795.174 278.982C796.14 275.963 797.71 270.045 798.797 265.697C802.299 251.446 806.526 236.471 809.666 226.447C810.511 223.79 812.081 217.268 813.289 211.954C815.946 200.601 818.121 195.65 820.536 195.65C821.985 195.65 822.348 197.462 822.348 203.862C822.348 208.451 823.192 214.731 824.279 217.872C826.091 223.186 826.091 224.876 824.279 239.006C823.192 247.581 822.348 258.33 822.348 262.919C822.348 267.629 821.502 273.788 820.536 276.566C819.57 279.344 818.725 284.054 818.725 286.953C818.725 289.851 818.12 296.252 817.396 301.325C815.946 310.745 817.396 318.232 820.415 317.266C821.14 317.024 823.434 314.005 825.487 310.624C828.627 305.43 829.353 302.653 830.077 293.836C830.56 288.04 831.406 281.277 831.889 278.982C832.493 276.687 833.82 268.233 834.907 260.262C836.115 252.291 837.685 242.992 838.651 239.731C840.946 231.398 844.086 214.852 844.086 211.47C844.086 209.9 844.932 207.002 845.777 204.949C846.743 202.775 847.71 199.394 847.951 197.461C848.193 194.805 849.038 193.718 851.091 193.476C853.144 193.114 853.748 193.717 853.869 195.891C853.99 197.461 854.472 204.103 855.076 210.746C855.68 217.388 856.646 233.089 857.371 245.649C857.975 258.209 859.182 270.528 859.786 272.823C860.511 275.238 861.357 283.813 861.84 292.025C862.564 306.638 862.685 306.88 866.188 309.899C870.777 313.764 872.226 313.16 873.312 307.243C873.796 304.706 875.245 299.271 876.694 295.286C878.144 291.3 879.714 286.349 880.197 284.417C880.68 282.363 882.612 276.687 884.424 271.736C887.805 262.678 889.255 249.755 886.96 248.91C885.511 248.306 884.907 249.514 880.317 264.489C875.849 279.102 872.346 287.436 870.776 287.436C866.67 287.436 866.429 284.053 865.704 227.775C865.1 182.486 864.617 171.133 863.168 166.665C862.202 163.645 860.511 161.109 859.545 160.868C857.25 160.385 852.782 168.235 849.642 178.138C848.434 182.124 846.622 187.558 845.656 190.215C841.429 201.326 840.584 203.862 838.289 211.954C836.84 217.268 835.391 220.408 834.304 220.408C832.854 220.408 832.734 216.181 832.976 195.65C833.459 170.892 833.337 170.892 830.197 164.491C827.178 158.573 823.918 156.399 823.072 159.66C821.985 164.007 818.362 176.205 817.396 179.345C816.671 181.278 815.343 185.626 814.377 189.007C813.411 192.268 812.081 196.615 811.478 198.668C810.874 200.601 809.545 205.311 808.579 208.934C807.613 212.557 806.285 217.389 805.561 219.442C804.836 221.616 803.628 225.238 802.903 227.292C802.179 229.465 800.85 234.296 799.884 237.919C795.657 253.62 792.879 261.229 791.067 261.833C787.807 262.915 791.31 199.272 795.295 185.504C796.261 182.244 796.985 176.809 796.985 173.427C797.106 170.046 797.831 163.766 798.797 159.418C799.763 155.071 800.488 149.636 800.608 147.341C800.608 145.047 801.575 140.457 802.662 137.317C804.232 132.969 804.473 131.037 803.507 129.467C801.574 126.569 799.039 126.448 796.744 129.105C792.638 133.936 790.464 139.733 787.928 153.379C786.478 160.988 784.787 168.356 784.062 169.684C783.338 171.013 781.768 174.274 780.682 177.051C778.749 181.882 778.749 182.003 781.769 186.471C783.459 189.007 785.15 193.475 785.633 196.495C786.478 202.533 785.512 228.258 783.821 243.354C783.217 248.668 782.613 262.678 782.613 274.513C782.493 289.247 781.889 298.064 780.802 302.291C778.869 309.416 776.937 324.028 777.541 328.498C777.662 330.068 778.87 333.691 780.198 336.589C781.406 339.367 782.493 343.595 782.493 345.889C782.493 348.908 782.976 350.237 784.305 350.237Z" stroke="white"/>
<path d="M579.235 284.779C590.346 285.141 591.313 285.02 595.66 282.122C598.679 280.068 601.82 278.982 604.96 278.982C609.67 278.982 617.158 276.687 623.317 273.426C625.008 272.46 628.269 271.736 630.563 271.736C633.341 271.736 637.206 270.045 642.762 266.421C647.109 263.523 652.303 260.745 654.114 260.262C658.462 259.175 663.172 255.794 672.229 247.219C683.22 236.833 684.669 233.33 684.669 218.113V205.673L677.785 199.031C673.921 195.408 668.245 191.423 665.104 190.094C661.844 188.887 659.307 187.196 659.307 186.35C659.307 184.659 664.017 181.157 666.312 181.157C667.278 181.157 674.162 178.137 681.771 174.514C697.833 166.785 699.524 164.732 696.625 156.64C695.538 153.983 693.244 150.601 691.433 149.273C688.293 146.858 686.239 146.737 654.114 146.496C635.395 146.375 615.346 145.892 609.67 145.409C599.767 144.684 599.163 144.805 597.352 147.341C595.178 150.481 595.902 152.776 600.491 157.365C603.752 160.626 608.462 160.747 645.78 157.848C660.514 156.64 673.194 156.037 673.92 156.52C674.645 157.003 674.645 157.848 673.679 158.935C671.625 161.35 660.878 166.664 657.737 166.785C656.288 166.785 652.665 168.114 649.646 169.684C640.225 174.636 635.877 176.447 630.926 177.534C622.834 179.345 615.467 181.399 610.153 183.452C605.322 185.263 604.96 185.746 604.96 189.732C604.96 193.113 605.926 195.046 609.429 198.427C613.656 202.775 614.018 202.896 622.955 202.896C628.028 202.896 638.293 202.292 645.66 201.567C660.394 200.238 671.384 201.447 675.007 204.708C676.094 205.674 677.664 208.572 678.389 210.988C679.475 214.611 679.355 216.18 677.785 219.441C675.853 223.668 657.374 239.127 654.234 239.127C653.389 239.128 651.577 239.852 650.249 240.818C648.921 241.663 646.505 242.871 644.814 243.354C643.124 243.837 637.327 246.374 631.771 248.91C626.216 251.567 620.781 253.62 619.573 253.62C618.365 253.62 614.984 254.465 612.206 255.431C609.428 256.397 604.96 257.243 602.303 257.243C599.767 257.243 595.902 258.088 593.729 259.175C591.192 260.625 585.516 261.349 576.217 261.833C565.831 262.316 561.966 262.919 560.033 264.489C557.497 266.542 557.497 266.543 559.792 272.098C561 275.117 563.294 279.102 564.743 281.035C567.4 284.295 568.004 284.417 579.235 284.779Z" fill="white"/>
<path d="M579.235 284.779C590.346 285.141 591.313 285.02 595.66 282.122C598.679 280.068 601.82 278.982 604.96 278.982C609.67 278.982 617.158 276.687 623.317 273.426C625.008 272.46 628.269 271.736 630.563 271.736C633.341 271.736 637.206 270.045 642.762 266.421C647.109 263.523 652.303 260.745 654.114 260.262C658.462 259.175 663.172 255.794 672.229 247.219C683.22 236.833 684.669 233.33 684.669 218.113V205.673L677.785 199.031C673.921 195.408 668.245 191.423 665.104 190.094C661.844 188.887 659.307 187.196 659.307 186.35C659.307 184.659 664.017 181.157 666.312 181.157C667.278 181.157 674.162 178.137 681.771 174.514C697.833 166.785 699.524 164.732 696.625 156.64C695.538 153.983 693.244 150.601 691.433 149.273C688.293 146.858 686.239 146.737 654.114 146.496C635.395 146.375 615.346 145.892 609.67 145.409C599.767 144.684 599.163 144.805 597.352 147.341C595.178 150.481 595.902 152.776 600.491 157.365C603.752 160.626 608.462 160.747 645.78 157.848C660.514 156.64 673.194 156.037 673.92 156.52C674.645 157.003 674.645 157.848 673.679 158.935C671.625 161.35 660.878 166.664 657.737 166.785C656.288 166.785 652.665 168.114 649.646 169.684C640.225 174.636 635.877 176.447 630.926 177.534C622.834 179.345 615.467 181.399 610.153 183.452C605.322 185.263 604.96 185.746 604.96 189.732C604.96 193.113 605.926 195.046 609.429 198.427C613.656 202.775 614.018 202.896 622.955 202.896C628.028 202.896 638.293 202.292 645.66 201.567C660.394 200.238 671.384 201.447 675.007 204.708C676.094 205.674 677.664 208.572 678.389 210.988C679.475 214.611 679.355 216.18 677.785 219.441C675.853 223.668 657.374 239.127 654.234 239.127C653.389 239.128 651.577 239.852 650.249 240.818C648.921 241.663 646.505 242.871 644.814 243.354C643.124 243.837 637.327 246.374 631.771 248.91C626.216 251.567 620.781 253.62 619.573 253.62C618.365 253.62 614.984 254.465 612.206 255.431C609.428 256.397 604.96 257.243 602.303 257.243C599.767 257.243 595.902 258.088 593.729 259.175C591.192 260.625 585.516 261.349 576.217 261.833C565.831 262.316 561.966 262.919 560.033 264.489C557.497 266.542 557.497 266.543 559.792 272.098C561 275.117 563.294 279.102 564.743 281.035C567.4 284.295 568.004 284.417 579.235 284.779Z" stroke="white"/>
<path d="M489.02 266.662C495.3 278.377 504.237 283.208 511.362 278.498C514.985 276.083 521.628 266.059 521.628 262.798C521.628 258.45 505.203 240.334 501.218 240.334C500.01 240.334 496.87 242.388 494.213 244.803C491.556 247.339 488.416 251.687 487.208 254.465L485.155 259.416L489.02 266.662Z" fill="white"/>
<path d="M489.02 266.662C495.3 278.377 504.237 283.208 511.362 278.498C514.985 276.083 521.628 266.059 521.628 262.798C521.628 258.45 505.203 240.334 501.218 240.334C500.01 240.334 496.87 242.388 494.213 244.803C491.556 247.339 488.416 251.687 487.208 254.465L485.155 259.416L489.02 266.662Z" stroke="white"/>
<path d="M119.218 561.586C122.116 561.466 123.083 560.258 128.88 548.543C140.474 525.114 148.807 511.466 163.179 492.384C187.937 459.897 225.859 428.979 261.607 412.313C278.152 404.584 283.104 402.531 285.52 401.806C286.848 401.444 290.955 399.995 294.578 398.545C301.22 396.009 309.554 393.352 317.524 391.299C326.824 389.005 332.862 387.314 338.659 385.865C354.722 381.517 406.049 373.183 416.194 373.183C418.851 373.183 423.683 372.821 426.943 372.338C432.499 371.493 432.619 371.372 429.237 370.647C427.292 370.164 330.077 369.802 213.299 369.681C24.8991 369.56 0.983588 369.802 0.378906 371.372C-0.104175 372.338 -0.104494 374.753 0.257812 376.565C6.1756 408.811 12.4561 428.255 24.8955 453.497C31.0547 466.056 30.4516 465.09 41.9248 482.24C46.8764 489.607 54.4846 499.993 58.9531 505.307C68.7357 516.901 102.31 549.872 110.281 555.548C113.3 557.722 115.836 560.017 115.836 560.621C115.837 561.104 117.286 561.586 119.218 561.586Z" fill="white"/>
<path d="M119.218 561.586C122.116 561.466 123.083 560.258 128.88 548.543C140.474 525.114 148.807 511.466 163.179 492.384C187.937 459.897 225.859 428.979 261.607 412.313C278.152 404.584 283.104 402.531 285.52 401.806C286.848 401.444 290.955 399.995 294.578 398.545C301.22 396.009 309.554 393.352 317.524 391.299C326.824 389.005 332.862 387.314 338.659 385.865C354.722 381.517 406.049 373.183 416.194 373.183C418.851 373.183 423.683 372.821 426.943 372.338C432.499 371.493 432.619 371.372 429.237 370.647C427.292 370.164 330.077 369.802 213.299 369.681C24.8991 369.56 0.983588 369.802 0.378906 371.372C-0.104175 372.338 -0.104494 374.753 0.257812 376.565C6.1756 408.811 12.4561 428.255 24.8955 453.497C31.0547 466.056 30.4516 465.09 41.9248 482.24C46.8764 489.607 54.4846 499.993 58.9531 505.307C68.7357 516.901 102.31 549.872 110.281 555.548C113.3 557.722 115.836 560.017 115.836 560.621C115.837 561.104 117.286 561.586 119.218 561.586Z" stroke="white"/>
<path d="M106.899 672.334C115.836 680.667 127.431 680.787 142.648 672.816C155.087 666.295 155.57 666.053 159.193 662.551C161.005 660.86 162.938 659.411 163.421 659.411C165.837 659.41 182.14 645.522 198.323 629.581C208.106 619.919 211.246 614.725 207.14 614.725C205.206 614.726 193.613 624.025 184.072 633.083C177.671 639.121 152.914 656.512 145.185 660.377C142.648 661.584 137.214 663.397 133.107 664.242C126.465 665.57 125.257 665.57 122.479 663.759C119.943 662.068 119.46 660.86 119.581 656.029C119.581 652.527 120.668 648.3 122.479 644.919C124.05 641.899 125.982 638.276 126.586 636.706C131.176 626.682 168.009 597.939 176.343 597.817C182.864 597.696 192.648 589.363 191.682 584.774C191.319 583.083 189.99 582.721 183.469 582.963C179.242 583.083 174.169 584.049 172.116 585.015C164.025 588.88 154.604 592.987 153.396 592.987C147.359 592.986 164.508 570.886 178.88 560.137C189.024 552.408 198.806 548.664 202.792 550.717C206.294 552.528 205.812 556.756 201.464 561.949C196.996 567.383 196.995 571.851 201.584 571.851C208.83 571.851 213.42 551.805 207.382 546.249C204.604 543.713 197.599 542.384 191.923 543.229C189.145 543.592 175.256 549.993 169.58 553.495C163.058 557.48 153.155 565.693 147.116 572.094C133.349 586.465 131.296 598.18 141.682 601.924C143.855 602.648 143.856 602.89 141.199 605.668C139.629 607.359 137.938 608.687 137.334 608.687C134.797 608.688 121.876 618.711 115.233 625.716C107.987 633.445 102.914 642.262 100.016 651.802C97.8418 659.29 100.136 665.812 106.899 672.334Z" fill="white"/>
<path d="M106.899 672.334C115.836 680.667 127.431 680.787 142.648 672.816C155.087 666.295 155.57 666.053 159.193 662.551C161.005 660.86 162.938 659.411 163.421 659.411C165.837 659.41 182.14 645.522 198.323 629.581C208.106 619.919 211.246 614.725 207.14 614.725C205.206 614.726 193.613 624.025 184.072 633.083C177.671 639.121 152.914 656.512 145.185 660.377C142.648 661.584 137.214 663.397 133.107 664.242C126.465 665.57 125.257 665.57 122.479 663.759C119.943 662.068 119.46 660.86 119.581 656.029C119.581 652.527 120.668 648.3 122.479 644.919C124.05 641.899 125.982 638.276 126.586 636.706C131.176 626.682 168.009 597.939 176.343 597.817C182.864 597.696 192.648 589.363 191.682 584.774C191.319 583.083 189.99 582.721 183.469 582.963C179.242 583.083 174.169 584.049 172.116 585.015C164.025 588.88 154.604 592.987 153.396 592.987C147.359 592.986 164.508 570.886 178.88 560.137C189.024 552.408 198.806 548.664 202.792 550.717C206.294 552.528 205.812 556.756 201.464 561.949C196.996 567.383 196.995 571.851 201.584 571.851C208.83 571.851 213.42 551.805 207.382 546.249C204.604 543.713 197.599 542.384 191.923 543.229C189.145 543.592 175.256 549.993 169.58 553.495C163.058 557.48 153.155 565.693 147.116 572.094C133.349 586.465 131.296 598.18 141.682 601.924C143.855 602.648 143.856 602.89 141.199 605.668C139.629 607.359 137.938 608.687 137.334 608.687C134.797 608.688 121.876 618.711 115.233 625.716C107.987 633.445 102.914 642.262 100.016 651.802C97.8418 659.29 100.136 665.812 106.899 672.334Z" stroke="white"/>
<path d="M351.702 674.508C359.552 674.387 361.243 673.903 369.093 669.677C379.841 663.638 393.127 652.648 408.103 637.43C420.542 624.75 425.131 617.987 422.836 615.692C420.662 613.518 419.213 614.726 383.827 646.73C374.528 655.184 355.808 666.657 351.46 666.657C349.286 666.656 345.543 661.826 344.818 657.962C342.162 644.314 362.089 599.629 381.774 575.354C393.851 560.379 406.653 550.718 414.262 550.718C417.643 550.718 417.401 561.224 414.02 567.987C410.396 575.233 400.131 588.76 396.629 591.054C389.745 595.644 388.055 603.977 393.852 605.427C397.595 606.393 398.682 605.546 406.17 595.04C418.972 577.166 423.803 565.934 423.803 554.219C423.803 544.437 419.817 541.78 408.103 543.47C393.006 545.644 368.368 565.934 355.566 586.707C354.963 587.794 352.185 592.262 349.407 596.61C342.765 607.359 333.224 627.407 333.224 630.789C333.223 632.359 332.378 634.653 331.412 635.981C328.997 639.242 329.118 652.286 331.654 659.653C332.862 662.914 335.881 667.503 338.417 670.039C342.886 674.387 343.248 674.508 351.702 674.508Z" fill="white"/>
<path d="M351.702 674.508C359.552 674.387 361.243 673.903 369.093 669.677C379.841 663.638 393.127 652.648 408.103 637.43C420.542 624.75 425.131 617.987 422.836 615.692C420.662 613.518 419.213 614.726 383.827 646.73C374.528 655.184 355.808 666.657 351.46 666.657C349.286 666.656 345.543 661.826 344.818 657.962C342.162 644.314 362.089 599.629 381.774 575.354C393.851 560.379 406.653 550.718 414.262 550.718C417.643 550.718 417.401 561.224 414.02 567.987C410.396 575.233 400.131 588.76 396.629 591.054C389.745 595.644 388.055 603.977 393.852 605.427C397.595 606.393 398.682 605.546 406.17 595.04C418.972 577.166 423.803 565.934 423.803 554.219C423.803 544.437 419.817 541.78 408.103 543.47C393.006 545.644 368.368 565.934 355.566 586.707C354.963 587.794 352.185 592.262 349.407 596.61C342.765 607.359 333.224 627.407 333.224 630.789C333.223 632.359 332.378 634.653 331.412 635.981C328.997 639.242 329.118 652.286 331.654 659.653C332.862 662.914 335.881 667.503 338.417 670.039C342.886 674.387 343.248 674.508 351.702 674.508Z" stroke="white"/>
<path d="M228.757 670.28C236.004 670.28 244.095 665.087 255.81 652.769C263.056 645.16 264.385 642.986 264.385 639.604C264.385 637.31 264.022 635.136 263.418 634.773C262.934 634.533 257.017 639.605 250.254 646.126C231.414 664.362 225.497 665.932 224.772 653.372C224.289 645.039 225.255 641.295 227.912 641.295C228.999 641.295 231.052 640.329 232.501 639.121C237.091 635.377 252.912 613.397 258.708 602.648C260.037 600.354 262.573 596.127 264.505 593.229C269.336 586.103 277.307 569.316 279.602 561.707C281.293 555.91 281.293 555.064 279.481 552.407C278.032 550.113 276.583 549.509 272.718 549.509C268.612 549.509 267.041 550.354 263.297 553.978C258.346 558.929 246.269 574.147 246.269 575.354C246.267 575.84 243.249 580.186 239.626 585.016C232.984 593.832 223.684 610.74 220.182 620.16C212.936 639.725 211.366 656.15 216.197 663.759C219.458 669.073 221.873 670.28 228.757 670.28ZM235.279 619.557C233.588 619.556 235.158 612.31 237.332 609.773C238.298 608.807 239.023 607.479 239.023 606.996C239.023 604.46 262.936 570.885 267.284 567.383C270.906 564.485 271.873 565.934 269.458 571.006C267.646 574.871 263.419 582.479 257.984 591.175C256.293 593.952 248.565 604.096 247.477 605.063C246.994 605.426 244.458 608.808 241.559 612.552C238.781 616.416 236.003 619.557 235.279 619.557Z" fill="white"/>
<path d="M228.757 670.28C236.004 670.28 244.095 665.087 255.81 652.769C263.056 645.16 264.385 642.986 264.385 639.604C264.385 637.31 264.022 635.136 263.418 634.773C262.934 634.533 257.017 639.605 250.254 646.126C231.414 664.362 225.497 665.932 224.772 653.372C224.289 645.039 225.255 641.295 227.912 641.295C228.999 641.295 231.052 640.329 232.501 639.121C237.091 635.377 252.912 613.397 258.708 602.648C260.037 600.354 262.573 596.127 264.505 593.229C269.336 586.103 277.307 569.316 279.602 561.707C281.293 555.91 281.293 555.064 279.481 552.407C278.032 550.113 276.583 549.509 272.718 549.509C268.612 549.509 267.041 550.354 263.297 553.978C258.346 558.929 246.269 574.147 246.269 575.354C246.267 575.84 243.249 580.186 239.626 585.016C232.984 593.832 223.684 610.74 220.182 620.16C212.936 639.725 211.366 656.15 216.197 663.759C219.458 669.073 221.873 670.28 228.757 670.28ZM235.279 619.557C233.588 619.556 235.158 612.31 237.332 609.773C238.298 608.807 239.023 607.479 239.023 606.996C239.023 604.46 262.936 570.885 267.284 567.383C270.906 564.485 271.873 565.934 269.458 571.006C267.646 574.871 263.419 582.479 257.984 591.175C256.293 593.952 248.565 604.096 247.477 605.063C246.994 605.426 244.458 608.808 241.559 612.552C238.781 616.416 236.003 619.557 235.279 619.557Z" stroke="white"/>
<path d="M679.596 579.822C674.765 582.6 678.751 592.262 684.427 591.537C687.325 591.175 687.688 590.571 688.05 586.345C688.654 579.823 684.668 576.803 679.596 579.822Z" fill="white"/>
<path d="M679.596 579.822C674.765 582.6 678.751 592.262 684.427 591.537C687.325 591.175 687.688 590.571 688.05 586.345C688.654 579.823 684.668 576.803 679.596 579.822Z" stroke="white"/>
<path d="M827.058 673.904C833.701 673.904 848.314 666.899 853.991 660.981C861.599 653.01 863.773 647.334 863.169 637.31C862.807 632.479 861.841 627.286 860.996 625.595C860.15 623.904 859.063 621.73 858.58 620.764C857.492 618.107 850.126 614.726 845.899 614.726C843.967 614.847 839.015 615.934 835.03 617.383C831.045 618.711 826.939 620.643 825.851 621.489C824.885 622.455 823.677 623.18 823.194 623.18C821.503 623.18 788.775 648.059 780.2 655.788C773.074 662.189 772.228 660.86 772.228 644.073C772.228 630.185 772.107 629.218 769.33 626.32C764.016 620.644 755.32 622.817 740.828 633.324C733.219 638.759 730.562 638.88 730.562 633.566C730.562 630.788 727.664 625.958 724.524 623.542C721.505 621.127 718.485 621.73 713.171 626.198C710.273 628.493 707.616 630.426 707.253 630.426C706.046 630.426 690.587 641.416 685.152 646.005C677.423 652.647 669.332 656.633 667.52 654.822C666.312 653.614 666.674 651.44 669.452 643.952C671.384 638.88 673.195 631.875 673.437 628.493C673.92 622.938 673.679 622.092 670.66 619.677C668.969 618.349 666.795 617.141 665.95 617.141C663.776 617.141 644.695 629.338 637.931 635.015C622.835 647.695 616.555 652.164 613.415 652.164C610.395 652.164 610.033 651.682 609.308 646.61C608.946 643.47 608.584 638.035 608.583 634.532C608.583 628.735 608.221 627.89 605.202 626.32C602.183 624.75 601.337 624.75 596.99 626.682C594.454 627.89 589.38 631.272 585.757 634.17C576.821 641.416 574.526 642.744 573.318 640.933C572.835 640.087 572.352 635.86 572.352 631.513C572.352 624.629 571.989 623.179 569.333 620.764C565.226 616.9 560.274 617.987 550.25 624.87C540.589 631.392 538.053 631.754 536.242 626.803C535.155 623.663 534.43 623.18 530.686 623.18C528.271 623.18 524.647 624.025 522.473 625.233C517.401 627.769 500.855 640.45 493.609 647.092C483.464 656.512 481.169 650.353 489.14 635.377C494.937 624.508 492.16 616.417 484.31 621.126C479.479 623.904 477.184 623.663 475.494 620.281C473.682 616.055 471.991 615.812 462.692 618.228C448.199 621.972 430.808 635.499 423.924 648.421C419.456 656.754 419.093 662.793 422.716 668.59C424.89 672.213 425.736 672.696 430.567 672.696C433.465 672.695 437.088 671.972 438.538 671.126C442.885 668.711 460.276 655.787 464.503 651.802C468.851 647.817 472.112 648.059 472.112 652.527C472.112 657.357 474.527 662.793 477.667 664.846C480.445 666.657 481.049 666.536 487.691 663.034C491.556 660.981 497.353 656.754 500.735 653.614C522.956 632.72 530.203 630.789 518.247 648.783C510.759 660.015 510.396 661.102 512.57 666.174C514.864 671.609 518.85 671.73 522.835 666.295C533.101 652.406 554.84 630.184 557.739 630.667C559.309 631.03 559.792 633.687 560.275 646.61C560.879 661.223 560.999 662.189 563.898 664.484L566.796 666.778L579.357 653.493C586.241 646.127 592.641 640.088 593.487 640.087C595.781 640.087 596.506 642.986 596.506 652.769C596.506 661.585 596.507 661.705 600.975 665.328C603.511 667.381 606.168 669.072 607.013 669.073C608.704 669.073 622.11 658.445 635.757 646.367C641.07 641.538 646.02 637.674 646.747 637.672C647.471 637.672 648.801 636.827 649.646 635.861C651.337 633.808 657.496 633.446 658.704 635.257C659.065 635.862 657.737 639.243 655.684 642.865C652.665 648.421 652.061 650.595 652.061 657.841C652.061 666.778 653.269 669.072 659.066 670.884C662.81 671.971 672.713 667.019 681.65 659.531C685.635 656.271 693.485 650.353 699.162 646.489C704.838 642.624 709.79 639.001 710.152 638.397C711.118 637.189 713.655 638.518 713.655 640.329C713.654 641.417 707.857 649.508 704.355 653.131C700.249 657.479 701.456 669.315 706.167 670.039C708.703 670.402 716.07 665.57 724.524 657.72C729.476 653.131 743.001 642.623 747.711 639.725C749.523 638.638 752.422 637.672 754.113 637.672C757.132 637.672 757.132 637.793 757.132 646.73C757.132 661.947 761.963 670.884 770.175 670.884C775.489 670.884 784.064 664.846 799.764 650.112C811.479 639.242 814.015 639.846 809.667 652.044C807.977 656.754 808.097 657.479 810.271 661.826C813.773 668.71 821.02 673.903 827.058 673.904ZM829.112 666.657C823.677 666.657 822.348 664.725 822.348 657.238C822.348 651.924 823.073 649.75 826.576 644.436C833.097 634.533 839.498 629.702 846.502 629.339C847.589 629.218 848.918 631.151 849.884 634.049C853.145 644.798 850.73 650.957 838.653 661.585C834.426 665.208 831.769 666.657 829.112 666.657ZM437.692 661.705C436.605 663.517 432.258 661.102 432.257 658.687C432.257 656.03 437.451 648.541 443.006 643.107C454.117 632.358 469.696 627.044 470.663 633.687C471.146 636.706 466.677 641.416 455.204 650.112C447.474 656.029 444.697 657.72 441.074 659.29C439.745 660.015 438.175 661.101 437.692 661.705Z" fill="white"/>
<path d="M827.058 673.904C833.701 673.904 848.314 666.899 853.991 660.981C861.599 653.01 863.773 647.334 863.169 637.31C862.807 632.479 861.841 627.286 860.996 625.595C860.15 623.904 859.063 621.73 858.58 620.764C857.492 618.107 850.126 614.726 845.899 614.726C843.967 614.847 839.015 615.934 835.03 617.383C831.045 618.711 826.939 620.643 825.851 621.489C824.885 622.455 823.677 623.18 823.194 623.18C821.503 623.18 788.775 648.059 780.2 655.788C773.074 662.189 772.228 660.86 772.228 644.073C772.228 630.185 772.107 629.218 769.33 626.32C764.016 620.644 755.32 622.817 740.828 633.324C733.219 638.759 730.562 638.88 730.562 633.566C730.562 630.788 727.664 625.958 724.524 623.542C721.505 621.127 718.485 621.73 713.171 626.198C710.273 628.493 707.616 630.426 707.253 630.426C706.046 630.426 690.587 641.416 685.152 646.005C677.423 652.647 669.332 656.633 667.52 654.822C666.312 653.614 666.674 651.44 669.452 643.952C671.384 638.88 673.195 631.875 673.437 628.493C673.92 622.938 673.679 622.092 670.66 619.677C668.969 618.349 666.795 617.141 665.95 617.141C663.776 617.141 644.695 629.338 637.931 635.015C622.835 647.695 616.555 652.164 613.415 652.164C610.395 652.164 610.033 651.682 609.308 646.61C608.946 643.47 608.584 638.035 608.583 634.532C608.583 628.735 608.221 627.89 605.202 626.32C602.183 624.75 601.337 624.75 596.99 626.682C594.454 627.89 589.38 631.272 585.757 634.17C576.821 641.416 574.526 642.744 573.318 640.933C572.835 640.087 572.352 635.86 572.352 631.513C572.352 624.629 571.989 623.179 569.333 620.764C565.226 616.9 560.274 617.987 550.25 624.87C540.589 631.392 538.053 631.754 536.242 626.803C535.155 623.663 534.43 623.18 530.686 623.18C528.271 623.18 524.647 624.025 522.473 625.233C517.401 627.769 500.855 640.45 493.609 647.092C483.464 656.512 481.169 650.353 489.14 635.377C494.937 624.508 492.16 616.417 484.31 621.126C479.479 623.904 477.184 623.663 475.494 620.281C473.682 616.055 471.991 615.812 462.692 618.228C448.199 621.972 430.808 635.499 423.924 648.421C419.456 656.754 419.093 662.793 422.716 668.59C424.89 672.213 425.736 672.696 430.567 672.696C433.465 672.695 437.088 671.972 438.538 671.126C442.885 668.711 460.276 655.787 464.503 651.802C468.851 647.817 472.112 648.059 472.112 652.527C472.112 657.357 474.527 662.793 477.667 664.846C480.445 666.657 481.049 666.536 487.691 663.034C491.556 660.981 497.353 656.754 500.735 653.614C522.956 632.72 530.203 630.789 518.247 648.783C510.759 660.015 510.396 661.102 512.57 666.174C514.864 671.609 518.85 671.73 522.835 666.295C533.101 652.406 554.84 630.184 557.739 630.667C559.309 631.03 559.792 633.687 560.275 646.61C560.879 661.223 560.999 662.189 563.898 664.484L566.796 666.778L579.357 653.493C586.241 646.127 592.641 640.088 593.487 640.087C595.781 640.087 596.506 642.986 596.506 652.769C596.506 661.585 596.507 661.705 600.975 665.328C603.511 667.381 606.168 669.072 607.013 669.073C608.704 669.073 622.11 658.445 635.757 646.367C641.07 641.538 646.02 637.674 646.747 637.672C647.471 637.672 648.801 636.827 649.646 635.861C651.337 633.808 657.496 633.446 658.704 635.257C659.065 635.862 657.737 639.243 655.684 642.865C652.665 648.421 652.061 650.595 652.061 657.841C652.061 666.778 653.269 669.072 659.066 670.884C662.81 671.971 672.713 667.019 681.65 659.531C685.635 656.271 693.485 650.353 699.162 646.489C704.838 642.624 709.79 639.001 710.152 638.397C711.118 637.189 713.655 638.518 713.655 640.329C713.654 641.417 707.857 649.508 704.355 653.131C700.249 657.479 701.456 669.315 706.167 670.039C708.703 670.402 716.07 665.57 724.524 657.72C729.476 653.131 743.001 642.623 747.711 639.725C749.523 638.638 752.422 637.672 754.113 637.672C757.132 637.672 757.132 637.793 757.132 646.73C757.132 661.947 761.963 670.884 770.175 670.884C775.489 670.884 784.064 664.846 799.764 650.112C811.479 639.242 814.015 639.846 809.667 652.044C807.977 656.754 808.097 657.479 810.271 661.826C813.773 668.71 821.02 673.903 827.058 673.904ZM829.112 666.657C823.677 666.657 822.348 664.725 822.348 657.238C822.348 651.924 823.073 649.75 826.576 644.436C833.097 634.533 839.498 629.702 846.502 629.339C847.589 629.218 848.918 631.151 849.884 634.049C853.145 644.798 850.73 650.957 838.653 661.585C834.426 665.208 831.769 666.657 829.112 666.657ZM437.692 661.705C436.605 663.517 432.258 661.102 432.257 658.687C432.257 656.03 437.451 648.541 443.006 643.107C454.117 632.358 469.696 627.044 470.663 633.687C471.146 636.706 466.677 641.416 455.204 650.112C447.474 656.029 444.697 657.72 441.074 659.29C439.745 660.015 438.175 661.101 437.692 661.705Z" stroke="white"/>
<path d="M136.367 760.255C138.662 762.308 138.904 762.308 141.198 760.255C142.527 759.047 143.855 755.907 144.217 752.525C144.579 749.506 145.666 745.279 146.512 743.347C147.357 741.293 149.168 737.308 150.376 734.289C151.584 731.27 154.12 726.318 155.932 723.299C157.743 720.28 159.313 717.382 159.313 716.898C159.313 716.536 163.42 710.739 168.492 704.097L177.671 692.02H183.709C187.211 692.02 191.197 692.865 193.25 694.072C196.511 696.005 196.873 696.005 198.806 694.072C200.496 692.502 200.617 691.536 199.651 689.846C198.081 687.43 195.424 687.189 179.241 688.396C163.903 689.483 149.048 692.986 139.628 697.575C137.696 698.541 135.521 699.266 134.797 699.266C133.951 699.386 131.778 700.715 129.725 702.285C127.068 704.459 126.464 705.546 127.551 706.633C128.638 707.72 131.053 706.995 137.816 703.734C153.033 696.488 166.559 693.348 166.56 696.971C166.56 698.058 159.435 707.719 156.898 710.135C154.241 712.671 148.082 721.729 144.459 728.492C142.044 732.961 139.628 737.55 138.903 738.758C136.488 743.347 133.951 751.438 133.951 754.699C133.951 756.511 135.039 759.047 136.367 760.255Z" fill="white"/>
<path d="M136.367 760.255C138.662 762.308 138.904 762.308 141.198 760.255C142.527 759.047 143.855 755.907 144.217 752.525C144.579 749.506 145.666 745.279 146.512 743.347C147.357 741.293 149.168 737.308 150.376 734.289C151.584 731.27 154.12 726.318 155.932 723.299C157.743 720.28 159.313 717.382 159.313 716.898C159.313 716.536 163.42 710.739 168.492 704.097L177.671 692.02H183.709C187.211 692.02 191.197 692.865 193.25 694.072C196.511 696.005 196.873 696.005 198.806 694.072C200.496 692.502 200.617 691.536 199.651 689.846C198.081 687.43 195.424 687.189 179.241 688.396C163.903 689.483 149.048 692.986 139.628 697.575C137.696 698.541 135.521 699.266 134.797 699.266C133.951 699.386 131.778 700.715 129.725 702.285C127.068 704.459 126.464 705.546 127.551 706.633C128.638 707.72 131.053 706.995 137.816 703.734C153.033 696.488 166.559 693.348 166.56 696.971C166.56 698.058 159.435 707.719 156.898 710.135C154.241 712.671 148.082 721.729 144.459 728.492C142.044 732.961 139.628 737.55 138.903 738.758C136.488 743.347 133.951 751.438 133.951 754.699C133.951 756.511 135.039 759.047 136.367 760.255Z" stroke="white"/>
<path d="M579.356 776.921C583.704 780.906 588.173 778.733 585.637 774.022C584.55 772.09 584.55 770.521 585.637 767.743C588.414 760.618 594.573 748.178 597.955 743.227C599.887 740.449 601.337 737.792 601.337 737.309C601.337 736.222 608.583 726.801 610.395 725.594C610.998 725.111 614.863 724.627 618.849 724.627C627.544 724.627 630.322 723.299 628.39 720.159C627.544 718.71 625.249 717.865 621.988 717.623C619.331 717.382 617.037 716.657 617.037 716.053C617.037 715.449 620.057 711.222 623.68 706.874C628.148 701.439 630.321 697.695 630.321 695.521C630.321 691.053 628.027 690.329 617.641 691.657C615.708 691.899 612.086 692.985 609.791 694.072C607.497 695.159 603.632 696.97 601.337 697.937C591.072 702.646 585.637 706.632 585.637 709.651C585.637 713.516 587.931 713.275 591.796 709.169C596.627 704.097 615.95 695.159 619.573 696.246C621.747 696.971 621.626 697.454 618.003 702.405C610.032 713.516 599.887 722.695 592.278 725.714C572.955 733.443 565.346 738.637 568.486 741.777C569.332 742.623 571.023 742.018 573.801 740.086C581.892 734.047 591.071 730.425 593.124 732.478C593.607 733.081 584.549 752.404 581.409 757.235C577.061 763.998 576.096 773.902 579.356 776.921Z" fill="white"/>
<path d="M579.356 776.921C583.704 780.906 588.173 778.733 585.637 774.022C584.55 772.09 584.55 770.521 585.637 767.743C588.414 760.618 594.573 748.178 597.955 743.227C599.887 740.449 601.337 737.792 601.337 737.309C601.337 736.222 608.583 726.801 610.395 725.594C610.998 725.111 614.863 724.627 618.849 724.627C627.544 724.627 630.322 723.299 628.39 720.159C627.544 718.71 625.249 717.865 621.988 717.623C619.331 717.382 617.037 716.657 617.037 716.053C617.037 715.449 620.057 711.222 623.68 706.874C628.148 701.439 630.321 697.695 630.321 695.521C630.321 691.053 628.027 690.329 617.641 691.657C615.708 691.899 612.086 692.985 609.791 694.072C607.497 695.159 603.632 696.97 601.337 697.937C591.072 702.646 585.637 706.632 585.637 709.651C585.637 713.516 587.931 713.275 591.796 709.169C596.627 704.097 615.95 695.159 619.573 696.246C621.747 696.971 621.626 697.454 618.003 702.405C610.032 713.516 599.887 722.695 592.278 725.714C572.955 733.443 565.346 738.637 568.486 741.777C569.332 742.623 571.023 742.018 573.801 740.086C581.892 734.047 591.071 730.425 593.124 732.478C593.607 733.081 584.549 752.404 581.409 757.235C577.061 763.998 576.096 773.902 579.356 776.921Z" stroke="white"/>
<path d="M657.013 758.443C661.24 762.187 662.569 762.549 668.607 761.342C675.37 760.013 684.67 749.265 684.67 742.864C684.67 738.516 680.805 732.116 677.786 731.27C673.196 730.183 666.434 731.874 660.154 735.618C657.014 737.55 654.237 739.119 653.874 739.12C653.632 739.12 650.009 742.381 645.782 746.366C640.347 751.559 637.207 753.612 634.913 753.612C632.014 753.612 631.531 753.129 631.531 750.231C631.531 748.178 632.98 745.279 635.275 742.864C640.106 737.55 647.351 727.526 650.371 722.212C651.578 719.917 654.115 716.053 656.047 713.637C657.859 711.222 659.308 708.323 659.308 707.357C659.308 706.391 660.154 704.942 661.241 704.096C662.328 703.13 662.931 701.077 662.69 698.782C662.207 693.71 657.496 693.106 652.303 697.454C647.352 701.56 638.656 714.241 631.893 726.802C627.425 735.135 626.458 738.154 625.854 745.521C625.25 753.25 625.492 754.579 627.908 757.477C629.357 759.41 631.652 760.859 633.101 760.859C634.551 760.859 639.381 757.839 643.97 754.217C648.438 750.594 652.543 747.575 653.269 747.574C653.873 747.574 654.115 749.144 653.752 751.197C653.149 754.095 653.632 755.303 657.013 758.443ZM638.536 729.459C636.603 729.459 637.69 726.922 643.125 718.951C651.337 706.874 655.685 702.768 655.685 706.995C655.685 707.84 654.84 709.289 653.874 710.135C652.907 710.98 652.062 712.671 652.062 713.879C652.062 715.207 651.458 716.174 650.854 716.174C650.129 716.174 649.284 717.019 648.801 718.106C647.835 720.522 639.865 729.457 638.536 729.459ZM672.956 752.887C669.695 756.148 667.641 757.235 665.346 756.994C662.69 756.632 662.327 756.028 662.448 752.284C662.569 746.245 668.125 739.12 672.593 739.12C674.525 739.12 676.216 739.966 676.699 741.052C678.269 745.279 677.182 748.54 672.956 752.887Z" fill="white"/>
<path d="M657.013 758.443C661.24 762.187 662.569 762.549 668.607 761.342C675.37 760.013 684.67 749.265 684.67 742.864C684.67 738.516 680.805 732.116 677.786 731.27C673.196 730.183 666.434 731.874 660.154 735.618C657.014 737.55 654.237 739.119 653.874 739.12C653.632 739.12 650.009 742.381 645.782 746.366C640.347 751.559 637.207 753.612 634.913 753.612C632.014 753.612 631.531 753.129 631.531 750.231C631.531 748.178 632.98 745.279 635.275 742.864C640.106 737.55 647.351 727.526 650.371 722.212C651.578 719.917 654.115 716.053 656.047 713.637C657.859 711.222 659.308 708.323 659.308 707.357C659.308 706.391 660.154 704.942 661.241 704.096C662.328 703.13 662.931 701.077 662.69 698.782C662.207 693.71 657.496 693.106 652.303 697.454C647.352 701.56 638.656 714.241 631.893 726.802C627.425 735.135 626.458 738.154 625.854 745.521C625.25 753.25 625.492 754.579 627.908 757.477C629.357 759.41 631.652 760.859 633.101 760.859C634.551 760.859 639.381 757.839 643.97 754.217C648.438 750.594 652.543 747.575 653.269 747.574C653.873 747.574 654.115 749.144 653.752 751.197C653.149 754.095 653.632 755.303 657.013 758.443ZM638.536 729.459C636.603 729.459 637.69 726.922 643.125 718.951C651.337 706.874 655.685 702.768 655.685 706.995C655.685 707.84 654.84 709.289 653.874 710.135C652.907 710.98 652.062 712.671 652.062 713.879C652.062 715.207 651.458 716.174 650.854 716.174C650.129 716.174 649.284 717.019 648.801 718.106C647.835 720.522 639.865 729.457 638.536 729.459ZM672.956 752.887C669.695 756.148 667.641 757.235 665.346 756.994C662.69 756.632 662.327 756.028 662.448 752.284C662.569 746.245 668.125 739.12 672.593 739.12C674.525 739.12 676.216 739.966 676.699 741.052C678.269 745.279 677.182 748.54 672.956 752.887Z" stroke="white"/>
<path d="M336.123 758.685C339.142 762.791 343.49 761.342 351.34 753.491C358.707 746.125 361.244 745.158 361.968 749.506C362.572 752.284 366.919 755.907 369.818 756.028C371.026 756.028 374.045 754.7 376.46 753.009C382.378 748.903 383.949 749.144 383.949 753.975C383.949 762.066 389.746 763.033 399.287 756.511C402.789 754.096 405.687 751.681 405.687 751.076C405.687 750.473 407.016 749.99 408.585 749.99C410.759 749.99 411.847 750.956 412.813 753.613C413.658 756.269 414.746 757.236 416.919 757.236C420.543 757.235 429.841 749.385 429.841 746.245C429.841 743.347 428.513 743.347 425.252 746.366C423.803 747.695 421.871 748.781 420.784 748.781C419.214 748.781 418.972 748.057 419.576 744.917C420.059 742.744 421.025 740.086 421.75 738.999C424.165 735.135 421.991 733.444 413.175 732.478C405.325 731.753 404.479 731.874 399.528 735.014C391.678 740.086 388.779 741.535 386.364 741.535C385.277 741.535 381.774 743.468 378.634 745.883C375.494 748.298 372.113 749.868 371.147 749.506C367.041 747.936 370.301 736.101 377.547 726.198C378.997 724.144 380.326 721.849 380.326 721.245C380.326 720.641 381.171 719.434 382.137 718.589C383.103 717.744 383.949 715.811 383.949 714.362C383.949 712.912 384.673 710.98 385.518 710.255C388.054 708.202 391.557 699.628 390.833 697.574C389.746 694.797 386.001 695.159 383.103 698.299C379.842 701.922 374.77 710.135 369.335 720.401L364.867 728.855L359.794 728.492C353.514 728.13 347.596 731.632 341.437 739.362C334.553 748.057 332.862 754.337 336.123 758.685ZM345.543 753.371C343.49 754.7 342.403 754.82 341.316 753.734C339.021 751.439 344.939 742.744 352.427 737.671C356.292 735.014 357.258 735.014 358.103 737.308C359.311 740.327 352.91 748.42 345.543 753.371ZM397.958 752.284C386.968 758.081 390.229 749.023 402.064 741.173C406.049 738.516 409.31 738.516 409.31 741.294C409.31 744.072 404.237 748.903 397.958 752.284Z" fill="white"/>
<path d="M336.123 758.685C339.142 762.791 343.49 761.342 351.34 753.491C358.707 746.125 361.244 745.158 361.968 749.506C362.572 752.284 366.919 755.907 369.818 756.028C371.026 756.028 374.045 754.7 376.46 753.009C382.378 748.903 383.949 749.144 383.949 753.975C383.949 762.066 389.746 763.033 399.287 756.511C402.789 754.096 405.687 751.681 405.687 751.076C405.687 750.473 407.016 749.99 408.585 749.99C410.759 749.99 411.847 750.956 412.813 753.613C413.658 756.269 414.746 757.236 416.919 757.236C420.543 757.235 429.841 749.385 429.841 746.245C429.841 743.347 428.513 743.347 425.252 746.366C423.803 747.695 421.871 748.781 420.784 748.781C419.214 748.781 418.972 748.057 419.576 744.917C420.059 742.744 421.025 740.086 421.75 738.999C424.165 735.135 421.991 733.444 413.175 732.478C405.325 731.753 404.479 731.874 399.528 735.014C391.678 740.086 388.779 741.535 386.364 741.535C385.277 741.535 381.774 743.468 378.634 745.883C375.494 748.298 372.113 749.868 371.147 749.506C367.041 747.936 370.301 736.101 377.547 726.198C378.997 724.144 380.326 721.849 380.326 721.245C380.326 720.641 381.171 719.434 382.137 718.589C383.103 717.744 383.949 715.811 383.949 714.362C383.949 712.912 384.673 710.98 385.518 710.255C388.054 708.202 391.557 699.628 390.833 697.574C389.746 694.797 386.001 695.159 383.103 698.299C379.842 701.922 374.77 710.135 369.335 720.401L364.867 728.855L359.794 728.492C353.514 728.13 347.596 731.632 341.437 739.362C334.553 748.057 332.862 754.337 336.123 758.685ZM345.543 753.371C343.49 754.7 342.403 754.82 341.316 753.734C339.021 751.439 344.939 742.744 352.427 737.671C356.292 735.014 357.258 735.014 358.103 737.308C359.311 740.327 352.91 748.42 345.543 753.371ZM397.958 752.284C386.968 758.081 390.229 749.023 402.064 741.173C406.049 738.516 409.31 738.516 409.31 741.294C409.31 744.072 404.237 748.903 397.958 752.284Z" stroke="white"/>
<path d="M438.537 760.617C440.952 760.858 443.488 759.409 449.768 753.371C457.256 746.487 458.101 746.004 459.309 748.057C465.468 758.323 469.213 758.564 479.84 749.144C483.826 745.521 485.637 741.536 483.101 741.536C482.618 741.536 479.598 743.468 476.458 745.884C465.71 754.096 463.899 746.729 472.835 731.27C482.98 713.759 489.14 701.198 488.778 698.662C488.053 693.952 483.705 695.16 479.357 701.319C475.009 707.237 473.197 710.135 470.903 714.362C470.299 715.691 468.125 719.435 466.193 722.816C462.811 728.734 462.691 728.854 457.498 728.492C451.097 728.13 444.817 732.116 438.658 740.087C432.015 748.903 431.894 759.892 438.537 760.617ZM448.923 748.782C444.093 753.371 440.349 754.82 439.02 752.526C437.933 750.956 444.938 742.019 450.01 738.637C455.082 735.135 455.927 734.893 457.014 736.705C458.101 738.396 455.203 742.743 448.923 748.782Z" fill="white"/>
<path d="M438.537 760.617C440.952 760.858 443.488 759.409 449.768 753.371C457.256 746.487 458.101 746.004 459.309 748.057C465.468 758.323 469.213 758.564 479.84 749.144C483.826 745.521 485.637 741.536 483.101 741.536C482.618 741.536 479.598 743.468 476.458 745.884C465.71 754.096 463.899 746.729 472.835 731.27C482.98 713.759 489.14 701.198 488.778 698.662C488.053 693.952 483.705 695.16 479.357 701.319C475.009 707.237 473.197 710.135 470.903 714.362C470.299 715.691 468.125 719.435 466.193 722.816C462.811 728.734 462.691 728.854 457.498 728.492C451.097 728.13 444.817 732.116 438.658 740.087C432.015 748.903 431.894 759.892 438.537 760.617ZM448.923 748.782C444.093 753.371 440.349 754.82 439.02 752.526C437.933 750.956 444.938 742.019 450.01 738.637C455.082 735.135 455.927 734.893 457.014 736.705C458.101 738.396 455.203 742.743 448.923 748.782Z" stroke="white"/>
<path d="M233.709 717.381C234.796 717.381 235.4 716.052 235.4 713.758C235.4 709.893 232.622 708.686 231.293 711.947C230.327 714.483 231.656 717.381 233.709 717.381Z" fill="white"/>
<path d="M233.709 717.381C234.796 717.381 235.4 716.052 235.4 713.758C235.4 709.893 232.622 708.686 231.293 711.947C230.327 714.483 231.656 717.381 233.709 717.381Z" stroke="white"/>
<path d="M322.355 713.033C322.355 716.535 324.65 718.347 326.099 716.052C327.669 713.637 326.823 710.86 324.408 710.377C322.959 710.015 322.355 710.739 322.355 713.033Z" fill="white"/>
<path d="M322.355 713.033C322.355 716.535 324.65 718.347 326.099 716.052C327.669 713.637 326.823 710.86 324.408 710.377C322.959 710.015 322.355 710.739 322.355 713.033Z" stroke="white"/>
<path d="M220.303 760.859C222.598 760.859 230.206 756.148 238.177 749.748C241.438 747.211 244.578 745.159 245.182 745.159C246.994 745.159 246.389 749.868 244.336 753.008C242.766 755.424 242.646 756.39 243.854 757.839C246.149 760.617 247.839 760.134 253.636 755.062C263.781 746.367 268.974 742.744 271.389 742.744C273.563 742.744 274.046 743.71 274.771 749.99C275.375 755.787 276.1 757.478 278.515 759.168C282.38 761.704 284.433 760.617 295.543 750.472C306.413 740.569 311.002 739.966 308.708 748.541C306.172 757.84 310.519 763.032 317.162 758.926C324.046 754.579 329.601 749.748 329.601 748.057C329.601 745.762 325.495 745.884 323.563 748.178C322.718 749.144 320.664 749.99 319.094 749.99C316.317 749.99 316.195 749.627 317.041 746.608C317.524 744.796 318.007 740.932 318.007 737.913C318.128 729.217 315.229 729.821 298.442 742.623C290.471 748.54 283.587 753.129 283.225 752.767C282.863 752.284 282.5 749.385 282.5 746.125C282.5 737.671 281.051 735.497 275.375 735.497C272.718 735.497 270.061 736.221 269.215 737.308C268.37 738.274 266.921 739.12 266.076 739.12C265.11 739.12 264.384 739.724 264.384 740.449C264.384 741.173 262.935 741.536 261.124 741.294C258.708 741.053 257.622 740.207 257.38 738.154C256.656 733.565 251.462 734.772 240.11 742.501C234.434 746.366 228.878 749.869 227.67 750.352C224.651 751.56 224.047 748.42 226.221 742.019C228.395 735.739 227.187 731.874 223.202 731.874C221.873 731.874 214.385 736.584 206.656 742.381C190.352 754.579 187.453 756.39 185.883 755.424C183.951 754.217 184.434 752.888 188.541 746.729C194.096 738.517 193.371 728.251 187.212 728.25C186.125 728.25 181.052 731.632 175.98 735.618C170.787 739.603 166.561 743.709 166.56 744.675C166.56 747.091 167.285 746.85 173.444 742.744C178.757 739.121 182.743 738.154 184.072 740.207C184.434 740.81 184.193 741.656 183.468 742.139C181.778 743.226 178.638 750.955 178.637 754.095C178.879 764.723 191.68 762.308 206.293 748.782C216.317 739.603 219.458 739.603 217.284 749.144C215.955 755.424 217.284 760.859 220.303 760.859Z" fill="white"/>
<path d="M220.303 760.859C222.598 760.859 230.206 756.148 238.177 749.748C241.438 747.211 244.578 745.159 245.182 745.159C246.994 745.159 246.389 749.868 244.336 753.008C242.766 755.424 242.646 756.39 243.854 757.839C246.149 760.617 247.839 760.134 253.636 755.062C263.781 746.367 268.974 742.744 271.389 742.744C273.563 742.744 274.046 743.71 274.771 749.99C275.375 755.787 276.1 757.478 278.515 759.168C282.38 761.704 284.433 760.617 295.543 750.472C306.413 740.569 311.002 739.966 308.708 748.541C306.172 757.84 310.519 763.032 317.162 758.926C324.046 754.579 329.601 749.748 329.601 748.057C329.601 745.762 325.495 745.884 323.563 748.178C322.718 749.144 320.664 749.99 319.094 749.99C316.317 749.99 316.195 749.627 317.041 746.608C317.524 744.796 318.007 740.932 318.007 737.913C318.128 729.217 315.229 729.821 298.442 742.623C290.471 748.54 283.587 753.129 283.225 752.767C282.863 752.284 282.5 749.385 282.5 746.125C282.5 737.671 281.051 735.497 275.375 735.497C272.718 735.497 270.061 736.221 269.215 737.308C268.37 738.274 266.921 739.12 266.076 739.12C265.11 739.12 264.384 739.724 264.384 740.449C264.384 741.173 262.935 741.536 261.124 741.294C258.708 741.053 257.622 740.207 257.38 738.154C256.656 733.565 251.462 734.772 240.11 742.501C234.434 746.366 228.878 749.869 227.67 750.352C224.651 751.56 224.047 748.42 226.221 742.019C228.395 735.739 227.187 731.874 223.202 731.874C221.873 731.874 214.385 736.584 206.656 742.381C190.352 754.579 187.453 756.39 185.883 755.424C183.951 754.217 184.434 752.888 188.541 746.729C194.096 738.517 193.371 728.251 187.212 728.25C186.125 728.25 181.052 731.632 175.98 735.618C170.787 739.603 166.561 743.709 166.56 744.675C166.56 747.091 167.285 746.85 173.444 742.744C178.757 739.121 182.743 738.154 184.072 740.207C184.434 740.81 184.193 741.656 183.468 742.139C181.778 743.226 178.638 750.955 178.637 754.095C178.879 764.723 191.68 762.308 206.293 748.782C216.317 739.603 219.458 739.603 217.284 749.144C215.955 755.424 217.284 760.859 220.303 760.859Z" stroke="white"/>
<path d="M710.876 760.859C714.5 760.859 723.195 755.666 727.301 750.956C732.132 745.4 727.663 744.675 721.021 749.869C718.485 751.801 715.103 753.854 713.292 754.216C708.823 755.424 708.944 752.284 713.654 745.159C715.586 742.139 717.278 738.395 717.278 736.705C717.157 733.323 713.534 728.251 710.998 728.25C710.152 728.371 705.441 731.511 700.49 735.255C695.539 738.999 691.313 742.863 690.95 743.588C690.225 746.125 694.451 745.279 698.678 742.139C705.683 736.825 709.427 738.879 705.321 745.883C700.611 753.854 703.147 760.859 710.876 760.859Z" fill="white"/>
<path d="M710.876 760.859C714.5 760.859 723.195 755.666 727.301 750.956C732.132 745.4 727.663 744.675 721.021 749.869C718.485 751.801 715.103 753.854 713.292 754.216C708.823 755.424 708.944 752.284 713.654 745.159C715.586 742.139 717.278 738.395 717.278 736.705C717.157 733.323 713.534 728.251 710.998 728.25C710.152 728.371 705.441 731.511 700.49 735.255C695.539 738.999 691.313 742.863 690.95 743.588C690.225 746.125 694.451 745.279 698.678 742.139C705.683 736.825 709.427 738.879 705.321 745.883C700.611 753.854 703.147 760.859 710.876 760.859Z" stroke="white"/>
<path d="M767.518 762.066C769.933 763.395 771.02 763.516 772.832 762.308C774.16 761.463 775.73 760.859 776.334 760.859C777.783 760.859 788.291 754.458 795.537 749.385C798.315 747.332 800.609 744.796 800.609 743.589C800.609 740.932 799.281 740.932 795.416 743.951C790.102 748.178 788.29 746.608 786.841 736.705C786.358 733.806 785.392 730.666 784.667 729.821C783.218 728.009 778.87 727.647 778.87 729.338C778.87 731.391 763.653 745.4 757.011 749.507C748.799 754.458 743.726 755.787 741.673 753.251C740.465 751.922 741.31 750.834 746.021 747.453C754.233 741.535 760.755 735.497 760.755 733.685C760.755 729.821 750.127 730.062 744.209 734.048C740.103 736.705 735.634 744.071 734.668 749.627C733.702 755.907 737.446 760.859 743.363 760.859C748.919 760.859 759.667 754.82 769.329 746.246C779.836 736.947 783.701 736.826 779.837 746.004C777.542 751.438 775.126 753.613 771.503 753.613C768.001 753.613 764.378 756.27 764.378 758.927C764.378 759.772 765.827 761.221 767.518 762.066ZM746.262 741.536C745.538 741.536 745.538 740.69 746.504 739.12C747.349 737.792 749.161 736.705 750.368 736.705C752.663 736.705 752.663 736.825 750.127 739.12C748.678 740.448 746.986 741.536 746.262 741.536Z" fill="white"/>
<path d="M767.518 762.066C769.933 763.395 771.02 763.516 772.832 762.308C774.16 761.463 775.73 760.859 776.334 760.859C777.783 760.859 788.291 754.458 795.537 749.385C798.315 747.332 800.609 744.796 800.609 743.589C800.609 740.932 799.281 740.932 795.416 743.951C790.102 748.178 788.29 746.608 786.841 736.705C786.358 733.806 785.392 730.666 784.667 729.821C783.218 728.009 778.87 727.647 778.87 729.338C778.87 731.391 763.653 745.4 757.011 749.507C748.799 754.458 743.726 755.787 741.673 753.251C740.465 751.922 741.31 750.834 746.021 747.453C754.233 741.535 760.755 735.497 760.755 733.685C760.755 729.821 750.127 730.062 744.209 734.048C740.103 736.705 735.634 744.071 734.668 749.627C733.702 755.907 737.446 760.859 743.363 760.859C748.919 760.859 759.667 754.82 769.329 746.246C779.836 736.947 783.701 736.826 779.837 746.004C777.542 751.438 775.126 753.613 771.503 753.613C768.001 753.613 764.378 756.27 764.378 758.927C764.378 759.772 765.827 761.221 767.518 762.066ZM746.262 741.536C745.538 741.536 745.538 740.69 746.504 739.12C747.349 737.792 749.161 736.705 750.368 736.705C752.663 736.705 752.663 736.825 750.127 739.12C748.678 740.448 746.986 741.536 746.262 741.536Z" stroke="white"/>
<path d="M521.748 749.989C531.53 749.989 532.617 749.748 532.255 747.815C531.893 746.125 530.202 745.763 521.386 745.4C515.106 745.159 510.636 745.521 510.153 746.366C508.463 749.023 511.362 749.989 521.748 749.989Z" fill="white"/>
<path d="M521.748 749.989C531.53 749.989 532.617 749.748 532.255 747.815C531.893 746.125 530.202 745.763 521.386 745.4C515.106 745.159 510.636 745.521 510.153 746.366C508.463 749.023 511.362 749.989 521.748 749.989Z" stroke="white"/>
</svg>
