<svg width="1655" height="259" viewBox="0 0 1655 259" fill="none" xmlns="http://www.w3.org/2000/svg">
<path d="M279.258 18.9934C270.234 26.4725 258.805 48.3756 250.984 71.8814C240.757 101.798 234.14 113.551 223.914 117.824C216.093 120.496 207.07 127.975 203.46 134.385C198.046 143.467 199.249 147.207 211.882 158.425C224.515 169.644 225.718 173.918 220.906 191.547C211.882 226.272 214.288 245.504 228.124 251.914C237.75 256.722 243.164 256.188 252.187 248.709C258.203 243.901 263.617 236.422 263.617 232.148C263.617 228.408 266.023 225.203 269.031 225.203C272.039 225.203 276.25 211.848 278.656 195.821C282.266 168.576 283.469 166.439 298.508 166.439C313.547 166.439 315.954 169.644 329.79 207.574C345.431 249.777 359.267 265.27 373.103 252.983C378.517 248.175 378.517 237.49 371.298 204.903C363.478 169.644 363.478 161.096 370.095 152.015C379.72 139.193 374.907 125.838 359.267 117.824C350.845 114.085 347.837 106.606 347.837 90.0449C347.837 77.2236 345.431 64.9365 342.423 61.7311C339.415 59.06 335.805 49.9783 334.602 40.8965C333.399 30.212 327.383 22.1987 313.547 15.2538L294.297 5.63782L279.258 18.9934ZM305.125 106.072C305.727 113.551 302.118 118.359 296.703 118.359C287.078 118.359 285.274 107.674 291.891 86.8396C295.5 74.5525 296.102 74.5525 300.313 84.1685C302.719 89.5107 305.125 99.6609 305.125 106.072Z" fill="black"/>
<path d="M931.247 12.7053C919.236 15.3689 898.817 51.0599 889.208 87.2836C883.203 108.592 878.999 114.984 865.186 119.778C841.764 127.236 835.759 151.208 854.376 163.46C867.588 171.983 867.588 174.114 860.982 206.609C854.976 237.506 855.577 241.234 865.787 250.29C874.795 258.814 878.999 259.346 889.809 254.552C896.415 250.823 902.421 244.963 902.421 240.702C902.421 236.44 904.823 232.711 907.826 232.711C910.828 232.711 915.032 222.59 917.435 209.805C924.041 171.45 926.443 168.254 942.658 169.852C955.87 171.45 959.474 176.245 969.683 206.076C981.694 242.3 998.51 263.075 1009.92 257.215C1018.33 252.421 1018.33 221.524 1009.92 190.628C1005.72 174.647 1005.72 165.591 1010.52 161.329C1020.13 152.806 1017.73 132.563 1004.52 121.909C997.309 116.049 990.102 99.5357 986.499 80.3585C982.895 63.312 979.292 44.1348 977.49 38.275C974.488 25.4902 945.661 10.0418 931.247 12.7053ZM944.46 99.5357C944.46 115.517 942.057 120.844 934.851 120.844C928.245 120.844 926.443 117.648 929.446 108.592C931.848 102.199 934.851 92.6106 936.052 87.2836C941.457 72.3679 944.46 77.1623 944.46 99.5357Z" fill="black"/>
<path d="M1558.74 13.3458C1549.72 20.8194 1538.29 42.7063 1529.87 66.7285C1522.66 89.1492 1513.64 107.299 1510.03 107.299C1506.42 107.299 1496.8 113.171 1489.58 120.111C1473.95 134.525 1476.36 152.675 1494.4 158.013C1504.02 160.682 1504.62 163.885 1500.41 180.967C1488.38 226.877 1498 255.703 1523.26 247.696C1535.89 243.425 1553.32 212.463 1557.53 185.772C1561.74 162.284 1562.94 160.682 1579.18 160.682C1594.81 160.682 1596.62 162.817 1603.83 190.043C1612.25 224.207 1629.09 251.433 1641.72 251.433C1656.15 251.433 1657.95 234.35 1649.53 193.245C1644.72 172.426 1643.52 153.742 1645.93 152.141C1656.75 146.803 1651.34 118.51 1639.31 112.638C1630.29 108.367 1627.29 101.427 1627.29 87.0139C1627.29 75.8036 1624.88 64.5932 1621.87 61.3902C1618.87 58.7211 1615.26 48.0446 1614.06 37.9018C1612.85 24.0223 1608.04 17.6164 1593.01 9.60901L1573.77 0.000125051L1558.74 13.3458ZM1584.59 103.029C1585.19 108.901 1580.98 112.638 1573.77 112.638C1563.55 112.638 1562.94 110.502 1568.96 89.6831C1574.97 68.8638 1575.57 68.33 1579.78 80.608C1582.19 88.0816 1583.99 98.2243 1584.59 103.029Z" fill="black"/>
<path d="M1274.59 26.3604C1272.18 27.961 1270.37 37.0309 1270.37 45.5674C1270.37 58.372 1281.21 71.1767 1326.4 112.792C1414.37 192.821 1422.8 205.626 1392.08 212.028C1351.71 219.497 1325.2 194.955 1312.54 138.401C1304.71 103.188 1298.08 91.9843 1284.83 91.9843C1265.55 91.9843 1263.14 112.258 1276.39 172.547C1283.02 204.559 1291.46 237.104 1294.47 244.04C1300.49 258.445 1316.76 261.646 1322.18 249.909C1324.59 244.04 1329.41 242.973 1340.86 247.241C1375.81 258.979 1432.44 248.308 1441.48 228.034C1454.13 198.69 1439.67 169.346 1387.86 119.728C1365.57 98.9202 1349.9 81.3137 1352.91 81.3137C1370.99 81.8473 1407.14 107.99 1419.19 129.331C1426.42 143.737 1436.06 153.34 1442.08 153.34C1450.52 153.34 1452.33 145.871 1452.93 98.9202C1453.53 40.2321 1448.11 25.8269 1428.23 36.4974C1422.8 39.6986 1416.78 47.7015 1414.97 54.1038L1411.96 65.3079L1390.87 52.5032C1353.52 30.0951 1286.64 15.1563 1274.59 26.3604Z" fill="black"/>
<path d="M0.60003 27.7276C-1.2072 30.9407 1.20244 72.1759 6.02173 120.373C11.4434 168.034 16.2627 216.767 17.4676 228.548C18.6724 248.898 19.8772 249.969 36.7447 248.898C46.9857 247.827 83.1304 245.685 118.07 243.543L181.323 239.259L179.516 220.515C178.914 210.34 174.697 200.165 170.48 197.488C166.263 195.346 142.769 194.275 117.468 194.81L71.0822 196.417L67.4677 148.22C59.6364 56.6458 56.6243 35.2249 50.6002 46.4709C46.3833 55.5747 45.7809 54.5037 47.5881 42.7222C49.3954 33.6183 46.9857 27.1921 41.564 25.5855C27.7085 20.7658 4.81691 21.8369 0.60003 27.7276ZM15.6603 39.5091C15.6603 48.0774 13.8531 49.684 9.03379 45.3998C5.41932 42.1867 4.2145 36.8315 6.02173 33.6183C12.6483 24.5145 15.6603 26.6566 15.6603 39.5091ZM13.8531 71.6404C12.0458 75.9245 10.2386 74.318 10.2386 68.4272C9.6362 62.5365 11.4434 59.3234 13.2507 61.4655C15.0579 63.072 15.6603 67.8917 13.8531 71.6404Z" fill="black"/>
<path d="M1061.75 78.8909C1064.16 111.952 1068.38 163.143 1070.19 192.471L1073.8 245.795L1094.9 244.729C1249.21 235.131 1247.4 235.664 1233.53 203.669C1227.51 189.272 1226.9 189.272 1178.08 190.338L1128.05 191.405L1123.83 133.282C1118.41 56.4948 1112.98 26.1001 1107.56 34.6319C1103.94 39.4311 1101.53 38.3646 1099.12 30.366C1096.71 21.8341 1091.28 19.1679 1076.21 19.1679H1056.92L1061.75 78.8909ZM1068.98 60.2275C1067.77 68.7593 1066.57 62.8937 1066.57 48.4962C1066.57 33.5654 1067.77 27.1665 1068.98 33.5654C1070.19 40.4976 1070.19 52.2289 1068.98 60.2275Z" fill="black"/>
<path d="M609.162 26.2565C593.502 30.5235 590.49 45.4578 603.139 60.392C618.799 79.0599 625.425 114.795 615.788 128.663C609.162 138.264 609.764 141.464 618.197 149.998C629.641 161.198 633.255 220.402 621.811 220.402C618.197 220.402 616.39 225.736 617.595 232.136C619.402 244.404 620.004 244.404 709.75 242.804C759.742 241.737 804.916 239.603 810.939 238.537C837.441 231.603 807.928 192.134 748.9 154.798L733.842 145.731L758.537 148.398C785.04 152.131 803.109 142.531 803.109 125.463C803.109 112.129 737.456 59.8587 700.112 43.3243C667.587 28.9234 628.436 21.4562 609.162 26.2565ZM707.34 88.1271L733.842 105.728L700.715 108.928C682.645 111.062 666.985 112.662 666.383 112.129C666.383 111.595 663.973 101.995 661.564 90.794C657.95 73.7262 658.552 71.0594 668.792 71.0594C675.417 71.0594 692.885 79.0599 707.34 88.1271ZM711.557 175.066C727.217 182 746.491 192.667 754.924 198.534L769.982 209.735H723.603H676.622V194.267C676.622 185.733 674.815 175.066 673.008 170.266C667.587 158.532 678.429 159.598 711.557 175.066Z" fill="black"/>
<path d="M70.1491 246.373C45.4749 249.254 51.493 249.734 102.045 250.214C139.357 250.694 163.43 249.254 163.43 246.373C163.43 241.092 118.294 241.092 70.1491 246.373Z" fill="black"/>
<path d="M1144.73 247.501C1119.37 250.381 1124.2 250.862 1173.71 251.342C1209.34 251.822 1232.28 250.381 1232.28 247.501C1232.28 242.22 1192.43 242.22 1144.73 247.501Z" fill="black"/>
</svg>
