<svg width="1104" height="1461" viewBox="0 0 1104 1461" fill="none" xmlns="http://www.w3.org/2000/svg">
<path d="M345.4 0.899982C345.7 1.39998 344.9 3.29998 343.6 5.19998C340.7 9.49998 338 17.4 338 21.6C338 23.3 338.7 26.4 339.5 28.3C340.3 30.3 341 33.3 341 35C341 36.7 342.2 40.4 343.7 43.3C345.2 46.2 346.7 51.1 347 54.5C347.4 57.8 348.7 62.5 349.9 65C352.5 70.2 355 78.2 357.5 89C358.5 93.1 360.2 98.3 361.2 100.4C362.9 103.7 363 104.7 361.9 106.6C360.4 109.4 361.4 124.9 363.5 132.7C364.3 135.6 365.7 140.4 366.5 143.3C367.3 146.3 368 149.5 368 150.6C368 152.7 371.4 167.1 373.4 174C374.2 176.5 375.6 182.8 376.5 188C378.4 199.1 379.8 205.6 381.6 212.4C382.4 215.1 383 220.1 383 223.4C383 226.8 383.5 231.3 384 233.5C385.5 239.5 388.7 255.1 391 267.5C393 278.7 394.1 283.6 396.5 292.5C397.2 295.2 398.3 300.2 398.8 303.5C399.3 306.8 400.5 312 401.5 315C402.9 319.4 403.4 326.1 404 349.5C404.7 377.2 405.5 384.9 407.9 387.3C408.7 388.1 409 385.4 409 377.8C409 367.2 410.2 360.8 411.9 362.6C412.4 363.1 413 365.5 413.3 368C413.6 370.5 414.9 376.5 416.3 381.5C418.8 390.5 423.1 407.1 425.7 418.5C426.5 421.8 428.3 428.5 429.7 433.5C431.2 438.4 432.9 445.4 433.6 449C435.1 456.6 436.6 462.7 438.6 469.1C439.4 471.7 440 475.2 440 476.9C440 478.6 441.2 483.3 442.6 487.3C444 491.2 446.1 498.3 447.1 503C448.2 507.7 450 514.2 451.1 517.4C452.2 520.6 453.7 526.3 454.5 529.9C455.3 533.5 456.6 539 457.6 542C458.5 545 459.8 550.4 460.6 554C461.3 557.6 462.2 561.6 462.6 562.9C463.3 565.1 463.1 565.2 460.2 564.8C456.4 564.3 456.1 565.8 458.6 571.8C459.4 573.8 461.9 580.7 464 587C466.1 593.3 468.5 600.3 469.4 602.5C470.2 604.7 472.2 610.1 473.9 614.5C475.5 618.9 478.5 626.8 480.5 632C482.5 637.2 485 644.6 486.1 648.5C488.8 657.7 489 658.4 497.5 681.4C498.9 685.2 500 689.1 500 690C500 691 501.3 694.8 502.9 698.6C506 706.3 507.8 711 509 715.5C510.6 721.4 516 735.4 517 736.4C517.5 736.9 518 738.3 518 739.4C518.1 740.6 519.2 744.6 520.6 748.5C524.6 759.9 531 779.1 532.5 784.5C534 789.8 536.6 797.4 545 821C547.9 829 550.5 837.3 550.9 839.5C551.3 841.7 552.8 845.3 554.3 847.5C555.8 849.7 557 852.4 557 853.5C557 854.6 557.7 856.8 558.6 858.5C559.4 860.1 561.7 866 563.5 871.5C565.4 877 568.5 886 570.5 891.5C574.5 902.8 575.7 906.4 576.4 910.1C577.2 913.8 580.8 918 583.3 918C584.5 918 586.7 919.1 588.1 920.4C590.2 922.2 590.7 923.4 590.3 925.4C590 926.9 590.2 929.1 590.8 930.3C591.4 931.5 592.1 934.3 592.3 936.6C592.6 938.9 593.5 942.2 594.3 944.1C595.2 946 596.1 948.6 596.5 950C596.9 951.4 599.2 958.1 601.6 965C604 971.9 606 978.7 606 980C606 981.4 607.1 985.9 608.4 990C609.7 994.1 611.5 1000.4 612.5 1004C613.4 1007.6 615.5 1014.7 617.1 1019.9C618.7 1025 620 1030.5 620 1032.1C620 1033.7 620.6 1036.7 621.4 1038.7C623.6 1044.9 626 1053.5 626 1055.6C626 1056.6 627.2 1061.3 628.5 1066C629.9 1070.7 631.9 1078.8 633 1084C636.2 1099.4 635.6 1102 629.2 1102C626.4 1102 624.9 1101.1 621.4 1097.4L617.1 1092.7L610.4 1093.3C600.8 1094.2 600.6 1094.4 601.2 1107.1C601.8 1118.4 604.4 1131.8 609 1146.4C612.7 1157.9 611.6 1160.9 603.4 1161C599.7 1161 589 1162.3 570.5 1165C566.7 1165.6 562.4 1166.5 561 1167C559.6 1167.6 554.5 1168.4 549.5 1168.8L540.6 1169.5L540.5 1173V1176.5L534.5 1177.2C531.2 1177.5 526.9 1178.3 525 1178.9C523.1 1179.5 518.1 1180 513.9 1180C506.8 1180 506.3 1179.8 505.2 1177.5C504.2 1175.3 503.4 1175 499 1175C493.3 1175 489.7 1176.5 486.1 1180.4C484.1 1182.5 482.7 1183 478.7 1183C474.7 1183 473.2 1182.5 470.5 1180.1C468.5 1178.4 465.1 1176.8 462 1176.1C456 1174.8 455.2 1175.2 451.3 1181.3C450 1183.4 447.9 1185.5 446.6 1186C445.3 1186.4 444 1187.6 443.6 1188.6C442.7 1190.8 445.5 1194.9 448.3 1195.4C449.5 1195.7 451.6 1196.1 453 1196.4C454.4 1196.7 457.4 1197.4 459.7 1198.1C463 1199.1 464.9 1199.1 468.7 1198.2C475.5 1196.5 494.2 1195.1 518 1194.4C529.3 1194.2 540.1 1193.7 542 1193.5C543.9 1193.2 552.5 1192.6 561 1192C569.5 1191.5 580.6 1190.6 585.7 1190C598.3 1188.6 621.7 1188.7 622.6 1190.1C624 1192.5 620.5 1193.3 604.8 1194.2C581.4 1195.5 556 1197.9 554.1 1199C553.1 1199.6 579.3 1200 625.2 1200C676.3 1200 698.1 1199.7 698.6 1198.9C699 1198.2 702.7 1197.9 708.4 1198C720.2 1198.3 726.1 1197.3 728.1 1194.7C729.6 1192.9 731.4 1192.6 743.6 1191.9C751.3 1191.5 764.9 1191.1 774 1191C783.1 1191 796.6 1190.3 804 1189.5C843.2 1185.4 840 1186 840 1183.1C840 1180.2 837.8 1179 832 1179C829 1178.9 823.8 1178.4 820.5 1177.7C815.7 1176.7 814.4 1176 814.2 1174.4C813.9 1172.4 814.5 1172.3 824 1171.7C833.7 1171.1 834.5 1171.2 841.8 1174.1C846 1175.8 850.6 1178.2 852 1179.5C853.4 1180.9 855.4 1182.1 856.5 1182.2C859 1182.5 869.4 1181.1 874 1179.9C881.7 1177.8 920 1176.2 939.5 1177.2C950 1177.7 959.6 1178.1 961 1178.1C966.8 1178 977 1180.5 983.7 1183.7C992.4 1187.9 994.5 1187.7 1002 1181.5C1005 1179 1008 1177 1008.5 1177C1009.1 1177 1011.8 1175.6 1014.6 1173.8C1026 1166.6 1043.9 1162.6 1066 1162.5H1072.5L1072.1 1168.9C1071.9 1172.4 1071.2 1176.8 1070.4 1178.6C1068.6 1183 1068.6 1186.4 1070.5 1188C1071.8 1189.1 1072.9 1188.9 1077 1187C1084.6 1183.4 1087.6 1179.7 1088.9 1172C1089.5 1168.4 1090.5 1163 1091 1160C1092.3 1153.1 1091.5 1149.6 1088.4 1147.6C1086.6 1146.3 1086 1145.1 1086 1142.1C1086 1136.3 1085 1132.2 1083.3 1131.6C1082.6 1131.3 1079.5 1132.4 1076.5 1134.1C1071.4 1136.9 1070 1137.2 1059 1137.7C1044.5 1138.4 1044.3 1138.1 1053.1 1128.9C1063.6 1117.8 1073.2 1101.7 1077 1088.7C1078 1085.3 1080.7 1078.3 1082.9 1073.2C1085.2 1068.1 1087 1063.5 1087 1063C1087 1061.3 1083.8 1059 1081.4 1059C1080.1 1059 1075.2 1057.8 1070.7 1056.4C1057.4 1052.2 1052.8 1051 1046.5 1050C1036.8 1048.5 1034.5 1047.6 1034.2 1045.2C1034 1043.7 1034.6 1042.7 1036.2 1042.1C1037.6 1041.6 1039.6 1039 1041.3 1035.7C1042.8 1032.6 1044.9 1029.9 1045.8 1029.6C1048.7 1028.8 1063.9 1029.5 1064.9 1030.5C1065.8 1031.5 1069.3 1042.1 1070.4 1047.3C1071.2 1050.9 1075.2 1052.9 1077.6 1050.9C1079.5 1049.3 1079 1042.4 1076.3 1034.1C1074.7 1029.1 1074.7 1028.8 1076.7 1026.2C1077.9 1024.6 1080.2 1020.7 1081.9 1017.4C1085.4 1010.6 1086.5 1009.3 1094 1002.7C1101.8 995.7 1104 992.4 1104 987.5C1104 982.5 1102.7 981 1098.2 981C1094.2 981 1089.6 984 1087.8 987.8C1086.6 990.3 1086 990.5 1080.5 990.5C1077.2 990.6 1072.9 990.9 1070.9 991.4C1066 992.4 1062.3 989.3 1061.1 983C1060.6 980.5 1059.7 977.1 1059.1 975.5C1058.5 973.8 1055.1 963.7 1051.6 953C1048.1 942.3 1044.5 931.9 1043.7 930C1042.4 926.9 1042.4 926.2 1043.7 923.7C1045.1 920.9 1044.9 920.2 1040.1 907.9C1034.5 893.9 1034.5 893.5 1036.1 886.2C1037.7 879.4 1036.7 876.5 1032 873.5C1028.9 871.6 1027.2 869.3 1024.8 864.2C1023.1 860.5 1020 853.9 1017.9 849.5C1015.9 845.1 1013.2 839 1012 836C1010.8 833 1008.5 827.4 1006.9 823.6C1005.3 819.8 1004 816.2 1004 815.5C1004 814.8 1002.7 811.2 1001.1 807.4C995.9 795 990.1 779.7 987.2 770.5C985.6 765.5 981.8 755.6 978.7 748.5C975.7 741.3 972.5 733.3 971.5 730.5C970.6 727.8 969.5 725.1 969.1 724.5C968.6 724 967.4 721 966.2 718C965.1 715 962.4 708.5 960.1 703.6C957.8 698.7 956 694.3 956 693.8C956 693.4 954.7 690.2 953.1 686.7C951.5 683.3 947.4 674.4 944 667C929.6 635.7 916 609.6 911 603.7C907.7 599.9 901 590.6 897.3 585C896.4 583.6 894.5 580.7 893 578.5C891.5 576.3 890.1 573.8 889.8 572.9C889.4 572 887 568 884.4 563.9C881.8 559.8 878.5 554.5 877.1 552C875.8 549.5 873.6 545.7 872.3 543.5C871.1 541.3 869.3 538.1 868.4 536.5C867.5 534.8 864.6 530.5 861.9 526.8C859.2 523.1 855.1 516.1 852.7 511.3C847.6 501.1 840 488 836.2 483C834.7 481.1 832.1 477.4 830.3 474.8C828.5 472.3 825.9 469 824.4 467.5L821.8 464.9L822.5 447.7C822.8 438.2 823.3 421.3 823.5 410C823.7 398.7 824.2 385.4 824.7 380.5C825.1 375.5 825.5 365.9 825.5 359C825.6 334 827.2 274.3 828 268.5C829.5 256.6 825.1 254.1 816.7 261.9C812.7 265.6 811.8 267.5 810.9 274.9C808.8 290.7 807.3 295 803.9 295C802.8 295 798.6 292.2 794.6 288.7C782.8 278.5 762.9 262.7 758.8 260.2C756.7 258.9 755 257.5 755 256.9C755 256.4 754.6 256 754.1 256C753.6 256 751 254 748.3 251.5C745.7 249 743 247 742.4 247C741.7 247 741 246.3 740.6 245.5C740 243.8 737 243.4 737 245C737 245.6 738.1 246.5 739.4 247C746.2 249.5 786.9 292.2 796.3 306.5C800.2 312.5 800.2 312.6 799.6 320.1C799.3 324.3 798.1 331.3 796.9 335.6C795.7 340 794.4 345.5 793.9 348C793.5 350.5 792.5 354.5 791.6 357C790.8 359.5 789 365.5 787.5 370.5C786.1 375.4 784.3 381.1 783.6 383C782.8 384.9 781.8 387.8 781.4 389.5C779.7 395.1 777.2 393.9 768.5 383C764.1 377.5 759.5 371.6 758.2 369.8C757 368.1 753.8 364.3 751.2 361.5C748.6 358.7 741.1 349.9 734.5 342C727.9 334.1 720.4 325.4 717.9 322.6C715.4 319.8 707.6 310.7 700.5 302.5C676.9 275 662.5 259.7 635.9 234C585.9 185.7 584.3 184 580.5 174.1C578.7 169.2 576.1 165.2 571 159.4C558.2 144.9 550.7 139.4 548.5 142.9C547.3 144.9 539.2 148.2 537.7 147.4C536.8 146.9 528.9 139.5 520 131C511 122.5 501.6 113.9 498.9 112C495.4 109.5 493.8 107.5 493 104.7C492.4 102.7 491.5 101 491 101C490.5 101 487.5 98.9 484.3 96.2C474.7 88.4 471.7 86.4 466 83.9C458.1 80.5 425.7 53.9 420.7 46.6C419.2 44.4 417.1 41.7 416.2 40.7C413.1 37.3 395.1 26 389.3 23.8C386.1 22.7 381.4 20.4 378.7 18.8C376.1 17.3 373.6 16 373.1 16C371.7 16 368.6 11.9 367.5 8.69998C366.8 6.49998 365.3 4.99998 362.8 3.69998C360.7 2.79998 359 1.49998 359 0.999982C359 0.399982 355.9 -1.78814e-05 351.9 -1.78814e-05C348.1 -1.78814e-05 345.1 0.399982 345.4 0.899982ZM404.2 69.7C407.5 71.8 413.8 76.1 418.2 79.4C422.7 82.6 431.3 88.6 437.4 92.8C443.5 96.9 448.7 100.7 449 101C449.3 101.4 457.6 107.2 467.5 113.9C488.9 128.4 495.2 132.9 498.8 136.2C500.3 137.6 506.2 142.2 512 146.6C526.5 157.5 533 163.4 536.7 169.3C538.6 172.5 541.7 175.5 544.7 177.4C559.4 186.5 564.3 190.9 614.2 239C638.3 262.2 645.9 272 640 272C638.9 272 638 271.6 638 271.1C638 270.6 635.6 268.5 632.8 266.4C629.9 264.3 624.8 260.3 621.5 257.5C618.2 254.7 609.9 248.5 603 243.9C583 230.3 576.9 226 570.9 221.4C567.9 219 565 217 564.6 217C564.2 217 560.8 215 557 212.5C553.2 210 549.8 208 549.4 208C549 208 546.1 206.1 543.1 203.7C523.1 188.1 506.5 180.5 500.1 184C497.6 185.3 497.2 190.7 499.4 194.8C503.9 203.3 522.8 216.8 546.7 228.5C578.8 244.3 582.1 246 591.8 252.3C597.2 255.9 607.2 263 614 268.1C620.8 273.3 630.2 280.2 634.9 283.4C639.6 286.6 645.9 291.6 648.8 294.4C651.7 297.2 656.4 301 659.1 302.8C661.8 304.7 665.5 307.6 667.3 309.4C669.1 311.2 674.1 315.6 678.5 319.2C692 330.1 704.3 342.5 712.1 352.7C725.1 370 732.4 379.2 735.8 382.7C738.6 385.6 739 385.8 739 384C739 382.9 739.5 382 740.1 382C741.4 382 747.5 388.6 753.3 396.4C755.4 399.1 759.3 403.9 762 407C768.1 414 768.9 416.8 766.1 421.3C764 424.7 763.5 428.4 764.6 431.4C765.1 432.7 765.7 432.6 768.4 430.5C772.8 427.1 773.4 427.3 772.6 431.9C772.2 434.3 772.6 437.4 773.5 440C774.3 442.3 774.8 444.5 774.6 444.9C774.3 445.3 774.9 448.7 775.8 452.5C777.8 461.4 778 489.2 776.1 508C775.4 515.4 774.8 522.6 774.8 524C775 536.2 770.7 605.9 769 617.5C768.5 621.3 767.7 631 767.4 639C767.1 647 766.2 658.1 765.4 663.8C764.6 669.4 764 677.8 764 682.3C764 686.8 763.3 693 762.5 696C761.2 700.9 759.2 727.9 759.4 738.5C759.5 747.9 756.8 783.6 755.8 784.7C755.2 785.5 753.8 785.7 752.3 785.4C750.1 784.8 749.9 785 750.2 787.1C750.3 788.4 751 789.5 751.7 789.5C752.3 789.5 753.1 789.8 753.5 790.2C754.5 791.2 753 797 751.8 796.7C749.4 796.2 748 809.6 748 833C748.1 849.1 746.5 869.5 743 899.5C742.4 904.4 741.3 914.6 740.4 922C737.2 949.4 731.8 969.9 726.8 973.4C723.8 975.5 722.8 980.5 722 997C721.5 1005.5 720.7 1016.1 720.1 1020.5C719.3 1026.3 719.3 1030.1 720.1 1034.2C722 1044 719.1 1052 713.4 1052C711.4 1052 703.1 1043.4 695.1 1033C689.6 1025.7 688.2 1024 682.9 1017.6C681.5 1015.9 678 1011 675.1 1006.8C672.1 1002.5 669.5 999 669.2 999C666.7 999 662 1001.7 661.8 1003.3C661.6 1004.4 660.5 1005.9 659.3 1006.7C657.4 1008 656.9 1007.8 653.8 1005.1C651.9 1003.4 648.2 997.9 645.5 992.8C642.9 987.7 640.3 982.9 639.8 982.3C638.4 980.5 628.9 961.5 626.4 955.5C625.3 952.7 623.3 948 622.1 945C618.3 935.9 614.8 920.9 615.5 916.7C616 912.9 613.9 907 612 907C611.5 907 610.6 905.3 610 903.2C609.5 901 608.1 898.5 607 897.5C605.9 896.5 605 894.5 605 893.1C605 891.6 604.3 889.4 603.4 888.1C602.2 886.5 601.9 884.7 602.4 881.9C602.9 878.8 602.7 877.8 601.4 877.3C599.5 876.6 593 862.9 593 859.6C593 858.3 591.7 854.6 590.1 851.4C588.6 848.2 586.4 843.2 585.4 840.5C583.8 836.4 583 835.4 580.8 835.2C579.3 835 577.2 835.4 576.1 835.9C573.1 837.5 569.5 835.5 567.6 831.1C566.8 829.1 564.5 823.2 562.5 818C560.5 812.8 557.1 804.9 555 800.5C550.7 791.8 546.5 781.2 545.5 776.5C545.1 774.8 544.4 772.6 543.9 771.5C542.4 768 539.9 760.6 539 757C538.6 755.1 537.3 750.8 536.2 747.5C535.1 744.2 533.5 738.8 532.5 735.5C531.6 732.2 530.1 727.2 529 724.5C528 721.7 525.1 712.7 522.5 704.5C519.9 696.2 517.1 688 516.4 686.2C515.6 684.4 515 682.1 515 681.1C515 680.2 513.4 674.9 511.4 669.4C509.4 664 507.3 657.7 506.8 655.5C506.2 653.3 505.1 649.4 504.4 646.8C503.6 644.2 503 640.3 503 638.1C503 635.9 502.2 632.5 501.3 630.6C499.7 627.2 499.8 626.9 501.4 625.1C503.3 623 503.2 621.4 500.9 615C496.8 603.7 495.6 601.2 492.9 599.4C491 598.2 489.6 596.1 488.9 593.5C488.3 591.3 486.5 585.5 484.9 580.6C483.3 575.7 482 570.9 482 569.9C482 568.9 480.7 564.8 479.1 560.7C477.6 556.6 475.9 551.5 475.5 549.4C475.1 547.2 473.7 543.1 472.3 540.2C470.9 537.3 469.6 533 469.3 530.7C469 528.4 467.9 523.8 466.7 520.5C465.6 517.2 464.3 512.5 463.9 510C463.1 505.3 462 500.6 459 490C457.2 483.7 456.1 480.4 453.5 473C451.2 466.8 448 454.6 448 452.3C448 451 447.4 448.3 446.6 446.3C445.9 444.2 444.5 438.9 443.5 434.5C442.6 430.1 441.1 423.8 440.3 420.5C439.5 417.2 438.4 412.2 437.9 409.4C437.4 406.6 436.3 402.4 435.5 400C434.7 397.7 434 393.8 434 391.4C434 389 433.4 385.3 432.6 383.3C431.9 381.2 430.5 375.9 429.5 371.5C428.6 367.1 427.2 360.8 426.4 357.4C425.6 354.1 425 349.7 425 347.7C425 344.2 423.6 337.7 420.4 326.4C419.6 323.6 419 318.1 419 314.2C419 310.3 418.4 305.1 417.6 302.8C416.8 300.4 415.8 295.8 415.5 292.5C415.1 289.2 413.7 281.2 412.4 274.6C411.1 268.1 410 259.3 410 255.1C410 250.9 409.5 245.9 408.9 244C407.8 240.4 405.7 224.8 404.1 208.5C403.6 203.5 402.7 197 402.1 194C401.5 191 400.6 181.5 400 173C399.5 164.5 398.3 150.1 397.4 141C396.5 131.9 395.6 120 395.5 114.5C395.2 97.8 395.3 98.4 391.1 93.9C387.8 90.6 387 89 386.5 84.5C384.4 67.9 391.7 61.9 404.2 69.7ZM803.2 357.6C801.7 389.4 800.1 405.2 798 409.4C795.4 414.5 794.3 414 786.8 404.6C781.7 398.5 781.2 396.7 783.3 394.1C784.1 393.2 786.2 388.7 788 384C789.8 379.3 792.1 373.6 793.1 371.3C794.2 369 795 366.7 795 366.2C795 365.7 796.1 362.7 797.4 359.4C798.6 356.2 800 352.7 800.4 351.7C800.7 350.7 801.6 350 802.3 350.3C803.1 350.6 803.4 352.7 803.2 357.6ZM837.4 519.5C841.8 525.7 860.5 553.8 864.8 560.5C872.9 573.5 884 592.1 884 592.8C884 593.3 885.7 596.1 887.9 599.1C890 602.1 893.4 608.3 895.4 612.9C900.9 625.7 900.4 626.7 892.3 619C889.4 616.2 886.6 614 886.1 614C884.8 614 889.6 624.2 893.6 630C895.3 632.5 900.7 642.1 905.5 651.5C919.2 678 919.9 679.2 921.4 680.9C922.1 681.8 924.8 686.5 927.4 691.3C930 696.1 933.9 703.1 936.1 706.7C938.3 710.3 940.6 714.4 941.1 715.8C941.6 717.1 943.1 719.7 944.3 721.4C947.7 726.1 965.9 762 971 774C972.5 777.6 977.2 788.3 981.4 797.9C985.6 807.5 989 815.9 989 816.6C989 817.3 990.4 820.9 992 824.6C993.7 828.3 995 832.5 994.8 833.9C994.5 836.1 993.9 836.6 990.5 837C987 837.4 986.4 837.9 985.3 841C983.4 846.5 983.7 848.6 987.9 857.8C995.5 874.8 999.3 884.7 1008.4 912C1011.4 921.1 1014.4 929.8 1014.9 931.5C1015.5 933.1 1018 941 1020.6 949C1026.3 966.8 1026.1 966.4 1029.4 966.8C1031.4 967.1 1033 966.2 1035.9 963.3C1038 961.2 1039.9 958.9 1040.2 958.1C1040.4 957.2 1041.3 956.9 1042.3 957.3C1044.6 958.2 1050.6 967.7 1051.5 972C1051.9 973.9 1052.6 976.1 1053.1 977C1054.8 979.9 1058 989.1 1058 990.8C1058 992.7 1052.9 998 1049.3 999.9C1048.1 1000.5 1044.9 1001 1042.3 1001C1038.1 1001 1036.1 1001.8 1027.5 1007.2C1011.4 1017.1 1011.2 1017.2 1005 1016.4C1002 1016 996.8 1014.4 993.6 1012.7L987.6 1009.7L983.3 1012C980.9 1013.3 977.5 1016.4 975.6 1019L972.2 1023.7L963.9 1024.2C952.8 1024.9 950.7 1024.2 949.7 1019.9C949.3 1018 948.4 1014.9 947.8 1013C947.2 1011.1 946.6 1007.3 946.5 1004.5C946.3 999.7 943.4 992 941.8 992C941.4 992 940.7 993.2 940.4 994.7C940 996.3 939 998.3 938.2 999.3C936.8 1000.8 936.9 1001.3 938.5 1004.4C940.5 1008.1 939.9 1011.3 937.3 1010.8C936.2 1010.6 934.9 1008.7 934 1006C933.1 1003.5 931.9 1000.5 931.2 999.3C928.9 995.2 926 984.5 926 980.2C926 977.8 925.5 975 924.9 973.8C924.3 972.7 922.7 967.2 921.3 961.7C919.9 956.1 918.5 951 918 950.5C917.6 949.9 917 947.7 916.7 945.5C916.3 943.3 915.2 939.7 914.2 937.6C912.3 933.8 912.3 933.8 911.8 936.3C911.5 937.7 911.9 940.6 912.7 942.7C913.5 944.8 914.5 950.9 915.1 956.4C915.6 961.8 916.9 968.9 918 972.1C919.1 975.3 920 979.8 920 982C920 984.2 920.7 987.7 921.5 989.7C923.8 995.1 923.5 1008.1 921.1 1011.1C919.3 1013.4 918.7 1013.5 908.5 1013.1C901.7 1012.9 894.6 1012 888.8 1010.5C877.8 1007.7 876.1 1006 876 998.3C876 991.8 875.3 990.1 872.3 988.9C866.6 986.7 854.9 995.7 850.4 1005.8C847.1 1013 847.1 1023.3 850.3 1027.2C852.1 1029.4 853.5 1029.9 858.5 1030.3C861.8 1030.5 870.8 1032.2 878.5 1034C888.2 1036.3 894.5 1037.3 899 1037.1C906.5 1036.9 910.4 1038 912 1040.9C913.5 1043.7 911.2 1047 905 1051C901 1053.6 898.3 1054.3 888.9 1055.6C882.6 1056.4 875.9 1056.9 873.8 1056.6C871.8 1056.3 865.8 1056.9 860.3 1057.9C854.9 1059 848.3 1060.2 845.5 1060.6C842.8 1060.9 839.9 1061.7 839.3 1062.2C837.5 1063.7 837.7 1067 839.7 1069.3C841.4 1071.1 841.4 1071.3 839.1 1073.1C837.8 1074.1 836.2 1075 835.6 1075C833.9 1075 829.8 1079.5 830.7 1080.3C832.2 1081.9 838.7 1080.7 849.7 1076.9C856.2 1074.7 862.3 1072.6 863.3 1072.3C864.3 1072 866 1072.6 867 1073.5C868.8 1075.1 869.6 1075.2 874.8 1074.1C877.9 1073.4 883.2 1072.5 886.5 1072C889.8 1071.5 894.3 1070.6 896.5 1070.1C903.6 1068.2 907.1 1068.7 910.5 1072C912.1 1073.6 915.3 1075.3 917.5 1075.8L921.5 1076.7L918.5 1077.4C916.9 1077.9 914.1 1078.8 912.4 1079.6C910.7 1080.3 906.1 1081.3 902.1 1081.6C894.5 1082.3 893 1083.4 898.3 1084.4C903.1 1085.4 899.8 1087 892.8 1087C888.4 1087 886.8 1086.6 885.8 1085.2C885 1084.1 882.7 1083.1 880 1082.7C875.8 1082.2 838.7 1084.3 829.3 1085.6C825.2 1086.2 823.5 1085 826 1083.5C827.7 1082.4 827.1 1080.2 824.8 1079.4C823 1078.9 822 1079.5 819.5 1082.4C816.8 1085.6 815.9 1086.1 812.9 1085.8C809.8 1085.5 809.4 1085.1 808.4 1081C807.2 1075.9 805.1 1028.5 805.6 1017C806.6 993.9 807.9 919.9 807.8 891.5C807.5 823.7 809.1 740.4 811 726.5C811.5 722.1 811.8 716.9 811.5 714.9C811.1 712.9 811.4 707.5 812 702.9C812.6 698.3 813.3 686.2 813.5 676C813.7 665.8 814.3 653.4 814.9 648.5C815.5 643.5 816.4 632.7 817 624.5C817.6 616.2 818.3 608.9 818.5 608.2C819.3 605.8 822.9 606.9 824.6 610.2C827.2 615.2 832.1 629 832.9 633.5C833.3 635.7 834.1 638.4 834.7 639.5C835.3 640.6 836.1 644.4 836.4 648C837.2 655.2 839.3 660.7 843.9 667.4C846.2 670.7 847 673 847 676.1C847 680.2 850.5 692.5 852.1 694.4C853.3 695.8 858 693.4 858 691.4C858 690.5 856.9 686 855.4 681.4C853.3 674.3 853 672.3 853.8 668C854.8 662.6 854.4 659.6 851.5 652C850.6 649.5 848.8 642.1 847.4 635.5C846 628.9 844.2 621.1 843.3 618.2C842.5 615.2 841.4 610.5 841 607.7C840.6 604.8 839.5 599.3 838.5 595.5C837.6 591.6 836 584.4 834.9 579.5C832.8 569.9 830.6 561.3 828.4 554C827.7 551.5 826.6 541.3 826 531.2C824.9 514.1 824.9 512.7 826.6 510.9C828.4 508.9 828.4 508.9 831.1 511.7C832.6 513.2 835.5 516.7 837.4 519.5ZM800.6 596.5C802.5 601.1 802.4 604.9 800.3 607.2C798.7 609 798.7 609.3 800.3 612C801.9 614.6 802 616.3 801.2 625.7C800.7 631.7 800.5 638.5 800.8 640.8C801 643.2 800.8 645.6 800.3 646.1C799.7 646.7 799.9 649.5 800.7 653.5C801.8 659 801.8 660.8 800.5 666.2C798.6 674.3 798.6 677.9 800.6 682.5C802.1 686.1 802 686.7 800 693.1L797.8 699.9L799.8 703.9C801.7 707.5 801.8 708.3 800.6 711.2C799.9 713 798.9 719.4 798.5 725.5C798.1 731.5 797.6 738.1 797.4 740C797.2 741.9 796.8 753.8 796.5 766.5C796.1 783.8 795.6 790.8 794.4 794.7C793.2 798.4 793 801.1 793.5 803.7C794.8 810.1 794.5 813.5 792.1 816.7C789.9 819.6 789.8 820.6 790.1 832.2C790.9 861.3 789.7 925 788.4 927.2C788 927.8 787.5 934.4 787.3 941.9C786.5 969.7 784.4 1000.1 782.9 1006.7C782.2 1009.5 782 1014.2 782.3 1017C782.7 1019.9 782.5 1024.3 782 1026.8C780 1037.7 778.8 1047.1 778.4 1055.5C778.2 1060.4 777.4 1067.6 776.7 1071.5C775.6 1077.5 775 1078.7 772.7 1079.8C771.2 1080.5 769.5 1080.8 769 1080.5C768.4 1080.2 768 1075.1 767.9 1069.2C767.9 1063.3 767.5 1053.8 767 1048C766.5 1041.3 766.7 1027.6 767.5 1010C768.2 994.9 768.8 979.8 768.8 976.5C768.7 973.2 769.2 964.6 769.9 957.5C770.5 950.3 771.2 937.9 771.5 929.7C771.7 921.6 772.2 914.4 772.6 913.8C773 913.1 773.7 906.5 774.1 899C774.5 891.6 775.4 881.4 776.1 876.5C776.7 871.5 777.4 863.9 777.5 859.5C777.7 855.1 778.3 849.9 778.9 848C780.4 843.4 780.4 815.3 778.9 814.5C776.9 813.2 779.2 779.2 781.8 771.2C782.4 769.4 782.6 766.4 782.3 764.5C782 762.6 782.3 758.3 782.9 754.8C785.9 737.9 787 719.5 787 681.6C787 667.9 787.3 664.2 788.5 662.3C789.4 661 790 659.1 789.9 658.2C789.6 654.7 790 652.9 791 653.5C792.3 654.3 795 652.2 795 650.5C795 649.7 794.2 649 793.3 648.8C791.7 648.5 791.5 647.5 791.8 641.5C792.1 635.7 792.5 634.2 794.3 632.8C796.3 631.2 796.4 630.9 795.1 627.8C794.3 626 793.8 623.6 793.9 622.5C794 621.4 794.3 617 794.6 612.6C795.1 605.9 795.5 604.7 797.1 604.3C798.8 603.8 799 603.2 798.4 600.6C797.7 597.2 797.7 597.2 797.9 594.7C798.1 592.1 799 592.6 800.6 596.5ZM576.8 842.8C577.1 843.7 576.6 844.1 575.4 843.8C574.5 843.7 573.5 842.9 573.2 842.2C572.9 841.3 573.4 840.9 574.6 841.2C575.5 841.3 576.5 842.1 576.8 842.8ZM597.6 914.7C598.7 916.3 599.5 919.4 599.5 922.1C599.6 925.3 600.4 927.7 602.2 930.1C604.5 933.2 607 941.5 611.6 961.5C613 968 613.4 974 612.3 974C610.7 974 608 970.5 608 968.4C608 967.1 607.4 964.3 606.6 962.3C605.8 960.2 604.4 955.2 603.4 951.3C602.5 947.3 601.1 943.5 600.4 942.9C599.6 942.3 599 940 599 938C599 935 598.4 933.7 596.4 932.3C593 929.8 590.5 920.1 592.1 915.2C593.4 911.3 595.2 911.1 597.6 914.7ZM735.7 1039.7C735.5 1041.3 735.3 1040.2 735.3 1037.5C735.3 1034.7 735.5 1033.5 735.7 1034.7C735.9 1036 735.9 1038.2 735.7 1039.7ZM801.1 1035.7C802.1 1038.4 801.4 1047.7 800 1050C798.4 1052.6 797 1049.7 797 1043.7C797 1033.6 798.9 1029.9 801.1 1035.7ZM991.7 1037.7C992.5 1040.1 986.9 1042.5 980.8 1042.4C973.5 1042.3 971.5 1040.7 974.9 1037.9C976.9 1036.3 978.6 1036 984.3 1036.2C988.6 1036.4 991.5 1037 991.7 1037.7ZM655.7 1043.7C656 1044.7 657.8 1047.7 659.5 1050.5C661.3 1053.2 664.9 1059.3 667.6 1064C670.3 1068.7 674.1 1074.9 676.2 1077.9C678.3 1080.9 680 1083.7 680 1084.1C680 1084.6 681.1 1086.6 682.5 1088.6C686.2 1094 685.8 1094.6 678.9 1095.4C675.5 1095.7 672.1 1096.5 671.4 1097.1C670.7 1097.7 669.1 1098 667.9 1097.8C665 1097.4 659 1082.8 659 1076.1C659 1073.5 658.1 1068.8 656.9 1065.6C655.8 1062.4 654.7 1057.2 654.5 1054.1C654.3 1051 653.8 1047 653.4 1045.2C652.7 1041.8 654.5 1040.5 655.7 1043.7ZM955 1044.8C955 1046.6 949.4 1050 946.4 1050C943.3 1050 945.3 1045.8 949 1044.5C954 1042.7 955 1042.8 955 1044.8ZM929 1052C929 1052.5 928.3 1053 927.5 1053C926.7 1053 926 1052.5 926 1052C926 1051.4 926.7 1051 927.5 1051C928.3 1051 929 1051.4 929 1052ZM1006.5 1054.5C1009.4 1057.4 1009.6 1059.1 1007.3 1061.2C1005.7 1062.5 1004.1 1062.6 995.2 1061.6C987 1060.7 984.2 1060.7 981.8 1061.7C980.1 1062.4 977.9 1063 976.9 1063C974 1063 971 1066.6 971 1070.1C971 1074.7 969.4 1077 966.1 1077C962.8 1077 962 1075.6 962 1069.6C962 1062.7 966.2 1057.8 973.8 1055.7C977.2 1054.8 982.3 1054 985.2 1053.9C988.1 1053.9 992.8 1053.5 995.5 1053C1003.5 1051.8 1004 1051.9 1006.5 1054.5ZM995.4 1076.2C995.7 1077.9 996.7 1080.1 997.6 1081.1C998.9 1082.6 998.9 1082.8 997.6 1083.3C996.8 1083.6 995.2 1085.7 994.1 1087.9C991.7 1092.5 987.6 1096 984.6 1096C983.4 1096 981.5 1096.6 980.4 1097.4C978.7 1098.7 978.3 1098.6 976.8 1097.3C974.7 1095.4 974.5 1091.2 976.4 1088.8C977.1 1087.8 979.1 1086.7 980.9 1086.4C983.9 1085.8 985.3 1084 982.8 1084C982.1 1084 982.7 1083 984.3 1081.9C985.8 1080.8 987 1079.1 987 1078.2C987 1075.9 990 1073 992.5 1073C994.2 1073 994.9 1073.8 995.4 1076.2ZM777 1087.5C777 1089.2 774.2 1090.2 771.8 1089.4C769.9 1088.8 769.9 1088.7 772.1 1086.4C773.8 1084.6 774.6 1084.3 775.7 1085.1C776.4 1085.7 777 1086.8 777 1087.5ZM938.9 1084.9C941.4 1086.5 938.2 1087.1 927.7 1087.1C922.1 1087.1 915.7 1087.5 913.5 1087.9C907.6 1089 900.5 1086.1 905.8 1084.7C909 1083.8 937.5 1084 938.9 1084.9ZM1064 1093.8C1064 1100.6 1061.8 1107.8 1058.1 1113.5C1056.6 1115.7 1054.9 1118.7 1054.3 1120.2C1053 1123 1048.4 1126.7 1047.4 1125.7C1046.3 1124.6 1048.8 1119.3 1053.4 1113C1057.3 1107.7 1058 1106.1 1058 1102C1058 1097.2 1061.3 1088 1063 1088C1063.6 1088 1064 1090.6 1064 1093.8ZM899.4 1101.5C902.7 1102.6 904.5 1102.8 906.6 1102C908.1 1101.4 913.9 1101 919.4 1101C925 1101.1 931.1 1101 933 1100.9C937.8 1100.5 949.5 1101.6 951.4 1102.7C953.4 1103.8 957.6 1110.1 958.4 1113.3C958.9 1115.3 958.5 1116.8 957 1118.8L955 1121.5L942 1121.4L928.9 1121.3L925.6 1118.1C922.5 1115.1 922 1114.9 912.1 1114.5L901.9 1114L900.2 1117C898.5 1119.9 898.3 1120 891.1 1120C883.2 1120 872.3 1121.6 870 1123C868.8 1123.7 868.8 1124.2 869.8 1125.2C871.1 1126.5 877.9 1127 900.5 1127.4C913.4 1127.6 936.9 1129.6 937.8 1130.5C938.9 1131.5 934.7 1131.9 919 1132.2C905.3 1132.5 901.8 1132.9 898.5 1134.5L894.5 1136.4L902 1137.1C906.1 1137.5 912.7 1138.3 916.5 1138.8C920.4 1139.3 927 1139.5 931.2 1139.2C935.4 1139 939.7 1139 940.6 1139.4C944.9 1141.1 938.9 1142.1 918.9 1143C907.2 1143.6 894.8 1144.5 891.5 1145C886.3 1145.9 856.3 1146.7 795.5 1147.4C786.7 1147.5 771 1148.1 760.5 1148.7C738.9 1149.9 728.6 1149.3 728.4 1147C728.2 1143.7 727.9 1143.2 726.3 1142.5C723 1141.2 701.5 1137.1 697.6 1137C695.2 1137 690.7 1135.5 685.1 1132.8C677.3 1128.9 675.8 1128.5 669.3 1128.6C660.3 1128.6 656.7 1130.9 652.7 1139C650.3 1143.8 650 1145.1 650.9 1146.9C651.6 1148 653.1 1149 654.3 1149.1C655.5 1149.1 658.1 1149.8 660 1150.6C663.3 1151.9 662.8 1152 653.5 1151.4C647.1 1151.1 642.7 1150.3 641.2 1149.4C639.1 1148 638.6 1148 636.9 1149.6C635.9 1150.5 635 1152.1 635 1153.2C635 1154.2 634.6 1155 634.1 1155C633.6 1155 632.9 1152.6 632.6 1149.7C632.3 1146.9 631.7 1140.7 631.2 1136C630.7 1131.3 630.7 1126.4 631.2 1125C631.6 1123.6 632.1 1120.9 632.3 1119C632.6 1114.9 632.9 1114.8 654 1113.1C696.6 1109.8 700.5 1109.6 732.5 1109C742.3 1108.9 786.6 1106.5 817 1104.5C856.7 1101.9 873.4 1101.1 877.5 1101.6C879.7 1101.9 883.5 1101.7 886 1101.2C892.6 1099.8 894.4 1099.8 899.4 1101.5ZM993.5 1101.9C1001.2 1101.7 1012 1101.5 1017.5 1101.5H1027.5L1027.2 1105.8C1027.1 1108.2 1026.1 1111.9 1025 1114.1C1023.4 1117.2 1022.2 1118.1 1018.7 1119C1016.4 1119.6 1012.3 1120.8 1009.6 1121.6C1006.4 1122.5 999.9 1123 991.5 1123C978.6 1123 978.3 1123 977.2 1120.6C976.6 1119.3 974.3 1117.2 972.1 1116C969.9 1114.7 967.6 1112.4 967 1110.9C966.3 1109.3 965.2 1107.5 964.4 1106.9C959.8 1103.1 966 1099.7 974.5 1101.4C977.3 1101.9 985.8 1102.2 993.5 1101.9ZM1052.8 1143.6C1055.8 1144.5 1055.6 1146.8 1052.3 1148.1C1047.9 1149.8 1034.3 1152.2 1031 1151.8L1028.1 1151.5L1033.1 1147.2C1037.9 1143.3 1038.6 1143 1044.4 1143C1047.7 1143 1051.5 1143.3 1052.8 1143.6ZM1004.5 1151C1006.4 1151.7 1006.3 1151.8 1003.8 1152.5C1000.4 1153.4 996.1 1152.2 998.1 1150.9C999.8 1149.8 1001.8 1149.9 1004.5 1151Z" fill="white"/>
<path d="M908.5 920C907.6 921.4 908.8 927.7 910 928.5C910.6 928.9 911 927.2 911 924.6C911 920.2 909.8 917.9 908.5 920Z" fill="white"/>
<path d="M935.6 972.5C935.2 973.5 935.6 976.4 936.4 978.9C937.3 981.4 938.2 984.7 938.5 986.2C939.5 991.2 941 989.1 941 982.7C941 977.7 940.5 975.9 938.7 973.6C936.6 971 936.3 970.9 935.6 972.5Z" fill="white"/>
<path d="M791.6 681.7C790.5 682.8 791 684 792.5 684C793.3 684 794 683.6 794 683.1C794 681.8 792.4 680.9 791.6 681.7Z" fill="white"/>
<path d="M791.7 688.7C790.6 689.8 790.9 699.2 792 698.5C792.6 698.2 793 697 793 695.9C793 694.9 793.9 693.1 795 692C796.1 690.9 797 689.5 797 689C797 687.9 792.7 687.6 791.7 688.7Z" fill="white"/>
<path d="M788.5 734.4C788.1 736.8 788.2 739.6 788.8 740.6C789.7 742.2 789.8 742.2 790.9 740.1C792.1 737.9 791.5 731.4 790 730.5C789.5 730.2 788.8 732 788.5 734.4Z" fill="white"/>
<path d="M791.3 777.6C791 778.4 791.2 779.6 791.9 780.3C792.7 781.1 793 780.7 793 778.7C793 775.7 792.3 775.2 791.3 777.6Z" fill="white"/>
<path d="M408.2 394C408.2 395.9 408.4 396.7 408.7 395.7C408.9 394.8 408.9 393.2 408.7 392.2C408.4 391.3 408.2 392.1 408.2 394Z" fill="white"/>
<path d="M193.718 1297.19C187.227 1302.34 179.005 1317.41 173.38 1333.58C166.023 1354.16 161.263 1362.25 153.907 1365.19C148.281 1367.03 141.79 1372.17 139.194 1376.59C135.299 1382.83 136.165 1385.41 145.252 1393.13C154.34 1400.85 155.205 1403.79 151.743 1415.92C145.252 1439.81 146.983 1453.04 156.936 1457.45C163.86 1460.76 167.754 1460.39 174.245 1455.25C178.572 1451.94 182.467 1446.79 182.467 1443.85C182.467 1441.28 184.198 1439.07 186.362 1439.07C188.525 1439.07 191.554 1429.88 193.285 1418.86C195.882 1400.11 196.747 1398.64 207.565 1398.64C218.384 1398.64 220.115 1400.85 230.067 1426.94C241.318 1455.98 251.271 1466.64 261.224 1458.19C265.118 1454.88 265.118 1447.53 259.926 1425.11C254.3 1400.85 254.3 1394.96 259.06 1388.72C265.984 1379.89 262.522 1370.7 251.271 1365.19C245.213 1362.62 243.049 1357.47 243.049 1346.08C243.049 1337.26 241.318 1328.8 239.155 1326.6C236.991 1324.76 234.395 1318.51 233.529 1312.26C232.664 1304.91 228.336 1299.39 218.384 1294.62L204.536 1288L193.718 1297.19ZM212.325 1357.1C212.758 1362.25 210.162 1365.56 206.267 1365.56C199.343 1365.56 198.045 1358.21 202.805 1343.87C205.402 1335.42 205.834 1335.42 208.864 1342.03C210.594 1345.71 212.325 1352.69 212.325 1357.1Z" fill="white"/>
<path d="M597.473 1290.21C588.932 1292.04 574.412 1316.58 567.579 1341.49C563.309 1356.14 560.319 1360.53 550.497 1363.83C533.842 1368.96 529.571 1385.44 542.81 1393.86C552.205 1399.72 552.205 1401.19 547.508 1423.53C543.237 1444.77 543.664 1447.34 550.924 1453.56C557.33 1459.42 560.319 1459.79 568.006 1456.49C572.704 1453.93 576.974 1449.9 576.974 1446.97C576.974 1444.04 578.683 1441.48 580.818 1441.48C582.953 1441.48 585.942 1434.52 587.651 1425.73C592.348 1399.36 594.056 1397.16 605.587 1398.26C614.982 1399.36 617.544 1402.65 624.804 1423.16C633.345 1448.07 645.303 1462.35 653.417 1458.32C659.396 1455.03 659.396 1433.78 653.417 1412.54C650.427 1401.55 650.427 1395.33 653.844 1392.4C660.677 1386.54 658.969 1372.62 649.573 1365.29C644.449 1361.26 639.324 1349.91 636.762 1336.72C634.199 1325 631.637 1311.82 630.356 1307.79C628.221 1299 607.722 1288.38 597.473 1290.21ZM606.868 1349.91C606.868 1360.9 605.16 1364.56 600.035 1364.56C595.338 1364.56 594.056 1362.36 596.192 1356.14C597.9 1351.74 600.035 1345.15 600.889 1341.49C604.733 1331.23 606.868 1334.53 606.868 1349.91Z" fill="white"/>
<path d="M1035.68 1294.18C1029.25 1299.32 1021.11 1314.38 1015.11 1330.91C1009.96 1346.34 1003.53 1358.83 1000.96 1358.83C998.391 1358.83 991.533 1362.87 986.39 1367.64C975.245 1377.56 976.96 1390.05 989.819 1393.72C996.677 1395.56 997.106 1397.76 994.105 1409.52C985.533 1441.1 992.391 1460.94 1010.39 1455.43C1019.39 1452.49 1031.82 1431.19 1034.82 1412.82C1037.83 1396.66 1038.68 1395.56 1050.26 1395.56C1061.4 1395.56 1062.69 1397.03 1067.83 1415.76C1073.83 1439.27 1085.83 1458 1094.83 1458C1105.12 1458 1106.41 1446.25 1100.41 1417.96C1096.98 1403.64 1096.12 1390.78 1097.83 1389.68C1105.55 1386.01 1101.69 1366.54 1093.12 1362.5C1086.69 1359.56 1084.55 1354.79 1084.55 1344.87C1084.55 1337.16 1082.83 1329.44 1080.69 1327.24C1078.55 1325.4 1075.97 1318.06 1075.12 1311.08C1074.26 1301.53 1070.83 1297.12 1060.11 1291.61L1046.4 1285L1035.68 1294.18ZM1054.11 1355.89C1054.54 1359.93 1051.54 1362.5 1046.4 1362.5C1039.11 1362.5 1038.68 1361.03 1042.97 1346.71C1047.26 1332.38 1047.68 1332.01 1050.68 1340.46C1052.4 1345.61 1053.68 1352.58 1054.11 1355.89Z" fill="white"/>
<path d="M836.651 1299.62C834.931 1300.71 833.64 1306.94 833.64 1312.8C833.64 1321.59 841.383 1330.38 873.642 1358.95C936.44 1413.89 942.462 1422.68 920.526 1427.08C891.707 1432.21 872.782 1415.36 863.749 1376.53C858.158 1352.36 853.426 1344.67 843.963 1344.67C830.199 1344.67 828.479 1358.59 837.942 1399.97C842.673 1421.95 848.695 1444.29 850.845 1449.05C855.147 1458.94 866.76 1461.14 870.631 1453.08C872.352 1449.05 875.793 1448.32 883.965 1451.25C908.912 1459.31 949.344 1451.98 955.796 1438.07C964.829 1417.92 954.506 1397.78 917.515 1363.71C901.6 1349.43 890.417 1337.34 892.568 1337.34C905.471 1337.71 931.279 1355.66 939.881 1370.31C945.043 1380.2 951.925 1386.79 956.226 1386.79C962.248 1386.79 963.538 1381.66 963.968 1349.43C964.399 1309.14 960.527 1299.25 946.333 1306.57C942.462 1308.77 938.161 1314.27 936.871 1318.66L934.72 1326.35L919.666 1317.56C892.998 1302.18 845.254 1291.92 836.651 1299.62Z" fill="white"/>
<path d="M0.430192 1303.56C-0.865506 1305.78 0.862091 1334.16 4.31729 1367.34C8.20438 1400.14 11.6596 1433.69 12.5234 1441.8C13.3872 1455.81 14.251 1456.54 26.3442 1455.81C33.6864 1455.07 59.6004 1453.6 84.6506 1452.12L130 1449.17L128.704 1436.27C128.272 1429.27 125.249 1422.26 122.226 1420.42C119.203 1418.94 102.358 1418.21 84.2187 1418.58L50.9624 1419.68L48.371 1386.51C42.7563 1323.47 40.5968 1308.72 36.2778 1316.47C33.2545 1322.73 32.8226 1322 34.1183 1313.89C35.414 1307.62 33.6864 1303.2 29.7993 1302.09C19.8657 1298.77 3.45349 1299.51 0.430192 1303.56ZM11.2277 1311.67C11.2277 1317.57 9.93198 1318.68 6.47678 1315.73C3.88539 1313.52 3.02159 1309.83 4.31729 1307.62C9.06818 1301.35 11.2277 1302.83 11.2277 1311.67ZM9.93198 1333.79C8.63628 1336.74 7.34058 1335.63 7.34058 1331.58C6.90868 1327.52 8.20438 1325.31 9.50008 1326.79C10.7958 1327.89 11.2277 1331.21 9.93198 1333.79Z" fill="white"/>
<path d="M691.435 1337.85C693.152 1360.46 696.157 1395.47 697.445 1415.53L700.021 1452L715.047 1451.27C824.954 1444.71 823.666 1445.07 813.792 1423.19C809.499 1413.34 809.069 1413.34 774.294 1414.07L738.66 1414.8L735.655 1375.05C731.791 1322.53 727.927 1301.74 724.063 1307.58C721.487 1310.86 719.77 1310.13 718.053 1304.66C716.335 1298.82 712.471 1297 701.738 1297H688L691.435 1337.85ZM696.586 1325.08C695.728 1330.92 694.869 1326.91 694.869 1317.06C694.869 1306.85 695.728 1302.47 696.586 1306.85C697.445 1311.59 697.445 1319.61 696.586 1325.08Z" fill="white"/>
<path d="M365.923 1303C354.74 1305.92 352.59 1316.16 361.622 1326.4C372.805 1339.21 377.536 1363.71 370.654 1373.22C365.923 1379.81 366.353 1382 372.375 1387.85C380.547 1395.53 383.128 1436.13 374.956 1436.13C372.375 1436.13 371.085 1439.79 371.945 1444.18C373.235 1452.59 373.665 1452.59 437.752 1451.49C473.451 1450.76 505.709 1449.3 510.01 1448.57C528.935 1443.81 507.86 1416.75 465.709 1391.14L454.956 1384.93L472.591 1386.76C491.516 1389.32 504.419 1382.73 504.419 1371.03C504.419 1361.88 457.537 1326.04 430.87 1314.7C407.644 1304.82 379.687 1299.7 365.923 1303ZM436.031 1345.42L454.956 1357.49L431.3 1359.69C418.397 1361.15 407.214 1362.25 406.784 1361.88C406.784 1361.52 405.063 1354.93 403.343 1347.25C400.762 1335.55 401.192 1333.72 408.504 1333.72C413.235 1333.72 425.709 1339.21 436.031 1345.42ZM439.042 1405.04C450.225 1409.8 463.989 1417.11 470.01 1421.14L480.763 1428.82H447.644H414.096V1418.21C414.096 1412.36 412.805 1405.04 411.515 1401.75C407.644 1393.7 415.386 1394.44 439.042 1405.04Z" fill="white"/>
<path d="M138.968 1457.51C121.502 1459.33 125.762 1459.64 161.547 1459.94C187.96 1460.25 205 1459.33 205 1457.51C205 1454.16 173.049 1454.16 138.968 1457.51Z" fill="white"/>
<path d="M703.848 1449.51C685.555 1451.33 689.04 1451.64 724.753 1451.94C750.45 1452.25 767 1451.33 767 1449.51C767 1446.16 738.255 1446.16 703.848 1449.51Z" fill="white"/>
</svg>
