<svg width="1104" height="176" viewBox="0 0 1104 176" fill="none" xmlns="http://www.w3.org/2000/svg">
<path d="M193.718 12.1894C187.227 17.3354 179.005 32.406 173.38 48.5794C166.023 69.1636 161.263 77.2503 153.907 80.1909C148.281 82.0287 141.79 87.1748 139.194 91.5857C135.299 97.8345 136.165 100.408 145.252 108.127C154.34 115.846 155.205 118.786 151.743 130.916C145.252 154.809 146.983 168.041 156.936 172.452C163.86 175.76 167.754 175.393 174.245 170.247C178.572 166.939 182.467 161.793 182.467 158.852C182.467 156.279 184.198 154.074 186.362 154.074C188.525 154.074 191.554 144.884 193.285 133.857C195.882 115.111 196.747 113.64 207.565 113.64C218.384 113.64 220.115 115.846 230.067 141.944C241.318 170.982 251.271 181.642 261.224 173.187C265.118 169.879 265.118 162.528 259.926 140.106C254.3 115.846 254.3 109.964 259.06 103.716C265.984 94.8939 262.522 85.7045 251.271 80.1909C245.213 77.6178 243.049 72.4718 243.049 61.0769C243.049 52.2551 241.318 43.8009 239.155 41.5954C236.991 39.7576 234.395 33.5088 233.529 27.26C232.664 19.9085 228.336 14.3948 218.384 9.61636L204.536 3L193.718 12.1894ZM212.325 72.1042C212.758 77.2503 210.162 80.5584 206.267 80.5584C199.343 80.5584 198.045 73.2069 202.805 58.8715C205.402 50.4172 205.834 50.4172 208.864 57.0336C210.594 60.7094 212.325 67.6933 212.325 72.1042Z" fill="white"/>
<path d="M597.473 5.20807C588.932 7.0394 574.412 31.5793 567.579 56.4854C563.309 71.1361 560.319 75.5313 550.497 78.8277C533.842 83.9555 529.571 100.437 542.81 108.862C552.205 114.722 552.205 116.187 547.508 138.529C543.237 159.773 543.664 162.337 550.924 168.563C557.33 174.423 560.319 174.79 568.006 171.493C572.704 168.929 576.974 164.9 576.974 161.97C576.974 159.04 578.683 156.476 580.818 156.476C582.953 156.476 585.942 149.517 587.651 140.727C592.348 114.356 594.056 112.158 605.587 113.257C614.982 114.356 617.544 117.652 624.804 138.163C633.345 163.069 645.303 177.354 653.417 173.325C659.396 170.028 659.396 148.785 653.417 127.541C650.427 116.553 650.427 110.327 653.844 107.397C660.677 101.536 658.969 87.6181 649.573 80.2928C644.449 76.2639 639.324 64.9096 636.762 51.724C634.199 40.0034 631.637 26.8178 630.356 22.7889C628.221 13.9985 607.722 3.37673 597.473 5.20807ZM606.868 64.9096C606.868 75.8976 605.16 79.5603 600.035 79.5603C595.338 79.5603 594.056 77.3627 596.192 71.1361C597.9 66.7409 600.035 60.1481 600.889 56.4854C604.733 46.23 606.868 49.5264 606.868 64.9096Z" fill="white"/>
<path d="M1035.68 9.18259C1029.25 14.3248 1021.11 29.3843 1015.11 45.913C1009.96 61.3397 1003.53 73.828 1000.96 73.828C998.391 73.828 991.533 77.8684 986.39 82.6433C975.245 92.5605 976.96 105.049 989.819 108.722C996.677 110.558 997.106 112.762 994.105 124.516C985.533 156.104 992.391 175.938 1010.39 170.429C1019.39 167.49 1031.82 146.187 1034.82 127.822C1037.83 111.66 1038.68 110.558 1050.26 110.558C1061.4 110.558 1062.69 112.028 1067.83 130.76C1073.83 154.268 1085.83 173 1094.83 173C1105.12 173 1106.41 161.246 1100.41 132.964C1096.98 118.639 1096.12 105.783 1097.83 104.682C1105.55 101.008 1101.69 81.5414 1093.12 77.5011C1086.69 74.5626 1084.55 69.7877 1084.55 59.8705C1084.55 52.1571 1082.83 44.4437 1080.69 42.2399C1078.55 40.4034 1075.97 33.0573 1075.12 26.0786C1074.26 16.5287 1070.83 12.121 1060.11 6.61146L1046.4 -2.38419e-07L1035.68 9.18259ZM1054.11 70.8896C1054.54 74.9299 1051.54 77.5011 1046.4 77.5011C1039.11 77.5011 1038.68 76.0318 1042.97 61.707C1047.26 47.3822 1047.68 47.0149 1050.68 55.4628C1052.4 60.6051 1053.68 67.5839 1054.11 70.8896Z" fill="white"/>
<path d="M836.651 14.6157C834.931 15.7145 833.64 21.9411 833.64 27.8014C833.64 36.5919 841.383 45.3824 873.642 73.9516C936.44 128.892 942.462 137.683 920.526 142.078C891.707 147.206 872.782 130.357 863.749 91.5327C858.158 67.3587 853.426 59.667 843.963 59.667C830.199 59.667 828.479 73.5854 837.942 114.974C842.673 136.95 848.695 159.293 850.845 164.054C855.147 173.944 866.76 176.141 870.631 168.083C872.352 164.054 875.793 163.322 883.965 166.252C908.912 174.31 949.344 166.985 955.796 153.066C964.829 132.921 954.506 112.776 917.515 78.7131C901.6 64.4286 890.417 52.3416 892.568 52.3416C905.471 52.7079 931.279 70.6552 939.881 85.306C945.043 95.1954 951.925 101.788 956.226 101.788C962.248 101.788 963.538 96.6604 963.968 64.4286C964.399 24.1387 960.527 14.2494 946.333 21.5748C942.462 23.7724 938.161 29.2665 936.871 33.6618L934.72 41.3535L919.666 32.5629C892.998 17.1796 845.254 6.92395 836.651 14.6157Z" fill="white"/>
<path d="M0.430192 18.5639C-0.865506 20.7756 0.862091 49.16 4.31729 82.3366C8.20438 115.144 11.6596 148.69 12.5234 156.799C13.3872 170.807 14.251 171.545 26.3442 170.807C33.6864 170.07 59.6004 168.596 84.6506 167.121L130 164.172L128.704 151.27C128.272 144.266 125.249 137.262 122.226 135.419C119.203 133.945 102.358 133.207 84.2187 133.576L50.9624 134.682L48.371 101.505C42.7563 38.4698 40.5968 23.7247 36.2778 31.4659C33.2545 37.7325 32.8226 36.9953 34.1183 28.8855C35.414 22.6188 33.6864 18.1952 29.7993 17.0893C19.8657 13.7717 3.45349 14.509 0.430192 18.5639ZM11.2277 26.6737C11.2277 32.5717 9.93198 33.6776 6.47678 30.7286C3.88539 28.5168 3.02159 24.8305 4.31729 22.6188C9.06818 16.3521 11.2277 17.8266 11.2277 26.6737ZM9.93198 48.7914C8.63628 51.7404 7.34058 50.6345 7.34058 46.5796C6.90868 42.5247 8.20438 40.3129 9.50008 41.7874C10.7958 42.8933 11.2277 46.211 9.93198 48.7914Z" fill="white"/>
<path d="M691.435 52.8471C693.152 75.4588 696.157 110.471 697.445 130.529L700.021 167L715.047 166.271C824.954 159.706 823.666 160.071 813.792 138.188C809.499 128.341 809.069 128.341 774.294 129.071L738.66 129.8L735.655 90.0471C731.791 37.5294 727.927 16.7412 724.063 22.5765C721.487 25.8588 719.77 25.1294 718.053 19.6588C716.335 13.8235 712.471 12 701.738 12H688L691.435 52.8471ZM696.586 40.0824C695.728 45.9176 694.869 41.9059 694.869 32.0588C694.869 21.8471 695.728 17.4706 696.586 21.8471C697.445 26.5882 697.445 34.6118 696.586 40.0824Z" fill="white"/>
<path d="M365.923 17.9954C354.74 20.9215 352.59 31.1628 361.622 41.4042C372.805 54.2059 377.536 78.712 370.654 88.2218C365.923 94.8055 366.353 97.0001 372.375 102.852C380.547 110.533 383.128 151.133 374.956 151.133C372.375 151.133 371.085 154.791 371.945 159.18C373.235 167.592 373.665 167.592 437.752 166.495C473.451 165.763 505.709 164.3 510.01 163.569C528.935 158.814 507.86 131.748 465.709 106.144L454.956 99.9262L472.591 101.755C491.516 104.315 504.419 97.7316 504.419 86.0272C504.419 76.8832 457.537 41.0384 430.87 29.6998C407.644 19.8242 379.687 14.7035 365.923 17.9954ZM436.031 60.4238L454.956 72.494L431.3 74.6886C418.397 76.1516 407.214 77.2489 406.784 76.8832C406.784 76.5174 405.063 69.9337 403.343 62.2527C400.762 50.5483 401.192 48.7194 408.504 48.7194C413.235 48.7194 425.709 54.2059 436.031 60.4238ZM439.042 120.043C450.225 124.798 463.989 132.113 470.01 136.137L480.763 143.818H447.644H414.096V133.211C414.096 127.358 412.805 120.043 411.515 116.751C407.644 108.704 415.386 109.436 439.042 120.043Z" fill="white"/>
<path d="M138.968 172.509C121.502 174.334 125.762 174.638 161.547 174.942C187.96 175.247 205 174.334 205 172.509C205 169.164 173.049 169.164 138.968 172.509Z" fill="white"/>
<path d="M703.848 164.509C685.555 166.334 689.04 166.638 724.753 166.942C750.45 167.247 767 166.334 767 164.509C767 161.164 738.255 161.164 703.848 164.509Z" fill="white"/>
</svg>
