<svg width="1447" height="231" viewBox="0 0 1447 231" fill="none" xmlns="http://www.w3.org/2000/svg">
<path d="M233.097 11.8453C225.532 18.4786 215.951 37.9049 209.395 58.7526C200.822 85.286 195.275 95.7099 186.702 99.5004C180.147 101.869 172.582 108.503 169.557 114.189C165.018 122.243 166.027 125.56 176.617 135.51C187.207 145.46 188.215 149.251 184.181 164.886C176.617 195.684 178.634 212.741 190.232 218.427C198.301 222.691 202.839 222.217 210.404 215.584C215.447 211.32 219.985 204.686 219.985 200.896C219.985 197.579 222.002 194.736 224.524 194.736C227.045 194.736 230.575 182.891 232.592 168.677C235.618 144.512 236.627 142.617 249.234 142.617C261.841 142.617 263.858 145.46 275.456 179.101C288.568 216.532 300.166 230.272 311.765 219.375C316.303 215.11 316.303 205.634 310.252 176.732C303.696 145.46 303.696 137.879 309.243 129.824C317.312 118.453 313.278 106.608 300.166 99.5004C293.106 96.1837 290.585 89.5503 290.585 74.8622C290.585 63.4907 288.568 52.593 286.046 49.7502C283.525 47.3811 280.499 39.3263 279.491 31.2715C278.482 21.7953 273.439 14.6882 261.841 8.52861L245.704 5.38341e-06L233.097 11.8453ZM254.781 89.0765C255.285 95.7099 252.259 99.9742 247.721 99.9742C239.652 99.9742 238.139 90.4979 243.687 72.0193C246.712 61.1217 247.216 61.1217 250.746 69.6503C252.764 74.3884 254.781 83.3908 254.781 89.0765Z" fill="white"/>
<path d="M763.647 13.2684C753.578 15.6307 736.461 47.2857 728.406 79.4132C723.372 98.3117 719.848 103.981 708.269 108.233C688.635 114.848 683.6 136.109 699.207 146.975C710.283 154.535 710.283 156.425 704.745 185.245C699.71 212.648 700.214 215.955 708.772 223.987C716.324 231.546 719.848 232.019 728.91 227.766C734.448 224.459 739.482 219.262 739.482 215.482C739.482 211.703 741.496 208.396 744.013 208.396C746.53 208.396 750.054 199.419 752.068 188.08C757.606 154.062 759.619 151.228 773.212 152.645C784.288 154.062 787.308 158.314 795.867 184.772C805.936 216.9 820.032 235.326 829.597 230.129C836.645 225.877 836.645 198.474 829.597 171.071C826.073 156.897 826.073 148.865 830.101 145.085C838.156 137.526 836.142 119.573 825.066 110.123C819.025 104.926 812.984 90.2798 809.963 73.2712C806.942 58.1523 803.922 41.1437 802.412 35.9466C799.894 24.6075 775.729 10.9061 763.647 13.2684ZM774.723 90.2798C774.723 104.454 772.709 109.178 766.668 109.178C761.13 109.178 759.619 106.344 762.137 98.3117C764.15 92.6421 766.668 84.1378 767.674 79.4132C772.205 66.1842 774.723 70.4364 774.723 90.2798Z" fill="white"/>
<path d="M1366.66 11.8365C1359.1 18.465 1349.52 37.8769 1342.46 59.1826C1336.41 79.0679 1328.85 95.1656 1325.83 95.1656C1322.8 95.1656 1314.74 100.374 1308.69 106.529C1295.58 119.312 1297.6 135.41 1312.72 140.144C1320.79 142.512 1321.29 145.352 1317.76 160.503C1307.68 201.221 1315.75 226.788 1336.92 219.686C1347.5 215.898 1362.12 188.437 1365.65 164.764C1369.18 143.932 1370.19 142.512 1383.8 142.512C1396.9 142.512 1398.41 144.406 1404.46 168.552C1411.52 198.854 1425.63 223 1436.22 223C1448.32 223 1449.83 207.849 1442.77 171.393C1438.74 152.928 1437.73 136.357 1439.75 134.936C1448.82 130.202 1444.28 105.108 1434.2 99.9002C1426.64 96.1125 1424.12 89.9575 1424.12 77.1741C1424.12 67.2314 1422.11 57.2887 1419.59 54.448C1417.07 52.0807 1414.04 42.6115 1413.03 33.6157C1412.02 21.3057 1407.99 15.6242 1395.39 8.52229L1379.26 -5.66244e-06L1366.66 11.8365ZM1388.33 91.3779C1388.84 96.586 1385.31 99.9002 1379.26 99.9002C1370.69 99.9002 1370.19 98.0064 1375.23 79.5414C1380.27 61.0764 1380.77 60.603 1384.3 71.4926C1386.32 78.121 1387.83 87.1168 1388.33 91.3779Z" fill="white"/>
<path d="M1107.46 23.3792C1105.44 24.7988 1103.93 32.8431 1103.93 40.4143C1103.93 51.771 1113.02 63.1276 1150.9 100.037C1224.64 171.016 1231.71 182.373 1205.95 188.051C1172.11 194.676 1149.89 172.909 1139.28 122.75C1132.72 91.5194 1127.16 81.5823 1116.05 81.5823C1099.89 81.5823 1097.87 99.5637 1108.98 153.035C1114.53 181.426 1121.6 210.291 1124.13 216.443C1129.18 229.219 1142.82 232.058 1147.36 221.648C1149.38 216.443 1153.42 215.497 1163.02 219.282C1192.31 229.692 1239.79 220.228 1247.37 202.247C1257.97 176.221 1245.85 150.196 1202.42 106.188C1183.73 87.7338 1170.6 72.1184 1173.12 72.1184C1188.27 72.5915 1218.58 95.7781 1228.68 114.706C1234.74 127.482 1242.82 136 1247.87 136C1254.94 136 1256.46 129.375 1256.96 87.7338C1257.47 35.6823 1252.92 22.906 1236.26 32.3699C1231.71 35.2091 1226.66 42.307 1225.14 47.9854L1222.62 57.9225L1204.94 46.5658C1173.63 26.6916 1117.56 13.4421 1107.46 23.3792Z" fill="white"/>
<path d="M0.502994 19.5919C-1.01198 22.4417 1.00798 59.0139 5.0479 101.761C9.59281 144.032 13.6327 187.254 14.6427 197.703C15.6527 215.752 16.6627 216.702 30.8024 215.752C39.3872 214.802 69.6866 212.902 98.9761 211.002L152 207.202L150.485 190.579C149.98 181.554 146.445 172.53 142.91 170.155C139.375 168.255 119.681 167.306 98.4711 167.781L59.5868 169.205L56.5569 126.459C49.992 45.2399 47.4671 26.2414 42.4172 36.2156C38.8822 44.29 38.3772 43.3401 39.8922 32.8909C41.4072 24.8165 39.3872 19.1169 34.8423 17.692C23.2275 13.4174 4.03792 14.3673 0.502994 19.5919ZM13.1277 30.0411C13.1277 37.6405 11.6128 39.0654 7.57285 35.2657C4.54291 32.4159 3.53293 27.6663 5.0479 24.8165C10.6028 16.7421 13.1277 18.642 13.1277 30.0411ZM11.6128 58.5389C10.0978 62.3386 8.58283 60.9137 8.58283 55.6891C8.07784 50.4645 9.59282 47.6147 11.1078 49.5146C12.6228 50.9395 13.1277 55.2142 11.6128 58.5389Z" fill="white"/>
<path d="M913.042 73.9694C915.063 103.292 918.6 148.694 920.116 174.706L923.148 222L940.833 221.054C1070.18 212.541 1068.67 213.014 1057.05 184.638C1051.99 171.868 1051.49 171.868 1010.56 172.814L968.623 173.76L965.086 122.209C960.539 54.1059 955.991 27.1482 951.444 34.7153C948.412 38.9718 946.391 38.0259 944.37 30.9318C942.349 23.3647 937.801 21 925.169 21H909L913.042 73.9694ZM919.106 57.4165C918.095 64.9835 917.085 59.7812 917.085 47.0118C917.085 33.7694 918.095 28.0941 919.106 33.7694C920.116 39.9176 920.116 50.3223 919.106 57.4165Z" fill="white"/>
<path d="M481.649 29.2874C468.521 33.0718 465.997 46.3173 476.6 59.5628C489.728 76.1196 495.282 107.814 487.203 120.114C481.649 128.628 482.154 131.467 489.223 139.036C498.816 148.97 501.846 201.479 492.252 201.479C489.223 201.479 487.708 206.209 488.718 211.886C490.233 222.766 490.737 222.766 565.969 221.347C607.877 220.401 645.746 218.508 650.795 217.562C673.011 211.413 648.27 176.407 598.789 143.293L586.166 135.251L606.867 137.616C629.084 140.928 644.231 132.413 644.231 117.275C644.231 105.449 589.195 59.0897 557.891 44.4251C530.626 31.6526 497.806 25.0299 481.649 29.2874ZM563.95 84.1615L586.166 99.7722L558.396 102.611C543.248 104.503 530.121 105.922 529.616 105.449C529.616 104.976 527.596 96.4609 525.576 86.5268C522.547 71.3891 523.052 69.0238 531.635 69.0238C537.189 69.0238 551.832 76.1196 563.95 84.1615ZM567.484 161.269C580.612 167.419 596.769 176.88 603.838 182.083L616.461 192.018H577.582H538.199V178.299C538.199 170.73 536.685 161.269 535.17 157.012C530.626 146.604 539.714 147.551 567.484 161.269Z" fill="white"/>
<path d="M162.805 218.513C142.121 221.068 147.166 221.494 189.542 221.919C220.821 222.345 241 221.068 241 218.513C241 213.829 203.164 213.829 162.805 218.513Z" fill="white"/>
<path d="M878.607 218.513C857.348 221.068 861.397 221.494 902.902 221.919C932.766 222.345 952 221.068 952 218.513C952 213.829 918.593 213.829 878.607 218.513Z" fill="white"/>
</svg>
