<svg width="3665" height="1083" viewBox="0 0 3665 1083" fill="none" xmlns="http://www.w3.org/2000/svg">
<path d="M792.69 825.673C792.046 810.058 802.866 784.936 809.237 769.936C809.539 769.235 809.834 768.549 810.12 767.883C810.23 767.618 810.341 767.352 810.452 767.085C811.939 763.587 813.092 760.298 814.478 756.269C817.735 746.778 822.126 733.965 834.259 707.389C836.566 699.255 838.886 691.232 841.31 683.089C866.53 598.191 895.551 513.252 926.711 428.661C927.65 426.109 928.588 423.569 929.523 421.041C929.822 419.918 930.126 418.778 930.432 417.629C936.401 395.234 943.818 367.543 951.134 350.882C960.444 329.665 967.448 315.522 973.327 303.886C991.044 256.665 1008.6 209.384 1025.66 161.854C1034.41 138.799 1039.47 119.335 1056.28 88.9213C1059.91 82.6505 1067.47 73.1143 1074.07 67.7639C1089.08 53.9003 1113.81 48.1423 1130.05 50.5481C1151.05 53.3847 1160.76 60.7764 1169.71 66.1164C1174.06 68.9365 1177.26 71.7596 1179.83 74.2632C1202.98 100.592 1206.35 114.593 1216.34 132.485C1217.6 134.984 1218.8 137.446 1219.97 139.898C1226.8 151.567 1232.82 162.187 1238.3 172.054C1245.97 185.892 1252.44 198.126 1256.88 208.571C1260.04 216.045 1262.96 223.932 1265.64 231.909C1272.05 251.002 1276.92 270.449 1280.75 286.041C1281.64 289.677 1282.47 293.082 1283.26 296.253C1289.61 313.095 1295.93 330.055 1302.18 346.503C1302.1 347.421 1302 348.327 1301.89 349.221C1301.84 349.597 1301.79 349.973 1301.74 350.35C1299.5 366.021 1305.91 382.967 1316.15 411.176C1320.56 423.361 1325.64 437.674 1330.87 454.548C1332.18 458.777 1332.85 462.263 1333.2 465.407C1333.74 470.338 1333.34 474.09 1332.98 477.361C1332.8 478.913 1332.64 480.381 1332.6 481.839C1332.42 486.738 1335.67 490.801 1339.46 495.516C1344.39 501.667 1350.31 509.1 1350.91 521.246C1352.81 559.929 1363.71 573.514 1372.06 583.893C1374.51 586.933 1376.71 589.693 1378.38 592.705C1383.79 602.475 1385.99 618.159 1386.23 630.449C1386.36 636.734 1389.6 646.13 1393.76 655.391C1396.07 660.558 1398.64 665.658 1401.13 670.194C1403.79 675.064 1405.81 682.072 1408.15 690.399C1410.57 699.008 1413.33 708.97 1417.5 719.288C1427.1 743.079 1432.23 756.734 1436.23 766.57L1435.82 765.127C1436.26 766.145 1436.68 767.138 1437.09 768.112C1438.44 771.288 1439.68 774.258 1440.93 777.23C1444.87 786.612 1449.25 798.503 1453.52 810.666C1458.64 825.217 1463.59 840.163 1467.86 851.433C1469.08 858.073 1470.22 864.707 1471.31 871.37C1471.37 871.565 1471.47 872.173 1471.53 872.369C1471.33 871.672 1471.3 871.771 1471.31 871.984C1471.32 872.185 1471.4 872.686 1471.46 873.101C1471.54 873.543 1471.64 874.076 1471.76 874.677C1471.86 875.198 1471.97 875.772 1472.1 876.391C1472.61 878.81 1473.19 881.423 1473.81 884.129C1475.04 889.47 1476.36 895.017 1477.69 900.574C1480.35 911.665 1483.11 922.964 1485.87 934.278C1489.48 949.131 1488.33 965.082 1482.3 978.741C1476.21 992.117 1466.08 1003.6 1453.04 1006.93C1440.04 1008.34 1426.77 1008.28 1414.3 1000.98C1401.93 994.003 1391.91 982.088 1386.3 967.901C1377.55 944.984 1369.78 928.694 1360.27 897.435L1360.45 898.284C1358.45 891.387 1356.42 884.519 1354.35 877.659C1346.46 851.447 1338.04 825.448 1329.63 799.017C1329.56 798.71 1329.26 797.817 1329.2 797.508C1326.6 788.393 1324.32 779.794 1322.09 771.23C1315.6 746.193 1309.22 721.501 1302.67 696.608C1301.99 694.029 1301.33 691.48 1300.65 688.917C1300.03 687.578 1299.41 686.224 1298.79 684.855C1290.29 666.313 1282.13 648.004 1277.11 634.637C1272.67 622.777 1271.66 613.422 1270.79 605.407C1270.19 599.894 1269.66 595.016 1268.1 590.409C1267.27 587.942 1266.03 584.587 1264.54 580.554C1258.46 564.085 1248.07 536.181 1242.71 509.81C1241.98 506.222 1241.3 502.37 1240.68 498.513C1239.18 489.52 1237.88 479.847 1236.6 470.564C1233.95 451.299 1231.26 433.394 1227.17 425.285C1220.64 412.364 1215.82 395.772 1212.12 379.951C1211.8 378.557 1211.47 377.105 1211.16 375.73C1207.69 360.44 1204.77 347.301 1200.34 340.741C1195.06 332.911 1193.7 325.192 1191.63 313.747C1190.19 305.812 1188.4 296.079 1184.67 283.382C1182.48 275.935 1180.92 269.51 1179.71 263.796C1178.51 258.2 1177.65 253.266 1176.85 248.731C1174.56 235.776 1172.77 226.003 1164.84 213.729C1156.02 200.12 1147.91 185.866 1143.88 174.673C1143.34 173.162 1142.7 171.607 1142.03 170.106C1140.19 166.053 1138.01 161.828 1135.77 157.651C1131.56 149.796 1126.94 141.723 1124.63 136.153C1123.28 132.46 1122.83 130.306 1127.35 131.249C1126.9 130.442 1126.5 129.667 1126.11 128.933C1125.48 127.716 1124.91 126.612 1124.39 125.657C1121.83 124.259 1119.89 124.015 1121.42 124.326C1121.17 124.312 1120.99 124.313 1120.86 124.32C1120.69 124.727 1120.61 125.188 1120.62 125.659C1120.65 126.805 1121.38 128.06 1122.78 128.797C1124.15 129.564 1126.13 129.66 1127.42 129.472C1127.39 129.554 1127.37 129.625 1127.37 129.686C1131.28 127.742 1124.61 135.942 1119.69 145.413C1115.59 152.884 1111.38 161.428 1108.43 171.99C1107.25 176.187 1106.29 180.598 1105.33 185.412C1104.63 188.966 1103.94 192.686 1103.25 196.416C1100.91 209.187 1098.6 221.868 1095.08 230.11C1093.75 233.244 1091.4 235.474 1089.04 237.781C1089.02 237.79 1089.01 237.799 1089 237.809C1088.84 237.965 1088.68 238.123 1088.52 238.279C1083.36 259.388 1078.36 280.518 1073.46 301.667C1073.3 303.605 1073.15 305.512 1072.99 307.42C1072.19 316.81 1071.46 325.822 1072.35 332.182C1073.34 339.001 1070.39 354.693 1067.32 371.222C1065.31 382.017 1063.21 393.283 1062.14 402.537C1061.48 408.031 1058.46 412.42 1055.32 417.063C1052.4 421.309 1049.38 425.793 1048.21 431.157C1047.62 433.853 1047.4 436.959 1047.21 440.184C1047.03 443.04 1046.84 446.073 1046.35 449.187C1045.99 451.454 1044.26 455.569 1041.85 460.987C1041.2 462.427 1040.51 463.959 1039.78 465.571C1037.66 470.264 1035.27 475.576 1032.92 481.234C1029.39 496.895 1025.84 512.57 1022.23 528.241C1022.68 531.848 1023.68 535.133 1025.35 537.982C1026.55 540.025 1028.14 541.923 1029.77 543.87C1031.98 546.52 1034.27 549.259 1035.76 552.576C1036.93 555.17 1036.92 557.848 1035.7 559.312C1035.13 559.995 1034.31 560.413 1033.56 560.793C1032.71 561.229 1031.95 561.618 1031.77 562.299C1031.65 562.79 1031.98 563.428 1032.37 564.21C1033 565.46 1033.82 567.082 1033.29 569.065C1031.32 576.448 1028.52 584.687 1025.77 592.772C1022.72 601.753 1019.74 610.547 1018.04 617.74C1016.13 625.795 1011.08 636.651 1006.01 647.523C1002.48 655.104 998.939 662.712 996.444 669.394C994.003 675.934 992.934 683.192 991.916 690.169C990.674 698.615 989.479 706.719 985.973 712.892C985.259 714.154 982.849 715.29 979.837 716.701C977.7 717.705 975.263 718.833 972.897 720.273C970.369 728.764 967.787 737.1 965.069 745.574C965.238 745.946 965.409 746.329 965.585 746.713C965.59 746.72 965.595 746.726 965.6 746.733C969.583 755.398 974.99 767.39 965.856 779.406C963.559 782.376 960.523 783.967 957.834 785.256C955.182 786.556 952.833 787.641 951.638 790.082C950.29 792.831 950.517 796.458 950.68 800.626C950.899 804.937 951.053 809.849 949.438 814.085C948.925 815.432 948.229 816.734 947.295 817.963C947.028 818.314 946.739 818.69 946.443 819.083C943.633 822.832 939.479 828.307 933.202 833.021C925.926 850.72 918.305 868.155 910.455 885.446C897.366 914.266 883.661 942.643 869.745 970.887C862.953 984.64 852.017 996.136 839.119 1002.66C826.15 1009.31 812.447 1010.32 800.422 1005.9C788.363 1001.5 779.038 991.324 773.907 977.984C768.757 964.716 768.331 949.234 772.374 934.772C778.972 911.257 785.419 887.69 791.789 864.237C791.976 862.955 792.179 861.652 792.382 860.393C793.931 850.927 793.491 841.528 793.01 832.135C792.897 829.984 792.783 827.827 792.69 825.673Z" fill="white"/>
<path d="M981.15 546.134C982.646 543.454 984.734 542.349 986.957 542.071C989.887 541.698 992.987 542.827 995.045 543.597C995.112 543.619 995.179 543.641 995.246 543.663C996.131 543.981 996.895 544.056 997.851 544.137C1000.11 544.332 1003.15 544.597 1009.36 548.494C1011.15 548.331 1012.99 548.235 1014.79 548.22C1034.28 548.055 1053.38 553.087 1072.46 559.015C1072.71 558.98 1072.95 558.944 1073.2 558.907C1078 558.204 1083.93 557.322 1087.65 559.525C1092.37 562.325 1095.59 564.936 1098.23 567.191C1103.84 568.926 1109.45 570.574 1115.07 572.025C1124.58 574.486 1134.13 576.378 1143.7 577.199C1148.47 577.609 1153.24 577.747 1158.01 577.562C1162.4 577.391 1166.79 577.017 1171.18 576.462C1173.7 575.005 1176.1 573.298 1178.33 571.714C1181.45 569.489 1184.22 567.51 1186.55 566.8C1192.13 565.09 1198.58 567.094 1203.38 568.578C1204.16 568.821 1204.91 569.051 1205.59 569.247C1209.34 568.223 1213.11 567.135 1216.88 566.028C1217.14 566.531 1217.41 567.056 1217.68 567.594C1221.13 574.312 1225.1 574.032 1231.41 573.61C1233.65 573.46 1236.2 573.294 1239.12 573.419C1239.44 573.281 1240.52 573.505 1240.84 573.379C1241.5 573.435 1242.16 573.506 1242.85 573.596C1245.23 573.911 1246.42 576.635 1247.39 578.858C1247.68 579.512 1247.95 580.123 1248.22 580.617C1249.15 582.309 1250.18 580.475 1251.43 578.308C1253.03 575.497 1254.93 572.121 1257.35 575.157C1265.05 584.831 1268.6 578.233 1271.29 573.242C1272.07 571.778 1272.78 570.455 1273.5 569.718C1275.85 567.331 1279.09 569.669 1281.52 572.886C1283.47 575.438 1287.41 572.874 1290.44 569.622C1291.59 568.392 1293.1 568.351 1294.9 568.309C1296.73 568.265 1298.9 568.221 1301.2 566.83C1307.04 563.316 1310.08 561.603 1312.57 560.232C1313.27 559.841 1313.93 559.485 1314.59 559.113C1316.65 557.939 1319.19 556.96 1321.77 555.967C1324.85 554.78 1327.95 553.567 1330.26 551.973C1335.22 553.237 1340.35 554.746 1344.4 556.238L1343.19 556.305C1343.68 556.617 1344.35 556.91 1345.1 557.187C1347.39 558.035 1350.77 563.599 1353.88 573.044C1357 582.494 1359.55 594.989 1360.83 608.102C1362.11 621.214 1362.1 634.014 1360.69 643.991C1359.27 653.957 1356.51 660.24 1352.51 661.66C1351.18 662.126 1349.78 662.588 1348.21 663.036C1348.02 662.976 1347.39 663.157 1347.2 663.093C1340.81 665.113 1335.26 666.913 1329.58 668.419C1321.37 670.604 1313.29 672.098 1305.24 672.176C1299.63 672.23 1294.02 671.958 1288.43 671.43C1287.85 671.375 1287.27 671.315 1286.7 671.255C1281.95 674.536 1277.24 677.517 1273.92 678.588C1271.18 679.471 1269.23 677.745 1267.54 676.269C1266.37 675.253 1265.38 674.354 1264.32 674.502C1263.76 674.581 1262.98 674.785 1262.05 675.03C1258.26 676.029 1251.82 677.721 1246.02 674.565C1243.92 673.432 1241.6 671.402 1239.26 669.267L1241.48 669.216C1240.94 668.737 1240.39 668.253 1239.84 667.774C1235.72 664.17 1231.84 660.822 1229.93 661.997C1226.6 664.06 1222.7 662.633 1219.22 661.371C1215.89 660.168 1213 659.116 1211.42 661.391C1209.54 664.11 1207.82 663.12 1205.32 661.65C1203.56 660.632 1201.42 659.389 1198.53 658.982C1195.19 658.512 1192.8 656.779 1190.76 655.305C1187.9 653.23 1185.75 651.669 1182.66 654.853C1179.26 658.39 1175.62 660.701 1172.72 659.752C1171.39 659.32 1169.89 659.501 1168.33 659.689C1166.25 659.939 1164.09 660.196 1162.06 659.06C1160.4 658.124 1158.99 655.615 1157.74 653.395C1157.35 652.703 1156.98 652.041 1156.63 651.461C1155.33 651.543 1154.02 651.641 1152.71 651.765C1152.5 652.185 1152.29 652.65 1152.07 653.129C1150.95 655.536 1149.56 658.489 1147.81 659.997C1145.03 662.384 1142.54 661.038 1139.91 659.605C1137.86 658.49 1135.73 657.323 1133.32 657.842C1131.67 658.196 1129.8 659.301 1127.95 660.394C1125.19 662.017 1122.47 663.61 1120.55 662.697C1119.83 662.355 1119.21 660.763 1118.59 659.178C1118.59 659.168 1118.59 659.159 1118.58 659.149C1118.54 659.041 1118.5 658.936 1118.46 658.829C1117.5 659.107 1116.55 659.39 1115.59 659.677C1111.92 660.782 1108.25 661.953 1104.57 663.162C1104.17 663.584 1103.77 664.001 1103.37 664.411C1101.41 666.415 1099.5 668.359 1098.25 671.09C1096.91 674.05 1093.51 675.821 1089.93 677.681C1087.59 678.899 1085.15 680.155 1083.18 681.813C1082.02 682.782 1080.92 681.141 1079.81 679.447C1078.77 677.868 1077.7 676.246 1076.51 676.667C1075.92 676.879 1075.28 677.574 1074.6 678.318C1074 678.973 1073.37 679.666 1072.7 680.095C1072.08 680.492 1070.71 679.607 1068.96 678.48C1067.88 677.783 1066.65 676.996 1065.37 676.351C1061.94 677.425 1058.51 678.454 1055.1 679.41C1054.37 680.871 1053.73 682.764 1053.22 685.192C1052.86 686.934 1052.54 689.014 1052.21 691.141C1051.77 694.036 1051.31 697.027 1050.69 699.415C1050.21 701.28 1049.65 702.027 1049.29 701.258C1049.12 700.899 1048.99 700.221 1048.88 699.608C1048.75 698.906 1048.63 698.281 1048.48 698.301C1048.37 698.316 1048.26 698.815 1048.11 699.42C1047.88 700.385 1047.59 701.631 1047.15 701.679C1045.53 701.858 1043.68 701.477 1041.89 701.1C1039.88 700.681 1037.95 700.274 1036.37 700.658C1034.63 701.089 1032.15 699.259 1029.7 697.435C1027.96 696.162 1026.28 694.896 1024.78 694.382C1023.33 693.879 1021.81 694.915 1020.33 695.925C1018.57 697.138 1016.85 698.31 1015.45 696.7C1015.16 696.373 1014.84 694.37 1014.4 691.865C1014.1 690.089 1013.75 688.06 1013.35 686.189C1011.54 686.205 1009.7 686.139 1007.91 686.003C1007.85 686.276 1007.78 686.554 1007.71 686.837C1007.71 686.844 1007.71 686.85 1007.71 686.857C1006.14 693.253 1004.03 702.001 1001.26 696.825C1000.55 695.509 1000.11 693.069 999.717 690.874C999.332 688.717 998.989 686.788 998.475 686.387C997.898 685.934 997.158 687.27 996.393 688.722C995.327 690.762 994.101 693.042 992.935 690.952C992.856 690.809 992.77 690.652 992.681 690.496C991.84 689.009 990.549 686.811 989.32 682.369C988.505 682.128 987.711 681.878 986.937 681.62C984.011 680.674 981.116 679.622 978.265 678.507C972.254 676.145 966.222 673.496 961.369 671.014C958.99 669.795 957.058 663.927 954.155 654.573C951.237 645.212 947.631 633.205 945.558 620.459C943.491 607.723 942.331 595.223 944.073 585.08C945.825 574.943 950.246 568.276 954.376 566.505C961.152 563.63 966.941 561.088 972.66 558.761C972.952 558.482 973.248 558.211 973.546 557.957C975.744 556.068 977.746 552.365 979.757 548.664C980.214 547.813 980.678 546.962 981.15 546.134Z" fill="white"/>
<path d="M194.671 257.051C200.976 263.893 198.545 277.043 197.165 284.191C197.143 284.324 197.12 284.457 197.098 284.59C196.773 286.335 196.69 287.878 196.598 289.784C196.376 294.333 196.084 300.369 192.047 312.943C192.168 316.686 192.218 320.278 192.181 324.001C191.904 352.348 188.658 380.585 184.121 408.496C182.323 419.511 180.315 430.604 178.209 441.632C178.226 442.13 178.242 442.653 178.259 443.149C178.592 452.916 178.975 465.219 176.451 472.662C173.237 482.263 170.335 488.625 167.836 493.923C161.759 524.616 156.134 555.239 153.087 586.024C152.133 595.67 151.435 605.33 151.051 615.008C150.697 623.916 150.539 632.838 150.554 641.771C151.696 647.051 153.105 652.044 154.407 656.73C156.239 663.269 157.864 669.117 158.281 673.868C159.284 685.345 156.47 698.094 154.381 707.588C154.04 709.142 153.717 710.602 153.434 711.95C153.981 719.605 154.591 727.24 155.221 734.933C154.686 735.409 154.129 735.887 153.557 736.371C146.43 742.439 146.207 750.482 145.866 762.99C145.716 768.488 145.54 774.862 144.778 782.188C144.281 787.05 141.469 789.327 139.174 791.185C138.499 791.726 137.868 792.252 137.353 792.802C135.591 794.673 137.351 796.82 139.433 799.304C140.044 800.034 140.684 800.793 141.271 801.582L141.289 800.852C143.34 803.633 144.778 806.807 142.372 810.465C132.462 825.793 138.988 833.107 143.922 838.359C145.37 839.907 146.678 841.401 147.401 842.835C149.742 847.461 147.346 853.928 144.094 858.871C141.513 862.658 144.034 870.686 147.273 876.637C148.497 878.94 148.531 881.927 148.573 885.537C148.616 889.237 148.666 893.488 150.074 898.094C153.636 909.639 155.423 915.71 156.852 920.616C157.26 922.016 157.634 923.343 158.023 924.611C159.255 928.73 160.317 933.789 161.41 938.95C162.716 945.089 164.072 951.474 165.762 956.409C165.28 961.299 164.736 966.32 164.115 971.471C164.144 971.61 164.096 972.038 164.123 972.177C162.999 980.751 161.681 987.845 160.582 994.843C159.651 1000.63 153.97 1006.41 144.433 1011.07C134.89 1015.72 122.323 1018.73 109.139 1019.24C95.9555 1019.71 83.0776 1017.63 73.0782 1013.12C63.09 1008.64 56.8756 1002.03 55.676 994.933C54.226 986.354 53.0354 977.839 51.8273 970.574L51.8343 971.172C50.9713 966.271 50.0979 961.224 49.2815 956.057C46.7697 940.225 44.9405 923.579 44.7541 907.284C44.615 895.875 44.8723 884.406 45.4355 873.147C45.4935 871.992 45.5581 870.823 45.6224 869.639C42.377 860.04 39.4681 850.543 38.4611 843.762C37.6288 838.299 39.4005 834.253 40.9168 830.895C41.9608 828.543 42.8864 826.441 42.7646 824.37C42.6994 823.243 42.5156 821.69 42.2963 819.787C41.6512 814.256 40.6913 806.072 41.4606 797.378C41.507 797.156 41.4377 796.461 41.4883 796.239C41.848 792.991 42.4753 789.579 43.4828 786.28C45.0697 781.225 48.0634 775.234 50.9227 769.613C55.0114 761.564 58.8321 754.036 57.8945 750.115C56.2508 743.112 58.1638 735.379 59.857 728.616C61.4762 722.057 62.8883 716.434 60.8202 712.995C58.3491 708.856 59.5476 705.686 61.3313 700.778C62.5698 697.343 64.0762 693.293 64.8467 687.542C65.7346 680.942 67.7613 676.395 69.4868 672.47C71.9116 667.041 73.7388 662.858 70.9418 656.42C67.8356 649.239 65.9731 641.815 67.2723 636.124C67.8646 633.521 67.865 630.537 67.865 627.415C67.8649 623.283 67.8682 618.921 69.2401 615.044C70.371 611.843 73.0398 609.294 75.4016 607.037C76.1383 606.335 76.8417 605.662 77.4626 605.006C77.5329 602.408 77.5877 599.807 77.6146 597.202C77.2188 596.756 76.7798 596.287 76.3268 595.797C74.0539 593.336 71.2658 590.32 69.9591 586.709C67.8915 580.994 69.5154 576.179 71.2368 571.104C72.5769 567.156 73.975 563.037 73.7174 558.217C73.5414 554.932 72.6375 551.147 71.7417 547.392C70.4109 541.823 69.0999 536.324 70.2059 532.615C70.6205 531.227 72.2748 530.11 73.9203 529.006C73.9303 529.001 73.9403 528.996 73.9503 528.991C74.062 528.916 74.1711 528.841 74.2823 528.766C73.4011 519.533 72.3897 510.287 71.2981 501.076C70.9133 500.264 70.5344 499.445 70.1619 498.621C68.3414 494.608 66.5705 490.738 63.9515 488.144C61.1125 485.337 59.6463 478.511 58.091 471.384C57.0748 466.658 56.0179 461.919 54.5234 457.884C53.6494 455.545 55.3792 453.475 57.1619 451.357C58.8247 449.392 60.5321 447.337 60.2034 444.976C60.0383 443.795 59.3924 442.5 58.7009 441.124C58.0923 439.912 57.4468 438.635 57.0681 437.32C56.7172 436.109 57.708 433.387 58.964 429.99C59.7407 427.872 60.6148 425.563 61.3536 422.981C60.5241 416.165 59.7298 409.316 58.99 402.627C58.9799 402.617 58.9698 402.607 58.9597 402.596C57.5487 401.111 55.704 399.803 53.3244 398.728C51.6048 397.951 49.5427 397.264 47.4347 396.562C44.566 395.606 41.6012 394.621 39.2496 393.352C37.4121 392.355 36.6973 391.28 37.489 390.573C37.8582 390.247 38.5441 390.015 39.1643 389.804C39.8748 389.563 40.5067 389.348 40.4962 389.05C40.4875 388.836 39.9948 388.59 39.3985 388.29C38.4463 387.811 37.2171 387.188 37.1941 386.329C37.1086 383.139 37.5927 379.567 38.0675 376.007C38.5941 372.117 39.1021 368.249 38.7944 365.173C38.4484 361.798 40.3985 356.851 42.3296 352.109C43.6793 348.67 45.0157 345.378 45.5878 342.436C46.1487 339.526 45.1678 336.586 44.2089 333.618C43.0579 330.05 41.9388 326.78 43.5934 323.931C43.9292 323.365 45.943 322.713 48.462 321.899C50.2472 321.322 52.2883 320.659 54.171 319.894C54.2067 316.225 54.3179 312.71 54.4944 309.033C54.223 308.898 53.9469 308.758 53.6649 308.619C53.6584 308.617 53.6518 308.614 53.6453 308.612C47.2802 305.487 38.5717 301.202 43.7937 295.684C45.1212 294.254 47.5682 293.399 49.7704 292.629C51.9331 291.872 53.8682 291.197 54.2751 290.167C54.7361 288.973 53.4081 287.509 51.9627 285.949C49.9332 283.778 47.6626 281.296 49.7617 278.923C49.905 278.761 50.0622 278.587 50.2197 278.406C51.7128 276.723 53.9181 274.086 58.3656 271.595C59.5055 263.927 60.8141 256.266 62.2133 248.591C64.5468 235.789 67.1273 222.961 69.6313 209.985C70.8669 203.678 76.747 197.529 86.328 192.913C95.9225 188.299 108.358 185.601 121.308 185.44C134.257 185.277 146.854 187.648 156.743 192.044C166.62 196.441 172.897 202.535 174.514 208.982C177.126 219.485 179.7 230.093 182.025 240.762C182.305 241.328 182.576 241.889 182.83 242.441C184.723 246.587 188.432 250.46 192.138 254.366C192.99 255.253 193.842 256.148 194.671 257.051Z" fill="white"/>
<path d="M213.002 98.3537C224.299 89.4735 250.051 87.3783 264.275 86.9003C264.535 86.8869 264.795 86.8737 265.054 86.8606C268.395 86.729 271.609 86.3901 275.32 86.0259C284.188 85.2341 296.192 83.8582 322.124 86.5375C329.528 86.0644 337.058 85.8048 344.72 85.8049C378.93 85.9843 414.848 89.6197 453.691 103.864C518.299 126.935 557.101 185.128 572.857 232.554C573.329 233.572 573.802 234.606 574.274 235.651C583.547 255.842 591.34 281.038 592.399 297.16C592.722 301.591 592.914 305.707 593.01 309.516C594.736 331.417 590.656 347.192 586.482 358.853C575.066 399.338 551.738 422.907 533.627 442.28C507.393 469.995 477.575 487.963 448.83 503.126C432.12 511.861 415.5 519.578 399.187 527.007C384.171 533.84 369.347 540.359 354.994 546.899C347.093 551.75 339.852 556.615 333.348 561.124C326.31 566.002 320.139 570.465 314.822 574.007C314.61 574.389 314.888 574.555 316.184 573.854C317.313 573.146 319.377 572.146 323.395 567.397C327.052 563.281 334.889 550.019 332.349 533.5C329.622 517.451 322.436 511.038 319.615 508.01C316.379 504.964 315.008 504.335 314.3 503.917C312.993 503.286 314.175 504.153 315.686 504.927C317.263 505.759 319.425 506.755 321.718 507.737C327.815 510.158 333.629 512.554 338.877 514.702C341.48 515.767 343.936 516.769 346.226 517.684C359.528 520.752 373.029 523.766 386.797 526.998C387.551 527.762 388.318 528.553 389.093 529.362C398.764 539.521 412.859 543.545 436.127 552.057C446.311 555.883 458.203 560.478 472.598 568.477C481.923 573.732 485.541 579.302 488.242 583.727C489.062 585.054 489.813 586.306 490.619 587.476C490.876 587.847 491.149 588.196 491.438 588.525C494.111 590.057 499.203 596.526 501.055 598.984C502.006 602.436 505.243 604.627 509.081 607.412C514.496 611.281 521.117 616.269 522.899 626.379C528.263 658.429 538.296 668.934 546.637 677.645C549.023 680.177 551.159 682.523 552.729 685.116C557.866 693.543 559.074 707.252 558.039 717.511C557.305 725.664 562.718 740.296 567.672 751.24C569.56 755.354 570.474 761.197 571.426 767.923C572.417 774.915 573.462 782.956 575.816 791.305C577.755 798.195 579.33 803.957 580.68 809.024C580.696 809.098 580.703 809.325 580.719 809.399C583.497 820.606 585.057 828.357 586.332 835.008C586.867 837.816 587.337 840.451 587.805 843.06C589.291 851.326 590.418 861.581 591.359 871.561C592.492 883.532 593.462 895.103 594.923 903.703C593.005 925.846 591.035 947.22 589.614 969.01C588.862 980.151 583.374 991.141 573.977 999.3C564.577 1007.55 552.101 1012.55 538.911 1012.98C525.724 1013.37 512.748 1009.13 502.608 1001.05C492.482 993.078 486.094 981.611 484.723 969.721C481.955 945.814 479.825 921.295 478.467 897.678C476.841 868.543 475.654 843.799 473.023 818.575C473.003 818.371 472.983 818.167 472.962 817.962L473.006 818.382C470.938 799.2 469.039 780.476 466.7 762.649C466.454 760.779 466.216 758.975 465.957 757.118C460.19 742.661 454.075 729.641 450.376 720.711C447.342 713.331 447.148 707.492 446.85 702.359C446.641 698.838 446.381 695.689 445.093 692.899C444.397 691.391 443.35 689.385 442.034 686.961C437.027 677.596 427.719 662.426 420.559 645.796L437.241 663.938C436.916 663.527 436.561 663.089 436.178 662.624C433.156 658.858 427.659 652.707 421.074 646.896C411.66 638.538 400.619 630.904 394.195 629.81C382.901 627.878 370.554 622.31 359.318 617.424C348.605 612.762 339.011 608.714 332.77 609.137C325.319 609.649 319.807 606.919 311.558 602.817C307.348 600.724 302.45 598.285 296.182 595.689C293.426 594.598 290.432 593.423 287.008 592.037C279.505 588.897 272.727 585.665 263.912 578.788C259.601 575.125 253.878 570.764 248.084 559.909C241.454 549.353 242.209 527.892 248.21 519.35C255.505 507.2 261.142 505.039 265.353 502.206C269.619 499.756 272.938 498.393 276.063 497.068C280.822 495.229 285.404 492.762 290.358 488.731C300.729 480.301 312.051 473.125 321.896 470.081C326.388 468.692 331.222 466.5 336.195 464.227C342.795 461.211 349.609 458.062 356.354 456.393C361.906 455.021 367.199 455.437 371.895 455.771C373.358 455.876 374.761 455.971 376.093 456.004C380.099 454.089 384.056 452.138 387.958 450.128C388.406 449.445 388.863 448.706 389.34 447.939C391.735 444.09 394.594 439.373 398.967 435.39C405.874 429.084 413.314 426.461 421.052 423.427C427.043 421.074 433.239 418.447 438.861 413.735C442.68 410.532 446.421 406.22 449.74 401.928C454.73 395.529 458.705 389.187 462.701 386.034C463.323 385.545 464.072 385.226 464.899 385.001C466.235 384.489 467.736 384.17 469.199 383.887C469.212 383.886 469.226 383.886 469.239 383.886C469.409 383.852 469.577 383.816 469.746 383.782C478.372 371.437 485.062 359.701 488.204 349.529C488.213 348.527 488.202 347.545 488.162 346.6C487.988 341.964 486.974 338.252 484.652 336.015C482.299 333.5 480.904 330.242 478.715 328.237C478.588 327.889 478.46 327.539 478.331 327.19C475.884 320.519 473.103 313.832 470.082 308.742C468.319 305.768 469.074 302.39 469.772 298.858C470.426 295.571 471.023 292.147 469.535 289.131C468.79 287.624 467.532 286.165 466.176 284.66C464.983 283.334 463.711 281.969 462.643 280.475C461.65 279.088 461.074 275.378 460.107 270.759C459.511 267.906 458.76 264.707 457.717 261.528C452.545 254.428 447.057 248.416 441.573 243.728C439.499 243.578 437.287 243.974 434.939 245.007C433.254 245.749 431.433 246.84 429.609 248C427.128 249.579 424.634 251.29 422.466 252.514C420.771 253.468 419.795 253.605 419.92 252.724C419.979 252.313 420.27 251.687 420.527 251.117C420.823 250.464 421.077 249.878 420.912 249.773C420.792 249.698 420.377 249.999 419.879 250.369C419.083 250.959 418.08 251.742 417.649 251.487C416.034 250.529 414.573 249.175 412.983 247.952C411.572 246.865 410.064 245.893 408.504 245.443C407.883 245.253 407.259 245.096 406.641 244.98C403.222 244.334 398.446 241.165 392.712 238.226C388.73 236.169 384.406 234.242 380.461 233.243C376.619 232.263 372.321 232.882 368.185 233.593C363.179 234.441 358.356 235.408 354.201 233.711C353.356 233.366 352.288 231.351 350.911 228.84C349.949 227.06 348.819 225.029 347.505 223.163C341.911 223.163 336.271 223.217 330.62 223.321C330.438 223.6 330.25 223.885 330.062 224.176C330.06 224.183 330.057 224.189 330.054 224.196C325.725 230.771 320.455 239.777 311.013 235.439C308.585 234.34 306.886 232.063 305.304 230.02C303.756 228.014 302.35 226.225 300.59 226.015C298.588 225.779 296.528 227.357 294.258 229.096C291.044 231.541 287.62 234.291 283.361 232.796C283.07 232.694 282.756 232.582 282.43 232.471C279.352 231.418 274.809 229.891 269.719 226.239C256.953 227.216 244.084 228.427 231.12 229.911C209.511 232.387 187.658 235.62 165.864 239.818C155.246 241.844 143.484 239.598 132.63 233.242C121.842 226.847 112.863 216.897 107.911 204.879C102.959 192.872 102.453 179.562 106.697 167.54C110.984 155.516 119.737 145.889 130.78 140.714C148.761 132.304 167.155 124.455 186.02 117.433C186.974 116.911 187.935 116.399 188.895 115.905C196.011 112.24 202.24 107.021 208.563 101.878C210.034 100.692 211.512 99.5095 213.002 98.3537Z" fill="white"/>
<path d="M3078.22 433.7C3072.27 451.028 3050.9 476.616 3039.74 491.576C3039.54 491.849 3039.34 492.122 3039.13 492.396C3036.45 495.932 3034.16 499.379 3031.49 503.489C3025.19 513.318 3016.5 526.39 2997.38 553.806C2994.73 559.002 2992.14 564.141 2989.54 569.372C2988.04 572.388 2986.66 575.285 2985.28 578.281C2961.77 630.115 2955.91 677.851 2970.59 739.802C2975.15 764.569 2989.6 789.767 3013.28 815.375C3014.17 816.188 3015.07 816.985 3015.99 817.798C3033.68 833.655 3059.8 852.123 3075.55 865.613C3095.61 882.871 3109.8 894.807 3121.48 904.759C3134.22 913.658 3147.2 922.441 3160.37 931.146C3196.92 957.184 3246.95 962.042 3305.06 957.221C3316.3 956.474 3327.4 954.705 3338.31 951.907C3360.68 946.188 3382.23 936.031 3402.17 922.304C3420.54 909.683 3437.59 894.167 3453.17 876.804C3461.43 865.914 3468.5 854.862 3474.72 844.365C3483.46 829.603 3490.51 815.947 3496.86 804.973C3512.22 778.625 3530.86 748.632 3543.88 725.406C3545.6 722.346 3547.23 719.426 3548.74 716.674C3549.06 716.097 3549.37 715.528 3549.68 714.966C3556.47 698.151 3560.92 680.672 3563.2 662.687C3563.92 661.59 3564.66 660.479 3565.4 659.328C3574.58 644.938 3576.83 624.578 3574.1 592.177C3572.87 578.022 3570.56 561.497 3566.94 541.723C3564.58 528.994 3565.52 521.777 3566.31 515.827C3566.54 514.076 3566.75 512.449 3566.83 510.799C3567.1 505.171 3563.83 500.153 3559.91 494.31C3554.8 486.675 3548.59 477.723 3547.2 463.424C3544.74 438.498 3539.43 421.661 3533.9 409.395C3530.17 402.03 3525.29 397.925 3521 394.715C3518.21 392.641 3515.63 390.933 3513.42 388.93C3506.46 382.491 3499.12 370.727 3492.13 360.501C3486.91 352.318 3469.2 342.478 3453.91 337.113C3448.17 335.034 3441.12 330.93 3432.4 326.143C3423.38 321.184 3412.58 315.514 3400.01 310.484C3392.57 307.504 3385.83 304.774 3379.71 302.238L3387.16 305.456C3368.25 301.256 3356.53 299.397 3346.73 297.992C3343.07 297.478 3339.7 297.049 3336.35 296.684C3325.73 295.513 3312.87 294.183 3300.31 293.899C3285.25 293.492 3270.72 294.735 3260.23 297.199C3247.64 297.495 3235.32 298.941 3223.02 301.69L3227.7 300.088C3211.83 305.147 3194.61 312.164 3177.22 319.82C3160.82 327.041 3142.5 330.295 3126.25 328.109C3110.02 325.918 3097.28 318.484 3090.86 306.978C3084.46 295.466 3084.79 280.705 3091.91 265.661C3099.04 250.627 3112.44 236.572 3129.52 226.642C3147.67 216.143 3166.42 205.79 3187.41 196.472C3188.21 196.22 3190.55 195.302 3191.37 195.116C3211.95 188.013 3233.62 183.271 3255.27 181.034C3311.42 175.252 3365.05 185.448 3413.1 200.978C3415.96 201.906 3418.79 202.85 3421.66 203.827C3423.38 204.54 3428.51 206.491 3430.09 207.47C3455.32 220.978 3482.9 234.885 3511.05 252.991C3514.21 255.032 3517.38 257.139 3520.55 259.302C3548.46 273.457 3577.37 294.812 3594.52 315.738C3608.8 332.762 3615.29 348.965 3619.49 362.473C3621.42 368.689 3622.88 374.453 3624.39 380.071C3624.85 381.986 3625.39 383.881 3626.06 385.773C3627.14 388.831 3628.67 392.826 3630.6 397.875C3638.33 418.177 3652.49 454.461 3658.59 491.173C3661.32 507.38 3662.83 526.835 3663.25 545.606C3663.98 572.463 3662 597.723 3663.27 610.448C3665.72 632.848 3662.29 659.328 3656.49 681.954C3651.09 703.651 3643.85 721.754 3641.99 732.948C3640.58 741.469 3637.76 748.669 3633.54 756.508C3631.38 760.437 3628.82 764.624 3625.89 769.316C3620.31 778.234 3613.41 789.118 3604.6 804.273C3594.4 821.76 3585.41 833.206 3577.67 842.758C3566.68 856.206 3558.26 865.987 3549.28 883.522C3539.29 903.006 3526.08 922.269 3512.7 934.928C3506.63 940.707 3499.99 947.629 3492.75 954.602C3483.17 963.852 3472.46 973.168 3461.35 980.046C3452.21 985.72 3443.41 988.609 3435.64 990.878C3433.22 991.585 3430.89 992.24 3428.66 992.899C3421.47 997.304 3414.07 1001.45 3406.48 1005.3C3405.43 1006.28 3404.32 1007.33 3403.15 1008.41C3397.29 1013.82 3389.7 1020.36 3378.91 1025.77C3361.77 1034.3 3344.76 1037.01 3327.2 1038.18C3322.69 1038.47 3318.09 1038.66 3313.36 1038.8C3304.97 1038.96 3296.08 1039.35 3286.21 1040.34C3276.15 1041.36 3264.51 1042.99 3252.58 1044.06C3234.92 1045.71 3216.47 1045.79 3203.85 1042.92C3199.13 1041.87 3195.29 1039.58 3191.58 1037.23C3191.56 1037.22 3191.54 1037.2 3191.53 1037.19C3191.28 1037.03 3191.02 1036.87 3190.77 1036.71C3164.41 1032.64 3137.7 1024.04 3113.42 1011.09C3109.87 1009.24 3106.36 1007.41 3102.88 1005.59C3100.68 1004.76 3098.39 1003.87 3096.16 1003.01C3085.3 998.81 3074.71 994.583 3066.97 992.976C3058.66 991.292 3040.64 982.124 3021.59 971.558C3009.14 964.674 2996.29 957.177 2985.37 951.163C2979 947.668 2974.52 942.211 2969.91 936.449C2965.69 931.138 2961.36 925.571 2955.3 921.018C2952.26 918.731 2948.73 916.616 2944.9 914.216C2941.55 912.134 2938 909.86 2934.49 907.178C2931.29 904.724 2925.18 897.812 2917.77 888.4C2913.16 882.546 2908.08 875.753 2902.84 868.385C2886.91 850.757 2872.04 830.068 2860.77 806.617C2857.27 802.246 2853.77 798.505 2850.17 795.756C2847.59 793.783 2844.85 792.238 2842.05 790.577C2838.25 788.313 2834.33 785.849 2830.68 781.747C2829.61 780.545 2828.68 779.189 2827.93 777.795C2826.91 776.287 2826.3 774.424 2826.41 772.954C2826.49 771.839 2826.93 770.85 2827.33 769.944C2827.78 768.89 2828.2 767.994 2827.94 767.067C2827.75 766.397 2827.09 765.809 2826.28 765.061C2824.98 763.822 2823.34 762.391 2822.58 759.437C2819.83 748.779 2817.5 735.672 2815.95 722.631C2814.18 708.051 2813.38 693.612 2812.58 682.002C2811.62 668.965 2813.66 650.307 2817.47 632.061C2820.08 619.351 2823.44 606.955 2826.23 596.406C2828.94 586.059 2830.74 575.08 2832.94 564.57C2835.57 551.944 2838.83 539.862 2844.28 530.936C2845.38 529.139 2848.26 527.429 2851.82 525.534C2854.35 524.175 2857.26 522.631 2860.2 520.728C2862.3 516.154 2864.43 511.786 2866.72 507.294C2869.91 501.078 2873.14 494.985 2876.5 488.859C2876.44 488.376 2876.39 487.88 2876.34 487.381C2876.34 487.372 2876.34 487.363 2876.33 487.354C2875.09 476.154 2873.73 460.361 2887.44 447.177C2890.93 443.83 2894.52 442.578 2897.74 441.467C2900.91 440.36 2903.75 439.39 2905.84 436.742C2908.21 433.74 2909.44 429.222 2910.84 424.289C2912.78 417.397 2915.1 409.604 2921.13 404.301C2921.54 403.937 2921.99 403.547 2922.45 403.139C2926.81 399.272 2933.31 393.601 2941.68 389.412C2956.64 370.068 2972.55 351.433 2989.39 333.565C3017.45 303.821 3048.04 276.247 3081.17 251.681C3097.3 239.707 3116.45 232.741 3133.39 232.66C3150.4 232.546 3163.51 239.119 3170.48 249.976C3177.49 260.855 3178.23 275.123 3174.04 289.996C3169.81 304.884 3161 319.248 3149.24 331.206C3130.03 350.671 3112.16 371.732 3095.46 393.751C3094.7 395.01 3093.92 396.286 3093.16 397.522C3087.45 406.801 3083.86 416.793 3080.51 426.804C3079.74 429.113 3078.99 431.399 3078.22 433.7Z" fill="white"/>
<path d="M1861.31 154.374C1868.27 161.538 1867.27 176.914 1866.67 185.372C1866.67 185.528 1866.66 185.683 1866.65 185.838C1866.51 187.843 1866.61 189.795 1866.72 191.956C1866.98 197.185 1867.37 204.398 1864.69 219.522C1865.2 223.818 1865.63 228.157 1865.97 232.501C1869.13 272.216 1867.64 312.433 1863.7 352.489C1862.98 359.057 1862.25 366.349 1861.49 373.056C1861.54 373.629 1861.58 374.214 1861.63 374.808C1862.57 386.26 1863.75 400.217 1861.75 409.257C1859.19 420.45 1856.76 428.495 1854.63 434.623C1850.73 470.897 1847.42 507.058 1846.74 543.338C1846.52 554.704 1846.57 566.106 1846.93 577.375C1847.27 587.807 1847.8 598.266 1848.51 608.7C1850.05 614.807 1851.84 620.518 1853.5 625.842C1855.83 633.318 1857.9 640.084 1858.68 645.553C1860.57 658.875 1858.77 674.036 1857.43 685.367C1857.21 687.226 1857 688.955 1856.83 690.559C1857.96 699.426 1859.16 708.431 1860.38 717.304C1859.88 717.91 1859.37 718.52 1858.84 719.141C1852.22 726.884 1852.61 736.298 1853.22 751.026C1853.49 757.46 1853.79 764.908 1853.58 773.678C1853.45 779.335 1850.82 782.295 1848.67 784.714C1848.04 785.425 1847.45 786.093 1846.98 786.765C1845.36 789.065 1847.27 791.42 1849.52 794.203C1852.44 797.813 1855.95 802.146 1853.1 808.021C1844.02 826.733 1850.86 834.756 1856.03 840.839C1857.55 842.622 1858.92 844.238 1859.7 845.905C1862.25 851.312 1860.15 859.102 1857.12 865.044C1854.71 869.753 1857.55 879.014 1861 885.994C1862.31 888.646 1862.46 892.264 1862.62 896.517C1862.79 900.919 1862.99 905.999 1864.53 911.409C1868.43 925.159 1870.34 932.37 1871.87 938.252C1872.31 939.927 1872.71 941.486 1873.12 943.042C1874.42 947.961 1875.57 954.047 1876.72 960.202C1878.09 967.636 1879.49 975.135 1881.22 980.803C1880.05 995.717 1878.49 1010.57 1876.93 1025.44C1876.11 1032.98 1870.43 1040.57 1860.85 1046.08C1851.26 1051.63 1838.64 1054.84 1825.46 1055.07C1812.28 1055.3 1799.47 1052.54 1789.55 1047.34C1779.64 1042.18 1773.49 1034.82 1772.21 1027.33C1769.64 1012.04 1767.07 996.751 1764.92 981.422C1762.3 962.801 1760.3 944.083 1759.7 925.443C1759.28 912.335 1759.18 899.31 1759.32 886.195C1759.33 884.85 1759.35 883.505 1759.37 882.16C1755.77 871.252 1752.46 860.326 1751.16 852.635C1750.09 846.276 1751.67 841.589 1753.02 837.577C1753.95 834.818 1754.77 832.376 1754.55 829.926C1754.43 828.61 1754.17 826.815 1753.86 824.649C1752.59 815.811 1750.43 800.78 1753.15 786.998C1754.35 780.869 1756.89 773.733 1759.31 766.934C1762.78 757.2 1766.01 748.098 1764.78 743.585C1762.62 735.668 1763.92 726.408 1765.09 718.319C1766.19 710.606 1767.16 703.764 1764.84 699.983C1762.06 695.436 1763.01 691.569 1764.4 685.673C1765.37 681.6 1766.54 676.609 1766.87 669.89C1767.24 662.165 1768.89 656.532 1770.31 651.85C1772.29 645.238 1773.79 640.296 1770.5 632.931C1766.86 624.778 1764.43 616.343 1765.28 609.51C1765.66 606.42 1765.43 602.911 1765.19 599.278C1764.87 594.516 1764.54 589.317 1765.6 584.655C1766.48 580.8 1768.94 577.6 1771.11 574.778C1771.79 573.897 1772.44 573.053 1773 572.239C1772.87 569.161 1772.73 566.082 1772.55 563.026C1772.13 562.539 1771.65 562.028 1771.16 561.494C1768.72 558.816 1765.71 555.534 1764.14 551.463C1761.65 544.931 1762.89 539.083 1764.22 533.044C1765.26 528.399 1766.33 523.311 1765.71 517.703C1765.29 513.842 1764.11 509.624 1762.94 505.235C1761.2 498.735 1759.49 492.434 1760.32 488.066C1760.63 486.43 1762.19 484.916 1763.74 483.471C1763.75 483.465 1763.76 483.458 1763.77 483.452C1763.88 483.353 1763.98 483.254 1764.08 483.156C1762.53 472.377 1760.85 461.569 1759.11 450.935C1758.67 450.015 1758.23 449.134 1757.8 448.171C1755.71 443.538 1753.67 439.127 1750.88 436.303C1747.87 433.343 1745.92 425.245 1743.89 417.077C1742.57 411.826 1741.18 405.886 1739.43 401.437C1738.41 398.815 1740 396.261 1741.63 393.533C1743.15 391.02 1744.72 388.473 1744.24 385.768C1744 384.405 1743.28 382.994 1742.5 381.416C1741.82 379.98 1741.09 378.475 1740.63 376.913C1740.21 375.462 1741.02 372.215 1742.07 368.213C1742.71 365.696 1743.44 362.626 1744.02 359.622C1743.72 357.654 1743.42 355.72 1743.13 353.82C1742.22 347.934 1741.33 342.219 1740.44 336.35C1738.93 334.764 1737 333.41 1734.54 332.364C1732.78 331.615 1730.68 330.993 1728.54 330.357C1725.62 329.502 1722.6 328.578 1720.17 327.3C1718.27 326.297 1717.48 325.085 1718.22 324.238C1718.57 323.843 1719.23 323.529 1719.83 323.244C1720.52 322.918 1721.14 322.626 1721.11 322.292C1721.08 322.051 1720.57 321.814 1719.96 321.523C1718.98 321.058 1717.71 320.454 1717.63 319.486C1717.31 315.871 1717.51 311.674 1717.71 307.649C1717.93 303.126 1718.12 298.672 1717.56 295.218C1716.92 291.244 1718.45 285.657 1719.93 279.873C1720.97 275.867 1721.99 271.916 1722.28 268.466C1722.57 265.106 1721.31 261.778 1720.07 258.448C1718.59 254.487 1717.15 250.762 1718.51 247.338C1718.79 246.651 1720.72 245.698 1723.14 244.502C1724.85 243.655 1726.81 242.68 1728.6 241.601C1728.27 237.393 1728 233.188 1727.8 228.983C1727.52 228.853 1727.23 228.718 1726.93 228.584C1726.93 228.582 1726.92 228.58 1726.91 228.578C1720.27 225.538 1711.18 221.543 1715.77 214.504C1716.93 212.722 1719.27 211.512 1721.37 210.354C1723.43 209.234 1725.28 208.233 1725.57 206.964C1725.89 205.523 1724.42 203.978 1722.82 202.314C1720.57 199.939 1718.04 197.258 1719.87 194.278C1719.99 194.074 1720.13 193.854 1720.26 193.627C1721.56 191.458 1723.46 188.151 1727.6 184.766C1727.89 175.59 1728.35 166.396 1728.92 157.128C1729.88 141.558 1731.12 126.045 1732.62 109.613C1733.37 101.642 1738.89 93.304 1748.4 87.0608C1757.91 80.7348 1770.53 77.7556 1783.45 78.2789C1796.39 78.7332 1808.82 81.3777 1818.7 85.4628C1828.56 89.5835 1835.02 95.378 1837.02 102.224C1840.26 113.333 1843.77 125.093 1847.11 136.958C1847.44 137.57 1847.77 138.19 1848.08 138.813C1850.36 143.307 1854.44 147.444 1858.52 151.505C1859.45 152.45 1860.39 153.407 1861.31 154.374Z" fill="white"/>
<path d="M1930.32 88.9225C1943.3 85.6079 1965.01 93.635 1976.77 98.1923C1976.98 98.2722 1977.2 98.3521 1977.41 98.4321C1980.18 99.5012 1982.88 100.305 1986.07 101.257C1993.51 103.493 2003.84 106.552 2023.91 116.393C2030.08 118.016 2036.27 119.739 2042.4 121.553C2061.42 127.184 2080.23 133.437 2098.83 140.188C2157.74 160.199 2211.05 204.566 2241.9 255.576C2242.55 256.413 2243.21 257.264 2243.86 258.126C2256.7 274.699 2269.8 296.635 2274.35 311.521C2280.25 330.476 2282.3 343.351 2283.79 353.853C2286.27 362.714 2288.46 371.5 2290.46 380.161C2302.08 429.603 2305.7 479.874 2303.39 528.902C2302.55 547.097 2300.93 565.153 2298.66 583.059C2296.57 599.548 2293.86 615.91 2290.58 632.117C2289.77 641.82 2289.05 651.12 2288.19 659.744C2286.98 671.867 2285.49 682.658 2283.22 691.235C2277.79 711.948 2266.47 733.449 2257.45 748.776C2255.99 751.284 2254.58 753.655 2253.28 755.835C2247.99 768.898 2242.3 781.818 2236.21 794.561C2235.3 795.125 2234.37 795.68 2233.41 796.239C2225.24 801.025 2219.25 808.404 2212.24 818.778C2211.09 821.153 2205.77 826.375 2203.96 828.293C2199.64 831.709 2195.04 835.636 2189.94 839.968C2182.65 846.155 2174.42 853.099 2164.06 860.996C2157.57 865.931 2152.35 866.663 2148.26 867.117C2147.05 867.258 2145.92 867.389 2144.86 867.616C2141.22 868.384 2139.68 872.011 2137.77 876.351C2135.32 881.962 2132.52 888.576 2123.81 891.62C2096.35 901.069 2091.01 913.446 2086.73 923.059C2085.5 925.848 2084.45 928.318 2082.84 930.467C2077.8 937.309 2067.12 942.364 2058.12 944.96C2050.98 947.031 2041.32 957.197 2034.42 965.992C2031.88 969.278 2027.36 972.471 2022.04 976.129C2016.5 979.945 2010.13 984.253 2003.8 989.988C1987.93 1004.38 1978.53 1011.71 1970.96 1017.54C1968.72 1019.23 1966.66 1020.76 1964.64 1022.27C1958.01 1027.17 1949.33 1032.7 1939.76 1038.04C1930.37 1043.29 1919.94 1048.36 1910.48 1052.5C1910.05 1052.69 1908.65 1052.98 1908.22 1053.15C1906.54 1053.87 1904.93 1054.57 1903.42 1055.25C1880.18 1059.6 1857.69 1062.37 1835.35 1064.8C1823.87 1066.04 1811.94 1062.28 1802.17 1054.18C1792.4 1046.07 1785.59 1034.36 1783.06 1021.41C1780.54 1008.46 1782.46 995.176 1788.19 984.176C1793.94 973.179 1803.01 965.417 1813.43 962.253C1834.39 955.899 1855.12 949.243 1874.64 942.363C1875.37 942.107 1876.09 941.852 1876.8 941.599L1874.83 942.169C1891.54 934.958 1911.67 922.734 1932.09 910.206C1946.9 901.111 1962.07 891.297 1977.18 881.331C1978.73 880.304 1980.31 879.263 1981.91 878.204C1992.49 866.66 2002.97 855.167 2011.01 847.757C2017.7 841.611 2023.85 839.078 2029.31 836.738C2033.05 835.142 2036.22 833.827 2038.91 831.546C2040.32 830.345 2042.33 828.52 2044.53 826.483C2053.83 817.932 2069.46 803.317 2086.7 793.329C2094.43 788.832 2103.87 784.672 2113.18 780.394C2126.18 774.546 2138.47 768.842 2142.79 763.766C2143.8 762.584 2144.88 761.425 2146.01 760.287L2136.87 770.791C2141.24 762.175 2147.8 753.842 2153.5 746.191C2159.77 737.783 2165.01 730.181 2165.36 724.553C2165.77 717.826 2169.01 713.628 2173.71 707.183C2176.96 702.713 2180.91 697.162 2184.86 688.954C2189.39 679.49 2193.67 673.181 2197.27 667.737C2202.3 660.086 2206.02 654.112 2205.96 643.614C2205.88 631.954 2206.59 620.368 2209.59 611.806C2210.96 607.906 2211.82 603.273 2212.61 598.447C2213.67 592.061 2214.62 585.348 2216.71 579.395C2218.44 574.484 2221.5 570.642 2224.18 567.154C2225.01 566.068 2225.81 565.015 2226.51 563.99C2226.92 559.871 2227.24 555.737 2227.48 551.604C2227.12 550.9 2226.72 550.16 2226.3 549.391C2224.2 545.529 2221.58 540.848 2220.33 535.297C2218.36 526.499 2219.82 519.005 2221.14 510.933C2222.16 504.653 2223.08 498.052 2222.06 490.584C2221.36 485.515 2219.74 479.786 2218.01 474.226C2215.45 465.917 2212.6 457.947 2212.48 452.09C2212.44 449.894 2213.65 447.77 2214.85 445.636C2214.86 445.626 2214.87 445.616 2214.87 445.606C2214.95 445.462 2215.03 445.317 2215.11 445.172C2211.32 432.304 2206.74 419.718 2201.45 407.469C2201.07 406.586 2200.69 405.701 2200.3 404.814C2199.52 403.731 2198.72 402.598 2197.94 401.538C2194.13 396.254 2190.36 391.326 2186.5 388.691C2182.34 385.827 2177.13 376.919 2171.23 368.271C2167.39 362.602 2163.26 357.009 2159.25 352.985C2156.92 350.634 2156.91 347.253 2156.82 343.752C2156.74 340.486 2156.58 337.098 2154.5 334.593C2153.45 333.332 2151.94 332.265 2150.3 331.15C2148.87 330.167 2147.35 329.162 2145.99 327.977C2144.73 326.869 2143.37 323.431 2141.39 319.094C2140.19 316.435 2138.73 313.413 2136.99 310.439C2130.3 304.362 2123.35 298.94 2116.17 294.144C2113.86 294.094 2111.51 294.607 2109.1 295.765C2107.37 296.597 2105.55 297.794 2103.71 299.037C2101.19 300.726 2098.66 302.527 2096.22 303.676C2094.32 304.574 2092.95 304.505 2092.73 303.419C2092.62 302.912 2092.77 302.197 2092.9 301.546C2093.05 300.802 2093.17 300.136 2092.89 299.968C2092.69 299.848 2092.21 300.121 2091.63 300.454C2090.7 300.984 2089.51 301.677 2088.7 301.205C2085.69 299.454 2082.49 297.094 2079.18 294.896C2075.53 292.449 2071.73 290.21 2068.36 289.168C2064.68 288.02 2060.25 284.408 2055.19 280.91C2055.03 280.818 2054.87 280.726 2054.71 280.634C2049.48 277.613 2044.41 274.678 2039.72 272.659C2035.16 270.696 2030.06 270.178 2025.02 269.669C2019.04 269.08 2013.24 268.528 2009.08 265.598C2008.23 265.004 2007.63 262.745 2006.87 259.916C2006.31 257.906 2005.66 255.605 2004.8 253.41C1998.89 251.658 1992.95 249.842 1987.09 248.002C1986.81 248.203 1986.53 248.407 1986.24 248.616C1986.23 248.622 1986.23 248.627 1986.22 248.632C1979.63 253.34 1970.8 259.842 1962.79 252.26C1960.78 250.34 1959.9 247.58 1959.09 245.092C1958.3 242.65 1957.59 240.465 1955.96 239.605C1954.1 238.627 1951.5 239.291 1948.56 239.992C1944.46 240.98 1940.05 242.144 1936.5 239.055C1936.27 238.845 1936.01 238.617 1935.74 238.385C1933.21 236.187 1929.49 232.95 1926.23 227.55C1913.83 223.192 1901.45 218.778 1889.09 214.422C1868.51 207.175 1847.82 200.006 1827.63 193.873C1817.7 190.859 1809.24 183.675 1803.1 173.382C1797.05 163.07 1793.38 150.513 1793.59 137.596C1793.7 124.697 1799.04 112.309 1808.71 103.459C1818.33 94.6057 1830.72 90.1005 1842.76 90.5832C1862.24 91.3713 1881.09 92.7562 1899.92 94.6624C1900.96 94.6141 1901.95 94.564 1902.95 94.5344C1910.45 94.3236 1917.84 92.2835 1925.21 90.2726C1926.9 89.8102 1928.61 89.3518 1930.32 88.9225Z" fill="white"/>
<path d="M1861.31 154.374C1868.27 161.538 1867.27 176.914 1866.67 185.372C1866.67 185.528 1866.66 185.683 1866.65 185.838C1866.51 187.843 1866.61 189.795 1866.72 191.956C1866.98 197.185 1867.37 204.398 1864.69 219.522C1865.2 223.818 1865.63 228.157 1865.97 232.501C1869.13 272.216 1867.64 312.433 1863.7 352.489C1862.98 359.057 1862.25 366.349 1861.49 373.056C1861.54 373.629 1861.58 374.214 1861.63 374.808C1862.57 386.26 1863.75 400.217 1861.75 409.257C1859.19 420.45 1856.76 428.495 1854.63 434.623C1850.73 470.897 1847.42 507.058 1846.74 543.338C1846.52 554.704 1846.57 566.106 1846.93 577.375C1847.27 587.807 1847.8 598.266 1848.51 608.7C1850.05 614.807 1851.84 620.518 1853.5 625.842C1855.83 633.318 1857.9 640.084 1858.68 645.553C1860.57 658.875 1858.77 674.036 1857.43 685.367C1857.21 687.226 1857 688.955 1856.83 690.559C1857.96 699.426 1859.16 708.431 1860.38 717.304C1859.88 717.91 1859.37 718.52 1858.84 719.141C1852.22 726.884 1852.61 736.298 1853.22 751.026C1853.49 757.46 1853.79 764.908 1853.58 773.678C1853.45 779.335 1850.82 782.295 1848.67 784.714C1848.04 785.425 1847.45 786.093 1846.98 786.765C1845.36 789.065 1847.27 791.42 1849.52 794.203C1852.44 797.813 1855.95 802.146 1853.1 808.021C1844.02 826.733 1850.86 834.756 1856.03 840.839C1857.55 842.622 1858.92 844.238 1859.7 845.905C1862.25 851.312 1860.15 859.102 1857.12 865.044C1854.71 869.753 1857.55 879.014 1861 885.994C1862.31 888.646 1862.46 892.264 1862.62 896.517C1862.79 900.919 1862.99 905.999 1864.53 911.409C1868.43 925.159 1870.34 932.37 1871.87 938.252C1872.31 939.927 1872.71 941.486 1873.12 943.042C1874.42 947.961 1875.57 954.047 1876.72 960.202C1878.09 967.636 1879.49 975.135 1881.22 980.803C1880.05 995.717 1878.49 1010.57 1876.93 1025.44C1876.11 1032.98 1870.43 1040.57 1860.85 1046.08C1851.26 1051.63 1838.64 1054.84 1825.46 1055.07C1812.28 1055.3 1799.47 1052.54 1789.55 1047.34C1779.64 1042.18 1773.49 1034.82 1772.21 1027.33C1769.64 1012.04 1767.07 996.751 1764.92 981.422C1762.3 962.801 1760.3 944.083 1759.7 925.443C1759.28 912.335 1759.18 899.31 1759.32 886.195C1759.33 884.85 1759.35 883.505 1759.37 882.16C1755.77 871.252 1752.46 860.326 1751.16 852.635C1750.09 846.276 1751.67 841.589 1753.02 837.577C1753.95 834.818 1754.77 832.376 1754.55 829.926C1754.43 828.61 1754.17 826.815 1753.86 824.649C1752.59 815.811 1750.43 800.78 1753.15 786.998C1754.35 780.869 1756.89 773.733 1759.31 766.934C1762.78 757.2 1766.01 748.098 1764.78 743.585C1762.62 735.668 1763.92 726.408 1765.09 718.319C1766.19 710.606 1767.16 703.764 1764.84 699.983C1762.06 695.436 1763.01 691.569 1764.4 685.673C1765.37 681.6 1766.54 676.609 1766.87 669.89C1767.24 662.165 1768.89 656.532 1770.31 651.85C1772.29 645.238 1773.79 640.296 1770.5 632.931C1766.86 624.778 1764.43 616.343 1765.28 609.51C1765.66 606.42 1765.43 602.911 1765.19 599.278C1764.87 594.516 1764.54 589.317 1765.6 584.655C1766.48 580.8 1768.94 577.6 1771.11 574.778C1771.79 573.897 1772.44 573.053 1773 572.239C1772.87 569.161 1772.73 566.082 1772.55 563.026C1772.13 562.539 1771.65 562.028 1771.16 561.494C1768.72 558.816 1765.71 555.534 1764.14 551.463C1761.65 544.931 1762.89 539.083 1764.22 533.044C1765.26 528.399 1766.33 523.311 1765.71 517.703C1765.29 513.842 1764.11 509.624 1762.94 505.235C1761.2 498.735 1759.49 492.434 1760.32 488.066C1760.63 486.43 1762.19 484.916 1763.74 483.471C1763.75 483.465 1763.76 483.458 1763.77 483.452C1763.88 483.353 1763.98 483.254 1764.08 483.156C1762.53 472.377 1760.85 461.569 1759.11 450.935C1758.67 450.015 1758.23 449.134 1757.8 448.171C1755.71 443.538 1753.67 439.127 1750.88 436.303C1747.87 433.343 1745.92 425.245 1743.89 417.077C1742.57 411.826 1741.18 405.886 1739.43 401.437C1738.41 398.815 1740 396.261 1741.63 393.533C1743.15 391.02 1744.72 388.473 1744.24 385.768C1744 384.405 1743.28 382.994 1742.5 381.416C1741.82 379.98 1741.09 378.475 1740.63 376.913C1740.21 375.462 1741.02 372.215 1742.07 368.213C1742.71 365.696 1743.44 362.626 1744.02 359.622C1743.72 357.654 1743.42 355.72 1743.13 353.82C1742.22 347.934 1741.33 342.219 1740.44 336.35C1738.93 334.764 1737 333.41 1734.54 332.364C1732.78 331.615 1730.68 330.993 1728.54 330.357C1725.62 329.502 1722.6 328.578 1720.17 327.3C1718.27 326.297 1717.48 325.085 1718.22 324.238C1718.57 323.843 1719.23 323.529 1719.83 323.244C1720.52 322.918 1721.14 322.626 1721.11 322.292C1721.08 322.051 1720.57 321.814 1719.96 321.523C1718.98 321.058 1717.71 320.454 1717.63 319.486C1717.31 315.871 1717.51 311.674 1717.71 307.649C1717.93 303.126 1718.12 298.672 1717.56 295.218C1716.92 291.244 1718.45 285.657 1719.93 279.873C1720.97 275.867 1721.99 271.916 1722.28 268.466C1722.57 265.106 1721.31 261.778 1720.07 258.448C1718.59 254.487 1717.15 250.762 1718.51 247.338C1718.79 246.651 1720.72 245.698 1723.14 244.502C1724.85 243.655 1726.81 242.68 1728.6 241.601C1728.27 237.393 1728 233.188 1727.8 228.983C1727.52 228.853 1727.23 228.718 1726.93 228.584C1726.93 228.582 1726.92 228.58 1726.91 228.578C1720.27 225.538 1711.18 221.543 1715.77 214.504C1716.93 212.722 1719.27 211.512 1721.37 210.354C1723.43 209.234 1725.28 208.233 1725.57 206.964C1725.89 205.523 1724.42 203.978 1722.82 202.314C1720.57 199.939 1718.04 197.258 1719.87 194.278C1719.99 194.074 1720.13 193.854 1720.26 193.627C1721.56 191.458 1723.46 188.151 1727.6 184.766C1727.89 175.59 1728.35 166.396 1728.92 157.128C1729.88 141.558 1731.12 126.045 1732.62 109.613C1733.37 101.642 1738.89 93.304 1748.4 87.0608C1757.91 80.7348 1770.53 77.7556 1783.45 78.2789C1796.39 78.7332 1808.82 81.3777 1818.7 85.4628C1828.56 89.5835 1835.02 95.378 1837.02 102.224C1840.26 113.333 1843.77 125.093 1847.11 136.958C1847.44 137.57 1847.77 138.19 1848.08 138.813C1850.36 143.307 1854.44 147.444 1858.52 151.505C1859.45 152.45 1860.39 153.407 1861.31 154.374Z" fill="white"/>
<path d="M1930.32 88.9225C1943.3 85.6079 1965.01 93.635 1976.77 98.1923C1976.98 98.2722 1977.2 98.3521 1977.41 98.4321C1980.18 99.5012 1982.88 100.305 1986.07 101.257C1993.51 103.493 2003.84 106.552 2023.91 116.393C2030.08 118.016 2036.27 119.739 2042.4 121.553C2061.42 127.184 2080.23 133.437 2098.83 140.188C2157.74 160.199 2211.05 204.566 2241.9 255.576C2242.55 256.413 2243.21 257.264 2243.86 258.126C2256.7 274.699 2269.8 296.635 2274.35 311.521C2280.25 330.476 2282.3 343.351 2283.79 353.853C2286.27 362.714 2288.46 371.5 2290.46 380.161C2302.08 429.603 2305.7 479.874 2303.39 528.902C2302.55 547.097 2300.93 565.153 2298.66 583.059C2296.57 599.548 2293.86 615.91 2290.58 632.117C2289.77 641.82 2289.05 651.12 2288.19 659.744C2286.98 671.867 2285.49 682.658 2283.22 691.235C2277.79 711.948 2266.47 733.449 2257.45 748.776C2255.99 751.284 2254.58 753.655 2253.28 755.835C2247.99 768.898 2242.3 781.818 2236.21 794.561C2235.3 795.125 2234.37 795.68 2233.41 796.239C2225.24 801.025 2219.25 808.404 2212.24 818.778C2211.09 821.153 2205.77 826.375 2203.96 828.293C2199.64 831.709 2195.04 835.636 2189.94 839.968C2182.65 846.155 2174.42 853.099 2164.06 860.996C2157.57 865.931 2152.35 866.663 2148.26 867.117C2147.05 867.258 2145.92 867.389 2144.86 867.616C2141.22 868.384 2139.68 872.011 2137.77 876.351C2135.32 881.962 2132.52 888.576 2123.81 891.62C2096.35 901.069 2091.01 913.446 2086.73 923.059C2085.5 925.848 2084.45 928.318 2082.84 930.467C2077.8 937.309 2067.12 942.364 2058.12 944.96C2050.98 947.031 2041.32 957.197 2034.42 965.992C2031.88 969.278 2027.36 972.471 2022.04 976.129C2016.5 979.945 2010.13 984.253 2003.8 989.988C1987.93 1004.38 1978.53 1011.71 1970.96 1017.54C1968.72 1019.23 1966.66 1020.76 1964.64 1022.27C1958.01 1027.17 1949.33 1032.7 1939.76 1038.04C1930.37 1043.29 1919.94 1048.36 1910.48 1052.5C1910.05 1052.69 1908.65 1052.98 1908.22 1053.15C1906.54 1053.87 1904.93 1054.57 1903.42 1055.25C1880.18 1059.6 1857.69 1062.37 1835.35 1064.8C1823.87 1066.04 1811.94 1062.28 1802.17 1054.18C1792.4 1046.07 1785.59 1034.36 1783.06 1021.41C1780.54 1008.46 1782.46 995.176 1788.19 984.176C1793.94 973.179 1803.01 965.417 1813.43 962.253C1834.39 955.899 1855.12 949.243 1874.64 942.363C1875.37 942.107 1876.09 941.852 1876.8 941.599L1874.83 942.169C1891.54 934.958 1911.67 922.734 1932.09 910.206C1946.9 901.111 1962.07 891.297 1977.18 881.331C1978.73 880.304 1980.31 879.263 1981.91 878.204C1992.49 866.66 2002.97 855.167 2011.01 847.757C2017.7 841.611 2023.85 839.078 2029.31 836.738C2033.05 835.142 2036.22 833.827 2038.91 831.546C2040.32 830.345 2042.33 828.52 2044.53 826.483C2053.83 817.932 2069.46 803.317 2086.7 793.329C2094.43 788.832 2103.87 784.672 2113.18 780.394C2126.18 774.546 2138.47 768.842 2142.79 763.766C2143.8 762.584 2144.88 761.425 2146.01 760.287L2136.87 770.791C2141.24 762.175 2147.8 753.842 2153.5 746.191C2159.77 737.783 2165.01 730.181 2165.36 724.553C2165.77 717.826 2169.01 713.628 2173.71 707.183C2176.96 702.713 2180.91 697.162 2184.86 688.954C2189.39 679.49 2193.67 673.181 2197.27 667.737C2202.3 660.086 2206.02 654.112 2205.96 643.614C2205.88 631.954 2206.59 620.368 2209.59 611.806C2210.96 607.906 2211.82 603.273 2212.61 598.447C2213.67 592.061 2214.62 585.348 2216.71 579.395C2218.44 574.484 2221.5 570.642 2224.18 567.154C2225.01 566.068 2225.81 565.015 2226.51 563.99C2226.92 559.871 2227.24 555.737 2227.48 551.604C2227.12 550.9 2226.72 550.16 2226.3 549.391C2224.2 545.529 2221.58 540.848 2220.33 535.297C2218.36 526.499 2219.82 519.005 2221.14 510.933C2222.16 504.653 2223.08 498.052 2222.06 490.584C2221.36 485.515 2219.74 479.786 2218.01 474.226C2215.45 465.917 2212.6 457.947 2212.48 452.09C2212.44 449.894 2213.65 447.77 2214.85 445.636C2214.86 445.626 2214.87 445.616 2214.87 445.606C2214.95 445.462 2215.03 445.317 2215.11 445.172C2211.32 432.304 2206.74 419.718 2201.45 407.469C2201.07 406.586 2200.69 405.701 2200.3 404.814C2199.52 403.731 2198.72 402.598 2197.94 401.538C2194.13 396.254 2190.36 391.326 2186.5 388.691C2182.34 385.827 2177.13 376.919 2171.23 368.271C2167.39 362.602 2163.26 357.009 2159.25 352.985C2156.92 350.634 2156.91 347.253 2156.82 343.752C2156.74 340.486 2156.58 337.098 2154.5 334.593C2153.45 333.332 2151.94 332.265 2150.3 331.15C2148.87 330.167 2147.35 329.162 2145.99 327.977C2144.73 326.869 2143.37 323.431 2141.39 319.094C2140.19 316.435 2138.73 313.413 2136.99 310.439C2130.3 304.362 2123.35 298.94 2116.17 294.144C2113.86 294.094 2111.51 294.607 2109.1 295.765C2107.37 296.597 2105.55 297.794 2103.71 299.037C2101.19 300.726 2098.66 302.527 2096.22 303.676C2094.32 304.574 2092.95 304.505 2092.73 303.419C2092.62 302.912 2092.77 302.197 2092.9 301.546C2093.05 300.802 2093.17 300.136 2092.89 299.968C2092.69 299.848 2092.21 300.121 2091.63 300.454C2090.7 300.984 2089.51 301.677 2088.7 301.205C2085.69 299.454 2082.49 297.094 2079.18 294.896C2075.53 292.449 2071.73 290.21 2068.36 289.168C2064.68 288.02 2060.25 284.408 2055.19 280.91C2055.03 280.818 2054.87 280.726 2054.71 280.634C2049.48 277.613 2044.41 274.678 2039.72 272.659C2035.16 270.696 2030.06 270.178 2025.02 269.669C2019.04 269.08 2013.24 268.528 2009.08 265.598C2008.23 265.004 2007.63 262.745 2006.87 259.916C2006.31 257.906 2005.66 255.605 2004.8 253.41C1998.89 251.658 1992.95 249.842 1987.09 248.002C1986.81 248.203 1986.53 248.407 1986.24 248.616C1986.23 248.622 1986.23 248.627 1986.22 248.632C1979.63 253.34 1970.8 259.842 1962.79 252.26C1960.78 250.34 1959.9 247.58 1959.09 245.092C1958.3 242.65 1957.59 240.465 1955.96 239.605C1954.1 238.627 1951.5 239.291 1948.56 239.992C1944.46 240.98 1940.05 242.144 1936.5 239.055C1936.27 238.845 1936.01 238.617 1935.74 238.385C1933.21 236.187 1929.49 232.95 1926.23 227.55C1913.83 223.192 1901.45 218.778 1889.09 214.422C1868.51 207.175 1847.82 200.006 1827.63 193.873C1817.7 190.859 1809.24 183.675 1803.1 173.382C1797.05 163.07 1793.38 150.513 1793.59 137.596C1793.7 124.697 1799.04 112.309 1808.71 103.459C1818.33 94.6057 1830.72 90.1005 1842.76 90.5832C1862.24 91.3713 1881.09 92.7562 1899.92 94.6624C1900.96 94.6141 1901.95 94.564 1902.95 94.5344C1910.45 94.3236 1917.84 92.2835 1925.21 90.2726C1926.9 89.8102 1928.61 89.3518 1930.32 88.9225Z" fill="white"/>
<path d="M1861.31 154.374C1868.27 161.538 1867.27 176.914 1866.67 185.372C1866.67 185.528 1866.66 185.683 1866.65 185.838C1866.51 187.843 1866.61 189.795 1866.72 191.956C1866.98 197.185 1867.37 204.398 1864.69 219.522C1865.2 223.818 1865.63 228.157 1865.97 232.501C1869.13 272.216 1867.64 312.433 1863.7 352.489C1862.98 359.057 1862.25 366.349 1861.49 373.056C1861.54 373.629 1861.58 374.214 1861.63 374.808C1862.57 386.26 1863.75 400.217 1861.75 409.257C1859.19 420.45 1856.76 428.495 1854.63 434.623C1850.73 470.897 1847.42 507.058 1846.74 543.338C1846.52 554.704 1846.57 566.106 1846.93 577.375C1847.27 587.807 1847.8 598.266 1848.51 608.7C1850.05 614.807 1851.84 620.518 1853.5 625.842C1855.83 633.318 1857.9 640.084 1858.68 645.553C1860.57 658.875 1858.77 674.036 1857.43 685.367C1857.21 687.226 1857 688.955 1856.83 690.559C1857.96 699.426 1859.16 708.431 1860.38 717.304C1859.88 717.91 1859.37 718.52 1858.84 719.141C1852.22 726.884 1852.61 736.298 1853.22 751.026C1853.49 757.46 1853.79 764.908 1853.58 773.678C1853.45 779.335 1850.82 782.295 1848.67 784.714C1848.04 785.425 1847.45 786.093 1846.98 786.765C1845.36 789.065 1847.27 791.42 1849.52 794.203C1852.44 797.813 1855.95 802.146 1853.1 808.021C1844.02 826.733 1850.86 834.756 1856.03 840.839C1857.55 842.622 1858.92 844.238 1859.7 845.905C1862.25 851.312 1860.15 859.102 1857.12 865.044C1854.71 869.753 1857.55 879.014 1861 885.994C1862.31 888.646 1862.46 892.264 1862.62 896.517C1862.79 900.919 1862.99 905.999 1864.53 911.409C1868.43 925.159 1870.34 932.37 1871.87 938.252C1872.31 939.927 1872.71 941.486 1873.12 943.042C1874.42 947.961 1875.57 954.047 1876.72 960.202C1878.09 967.636 1879.49 975.135 1881.22 980.803C1880.05 995.717 1878.49 1010.57 1876.93 1025.44C1876.11 1032.98 1870.43 1040.57 1860.85 1046.08C1851.26 1051.63 1838.64 1054.84 1825.46 1055.07C1812.28 1055.3 1799.47 1052.54 1789.55 1047.34C1779.64 1042.18 1773.49 1034.82 1772.21 1027.33C1769.64 1012.04 1767.07 996.751 1764.92 981.422C1762.3 962.801 1760.3 944.083 1759.7 925.443C1759.28 912.335 1759.18 899.31 1759.32 886.195C1759.33 884.85 1759.35 883.505 1759.37 882.16C1755.77 871.252 1752.46 860.326 1751.16 852.635C1750.09 846.276 1751.67 841.589 1753.02 837.577C1753.95 834.818 1754.77 832.376 1754.55 829.926C1754.43 828.61 1754.17 826.815 1753.86 824.649C1752.59 815.811 1750.43 800.78 1753.15 786.998C1754.35 780.869 1756.89 773.733 1759.31 766.934C1762.78 757.2 1766.01 748.098 1764.78 743.585C1762.62 735.668 1763.92 726.408 1765.09 718.319C1766.19 710.606 1767.16 703.764 1764.84 699.983C1762.06 695.436 1763.01 691.569 1764.4 685.673C1765.37 681.6 1766.54 676.609 1766.87 669.89C1767.24 662.165 1768.89 656.532 1770.31 651.85C1772.29 645.238 1773.79 640.296 1770.5 632.931C1766.86 624.778 1764.43 616.343 1765.28 609.51C1765.66 606.42 1765.43 602.911 1765.19 599.278C1764.87 594.516 1764.54 589.317 1765.6 584.655C1766.48 580.8 1768.94 577.6 1771.11 574.778C1771.79 573.897 1772.44 573.053 1773 572.239C1772.87 569.161 1772.73 566.082 1772.55 563.026C1772.13 562.539 1771.65 562.028 1771.16 561.494C1768.72 558.816 1765.71 555.534 1764.14 551.463C1761.65 544.931 1762.89 539.083 1764.22 533.044C1765.26 528.399 1766.33 523.311 1765.71 517.703C1765.29 513.842 1764.11 509.624 1762.94 505.235C1761.2 498.735 1759.49 492.434 1760.32 488.066C1760.63 486.43 1762.19 484.916 1763.74 483.471C1763.75 483.465 1763.76 483.458 1763.77 483.452C1763.88 483.353 1763.98 483.254 1764.08 483.156C1762.53 472.377 1760.85 461.569 1759.11 450.935C1758.67 450.015 1758.23 449.134 1757.8 448.171C1755.71 443.538 1753.67 439.127 1750.88 436.303C1747.87 433.343 1745.92 425.245 1743.89 417.077C1742.57 411.826 1741.18 405.886 1739.43 401.437C1738.41 398.815 1740 396.261 1741.63 393.533C1743.15 391.02 1744.72 388.473 1744.24 385.768C1744 384.405 1743.28 382.994 1742.5 381.416C1741.82 379.98 1741.09 378.475 1740.63 376.913C1740.21 375.462 1741.02 372.215 1742.07 368.213C1742.71 365.696 1743.44 362.626 1744.02 359.622C1743.72 357.654 1743.42 355.72 1743.13 353.82C1742.22 347.934 1741.33 342.219 1740.44 336.35C1738.93 334.764 1737 333.41 1734.54 332.364C1732.78 331.615 1730.68 330.993 1728.54 330.357C1725.62 329.502 1722.6 328.578 1720.17 327.3C1718.27 326.297 1717.48 325.085 1718.22 324.238C1718.57 323.843 1719.23 323.529 1719.83 323.244C1720.52 322.918 1721.14 322.626 1721.11 322.292C1721.08 322.051 1720.57 321.814 1719.96 321.523C1718.98 321.058 1717.71 320.454 1717.63 319.486C1717.31 315.871 1717.51 311.674 1717.71 307.649C1717.93 303.126 1718.12 298.672 1717.56 295.218C1716.92 291.244 1718.45 285.657 1719.93 279.873C1720.97 275.867 1721.99 271.916 1722.28 268.466C1722.57 265.106 1721.31 261.778 1720.07 258.448C1718.59 254.487 1717.15 250.762 1718.51 247.338C1718.79 246.651 1720.72 245.698 1723.14 244.502C1724.85 243.655 1726.81 242.68 1728.6 241.601C1728.27 237.393 1728 233.188 1727.8 228.983C1727.52 228.853 1727.23 228.718 1726.93 228.584C1726.93 228.582 1726.92 228.58 1726.91 228.578C1720.27 225.538 1711.18 221.543 1715.77 214.504C1716.93 212.722 1719.27 211.512 1721.37 210.354C1723.43 209.234 1725.28 208.233 1725.57 206.964C1725.89 205.523 1724.42 203.978 1722.82 202.314C1720.57 199.939 1718.04 197.258 1719.87 194.278C1719.99 194.074 1720.13 193.854 1720.26 193.627C1721.56 191.458 1723.46 188.151 1727.6 184.766C1727.89 175.59 1728.35 166.396 1728.92 157.128C1729.88 141.558 1731.12 126.045 1732.62 109.613C1733.37 101.642 1738.89 93.304 1748.4 87.0608C1757.91 80.7348 1770.53 77.7556 1783.45 78.2789C1796.39 78.7332 1808.82 81.3777 1818.7 85.4628C1828.56 89.5835 1835.02 95.378 1837.02 102.224C1840.26 113.333 1843.77 125.093 1847.11 136.958C1847.44 137.57 1847.77 138.19 1848.08 138.813C1850.36 143.307 1854.44 147.444 1858.52 151.505C1859.45 152.45 1860.39 153.407 1861.31 154.374Z" fill="white"/>
<path d="M1930.32 88.9225C1943.3 85.6079 1965.01 93.635 1976.77 98.1923C1976.98 98.2722 1977.2 98.3521 1977.41 98.4321C1980.18 99.5012 1982.88 100.305 1986.07 101.257C1993.51 103.493 2003.84 106.552 2023.91 116.393C2030.08 118.016 2036.27 119.739 2042.4 121.553C2061.42 127.184 2080.23 133.437 2098.83 140.188C2157.74 160.199 2211.05 204.566 2241.9 255.576C2242.55 256.413 2243.21 257.264 2243.86 258.126C2256.7 274.699 2269.8 296.635 2274.35 311.521C2280.25 330.476 2282.3 343.351 2283.79 353.853C2286.27 362.714 2288.46 371.5 2290.46 380.161C2302.08 429.603 2305.7 479.874 2303.39 528.902C2302.55 547.097 2300.93 565.153 2298.66 583.059C2296.57 599.548 2293.86 615.91 2290.58 632.117C2289.77 641.82 2289.05 651.12 2288.19 659.744C2286.98 671.867 2285.49 682.658 2283.22 691.235C2277.79 711.948 2266.47 733.449 2257.45 748.776C2255.99 751.284 2254.58 753.655 2253.28 755.835C2247.99 768.898 2242.3 781.818 2236.21 794.561C2235.3 795.125 2234.37 795.68 2233.41 796.239C2225.24 801.025 2219.25 808.404 2212.24 818.778C2211.09 821.153 2205.77 826.375 2203.96 828.293C2199.64 831.709 2195.04 835.636 2189.94 839.968C2182.65 846.155 2174.42 853.099 2164.06 860.996C2157.57 865.931 2152.35 866.663 2148.26 867.117C2147.05 867.258 2145.92 867.389 2144.86 867.616C2141.22 868.384 2139.68 872.011 2137.77 876.351C2135.32 881.962 2132.52 888.576 2123.81 891.62C2096.35 901.069 2091.01 913.446 2086.73 923.059C2085.5 925.848 2084.45 928.318 2082.84 930.467C2077.8 937.309 2067.12 942.364 2058.12 944.96C2050.98 947.031 2041.32 957.197 2034.42 965.992C2031.88 969.278 2027.36 972.471 2022.04 976.129C2016.5 979.945 2010.13 984.253 2003.8 989.988C1987.93 1004.38 1978.53 1011.71 1970.96 1017.54C1968.72 1019.23 1966.66 1020.76 1964.64 1022.27C1958.01 1027.17 1949.33 1032.7 1939.76 1038.04C1930.37 1043.29 1919.94 1048.36 1910.48 1052.5C1910.05 1052.69 1908.65 1052.98 1908.22 1053.15C1906.54 1053.87 1904.93 1054.57 1903.42 1055.25C1880.18 1059.6 1857.69 1062.37 1835.35 1064.8C1823.87 1066.04 1811.94 1062.28 1802.17 1054.18C1792.4 1046.07 1785.59 1034.36 1783.06 1021.41C1780.54 1008.46 1782.46 995.176 1788.19 984.176C1793.94 973.179 1803.01 965.417 1813.43 962.253C1834.39 955.899 1855.12 949.243 1874.64 942.363C1875.37 942.107 1876.09 941.852 1876.8 941.599L1874.83 942.169C1891.54 934.958 1911.67 922.734 1932.09 910.206C1946.9 901.111 1962.07 891.297 1977.18 881.331C1978.73 880.304 1980.31 879.263 1981.91 878.204C1992.49 866.66 2002.97 855.167 2011.01 847.757C2017.7 841.611 2023.85 839.078 2029.31 836.738C2033.05 835.142 2036.22 833.827 2038.91 831.546C2040.32 830.345 2042.33 828.52 2044.53 826.483C2053.83 817.932 2069.46 803.317 2086.7 793.329C2094.43 788.832 2103.87 784.672 2113.18 780.394C2126.18 774.546 2138.47 768.842 2142.79 763.766C2143.8 762.584 2144.88 761.425 2146.01 760.287L2136.87 770.791C2141.24 762.175 2147.8 753.842 2153.5 746.191C2159.77 737.783 2165.01 730.181 2165.36 724.553C2165.77 717.826 2169.01 713.628 2173.71 707.183C2176.96 702.713 2180.91 697.162 2184.86 688.954C2189.39 679.49 2193.67 673.181 2197.27 667.737C2202.3 660.086 2206.02 654.112 2205.96 643.614C2205.88 631.954 2206.59 620.368 2209.59 611.806C2210.96 607.906 2211.82 603.273 2212.61 598.447C2213.67 592.061 2214.62 585.348 2216.71 579.395C2218.44 574.484 2221.5 570.642 2224.18 567.154C2225.01 566.068 2225.81 565.015 2226.51 563.99C2226.92 559.871 2227.24 555.737 2227.48 551.604C2227.12 550.9 2226.72 550.16 2226.3 549.391C2224.2 545.529 2221.58 540.848 2220.33 535.297C2218.36 526.499 2219.82 519.005 2221.14 510.933C2222.16 504.653 2223.08 498.052 2222.06 490.584C2221.36 485.515 2219.74 479.786 2218.01 474.226C2215.45 465.917 2212.6 457.947 2212.48 452.09C2212.44 449.894 2213.65 447.77 2214.85 445.636C2214.86 445.626 2214.87 445.616 2214.87 445.606C2214.95 445.462 2215.03 445.317 2215.11 445.172C2211.32 432.304 2206.74 419.718 2201.45 407.469C2201.07 406.586 2200.69 405.701 2200.3 404.814C2199.52 403.731 2198.72 402.598 2197.94 401.538C2194.13 396.254 2190.36 391.326 2186.5 388.691C2182.34 385.827 2177.13 376.919 2171.23 368.271C2167.39 362.602 2163.26 357.009 2159.25 352.985C2156.92 350.634 2156.91 347.253 2156.82 343.752C2156.74 340.486 2156.58 337.098 2154.5 334.593C2153.45 333.332 2151.94 332.265 2150.3 331.15C2148.87 330.167 2147.35 329.162 2145.99 327.977C2144.73 326.869 2143.37 323.431 2141.39 319.094C2140.19 316.435 2138.73 313.413 2136.99 310.439C2130.3 304.362 2123.35 298.94 2116.17 294.144C2113.86 294.094 2111.51 294.607 2109.1 295.765C2107.37 296.597 2105.55 297.794 2103.71 299.037C2101.19 300.726 2098.66 302.527 2096.22 303.676C2094.32 304.574 2092.95 304.505 2092.73 303.419C2092.62 302.912 2092.77 302.197 2092.9 301.546C2093.05 300.802 2093.17 300.136 2092.89 299.968C2092.69 299.848 2092.21 300.121 2091.63 300.454C2090.7 300.984 2089.51 301.677 2088.7 301.205C2085.69 299.454 2082.49 297.094 2079.18 294.896C2075.53 292.449 2071.73 290.21 2068.36 289.168C2064.68 288.02 2060.25 284.408 2055.19 280.91C2055.03 280.818 2054.87 280.726 2054.71 280.634C2049.48 277.613 2044.41 274.678 2039.72 272.659C2035.16 270.696 2030.06 270.178 2025.02 269.669C2019.04 269.08 2013.24 268.528 2009.08 265.598C2008.23 265.004 2007.63 262.745 2006.87 259.916C2006.31 257.906 2005.66 255.605 2004.8 253.41C1998.89 251.658 1992.95 249.842 1987.09 248.002C1986.81 248.203 1986.53 248.407 1986.24 248.616C1986.23 248.622 1986.23 248.627 1986.22 248.632C1979.63 253.34 1970.8 259.842 1962.79 252.26C1960.78 250.34 1959.9 247.58 1959.09 245.092C1958.3 242.65 1957.59 240.465 1955.96 239.605C1954.1 238.627 1951.5 239.291 1948.56 239.992C1944.46 240.98 1940.05 242.144 1936.5 239.055C1936.27 238.845 1936.01 238.617 1935.74 238.385C1933.21 236.187 1929.49 232.95 1926.23 227.55C1913.83 223.192 1901.45 218.778 1889.09 214.422C1868.51 207.175 1847.82 200.006 1827.63 193.873C1817.7 190.859 1809.24 183.675 1803.1 173.382C1797.05 163.07 1793.38 150.513 1793.59 137.596C1793.7 124.697 1799.04 112.309 1808.71 103.459C1818.33 94.6057 1830.72 90.1005 1842.76 90.5832C1862.24 91.3713 1881.09 92.7562 1899.92 94.6624C1900.96 94.6141 1901.95 94.564 1902.95 94.5344C1910.45 94.3236 1917.84 92.2835 1925.21 90.2726C1926.9 89.8102 1928.61 89.3518 1930.32 88.9225Z" fill="white"/>
<path d="M2668.05 280.505C2674.27 286.807 2671.9 299.32 2670.63 306.09C2670.61 306.216 2670.59 306.343 2670.57 306.47C2670.27 308.109 2670.21 309.673 2670.15 311.526C2670.01 315.91 2669.81 321.782 2666.12 334.191C2666.34 337.755 2666.5 341.526 2666.57 345.076C2667.4 384.277 2662.98 424.027 2656.77 463.929C2656.8 464.436 2656.84 464.953 2656.87 465.475C2657.5 475.365 2658.21 487.925 2655.86 495.638C2652.87 505.58 2650.09 512.212 2647.69 517.709C2642.13 549.308 2636.53 580.845 2632.78 612.36C2631.61 622.21 2630.62 632.174 2629.86 642.067C2629.17 651.225 2628.6 660.364 2628.13 669.556C2628.98 675.024 2630.08 680.232 2631.09 685.091C2632.49 691.912 2633.69 698.048 2633.75 702.981C2633.82 708.822 2632.91 714.957 2631.6 720.832L2631.76 719.349C2630.61 725.184 2629.08 730.723 2627.79 735.468C2627.38 736.986 2626.99 738.405 2626.65 739.741C2626.85 747.335 2627.14 754.89 2627.48 762.48C2626.93 762.942 2626.35 763.406 2625.77 763.878C2618.43 769.736 2617.92 777.7 2617.2 790.147C2616.89 795.569 2616.54 801.852 2615.59 809.244C2614.98 813.989 2612.12 816.286 2609.79 818.17C2609.1 818.724 2608.46 819.242 2607.93 819.773C2606.13 821.593 2607.84 823.719 2609.86 826.247C2612.48 829.514 2615.64 833.405 2612.35 838.168C2601.86 853.332 2608.12 860.678 2612.85 866.073C2614.24 867.683 2615.49 869.142 2616.16 870.596C2618.33 875.275 2615.71 881.761 2612.28 886.641C2609.57 890.436 2611.8 898.525 2614.81 904.595C2615.95 906.925 2615.87 909.981 2615.77 913.6C2615.67 917.353 2615.56 921.71 2616.77 926.347C2619.85 938.229 2621.34 944.466 2622.52 949.6C2622.86 951.04 2623.16 952.373 2623.48 953.748C2624.5 957.985 2625.28 963.329 2626.06 968.703C2626.33 970.589 2626.59 972.497 2626.87 974.308C2627.56 978.966 2628.3 983.238 2629.26 986.947C2627.1 999.957 2624.51 1012.99 2621.4 1027.04C2619.8 1034.21 2613.08 1041.58 2602.58 1045.82C2592.07 1050.03 2579.1 1050.03 2566.13 1047.81C2553.14 1045.59 2541.16 1040.49 2532.08 1035.33C2523.01 1030.19 2517.63 1024.8 2517.04 1018.86C2515.87 1006.91 2514.35 993.972 2513.18 981.103C2512.86 977.534 2512.56 974.019 2512.3 970.378C2511.4 958.212 2510.93 945.682 2511.32 933.297C2511.67 922.035 2512.36 910.705 2513.34 899.418C2513.44 898.261 2513.54 897.096 2513.65 895.925C2510.76 886.285 2508.2 876.652 2507.44 869.848C2506.8 864.308 2508.72 860.283 2510.35 856.907C2511.48 854.562 2512.48 852.482 2512.44 850.356C2512.42 849.21 2512.29 847.634 2512.15 845.719C2511.54 837.978 2510.56 824.745 2514.42 812.956C2516.13 807.694 2519.27 801.708 2522.28 796.009C2526.59 787.809 2530.64 780.244 2529.84 776.23C2528.43 769.124 2530.62 761.296 2532.59 754.378C2534.46 747.775 2536.13 741.989 2534.22 738.495C2531.94 734.301 2533.29 730.957 2535.31 726.06C2536.72 722.639 2538.43 718.477 2539.51 712.675C2539.64 712.008 2539.77 711.361 2539.92 710.733C2539.98 710.501 2539.97 709.761 2540.05 709.531C2541.48 704.153 2543.57 700.297 2545.37 696.96C2548.18 691.749 2550.28 687.786 2547.89 681.313C2545.24 674.127 2543.78 666.837 2545.36 661.295C2546.08 658.776 2546.22 655.834 2546.36 652.777C2546.54 648.734 2546.72 644.473 2548.24 640.673C2549.49 637.546 2552.24 635.092 2554.67 632.91C2555.43 632.23 2556.16 631.576 2556.8 630.938C2556.95 628.378 2557.08 625.819 2557.19 623.235C2556.8 622.79 2556.38 622.321 2555.94 621.833C2553.74 619.381 2551.04 616.381 2549.82 612.824C2547.89 607.204 2549.6 602.477 2551.4 597.454C2552.8 593.55 2554.25 589.486 2554.04 584.749C2553.89 581.486 2553.02 577.744 2552.15 574.054C2550.85 568.568 2549.55 563.214 2550.65 559.497C2551.06 558.114 2552.71 556.972 2554.35 555.841C2554.36 555.836 2554.37 555.831 2554.38 555.826C2554.49 555.749 2554.6 555.672 2554.71 555.595C2553.81 546.511 2552.73 537.348 2551.52 528.277C2551.13 527.485 2550.74 526.685 2550.35 525.894C2548.48 522.031 2546.66 518.199 2544 515.724C2541.13 513.001 2539.54 506.477 2537.83 499.398C2536.72 494.794 2535.55 490.071 2533.96 486.236C2533.03 484.006 2534.7 481.826 2536.42 479.633C2538.02 477.579 2539.66 475.47 2539.27 473.165C2539.07 472.01 2538.39 470.764 2537.66 469.437C2537.02 468.268 2536.34 467.045 2535.92 465.747C2535.53 464.527 2536.44 461.813 2537.58 458.355C2538.29 456.218 2539.08 453.796 2539.73 451.264C2538.68 444.611 2537.65 437.726 2536.68 431.094C2535.21 429.725 2533.32 428.506 2530.89 427.553C2529.15 426.869 2527.07 426.295 2524.95 425.707C2522.05 424.906 2519.06 424.081 2516.68 422.93C2514.81 422.031 2514.06 420.959 2514.82 420.226C2515.18 419.885 2515.85 419.618 2516.46 419.376C2517.16 419.099 2517.78 418.852 2517.76 418.559C2517.74 418.348 2517.24 418.133 2516.64 417.87C2515.67 417.45 2514.43 416.904 2514.37 416.053C2514.17 412.92 2514.52 409.228 2514.86 405.647C2515.24 401.664 2515.6 397.816 2515.18 394.774C2514.71 391.262 2516.47 386.258 2518.22 381.319C2519.44 377.928 2520.65 374.308 2521.12 371.328C2521.57 368.389 2520.49 365.385 2519.44 362.505C2518.17 358.962 2516.94 355.519 2518.5 352.601C2518.82 352.009 2520.8 351.242 2523.29 350.283C2525.05 349.603 2527.06 348.823 2528.91 347.946C2528.84 344.315 2528.84 340.447 2528.91 336.774C2528.64 336.649 2528.36 336.521 2528.08 336.392C2528.07 336.39 2528.06 336.388 2528.06 336.386C2521.63 333.515 2512.83 329.485 2517.91 323.442C2519.2 321.918 2521.62 320.934 2523.8 320.05C2525.94 319.183 2527.86 318.41 2528.25 317.329C2528.68 316.138 2527.33 314.591 2525.86 313.005C2523.8 310.756 2521.5 308.264 2523.56 305.725C2523.7 305.552 2523.86 305.366 2524.01 305.172C2525.48 303.378 2527.65 300.54 2532.07 297.731C2533.15 289.704 2534.46 281.504 2535.98 273.253C2538.53 259.505 2541.52 245.689 2545.43 230.456C2547.35 223.102 2554.24 215.887 2564.95 211.328C2575.64 206.923 2588.76 207.258 2600.99 211.367C2613.29 215.362 2624.92 219.934 2634.1 223.894C2643.2 228.086 2648.79 232.507 2649.86 237.701C2651.57 246.16 2653.65 255.714 2655.69 265.593C2655.96 266.089 2656.21 266.59 2656.46 267.091C2658.25 270.781 2661.89 274.606 2665.54 278.069C2666.38 278.873 2667.23 279.685 2668.05 280.505Z" fill="white"/>
<path d="M2638.86 32.2374C2645.19 31.6287 2643.55 34.5264 2642.64 36.007C2642.63 36.0335 2642.62 36.0599 2642.6 36.0862C2642.39 36.4396 2642.39 36.6847 2642.41 36.9581C2642.43 37.6056 2642.44 38.4328 2639.39 41.1842C2639.66 41.4177 2639.86 41.6257 2639.96 41.8172C2640.89 43.4072 2637.32 42.3667 2632.52 43.5705C2630.53 43.9876 2629.28 45.3169 2628.76 47.0219C2628.78 46.9976 2628.8 46.9728 2628.83 46.9481C2629.32 46.4712 2630.2 45.9719 2630.19 48.3306C2630.18 51.3363 2630.41 54.1444 2630.65 56.5574C2633.79 62.4222 2640.68 67.3724 2644.84 68.6885C2645.65 69.0062 2646.29 69.1382 2645.98 69.3426C2645.8 69.4481 2645.43 69.5742 2644.77 69.8176C2643.23 70.6017 2636.05 72.2125 2629.1 83.4188C2624.39 89.1346 2621.96 95.8658 2620.64 99.9238C2618.8 105.825 2617.94 108.303 2617.66 109.567C2617.35 111.382 2617.8 110.875 2618.1 109.453C2618.32 108.576 2618.75 107.812 2619.2 107.259C2619.39 107.026 2619.58 106.83 2619.75 106.677C2618.98 106.947 2618.31 108.047 2620.28 111.403C2620.83 111.22 2621.39 111.025 2621.98 110.819C2625.66 109.521 2628.22 109.668 2632.63 111.108C2636.75 112.419 2645.17 115.473 2654.87 113.712C2663.17 112.259 2668.49 108.21 2670.16 105.954C2670.43 105.598 2670.52 105.207 2670.49 104.8C2670.36 103.507 2668.95 102.075 2667.71 100.922C2667.23 100.479 2666.77 100.082 2666.38 99.7713C2665.06 98.7156 2666.42 99.949 2668.09 101.323C2670.23 103.149 2672.92 105.164 2669.96 104.167C2660.23 101.53 2664.86 106.939 2668.8 110.147C2669.93 111.139 2670.96 112.033 2671.46 112.679C2673.08 114.733 2670.24 115.24 2666.73 115.156C2663.95 115.073 2665.31 118.218 2667.59 121.083C2668.44 122.181 2668.12 122.993 2667.73 123.991C2667.32 125.014 2666.84 126.226 2667.58 128.027C2669.42 132.607 2670.28 135.001 2670.95 136.931C2671.14 137.478 2671.32 137.986 2671.5 138.502C2672.09 140.137 2672.38 141.978 2672.67 143.863C2673.01 146.118 2673.37 148.423 2674.26 150.423C2671.29 153.581 2667.95 156.694 2664.6 159.866C2662.86 161.492 2656.61 161.344 2646.95 159.353C2637.29 157.357 2625.08 153.702 2612.74 149.076C2600.41 144.45 2588.81 139.181 2580.22 134.322C2571.64 129.463 2566.83 125.427 2566.62 123.001C2566.22 118.128 2565.85 113.204 2565.92 108.362C2566.02 102.456 2566.77 96.6856 2568.98 91.2524C2570.52 87.4605 2572.43 83.7133 2574.69 79.9521C2574.92 79.5653 2575.16 79.1818 2575.4 78.7989C2573.92 74.1231 2572.9 69.3078 2573.23 66.2043C2573.5 63.6625 2575.89 62.7735 2577.95 62.0024C2579.37 61.4809 2580.62 61.035 2580.99 60.0425C2581.19 59.5079 2581.37 58.7687 2581.63 57.7956C2582.74 53.8976 2584.54 46.87 2593.99 40.2013C2595.67 39.0509 2597.84 37.7507 2600.35 36.4691C2604.19 34.4751 2608.84 32.4512 2614.45 30.5637C2627.52 25.1957 2649.17 25.5706 2657.79 26.9451C2674.98 28.1451 2684.36 38.7314 2688.03 44.4709C2691.86 50.3975 2692.93 54.2767 2696.08 54.9425C2699.77 55.7261 2700.06 58.2177 2700.07 61.4392C2700.08 63.3651 2699.98 65.552 2700.41 67.8136C2700.48 68.1775 2700.57 68.5531 2700.67 68.9418C2701.59 72.1948 2701.08 75.6152 2700.57 78.6535C2699.85 83.1424 2699.27 86.0318 2703.3 92.2052C2708.01 98.7117 2708.86 114.602 2701.53 124.294C2698.52 128.572 2694.95 133.057 2691.23 136.498C2686.32 141.072 2681.43 143.916 2677.23 144.512C2673.69 145.016 2670.72 143.314 2668.34 141.702C2667.59 141.199 2666.9 140.703 2666.3 140.263C2665.63 140.471 2664.96 140.669 2664.3 140.858C2663.37 141.124 2662.43 141.379 2661.54 141.616C2661.39 142.069 2661.24 142.567 2661.07 143.082C2660.21 145.666 2659.07 148.818 2657.27 150.536C2654.42 153.252 2651.63 152.078 2648.92 150.739C2646.81 149.694 2644.74 148.547 2642.49 149.022C2640.93 149.347 2639.19 150.386 2637.42 151.379C2634.78 152.857 2632.1 154.22 2630.39 153.128C2629.75 152.719 2629.31 151.072 2628.9 149.433C2628.9 149.423 2628.9 149.413 2628.89 149.403C2628.87 149.292 2628.84 149.183 2628.81 149.072C2624.51 149.926 2620.12 150.713 2615.57 151.343C2615.13 151.683 2614.68 152.014 2614.23 152.337C2612.03 153.919 2609.8 155.393 2607.99 157.753C2606.02 160.316 2602.19 161.177 2597.95 161.816C2595.17 162.24 2592.21 162.569 2589.51 163.346C2587.92 163.8 2587.25 161.794 2586.63 159.733C2586.04 157.808 2585.5 155.836 2584.07 155.683C2583.36 155.605 2582.4 155.946 2581.36 156.29C2580.44 156.594 2579.46 156.905 2578.54 156.945C2577.69 156.982 2576.5 155.445 2575.05 153.428C2574.15 152.182 2573.13 150.747 2572.02 149.375C2567.7 148.164 2563.26 146.554 2558.75 144.396C2558.58 144.452 2558.42 144.512 2558.25 144.576C2556.71 145.163 2555.02 146.078 2553.18 147.405C2551.7 148.462 2550.07 149.818 2548.38 151.186C2546.08 153.048 2543.68 154.94 2541.4 156.149C2539.62 157.095 2538.42 157.058 2538.45 156.069C2538.47 155.609 2538.74 154.95 2538.99 154.356C2539.27 153.675 2539.53 153.072 2539.33 152.926C2539.19 152.821 2538.73 153.077 2538.16 153.379C2537.25 153.864 2536.07 154.476 2535.5 154.022C2533.37 152.334 2531.42 149.934 2529.67 147.574C2527.7 144.946 2525.95 142.377 2524.1 140.782C2522 138.986 2521.01 134.841 2520.37 130.876C2519.91 128.1 2519.59 125.402 2518.91 123.445C2518.24 121.527 2516.31 120.399 2514.46 119.277C2512.23 117.93 2510.13 116.599 2510.66 114.223C2510.77 113.745 2512.3 112.378 2514.23 110.698C2515.6 109.507 2517.18 108.156 2518.6 106.845C2517.6 104.989 2516.74 103.113 2516 101.253C2515.73 101.309 2515.45 101.364 2515.16 101.422C2515.16 101.423 2515.15 101.425 2515.14 101.427C2508.71 102.765 2499.74 104.17 2503.21 99.1441C2504.1 97.88 2506.15 96.4614 2508 95.1985C2509.81 93.9574 2511.44 92.8645 2511.61 92.2122C2511.8 91.4717 2510.3 91.3201 2508.67 91.1342C2506.39 90.8782 2503.83 90.554 2505.35 88.6608C2505.45 88.5319 2505.57 88.3924 2505.68 88.2496C2506.76 86.8994 2508.38 84.9241 2512.15 82.2528C2512.03 78.4972 2512.26 74.8462 2512.71 71.3105C2513.47 65.4172 2514.84 59.8434 2516.34 54.5621C2517.09 51.9839 2522.36 48.3204 2531.31 44.253C2540.27 40.1816 2552.09 36.0304 2564.54 32.567C2576.99 29.1037 2589.26 26.5817 2599.02 25.3962C2608.77 24.2154 2615.14 24.4587 2617.03 25.9357C2620.1 28.3583 2623.14 30.5556 2625.96 32.4833C2626.26 32.5373 2626.55 32.5932 2626.82 32.6521C2628.86 33.094 2632.6 32.8428 2636.32 32.49C2637.18 32.4088 2638.03 32.3219 2638.86 32.2374Z" fill="white"/>
</svg>
