<svg width="4921" height="1273" viewBox="0 0 4921 1273" fill="none" xmlns="http://www.w3.org/2000/svg">
<path d="M3068.72 339.847C3062.79 337.694 3058.39 325.59 3049.57 308.715C3050.64 310.14 3051.66 311.214 3052.51 311.994C3052.63 312.113 3052.75 312.228 3052.88 312.338C3054.47 313.725 3055.55 314.528 3056.15 314.889C3057.27 315.896 3057.39 312.965 3039.13 304.829C3033.52 303.807 3027.32 302.952 3020.83 302.276C3015.96 301.768 3010.91 301.376 3005.76 301.095C3009.82 299.247 2988.13 305.188 2969.52 319.817C2950.03 333.947 2929.58 352.99 2909.83 373.482C2902.53 380.586 2899.12 383.665 2896.87 399.202C2896.89 399.926 2896.92 400.682 2896.96 401.465C2897.32 410.421 2899.27 423.7 2900.92 438.461C2900.96 439.769 2900.9 441.186 2901.35 444.231C2902.97 454.186 2910.79 467.776 2916.28 477.322C2933.71 499.868 2955.51 523.251 2977.43 546.306C2997 567.406 3030.59 590.488 3060.01 617.488C3063.82 620.931 3067.59 624.381 3071.33 627.837C3089.06 644.223 3106.24 660.685 3123.37 677.274C3136.86 690.36 3150.25 703.524 3163.62 717.164C3166 719.598 3168.22 721.898 3170.57 724.377C3180.74 733.449 3190.53 742.514 3199.47 751.936C3212.01 765.094 3222.76 779.269 3229.67 792.667C3247.39 825.578 3249.09 866.219 3249 889.387C3249.01 889.659 3249.02 889.93 3249.02 890.2C3249.18 896.779 3248.76 902.674 3248.11 907.859C3246.27 936.938 3237.68 958.29 3229.98 977.531C3228.93 978.563 3227.85 979.594 3226.76 980.606C3219.36 987.48 3213.28 995.654 3207.15 1005.82C3200.95 1016.36 3193.69 1028.34 3183.76 1041.43C3174.34 1053.85 3162.49 1067.25 3147.07 1080.7C3137.1 1089.33 3130.13 1091.35 3124.55 1092.98C3122.91 1093.45 3121.36 1093.89 3119.89 1094.42C3114.82 1096.21 3111.65 1100.86 3107.7 1106.31C3102.6 1113.36 3096.11 1121.84 3083.29 1126.06C3072.28 1129.65 3063.25 1132.97 3055.76 1136.2C3028.78 1147.67 3014.12 1151.82 3001.91 1156.44C2997.02 1158.1 2992.52 1159.4 2987.97 1159.97C2973.05 1161.95 2953.67 1156.39 2941.02 1149.88C2930.77 1144.89 2909.75 1141.04 2893.76 1138.26C2887.68 1137.25 2880.14 1134.27 2871.48 1130.57C2871.28 1130.48 2871.08 1130.4 2870.88 1130.31C2860.75 1125.97 2849.56 1120.33 2837.59 1114.5C2806.76 1099.09 2792.99 1087.62 2781.77 1079.15C2778.6 1076.66 2775.72 1074.32 2772.87 1071.97C2763.86 1064.57 2753.53 1054.64 2744.12 1045.2C2742.41 1043.5 2740.71 1041.8 2739.11 1040.23C2738.01 1039.13 2735.41 1035.3 2734.46 1034.07C2725.46 1022.25 2717.12 1009.94 2710.45 999.949C2694.94 966.94 2684.56 929.84 2681.26 893.229C2679.83 878.098 2682.76 863.27 2689.01 851.657C2688.93 850.929 2689.06 848.736 2689.04 848.003C2690.8 845.112 2692.75 842.303 2694.91 839.713C2706.17 826.035 2719.62 824.529 2732.66 825.651C2745.87 826.88 2757.02 836.933 2765.89 846.128C2767.64 847.991 2769.28 849.934 2770.78 852.041L2770.81 849.13C2777.67 857.836 2782.41 867.616 2784.78 877.725C2790.68 903.143 2800.89 926.242 2814.72 948.531C2819.42 956.127 2824.53 963.63 2829.99 971.085L2825.66 965.369C2844.23 985.326 2860.12 1001.07 2877.39 1014.31C2888.65 1022.97 2900.15 1030.08 2911.91 1035.47C2918.98 1038.66 2926.01 1041.68 2932.96 1044.47C2935.18 1045.36 2937.42 1046.23 2939.62 1047.07C2958.99 1050.5 2976.48 1051.23 2986.28 1051.01C2994.44 1050.9 2998.87 1052.27 3002.54 1053.29C3005.01 1053.97 3007.03 1054.42 3008.52 1053.81C3009.31 1053.48 3010.27 1052.93 3011.16 1052.25C3011.38 1052.08 3011.61 1051.89 3011.83 1051.71C3025.39 1043.64 3045.72 1029.93 3064.56 1018.66C3073.54 1013.37 3084.27 1007.59 3093.95 1001.35C3107.84 992.531 3119.33 982.507 3122.23 975.79C3123.92 971.987 3125.82 968.218 3127.77 964.46C3133.18 954.076 3139.36 944.37 3144.33 935.858C3151.43 923.844 3155.78 914.234 3154.76 908.912C3153.67 903.077 3154.76 899.692 3155.92 896.32C3155.97 895.488 3156.03 894.645 3156.08 893.79C3156.55 885.979 3157.16 876.468 3155.86 865.171C3154.32 852.261 3153.58 844.154 3152.38 836.788C3150.62 826.592 3148.13 818.399 3138.54 809.619C3127.87 799.926 3116.17 789.616 3108.29 779.527C3106.94 777.792 3105.41 776.018 3103.71 774.168C3100.96 771.182 3097.9 768.113 3094.73 764.975C3087.92 758.227 3080.62 751.156 3074.86 743.791C3070.09 737.706 3067.33 731.47 3064.83 725.941C3064.06 724.22 3063.3 722.562 3062.53 721.01C3058.07 716.803 3053.58 712.634 3049.05 708.517C3048.04 708.142 3046.97 707.768 3045.86 707.374C3040.25 705.399 3033.38 703.006 3026.31 698.578C3018 693.385 3011.69 687.368 3005.7 681.044C3003.67 678.896 3001.69 676.726 2999.64 674.525C2993.45 667.891 2986.76 661.068 2977.59 654.716C2971.34 650.386 2963.63 646.012 2955.72 641.429C2944.02 634.681 2931.67 627.034 2924.33 619.369C2921.59 616.52 2920.1 613.017 2918.7 609.527C2918.7 609.509 2918.69 609.492 2918.69 609.475C2918.64 609.363 2918.6 609.252 2918.55 609.141C2918.52 609.026 2918.48 608.912 2918.44 608.797C2901.33 594.426 2884.17 580.042 2866.94 564.671C2865.22 563.513 2863.5 562.351 2861.83 561.209C2853.54 555.531 2845.44 549.635 2838.99 546.46C2832.08 542.945 2818.48 531.025 2804.16 511.817C2794.82 499.355 2785.41 481.867 2780.35 465.146C2779.14 461.268 2778.52 457.323 2778.34 453.421C2778.4 450.256 2779 446.942 2779.61 443.464C2780.57 438.035 2781.55 432.252 2780.57 425.781C2780.08 422.533 2779.12 418.968 2778.16 414.988C2777.32 411.485 2776.49 407.653 2776.02 403.465C2775.61 399.586 2776.37 390.74 2778.85 378.656C2780.39 371.21 2782.66 362.526 2785.85 353.468C2790.78 331.602 2801.68 310.005 2815.16 293.072C2816.41 291.426 2817.68 289.767 2818.98 288.097C2820.26 284.392 2820.98 280.709 2820.85 277.208C2820.77 274.688 2820.28 272.116 2819.77 269.506C2819.09 265.948 2818.44 262.212 2818.84 258.26C2819.16 255.162 2820.65 252.46 2822.58 251.532C2823.48 251.098 2824.46 251.039 2825.36 250.986C2826.38 250.925 2827.29 250.869 2827.84 250.268C2828.23 249.835 2828.29 249.052 2828.37 248.094C2828.5 246.564 2828.69 244.571 2830.33 242.816C2836.42 236.302 2844.01 229.351 2851.84 222.647C2860.53 215.185 2869.54 208.032 2876.71 201.87C2884.74 194.953 2898.26 187.13 2913.71 180.117C2924.44 175.225 2936.13 170.785 2946.97 167.081C2957.56 163.451 2969.22 158.775 2982.41 155.635C2992 153.342 3002.34 151.95 3012.48 152.334C3016.18 152.446 3019.73 152.862 3023.01 153.731C3024.71 154.18 3026.69 156.336 3029.14 159.061C3030.88 160.993 3032.84 163.213 3035.11 165.33C3045.79 166.448 3056.67 168.121 3067.93 170.653C3068.38 170.472 3068.85 170.289 3069.32 170.102C3069.32 170.097 3069.33 170.092 3069.34 170.087C3079.85 165.975 3096.1 160.444 3115.43 174.376C3120.31 177.977 3122.67 181.923 3124.69 185.479C3126.7 189.001 3128.38 192.155 3132.06 194.936C3136.27 198.134 3142.31 200.669 3149.18 204.601C3158.7 209.979 3170.34 218.946 3176.28 233.039C3176.3 233.085 3176.32 233.132 3176.34 233.178C3176.41 233.567 3176.49 233.988 3176.58 234.429C3177.43 238.795 3179.14 245.895 3178.98 254.709C3188.88 274.699 3199.77 301.226 3201.06 331.88C3202.09 352.999 3197.93 374.742 3190.31 393.009C3181.51 413.563 3170.63 432.55 3158 450.235C3147.47 465.012 3131.9 475.581 3116.43 478.576C3100.88 481.646 3087.41 476.929 3078.53 467.597C3069.59 458.238 3064.92 445.555 3063.23 432.639C3061.63 419.655 3063.43 407.135 3068.39 396.136C3074.37 382.957 3078.98 369.163 3081.91 355.682C3082.23 352.97 3082.14 350.702 3081.82 348.723C3081.6 348.316 3081.38 347.91 3081.17 347.533C3079.56 344.667 3075.71 342.78 3071.6 341.069C3070.66 340.669 3069.69 340.267 3068.72 339.847Z" fill="white"/>
<path d="M940.151 172.261C942.991 165.496 950.966 166.73 955.338 167.425C955.418 167.435 955.498 167.445 955.578 167.455C956.617 167.618 957.57 167.549 958.678 167.464C961.318 167.262 964.904 166.982 972.909 169.725C975.031 169.246 977.191 168.832 979.336 168.503C1002.65 164.932 1026.97 166.86 1051.17 170.407C1051.47 170.343 1051.77 170.277 1052.07 170.211C1057.88 168.929 1065.17 167.387 1069.98 169.193C1076.13 171.481 1080.31 173.782 1083.77 175.784C1093.8 177.515 1103.76 179.201 1113.66 180.536C1122.58 181.741 1131.42 182.663 1140.2 183.063C1146.01 183.327 1151.8 183.359 1157.55 183.102C1162.86 182.864 1168.14 182.45 1173.42 181.88C1176.44 180.416 1179.33 178.71 1181.99 177.134C1185.74 174.918 1189.09 172.959 1191.87 172.268C1198.62 170.603 1206.34 172.695 1212.07 174.265C1213.01 174.521 1213.89 174.764 1214.71 174.974C1219.19 174.023 1223.69 173.021 1228.18 172.007C1228.49 172.515 1228.81 173.046 1229.13 173.59C1233.1 180.381 1237.83 180.204 1245.23 179.96C1248.48 179.854 1252.2 179.739 1256.62 180.177C1259.47 180.46 1260.95 183.164 1262.17 185.371C1262.53 186.02 1262.86 186.627 1263.2 187.117C1264.36 188.794 1265.54 186.952 1266.94 184.778C1268.74 181.958 1270.91 178.571 1273.86 181.58C1283.23 191.17 1287.26 184.575 1290.31 179.583C1291.21 178.119 1292.03 176.796 1292.86 176.058C1295.58 173.668 1299.48 175.993 1302.45 179.201C1304.79 181.745 1309.43 179.185 1312.95 175.944C1314.28 174.719 1316.09 174.681 1318.21 174.643C1320.42 174.604 1322.97 174.568 1325.68 173.191C1332.57 169.712 1336.21 168.028 1339.15 166.681C1339.99 166.297 1340.77 165.947 1341.55 165.582C1344.01 164.43 1347.06 163.479 1350.16 162.521C1353.86 161.375 1357.62 160.212 1360.48 158.663C1367.88 160.294 1375.29 162.317 1382.68 164.337C1386.48 165.386 1390.12 171.295 1392.81 181.036C1395.49 190.785 1397 203.497 1397 216.671C1397 229.846 1395.49 242.557 1392.81 252.307C1390.13 262.048 1386.49 267.967 1382.7 269.017C1375.06 271.109 1367.42 273.204 1359.8 274.876C1350.51 276.914 1341.24 278.326 1331.97 278.351C1325.48 278.368 1319 278.076 1312.53 277.541C1311.86 277.486 1311.2 277.425 1310.53 277.365C1305.11 280.635 1299.7 283.617 1295.9 284.695C1292.76 285.584 1290.44 283.87 1288.47 282.404C1287.11 281.396 1285.91 280.503 1284.7 280.657C1284.05 280.739 1283.16 280.947 1282.09 281.197C1277.72 282.216 1270.33 283.954 1263.52 280.871C1260.51 279.503 1256.99 276.78 1253.62 274.183C1248.83 270.47 1244.3 267.02 1242.09 268.139C1238.17 270.106 1233.66 268.578 1229.63 267.233C1225.8 265.949 1222.46 264.835 1220.61 267.071C1218.41 269.745 1216.49 268.719 1213.58 267.207C1211.56 266.157 1209.1 264.878 1205.78 264.427C1201.93 263.908 1199.21 262.149 1196.85 260.656C1193.53 258.555 1191.08 256.978 1187.53 260.139C1183.62 263.651 1179.51 265.952 1176.18 265.01C1174.66 264.581 1172.94 264.766 1171.16 264.962C1168.79 265.222 1166.34 265.494 1164 264.382C1162.08 263.465 1160.42 260.98 1158.95 258.781C1158.49 258.096 1158.05 257.441 1157.63 256.867C1156.13 256.97 1154.63 257.089 1153.14 257.237C1152.92 257.66 1152.69 258.128 1152.45 258.611C1151.24 261.034 1149.76 264.006 1147.81 265.552C1144.73 267.998 1141.88 266.721 1138.84 265.374C1136.47 264.325 1134.02 263.233 1131.3 263.843C1129.45 264.259 1127.42 265.434 1125.37 266.606C1123.42 267.726 1121.5 268.838 1119.81 269.272C1118.86 269.513 1117.97 269.546 1117.19 269.259C1116.36 268.956 1115.56 267.403 1114.76 265.859C1114.76 265.85 1114.76 265.84 1114.75 265.831C1114.7 265.726 1114.64 265.624 1114.59 265.519C1109.48 267.118 1104.37 268.87 1099.31 270.72C1098.9 271.169 1098.49 271.612 1098.07 272.05C1096.02 274.188 1094.06 276.27 1092.92 279.083C1091.69 282.132 1088.06 284.167 1084.28 286.331C1081.79 287.75 1079.27 289.218 1077.23 291.056C1076.05 292.129 1074.68 290.606 1073.26 289.037C1071.95 287.572 1070.56 286.074 1069.3 286.614C1068.67 286.886 1068.03 287.642 1067.36 288.452C1066.77 289.165 1066.15 289.92 1065.46 290.417C1064.82 290.877 1063.2 290.148 1061.12 289.227C1059.85 288.657 1058.39 288.016 1056.87 287.528C1053.2 288.99 1049.51 290.425 1045.84 291.803C1045.22 293.341 1044.77 295.295 1044.53 297.762C1044.35 299.532 1044.28 301.631 1044.21 303.776C1044.11 306.696 1044 309.713 1043.65 312.154C1043.38 314.061 1042.88 314.87 1042.37 314.157C1042.14 313.825 1041.91 313.171 1041.7 312.58C1041.46 311.902 1041.24 311.3 1041.08 311.339C1040.96 311.368 1040.9 311.877 1040.83 312.494C1040.71 313.478 1040.55 314.749 1040.08 314.855C1038.33 315.247 1036.27 315.116 1034.23 314.992C1031.97 314.853 1029.77 314.725 1028.1 315.328C1026.24 316.003 1023.25 314.554 1020.24 313.124C1018.14 312.124 1016.03 311.138 1014.3 310.86C1012.61 310.587 1011.07 311.845 1009.57 313.074C1007.79 314.549 1006.08 315.973 1004.23 314.617C1003.85 314.341 1003.15 312.424 1002.27 310.026C1001.64 308.326 1000.92 306.384 1000.16 304.607C998.12 304.92 996.031 305.16 993.955 305.331C993.925 305.61 993.893 305.895 993.861 306.185C993.861 306.192 993.861 306.199 993.861 306.205C993.157 312.761 992.211 321.728 988.161 317.113C987.126 315.941 986.218 313.616 985.4 311.523C984.596 309.468 983.876 307.629 983.208 307.326C982.448 306.983 981.851 308.422 981.2 309.987C980.281 312.185 979.263 314.64 977.533 312.793C977.415 312.667 977.287 312.528 977.156 312.39C975.908 311.078 974.05 309.142 971.828 304.995C967.214 304.556 962.536 303.933 957.829 303.194C949.981 301.961 942.027 300.411 934.037 298.878C930.149 298.115 925.595 292.756 921.327 283.647C917.056 274.525 913.436 262.472 911.199 249.741C908.961 237.011 908.253 224.455 909.164 214.423C910.076 204.403 912.552 197.81 915.992 195.765C921.607 192.457 927.251 189.146 932.961 186.02C933.233 185.701 933.509 185.39 933.786 185.095C935.851 182.903 937.433 178.943 939.037 174.976C939.405 174.065 939.775 173.152 940.151 172.261Z" fill="white"/>
<path d="M1020.41 260.76C1026.32 268.152 1023.26 281.917 1021.58 289.533C1021.55 289.672 1021.52 289.812 1021.5 289.95C1021.1 291.737 1020.95 293.438 1020.78 295.432C1020.38 300.19 1019.84 306.608 1015.4 319.975C1015.4 323.917 1015.34 327.842 1015.2 331.749C1013.68 374.113 1007.15 416.217 999.772 458.39C999.788 458.926 999.806 459.47 999.823 460.02C1000.16 470.635 1000.59 483.85 998.113 492.054C994.964 502.491 992.121 509.53 989.675 515.371C983.887 548.824 978.75 582.501 976.39 615.978C975.648 626.576 975.185 637.133 975.056 647.595C974.937 657.256 975.028 667.1 975.312 676.73C976.611 682.356 978.171 687.693 979.62 692.741C981.657 699.791 983.477 706.011 984.059 711.117C985.46 723.285 983.145 737.659 981.455 747.892C981.178 749.579 980.917 751.162 980.692 752.634C981.555 761.021 982.497 769.31 983.477 777.488C982.966 778.038 982.433 778.592 981.887 779.155C975.07 786.035 975.228 795.133 975.53 808.588C975.661 814.369 975.825 821.456 975.475 829.554C975.25 834.776 972.583 837.473 970.406 839.685C969.766 840.334 969.168 840.943 968.687 841.557C967.04 843.653 968.915 845.793 971.135 848.421C974.014 851.798 977.474 855.81 974.58 861.229C965.358 878.212 972.232 886.058 977.396 891.369C978.914 892.963 980.286 894.398 981.076 895.882C983.628 900.526 981.597 908.113 978.623 913.557C976.267 917.994 979.201 926.009 982.799 932.524C984.154 934.915 984.374 938.212 984.637 942.017C984.91 945.955 985.223 950.399 986.945 955.394C991.282 967.662 993.502 973.684 995.318 978.968C995.833 980.427 996.307 981.77 996.797 983.095C998.342 987.257 999.804 992.374 1001.37 997.771C1003.22 1004.07 1005.15 1010 1007.38 1014.7C1007.37 1026.48 1007.66 1039.58 1008.14 1048.73C1008.45 1053.72 1003.89 1058.15 995.654 1063.41C987.363 1068.66 977.367 1076.53 967.551 1085.33C957.765 1094.02 945.105 1099.52 932.177 1095.82C926.198 1094.83 920.752 1092.21 916.357 1088.43C912.17 1085.22 909.152 1081.48 907.327 1076.91C900.561 1060.26 895.851 1044.16 892.081 1029.35C887.475 1010.8 884.324 992.604 882.888 974.383C881.898 961.733 881.403 949.172 881.268 936.478C881.254 935.16 881.246 933.836 881.239 932.507C877.449 922.333 874.034 911.976 872.676 904.426C871.567 898.512 873.136 894.03 874.481 890.183C875.407 887.533 876.229 885.176 876.008 882.815C875.889 881.547 875.633 879.814 875.327 877.712C874.084 869.502 872.025 855.069 874.925 842.037C876.211 836.312 878.854 829.574 881.393 823.076C885.021 813.635 888.446 805.483 887.315 801.132C885.329 793.659 886.86 784.767 888.237 777.318C889.549 770.103 890.71 763.721 888.503 760.088C885.865 755.744 886.925 751.998 888.502 746.612C889.596 742.85 890.934 738.223 891.481 731.884C892.112 724.577 893.967 719.283 895.545 715.003C897.768 708.892 899.443 704.282 896.443 697.329C893.11 689.579 891.023 681.508 892.147 675.25C892.659 672.386 892.572 669.097 892.483 665.665C892.364 661.121 892.247 656.322 893.512 651.942C894.554 648.346 897.147 645.465 899.444 642.876C900.16 642.07 900.844 641.297 901.447 640.547C901.451 637.701 901.442 634.849 901.406 631.992C901.001 631.523 900.552 631.03 900.089 630.516C897.764 627.934 894.914 624.752 893.53 620.832C891.341 614.586 892.856 609.31 894.469 603.658C895.725 599.267 897.038 594.691 896.692 589.396C896.456 585.792 895.488 581.631 894.53 577.567C893.108 571.541 891.715 565.567 892.762 561.451C893.155 559.909 894.789 558.61 896.414 557.325C896.424 557.319 896.434 557.314 896.444 557.308C896.554 557.221 896.662 557.133 896.771 557.046C895.761 546.921 894.637 536.834 893.453 526.748C893.061 525.866 892.675 524.975 892.295 524.092C890.438 519.776 888.637 515.574 886.004 512.796C883.149 509.778 881.63 502.362 880.037 494.559C878.993 489.445 877.919 484.15 876.412 479.807C875.531 477.268 877.25 474.927 879.023 472.519C880.678 470.272 882.376 467.969 882.044 465.397C881.877 464.107 881.231 462.702 880.54 461.201C879.932 459.88 879.287 458.483 878.91 457.028C878.56 455.676 879.546 452.716 880.804 448.919C881.581 446.573 882.46 443.907 883.202 441.104C882.391 433.611 881.628 426.122 880.94 418.636C879.537 417.035 877.697 415.626 875.314 414.482C873.604 413.661 871.552 412.943 869.454 412.206C866.599 411.203 863.649 410.165 861.315 408.788C859.49 407.711 858.788 406.487 859.585 405.705C859.956 405.341 860.643 405.074 861.264 404.832C861.975 404.555 862.607 404.307 862.6 403.98C862.593 403.744 862.104 403.483 861.512 403.162C860.567 402.65 859.346 401.985 859.333 401.03C859.282 397.479 859.808 393.465 860.329 389.522C860.907 385.141 861.471 380.861 861.214 377.43C860.926 373.586 862.954 368.192 864.979 362.797C866.392 359.037 867.8 355.261 868.437 351.996C869.062 348.799 868.157 345.418 867.275 342.146C866.216 338.219 865.193 334.444 866.924 331.331C867.275 330.702 869.304 329.977 871.841 329.068C873.64 328.424 875.697 327.683 877.599 326.824C877.743 322.8 877.971 318.76 878.271 314.713C878.005 314.56 877.734 314.403 877.457 314.245C877.451 314.243 877.444 314.24 877.438 314.238C871.195 310.682 862.655 305.81 868.085 299.627C869.465 298.055 871.941 297.127 874.17 296.29C876.359 295.469 878.317 294.736 878.766 293.572C879.276 292.251 878.011 290.623 876.637 288.849C874.707 286.358 872.551 283.578 874.757 280.92C874.907 280.739 875.072 280.544 875.238 280.342C876.808 278.421 879.131 275.579 883.694 272.843C885.212 264.262 886.935 255.756 888.791 247.234C891.892 232.857 895.346 218.865 898.823 204.526C900.529 197.583 906.866 191.159 916.772 186.663C926.691 182.167 939.292 179.955 952.207 180.494C965.121 181.036 977.484 184.292 986.996 189.584C996.495 194.875 1002.28 201.774 1003.41 208.807C1005.23 220.378 1007.08 231.564 1008.74 243.046C1008.98 243.652 1009.22 244.26 1009.44 244.865C1011.07 249.36 1014.55 253.652 1018.03 257.847C1018.83 258.816 1019.63 259.787 1020.41 260.76Z" fill="white"/>
<path d="M972.581 595.966C975.112 589.266 982.382 590.625 986.374 591.373C986.447 591.384 986.52 591.395 986.593 591.406C987.542 591.583 988.404 591.527 989.411 591.455C991.814 591.284 995.059 591.054 1002.38 593.854C1004.29 593.392 1006.23 592.995 1008.17 592.676C1029.17 589.242 1051.07 590.942 1073.15 593.776C1073.41 593.703 1073.68 593.629 1073.95 593.554C1079.16 592.103 1085.63 590.319 1090.1 591.932C1095.8 593.98 1099.75 596.091 1103.04 597.932C1120.6 600.356 1138.05 602.371 1155.23 601.972C1160.6 601.849 1165.95 601.482 1171.28 600.823C1176.18 600.217 1181.06 599.432 1185.95 598.491C1188.65 596.82 1191.22 594.915 1193.59 593.158C1196.89 590.691 1199.94 588.499 1202.48 587.622C1202.63 587.573 1202.77 587.526 1202.92 587.481C1209.09 585.566 1216.28 587.099 1221.71 588.27C1222.62 588.466 1223.47 588.653 1224.25 588.811C1228.46 587.577 1232.64 586.306 1236.84 585.031C1237.16 585.521 1237.49 586.032 1237.83 586.557C1242.05 593.103 1246.48 592.658 1253.51 592.03C1256.57 591.757 1260.12 591.455 1264.33 591.687C1267.04 591.837 1268.6 594.472 1269.85 596.623C1270.22 597.255 1270.57 597.847 1270.91 598.321C1272.07 599.947 1273.11 598.056 1274.34 595.826C1275.93 592.932 1277.83 589.459 1280.78 592.35C1290.06 601.573 1293.6 594.867 1296.34 589.779C1297.15 588.287 1297.88 586.94 1298.66 586.178C1301.16 583.707 1304.98 585.921 1307.86 589.054C1310.17 591.535 1314.5 588.867 1317.78 585.555C1319.02 584.302 1320.74 584.227 1322.77 584.15C1324.86 584.07 1327.28 583.989 1329.84 582.57C1336.33 578.986 1339.78 577.266 1342.56 575.887C1343.35 575.494 1344.09 575.136 1344.82 574.764C1347.15 573.588 1350.05 572.611 1352.97 571.632C1356.48 570.459 1360.03 569.277 1362.73 567.715C1369.74 569.314 1376.71 571.325 1383.64 573.34C1387.2 574.386 1390.6 580.295 1393.1 590.036C1395.6 599.785 1397 612.497 1397 625.671C1397 638.846 1395.59 651.557 1393.1 661.307C1390.61 671.048 1387.23 676.968 1383.73 678.02C1376.66 680.117 1369.63 682.225 1362.65 683.93C1354.15 686.008 1345.7 687.49 1337.3 687.63C1331.42 687.728 1325.56 687.539 1319.7 687.134C1319.09 687.092 1318.49 687.044 1317.88 686.998C1313.07 690.379 1308.3 693.494 1304.91 694.673C1302.13 695.646 1299.99 694.001 1298.17 692.596C1296.91 691.629 1295.79 690.775 1294.7 690.967C1294.13 691.07 1293.34 691.306 1292.39 691.591C1288.48 692.753 1281.96 694.751 1275.69 691.954C1272.91 690.711 1269.6 688.143 1266.42 685.705C1261.88 682.215 1257.58 678.994 1255.64 680.224C1252.19 682.385 1248 681.099 1244.27 679.978C1240.71 678.908 1237.57 677.991 1236.05 680.329C1234.23 683.125 1232.39 682.218 1229.65 680.884C1227.74 679.96 1225.39 678.835 1222.33 678.595C1218.76 678.322 1216.15 676.744 1213.87 675.41C1213.25 675.049 1212.67 674.705 1212.1 674.41C1209.74 673.169 1207.7 672.78 1205.27 675.518C1201.97 679.281 1198.34 681.86 1195.2 681.151C1193.76 680.829 1192.17 681.135 1190.55 681.453C1188.4 681.874 1186.12 682.32 1183.87 681.374C1182.03 680.592 1180.29 678.231 1178.74 676.144C1178.25 675.492 1177.79 674.871 1177.35 674.329C1175.96 674.536 1174.59 674.757 1173.22 675.008C1173.05 675.445 1172.87 675.927 1172.69 676.424C1171.75 678.923 1170.6 681.99 1168.91 683.664C1166.26 686.309 1163.46 685.235 1160.53 684.095C1158.24 683.207 1155.85 682.284 1153.35 683.07C1151.66 683.604 1149.82 684.911 1147.99 686.208C1145.27 688.136 1142.63 690.033 1140.48 689.363C1139.68 689.112 1138.81 687.613 1137.95 686.121C1137.94 686.111 1137.94 686.102 1137.93 686.093C1137.88 685.992 1137.82 685.893 1137.76 685.792C1133.07 687.692 1128.38 689.728 1123.69 691.847C1123.33 692.318 1122.96 692.783 1122.6 693.241C1120.82 695.48 1119.09 697.658 1118.17 700.524C1117.17 703.632 1113.88 705.84 1110.38 708.18C1108.09 709.713 1105.74 711.294 1103.91 713.216C1102.83 714.338 1101.43 712.878 1099.99 711.371C1098.65 709.965 1097.27 708.523 1096.09 709.112C1095.5 709.408 1094.93 710.188 1094.32 711.023C1093.79 711.758 1093.22 712.538 1092.59 713.059C1092 713.542 1090.42 712.873 1088.39 712.027C1087.14 711.504 1085.71 710.915 1084.24 710.478C1080.8 712.057 1077.31 713.604 1073.85 715.08C1073.32 716.632 1072.96 718.595 1072.82 721.065C1072.72 722.837 1072.73 724.935 1072.74 727.08C1072.74 729.999 1072.75 733.016 1072.5 735.463C1072.29 737.376 1071.83 738.199 1071.32 737.499C1071.08 737.172 1070.84 736.525 1070.61 735.94C1070.36 735.269 1070.13 734.673 1069.98 734.716C1069.87 734.748 1069.83 735.258 1069.77 735.875C1069.69 736.861 1069.59 738.135 1069.13 738.251C1067.45 738.685 1065.44 738.604 1063.46 738.522C1061.27 738.431 1059.13 738.345 1057.54 738.977C1055.75 739.685 1052.82 738.287 1049.88 736.898C1047.83 735.928 1045.76 734.968 1044.09 734.708C1042.46 734.453 1041 735.724 1039.59 736.963C1037.9 738.451 1036.27 739.887 1034.47 738.54C1034.11 738.267 1033.4 736.355 1032.51 733.963C1031.88 732.268 1031.15 730.33 1030.4 728.558C1028.44 728.88 1026.45 729.121 1024.47 729.293C1024.44 729.572 1024.42 729.857 1024.39 730.147C1024.39 730.153 1024.39 730.16 1024.39 730.167C1023.81 736.716 1023.02 745.674 1019.07 741.057C1018.07 739.884 1017.18 737.558 1016.37 735.465C1015.58 733.409 1014.87 731.57 1014.23 731.265C1013.51 730.919 1012.95 732.353 1012.34 733.912C1011.49 736.103 1010.54 738.55 1008.88 736.693C1008.76 736.566 1008.64 736.427 1008.51 736.288C1007.31 734.97 1005.53 733.022 1003.39 728.861C998.99 728.384 994.571 727.707 990.118 726.907C982.703 725.571 975.216 723.891 967.731 722.214C964.086 721.382 959.814 715.945 955.8 706.771C951.784 697.583 948.367 685.484 946.237 672.735C944.107 659.986 943.405 647.441 944.216 637.448C945.03 627.466 947.305 620.937 950.488 618.964C955.681 615.774 960.88 612.581 966.115 609.565C966.364 609.252 966.615 608.947 966.867 608.658C968.746 606.509 970.165 602.585 971.592 598.655C971.919 597.752 972.248 596.848 972.581 595.966Z" fill="white"/>
<path d="M940.551 1006.41C943.421 999.659 951.383 1000.93 955.747 1001.65C955.827 1001.66 955.906 1001.67 955.986 1001.68C957.024 1001.85 957.976 1001.79 959.083 1001.71C961.721 1001.52 965.304 1001.25 973.287 1004.04C975.409 1003.57 977.568 1003.16 979.712 1002.85C1003.01 999.385 1027.29 1001.42 1051.44 1005.05C1051.74 1004.98 1052.04 1004.92 1052.34 1004.85C1058.14 1003.59 1065.43 1002.08 1070.22 1003.9C1076.36 1006.2 1080.53 1008.52 1083.98 1010.53C1093.96 1012.28 1103.89 1013.99 1113.76 1015.35C1122.68 1016.57 1131.53 1017.52 1140.33 1017.93C1146.14 1018.21 1151.92 1018.25 1157.66 1018C1162.97 1017.77 1168.25 1017.36 1173.52 1016.8C1176.54 1015.34 1179.44 1013.63 1182.09 1012.06C1185.84 1009.85 1189.18 1007.89 1191.97 1007.21C1198.71 1005.55 1206.42 1007.65 1212.15 1009.22C1213.09 1009.48 1213.97 1009.72 1214.78 1009.93C1219.27 1008.98 1223.76 1007.98 1228.25 1006.97C1228.56 1007.48 1228.88 1008.01 1229.2 1008.56C1233.17 1015.35 1237.89 1015.18 1245.29 1014.94C1248.53 1014.83 1252.25 1014.72 1256.68 1015.16C1259.52 1015.44 1261 1018.15 1262.22 1020.35C1262.57 1021 1262.91 1021.61 1263.25 1022.1C1264.41 1023.78 1265.59 1021.94 1266.98 1019.76C1268.78 1016.94 1270.96 1013.56 1273.9 1016.57C1283.27 1026.16 1287.29 1019.57 1290.35 1014.57C1291.25 1013.11 1292.06 1011.79 1292.9 1011.05C1295.62 1008.66 1299.51 1010.99 1302.48 1014.2C1304.82 1016.74 1309.45 1014.18 1312.98 1010.94C1314.31 1009.72 1316.11 1009.68 1318.24 1009.64C1320.44 1009.6 1322.99 1009.57 1325.71 1008.19C1332.59 1004.71 1336.23 1003.03 1339.17 1001.68C1340.01 1001.3 1340.79 1000.95 1341.57 1000.58C1344.02 999.429 1347.08 998.479 1350.18 997.521C1353.87 996.374 1357.63 995.212 1360.49 993.662C1367.89 995.294 1375.3 997.317 1382.69 999.337C1386.49 1000.39 1390.13 1006.29 1392.81 1016.04C1395.49 1025.79 1397 1038.5 1397 1051.67C1397 1064.85 1395.49 1077.56 1392.81 1087.31C1390.13 1097.05 1386.49 1102.97 1382.7 1104.02C1375.07 1106.11 1367.43 1108.2 1359.81 1109.88C1350.52 1111.91 1341.25 1113.32 1331.98 1113.35C1325.49 1113.37 1319.01 1113.07 1312.55 1112.54C1311.88 1112.48 1311.21 1112.42 1310.54 1112.36C1305.12 1115.63 1299.71 1118.61 1295.91 1119.69C1292.77 1120.58 1290.46 1118.86 1288.48 1117.4C1287.12 1116.39 1285.93 1115.49 1284.71 1115.65C1284.06 1115.73 1283.17 1115.94 1282.1 1116.19C1277.74 1117.2 1270.34 1118.94 1263.54 1115.86C1260.52 1114.49 1257 1111.76 1253.63 1109.16C1248.84 1105.45 1244.31 1102 1242.1 1103.11C1238.19 1105.08 1233.68 1103.55 1229.65 1102.2C1225.82 1100.91 1222.47 1099.8 1220.63 1102.03C1218.42 1104.71 1216.5 1103.68 1213.59 1102.16C1211.57 1101.11 1209.12 1099.83 1205.79 1099.38C1201.94 1098.86 1199.22 1097.09 1196.86 1095.6C1193.55 1093.49 1191.1 1091.92 1187.55 1095.07C1183.63 1098.58 1179.52 1100.88 1176.18 1099.93C1174.67 1099.5 1172.95 1099.68 1171.16 1099.88C1168.79 1100.13 1166.34 1100.4 1164 1099.29C1162.08 1098.37 1160.42 1095.88 1158.96 1093.68C1158.5 1092.99 1158.06 1092.34 1157.64 1091.77C1156.14 1091.87 1154.64 1091.98 1153.15 1092.13C1152.93 1092.55 1152.7 1093.02 1152.46 1093.5C1151.24 1095.92 1149.76 1098.89 1147.8 1100.44C1144.72 1102.88 1141.88 1101.59 1138.83 1100.24C1136.46 1099.19 1134.02 1098.09 1131.29 1098.7C1129.44 1099.11 1127.41 1100.28 1125.35 1101.45C1123.38 1102.58 1121.43 1103.7 1119.72 1104.12C1118.79 1104.34 1117.93 1104.37 1117.16 1104.09C1116.33 1103.78 1115.53 1102.23 1114.74 1100.68C1114.74 1100.67 1114.73 1100.66 1114.73 1100.65C1114.68 1100.55 1114.62 1100.44 1114.57 1100.34C1109.45 1101.93 1104.34 1103.67 1099.27 1105.5C1098.85 1105.95 1098.44 1106.39 1098.02 1106.83C1095.97 1108.96 1094 1111.04 1092.85 1113.85C1091.61 1116.9 1087.97 1118.92 1084.18 1121.08C1081.68 1122.49 1079.16 1123.95 1077.11 1125.78C1075.92 1126.85 1074.55 1125.32 1073.14 1123.75C1071.83 1122.28 1070.45 1120.78 1069.19 1121.31C1068.55 1121.58 1067.92 1122.34 1067.24 1123.15C1066.64 1123.86 1066.02 1124.61 1065.33 1125.1C1064.68 1125.56 1063.06 1124.83 1060.99 1123.9C1059.72 1123.33 1058.26 1122.68 1056.74 1122.19C1053.06 1123.64 1049.36 1125.06 1045.69 1126.42C1045.07 1127.96 1044.6 1129.91 1044.35 1132.38C1044.17 1134.15 1044.09 1136.25 1044.01 1138.39C1043.89 1141.31 1043.78 1144.33 1043.42 1146.77C1043.13 1148.67 1042.63 1149.48 1042.13 1148.77C1041.89 1148.43 1041.66 1147.78 1041.46 1147.19C1041.22 1146.51 1041.01 1145.9 1040.85 1145.94C1040.73 1145.97 1040.67 1146.48 1040.59 1147.1C1040.47 1148.08 1040.31 1149.35 1039.83 1149.45C1038.07 1149.84 1036.01 1149.7 1033.97 1149.57C1031.71 1149.42 1029.51 1149.29 1027.83 1149.88C1025.97 1150.55 1022.98 1149.09 1019.97 1147.65C1017.88 1146.64 1015.77 1145.64 1014.04 1145.36C1012.34 1145.08 1010.8 1146.33 1009.3 1147.55C1007.5 1149.02 1005.79 1150.44 1003.94 1149.07C1003.57 1148.79 1002.87 1146.87 1002 1144.47C1001.38 1142.77 1000.67 1140.82 999.92 1139.04C997.872 1139.35 995.782 1139.58 993.703 1139.74C993.671 1140.02 993.638 1140.3 993.605 1140.59C993.605 1140.6 993.605 1140.61 993.605 1140.61C992.87 1147.17 991.879 1156.13 987.849 1151.49C986.819 1150.32 985.922 1147.99 985.113 1145.89C984.319 1143.83 983.608 1141.99 982.94 1141.68C982.182 1141.34 981.578 1142.77 980.919 1144.34C979.989 1146.53 978.957 1148.98 977.236 1147.12C977.118 1147 976.991 1146.86 976.86 1146.72C975.619 1145.4 973.77 1143.46 971.567 1139.3C966.954 1138.84 962.278 1138.19 957.574 1137.43C949.731 1136.16 941.784 1134.57 933.804 1132.99C929.92 1132.21 925.395 1126.83 921.174 1117.7C916.951 1108.55 913.394 1096.48 911.222 1083.74C909.051 1071 908.407 1058.44 909.369 1048.41C910.332 1038.39 912.841 1031.81 916.29 1029.79C921.92 1026.51 927.577 1023.23 933.299 1020.13C933.573 1019.81 933.85 1019.5 934.128 1019.21C936.202 1017.03 937.803 1013.08 939.425 1009.12C939.797 1008.21 940.171 1007.3 940.551 1006.41Z" fill="white"/>
<path d="M3826.87 261.663C3833.69 269.077 3832.32 284.495 3831.51 292.964C3831.5 293.121 3831.49 293.277 3831.47 293.433C3831.29 295.459 3831.33 297.297 3831.39 299.523C3831.51 304.758 3831.7 311.92 3828.64 326.855C3829.05 331.173 3829.37 335.386 3829.61 339.705C3830.4 353.688 3830.64 367.729 3830.46 381.757C3830.03 413.852 3827.41 446.074 3824.03 478.145C3824.07 478.723 3824.12 479.312 3824.17 479.908C3825.14 491.392 3826.28 505.71 3824.21 514.694C3821.58 526.169 3819.05 533.949 3816.86 540.355C3812.51 576.881 3808.32 613.277 3806.28 649.69C3805.64 661.101 3805.22 672.517 3805.06 683.938C3804.91 694.454 3804.92 704.987 3805.05 715.519C3806.26 721.688 3807.72 727.55 3809.06 733.015C3810.91 740.57 3812.53 747.35 3812.97 752.922C3812.98 752.999 3812.98 753.076 3812.99 753.152C3814 766.731 3811.07 781.998 3808.83 793.294C3808.46 795.143 3808.12 796.887 3807.81 798.498C3808.21 807.576 3808.63 816.672 3809.03 825.767C3808.48 826.341 3807.91 826.918 3807.33 827.504C3800.01 834.816 3799.53 844.261 3798.62 859.156C3798.22 865.64 3797.73 873.16 3796.55 881.952C3795.78 887.628 3792.83 890.321 3790.42 892.526C3789.71 893.173 3789.05 893.781 3788.5 894.406C3786.63 896.549 3788.25 899.102 3790.16 902.123C3792.64 906.039 3795.6 910.782 3792.05 916.345C3780.72 934.067 3786.42 942.815 3790.75 949.533C3792.02 951.492 3793.16 953.272 3793.71 955.036C3795.51 960.775 3792.36 968.303 3788.51 973.857C3785.47 978.226 3786.96 987.833 3789.36 995.271C3790.26 998.101 3789.88 1001.7 3789.41 1005.96C3788.92 1010.39 3788.35 1015.46 3789.04 1021.09C3790.81 1035.27 3791.53 1042.8 3792.12 1048.86C3792.28 1050.59 3792.42 1052.21 3792.59 1053.8C3793.09 1058.84 3793.23 1065.15 3793.36 1071.42C3793.51 1079 3793.65 1086.61 3794.39 1092.58C3790.75 1107.15 3786.66 1121.64 3782.53 1136.13C3780.41 1143.5 3773.48 1149.99 3763.07 1153.86C3752.63 1157.77 3739.61 1158.92 3726.58 1156.98C3713.55 1155.05 3701.42 1150.16 3692.56 1143.46C3683.69 1136.8 3678.9 1128.71 3678.92 1121.17C3679.03 1105.83 3679.07 1090.53 3679.46 1075.33C3679.94 1056.79 3680.93 1038.38 3683.19 1020.15C3684.77 1007.43 3686.61 994.694 3688.61 982.024C3688.82 980.718 3689.03 979.414 3689.24 978.112C3687.22 967.045 3685.43 956.063 3685.16 948.465C3684.94 942.156 3687.11 937.855 3688.97 934.107C3690.25 931.54 3691.38 929.27 3691.47 926.876C3691.51 925.595 3691.48 923.812 3691.44 921.678C3691.29 912.979 3690.96 898.198 3695.2 885.115C3697.09 879.31 3700.39 872.632 3703.52 866.245C3708 857.106 3712.12 848.533 3711.34 844.013C3709.96 836.078 3712.13 827.235 3714.01 819.393C3715.8 811.918 3717.33 805.359 3715.34 801.485C3712.95 796.849 3714.2 793.094 3716.05 787.458C3717.33 783.553 3718.89 778.764 3719.7 772.176C3720.63 764.585 3722.66 759.247 3724.39 754.71C3725.01 753.071 3725.59 751.533 3726.06 750.027C3727.43 745.681 3727.89 741.598 3725.79 736.131C3722.64 727.969 3720.7 719.499 3721.92 712.879C3722.47 709.868 3722.42 706.405 3722.37 702.8C3722.3 698.029 3722.21 693.014 3723.5 688.45C3724.56 684.691 3727.16 681.604 3729.45 678.867C3730.17 678.013 3730.86 677.193 3731.46 676.398C3731.46 673.382 3731.45 670.366 3731.4 667.351C3731 666.859 3730.55 666.342 3730.08 665.802C3727.75 663.093 3724.88 659.763 3723.47 655.67C3721.23 649.191 3722.69 643.531 3724.22 637.545C3725.42 632.881 3726.66 628.041 3726.22 622.466C3725.91 618.672 3724.86 614.357 3723.81 610.073C3722.25 603.73 3720.7 597.442 3721.64 593.086C3721.99 591.457 3723.58 590.03 3725.17 588.625C3725.18 588.619 3725.19 588.613 3725.2 588.606C3725.31 588.511 3725.41 588.415 3725.52 588.32C3724.21 577.713 3722.75 567.061 3721.18 556.474C3720.75 555.563 3720.33 554.629 3719.92 553.711C3717.89 549.214 3715.92 544.914 3713.17 542.082C3710.19 539.032 3708.35 531.298 3706.39 523.167C3705.1 517.824 3703.77 512.338 3702.04 507.843C3701.03 505.215 3702.62 502.673 3704.26 500.065C3705.79 497.63 3707.36 495.086 3706.89 492.403C3706.65 491.056 3705.93 489.618 3705.15 488.089C3704.47 486.727 3703.75 485.286 3703.28 483.776C3702.86 482.364 3703.67 479.235 3704.7 475.148C3705.33 472.623 3706.05 469.767 3706.61 466.796C3705.34 458.934 3704.09 451.133 3702.89 443.32C3701.38 441.725 3699.45 440.372 3696.99 439.339C3695.23 438.597 3693.13 437.99 3690.99 437.368C3688.07 436.524 3685.06 435.648 3682.63 434.358C3680.73 433.354 3679.95 432.121 3680.69 431.248C3681.03 430.842 3681.7 430.514 3682.3 430.217C3682.99 429.877 3683.6 429.574 3683.57 429.234C3683.55 428.988 3683.04 428.752 3682.43 428.461C3681.45 427.996 3680.18 427.392 3680.1 426.407C3679.79 422.649 3680.02 418.486 3680.24 414.302C3680.49 409.671 3680.72 405.188 3680.19 401.613C3679.69 398.275 3680.76 393.481 3682.06 388.659C3682.29 387.786 3682.52 386.91 3682.76 386.037C3683.85 381.979 3684.93 377.94 3685.29 374.479C3685.64 371.152 3684.44 367.622 3683.27 364.341C3681.86 360.331 3680.5 356.542 3681.93 353.112C3682.23 352.42 3684.18 351.476 3686.62 350.295C3688.35 349.458 3690.33 348.498 3692.14 347.434C3691.9 343.175 3691.74 339.006 3691.64 334.748C3691.36 334.616 3691.08 334.48 3690.79 334.344C3690.78 334.342 3690.77 334.34 3690.77 334.338C3684.2 331.291 3675.22 327.107 3679.98 320.14C3681.19 318.392 3683.56 317.161 3685.69 316.054C3687.78 314.969 3689.65 313.999 3689.97 312.749C3690.34 311.342 3688.9 309.764 3687.34 308.063C3685.15 305.691 3682.7 303.027 3684.6 300.066C3684.73 299.864 3684.87 299.647 3685.02 299.422C3686.37 297.3 3688.35 294.064 3692.57 290.748C3693.09 281.702 3693.77 272.64 3694.53 263.568C3695.8 248.433 3697.28 233.242 3698.67 217.89C3699.36 210.428 3704.68 202.765 3713.81 196.561C3722.95 190.357 3735.08 186.141 3747.94 184.831C3760.8 183.52 3773.52 185.188 3783.73 189.446C3793.92 193.705 3800.68 200.238 3802.84 207.593C3806.32 219.57 3809.78 231.705 3812.96 243.849C3813.29 244.475 3813.61 245.107 3813.9 245.739C3816.13 250.37 3820.13 254.574 3824.13 258.753C3825.05 259.714 3825.97 260.683 3826.87 261.663Z" fill="white"/>
<path d="M3441.42 173.397C3447.67 167.11 3459.7 169.471 3466.43 170.769C3466.56 170.791 3466.68 170.812 3466.8 170.833C3468.37 171.141 3469.85 171.206 3471.6 171.276C3475.79 171.441 3481.43 171.667 3493.2 175.46C3496.64 175.269 3500.02 175.145 3503.43 175.1C3540.35 174.612 3577.12 179.265 3614.04 184.847C3614.51 184.808 3614.98 184.768 3615.45 184.727C3624.63 183.942 3636.08 182.961 3643.3 185.098C3652.47 187.816 3658.72 190.372 3663.87 192.581C3683.74 195.589 3703.61 198.326 3723.46 200.142L3720.54 200.299C3730.06 200.54 3739.58 200.594 3749.06 200.394C3758.3 200.199 3767.51 199.758 3776.71 199.018C3785.17 198.337 3793.62 197.471 3802.06 196.446C3806.89 194.719 3811.46 192.763 3815.7 190.954C3821.66 188.411 3826.97 186.158 3831.43 185.223C3842.16 182.97 3854.64 184.382 3863.9 185.452C3865.41 185.626 3866.84 185.792 3868.16 185.93C3875.36 184.587 3882.56 183.195 3889.77 181.794C3890.29 182.275 3890.82 182.779 3891.35 183.295C3897.99 189.742 3905.6 189.159 3917.59 188.292C3922.81 187.915 3928.85 187.489 3936.02 187.567C3940.63 187.618 3943.14 190.201 3945.2 192.309C3945.81 192.929 3946.37 193.508 3946.94 193.971C3948.88 195.554 3950.72 193.62 3952.89 191.337C3955.72 188.376 3959.12 184.819 3964.01 187.6C3979.59 196.462 3985.86 189.588 3990.66 184.376C3992.06 182.849 3993.34 181.469 3994.67 180.673C3998.99 178.091 4005.46 180.143 4010.37 183.152C4014.29 185.535 4021.74 182.673 4027.38 179.214C4029.51 177.906 4032.44 177.756 4035.92 177.59C4039.52 177.419 4043.66 177.233 4048.07 175.703C4059.18 171.839 4065.12 169.976 4069.91 168.482C4071.27 168.057 4072.54 167.67 4073.8 167.268C4077.73 166.017 4082.66 164.939 4087.62 163.867L4086.67 163.9C4086.74 163.883 4086.82 163.865 4086.89 163.848C4092.61 162.46 4098.33 161.011 4102.58 159.219C4113.9 160.214 4124.95 161.433 4135.29 162.248C4140.61 162.681 4146.26 167.815 4151.85 176.781C4157.41 185.758 4162.04 197.863 4164.19 210.863C4166.34 223.859 4166.13 236.794 4163.16 247.149C4160.21 257.494 4154.36 264.354 4147.57 266.206C4133.92 269.913 4120.75 272.926 4107.83 275.32C4102.37 276.325 4096.98 277.211 4091.59 277.963C4091.41 277.935 4090.86 278.026 4090.69 277.995C4080.98 279.238 4071.22 280.137 4061.48 280.471C4051.06 280.828 4040.6 280.912 4030.14 280.78C4029.07 280.767 4027.99 280.748 4026.91 280.73C4018.28 284.34 4009.67 287.686 4003.54 289.028C3998.51 290.135 3994.7 288.588 3991.45 287.266C3989.21 286.357 3987.23 285.553 3985.28 285.796C3984.23 285.926 3982.8 286.2 3981.08 286.529C3974.05 287.872 3962.11 290.179 3950.96 287.645C3946 286.521 3940.19 284.086 3934.62 281.771C3926.66 278.459 3919.22 275.391 3915.64 276.7C3909.35 278.999 3901.91 277.865 3895.32 276.87C3889.04 275.922 3883.55 275.103 3880.61 277.503C3877.11 280.371 3873.91 279.518 3869.13 278.264C3865.81 277.394 3861.75 276.334 3856.31 276.182C3850.03 276.006 3845.48 274.494 3841.61 273.211C3836.18 271.405 3832.07 270.051 3826.38 273.53C3820.05 277.395 3813.35 280.066 3807.85 279.422C3805.35 279.128 3802.54 279.466 3799.62 279.821C3795.74 280.29 3791.67 280.783 3787.85 279.872C3784.69 279.122 3781.94 276.777 3779.51 274.703C3778.75 274.056 3778.03 273.439 3777.33 272.901C3774.88 273.132 3772.43 273.38 3769.98 273.656C3769.62 274.099 3769.24 274.588 3768.84 275.092C3766.85 277.624 3764.41 280.731 3761.2 282.445C3756.13 285.157 3751.4 284.118 3746.4 283.018C3742.51 282.161 3738.46 281.268 3733.98 282.096C3732.02 282.458 3729.92 283.138 3727.77 283.929C3727.26 283.872 3725.73 284.157 3725.23 284.066C3723.97 284.433 3722.7 284.835 3721.44 285.235C3716.22 286.882 3711.17 288.499 3707.53 287.609C3706.17 287.276 3704.99 285.693 3703.81 284.118C3703.81 284.109 3703.8 284.099 3703.8 284.089C3703.72 283.982 3703.64 283.878 3703.56 283.772C3694.91 285.168 3686.19 286.685 3677.48 288.268C3676.73 288.695 3675.97 289.116 3675.22 289.531C3671.57 291.557 3668.03 293.524 3665.71 296.268C3663.2 299.242 3656.92 301.057 3650.17 302.969C3645.78 304.22 3641.27 305.511 3637.55 307.198C3635.39 308.183 3633.3 306.563 3631.16 304.891C3629.19 303.331 3627.09 301.731 3624.87 302.171C3623.76 302.392 3622.57 303.097 3621.3 303.85C3620.18 304.513 3619.01 305.216 3617.77 305.655C3616.64 306.061 3613.99 305.202 3610.66 304.107C3608.6 303.43 3606.26 302.666 3603.83 302.045C3597.32 303.176 3590.95 304.261 3584.47 305.276C3583.14 306.747 3582.01 308.647 3581.12 311.078C3580.49 312.822 3579.96 314.903 3579.41 317.031C3578.66 319.927 3577.88 322.92 3576.78 325.313C3575.92 327.183 3574.89 327.938 3574.18 327.177C3573.85 326.822 3573.59 326.148 3573.35 325.538C3573.08 324.84 3572.84 324.219 3572.56 324.241C3572.36 324.258 3572.15 324.758 3571.9 325.364C3571.5 326.331 3570.98 327.579 3570.16 327.635C3567.13 327.842 3563.57 327.496 3560.16 327.151C3556.38 326.769 3552.64 326.398 3549.68 326.809C3546.39 327.27 3541.63 325.488 3536.88 323.712C3533.58 322.473 3530.25 321.24 3527.4 320.754C3524.6 320.277 3521.8 321.336 3518.96 322.37C3515.59 323.611 3512.41 324.809 3509.65 323.227C3509.09 322.905 3508.36 320.913 3507.46 318.421C3506.82 316.655 3506.09 314.635 3505.26 312.776C3501.77 312.822 3498.3 312.786 3494.78 312.68C3494.66 312.953 3494.53 313.231 3494.41 313.515C3494.41 313.522 3494.41 313.528 3494.4 313.535C3491.63 319.941 3487.82 328.703 3482.24 323.581C3480.82 322.278 3479.92 319.85 3479.1 317.665C3478.3 315.519 3477.56 313.599 3476.53 313.207C3475.35 312.763 3474 314.106 3472.53 315.566C3470.48 317.616 3468.18 319.907 3465.78 317.836C3465.62 317.695 3465.45 317.539 3465.26 317.384C3463.53 315.911 3461.01 313.732 3458.45 309.313C3450.95 308.229 3443.58 306.942 3436.09 305.534C3423.68 303.187 3411.28 300.498 3398.93 297.844C3392.87 296.537 3387.01 290.591 3382.61 280.976C3378.09 271.349 3375.48 258.912 3375.16 245.989C3374.86 233.068 3376.89 220.525 3381.06 210.708C3385.11 200.905 3390.84 194.72 3396.95 193.183C3406.87 190.704 3416.7 188.245 3426.56 185.976C3427.08 185.7 3427.6 185.432 3428.12 185.181C3431.96 183.31 3435.44 179.619 3439.01 175.923C3439.81 175.074 3440.61 174.224 3441.42 173.397Z" fill="white"/>
<path d="M211.352 303.472C217.671 311.243 215.254 326.189 213.876 334.32C213.853 334.471 213.831 334.622 213.809 334.774C213.484 336.758 213.402 338.513 213.31 340.68C213.089 345.854 212.798 352.717 208.749 367.036C208.867 371.294 208.913 375.381 208.872 379.618C208.556 411.875 205.227 444.046 200.584 475.872C198.743 488.431 196.689 501.086 194.534 513.669C194.548 514.236 194.562 514.832 194.577 515.398C194.867 526.526 195.193 540.547 192.632 549.05C189.371 560.019 186.436 567.294 183.91 573.355C177.678 608.393 171.887 643.358 168.67 678.49C167.662 689.498 166.911 700.519 166.472 711.559C166.069 721.72 165.861 731.896 165.825 742.084C166.938 748.096 168.319 753.779 169.596 759.111C171.392 766.553 172.985 773.21 173.375 778.625C174.314 791.706 171.427 806.27 169.285 817.117C168.935 818.891 168.604 820.56 168.314 822.099C168.819 830.827 169.386 839.531 169.975 848.301C169.437 848.849 168.877 849.398 168.303 849.955C161.14 856.936 160.873 866.112 160.466 880.385C160.286 886.658 160.077 893.931 159.278 902.297C158.757 907.849 155.932 910.469 153.628 912.607C152.95 913.229 152.316 913.834 151.798 914.465C150.026 916.615 151.776 919.051 153.846 921.87C154.455 922.698 155.091 923.559 155.674 924.455L155.692 923.725C157.738 926.89 159.169 930.506 156.757 934.693C146.816 952.237 153.335 960.557 158.263 966.535C159.709 968.297 161.015 969.997 161.736 971.633C164.072 976.906 161.67 984.303 158.415 989.961C155.832 994.295 158.35 1003.46 161.589 1010.25C162.814 1012.88 162.849 1016.29 162.893 1020.41C162.938 1024.64 162.99 1029.5 164.404 1034.77C167.98 1047.96 169.781 1054.91 171.223 1060.52C171.635 1062.13 172.013 1063.65 172.405 1065.1C173.649 1069.81 174.728 1075.6 175.841 1081.51C177.169 1088.53 178.553 1095.83 180.263 1101.45C179.8 1107.01 179.274 1112.71 178.665 1118.54C178.691 1118.68 178.649 1119.1 178.673 1119.24C177.555 1128.92 176.228 1137.12 175.154 1145.23C174.242 1151.93 168.598 1158.59 159.093 1163.89C149.582 1169.19 137.038 1172.57 123.853 1173.08C110.67 1173.54 97.7698 1171.1 87.7381 1165.94C77.718 1160.82 71.4665 1153.33 70.2478 1145.32C68.7728 1135.63 67.5913 1126.01 66.3771 1117.64L66.3841 1118.24C65.5082 1112.6 64.6145 1106.81 63.7769 1100.91C61.1974 1082.83 59.3106 1063.94 59.0984 1045.4C58.9401 1032.42 59.1894 1019.37 59.7523 1006.55C59.8103 1005.23 59.8748 1003.9 59.9393 1002.55C56.6948 991.633 53.7926 980.829 52.7922 973.109C51.9651 966.89 53.7419 962.274 55.2627 958.442C56.3099 955.759 57.2385 953.361 57.1197 951.001C57.0562 949.717 56.8747 947.95 56.6584 945.782C56.0221 939.483 55.0765 930.162 55.8639 920.252C55.9051 920.028 55.8462 919.335 55.8916 919.113C56.2667 915.409 56.9105 911.516 57.9345 907.749C59.5464 901.976 62.5711 895.124 65.46 888.694C69.5911 879.486 73.4528 870.873 72.5357 866.409C70.9287 858.438 72.884 849.606 74.6146 841.88C76.27 834.388 77.7135 827.964 75.6637 824.06C73.2146 819.361 74.431 815.736 76.2426 810.124C77.5005 806.197 79.0299 801.565 79.8328 795.001C80.7578 787.467 82.8106 782.264 84.5588 777.774C87.0148 771.562 88.8661 766.777 86.1043 759.458C83.0374 751.294 81.2159 742.842 82.5475 736.342C83.1546 733.367 83.1718 729.965 83.1893 726.404C83.2123 721.691 83.24 716.716 84.6341 712.283C85.7833 708.622 88.4671 705.693 90.8423 703.1C91.5832 702.292 92.2905 701.519 92.9153 700.766C93.0001 697.802 93.0693 694.834 93.1107 691.863C92.7173 691.359 92.2807 690.827 91.8304 690.272C89.5703 687.484 86.798 684.068 85.5109 679.959C83.4742 673.458 85.1251 667.953 86.8749 662.15C88.2371 657.636 89.6581 652.926 89.4266 647.43C89.2684 643.684 88.3847 639.375 87.5088 635.098C86.2076 628.757 84.9257 622.495 86.0517 618.255C86.4737 616.669 88.1345 615.381 89.7864 614.108C89.7964 614.102 89.8064 614.097 89.8164 614.091C89.9286 614.005 90.0381 613.918 90.1497 613.832C89.3172 603.307 88.3538 592.767 87.309 582.268C86.9283 581.344 86.5534 580.413 86.1851 579.476C84.3845 574.913 82.6326 570.511 80.0259 567.572C77.2003 564.391 75.7678 556.614 74.247 548.494C73.2535 543.109 72.2192 537.709 70.7434 533.115C69.8803 530.453 71.6204 528.078 73.4133 525.647C75.0857 523.392 76.8031 521.034 76.4852 518.342C76.3254 516.996 75.6853 515.522 74.9999 513.956C74.3966 512.578 73.7567 511.125 73.3839 509.627C73.0383 508.247 74.0415 505.133 75.3127 501.247C76.0988 498.823 76.9831 496.181 77.7331 493.229C76.9325 485.454 76.166 477.641 75.452 470.007C75.442 469.996 75.4319 469.984 75.4218 469.972C74.0163 468.285 72.1763 466.804 69.8003 465.592C68.0834 464.716 66.0236 463.946 63.9178 463.157C61.0522 462.084 58.0906 460.978 55.7433 459.544C53.9092 458.417 53.1982 457.193 53.9926 456.381C54.363 456.006 55.0499 455.736 55.671 455.492C56.3824 455.211 57.0152 454.961 57.0058 454.621C56.9978 454.376 56.5059 454.099 55.9106 453.76C54.96 453.218 53.7328 452.515 53.7129 451.533C53.6387 447.889 54.135 443.805 54.6216 439.734C55.1609 435.285 55.681 430.862 55.3824 427.348C55.0464 423.493 57.0108 417.827 58.9543 412.397C60.313 408.458 61.6574 404.688 62.2361 401.322C62.8037 397.992 61.8289 394.637 60.8757 391.247C59.7315 387.173 58.618 383.438 60.2772 380.173C60.614 379.524 62.6288 378.769 65.1491 377.827C66.9353 377.16 68.9775 376.393 70.8613 375.511C70.9021 371.315 71.0174 367.296 71.1974 363.09C70.9261 362.937 70.6501 362.779 70.3682 362.62C70.3617 362.618 70.3552 362.615 70.3487 362.612C63.9862 359.063 55.281 354.19 60.505 347.858C61.8329 346.217 64.2801 345.231 66.4824 344.343C68.6452 343.471 70.5804 342.693 70.9874 341.513C71.4484 340.145 70.1203 338.474 68.6746 336.694C66.6447 334.215 64.3733 331.38 66.471 328.659C66.6142 328.473 66.7714 328.273 66.9287 328.066C68.4209 326.137 70.6242 323.114 75.0693 320.255C76.2016 311.48 77.4976 302.712 78.8789 293.931C81.1828 279.284 83.7179 264.613 86.1665 249.792C87.3753 242.588 93.2274 235.579 102.788 230.328C112.361 225.08 124.785 222.025 137.735 221.864C150.684 221.701 163.292 224.429 173.203 229.459C183.1 234.49 189.405 241.446 191.05 248.789C193.705 260.755 196.317 272.825 198.67 284.96C198.952 285.603 199.224 286.241 199.48 286.869C201.384 291.583 205.101 295.986 208.815 300.424C209.668 301.431 210.522 302.447 211.352 303.472Z" fill="white"/>
<path d="M265.35 175.255C277.679 166.145 305.441 163.686 320.779 163.06C321.06 163.044 321.34 163.028 321.619 163.012C325.221 162.844 328.69 162.472 332.694 162.071C342.261 161.199 355.208 159.692 383.133 162.274C391.113 161.775 399.222 161.502 407.467 161.502C444.278 161.687 482.837 165.569 524.175 180.635C592.342 204.849 633.679 266.189 650.84 316.961C651.343 318.052 651.848 319.16 652.351 320.28C662.242 341.923 670.562 369.004 671.871 386.323C672.265 391.083 672.518 395.506 672.667 399.602C674.581 422.551 670.407 439.13 666.102 451.449C654.211 494.169 629.469 519.598 609.925 540.687C581.978 570.448 549.938 589.967 518.875 606.439C500.82 615.93 482.808 624.325 465.087 632.394C448.776 639.817 432.64 646.894 416.977 653.994C408.314 659.171 400.347 664.347 393.175 669.153C385.413 674.35 378.584 679.116 372.697 682.934C372.311 683.4 372.429 683.654 373.583 683.051C374.588 682.426 376.529 681.525 380.451 676.896C384.011 672.899 391.779 659.792 389.264 643.432C386.561 627.543 379.475 621.265 376.769 618.349C373.649 615.415 372.412 614.878 371.842 614.544C370.812 614.079 372.291 615.075 374.097 615.965C375.97 616.912 378.431 618.007 381.016 619.078C387.69 621.676 394.051 624.236 399.791 626.531C402.638 627.668 405.324 628.739 407.826 629.717C422.312 633.135 436.997 636.496 451.946 640.088C452.778 640.876 453.626 641.691 454.482 642.525C465.158 652.997 480.497 657.387 505.677 666.611C516.694 670.754 529.542 675.728 545.016 684.287C555.035 689.906 558.991 695.698 561.964 700.302C562.865 701.684 563.691 702.987 564.572 704.21C564.852 704.598 565.148 704.964 565.461 705.31C568.121 706.864 573.247 713.295 575.078 715.769C576.18 719.472 579.568 721.919 583.584 725.015C589.249 729.321 596.169 734.842 598.316 745.665C604.829 780 615.197 791.586 623.821 801.096C626.286 803.864 628.492 806.425 630.13 809.238C635.493 818.381 636.976 833.122 636.115 844.168C635.524 852.944 641.181 868.83 646.283 880.731C648.228 885.205 649.216 891.541 650.247 898.843C651.321 906.432 652.453 915.168 654.894 924.256C656.904 931.756 658.535 938.031 659.934 943.551C659.949 943.625 659.958 943.852 659.973 943.926C662.845 956.065 664.445 964.445 665.749 971.638C666.297 974.675 666.777 977.524 667.253 980.345C668.767 989.284 669.908 1000.38 670.848 1011.2C671.98 1024.19 672.934 1036.79 674.386 1046.17C672.443 1070.34 670.478 1093.74 669.114 1117.56C668.39 1129.74 662.941 1141.74 653.578 1150.63C644.211 1159.61 631.757 1165.02 618.568 1165.46C605.381 1165.85 592.381 1161.19 582.208 1152.37C572.049 1143.68 565.622 1131.2 564.222 1118.27C561.396 1092.27 559.263 1065.64 557.932 1039.93C556.343 1008.24 555.182 980.937 552.284 953.164C552.261 952.939 552.239 952.715 552.216 952.489L552.26 952.909C550.002 931.963 547.896 911.481 545.273 891.9C544.996 889.847 544.728 887.864 544.437 885.823C538.415 869.88 531.957 855.392 527.96 845.441C524.682 837.219 524.279 830.773 523.793 825.126C523.455 821.249 523.073 817.788 521.658 814.687C520.894 813.01 519.752 810.776 518.317 808.077C512.856 797.65 502.682 780.76 494.582 762.58L511.264 780.722C510.855 780.252 510.415 779.754 509.946 779.231C506.228 774.99 499.857 768.38 492.421 762.188C481.785 753.279 469.57 745.234 462.551 743.933C450.215 741.638 436.659 735.69 424.353 730.479C412.619 725.508 402.13 721.196 395.38 721.469C387.322 721.801 381.291 718.918 372.272 714.586C367.669 712.376 362.315 709.8 355.48 707.03C352.516 705.876 349.304 704.631 345.647 703.16C337.64 699.836 330.438 696.416 321.29 689.309C316.814 685.53 310.944 681.037 305.063 670.026C298.342 659.315 299.102 637.667 305.178 628.985C312.572 616.647 318.365 614.36 322.732 611.416C327.156 608.856 330.64 607.404 333.938 605.995C339.081 603.97 344.064 601.316 349.504 597.064C360.892 588.174 373.289 580.539 383.979 577.133C388.856 575.58 394.131 573.2 399.561 570.73C406.769 567.453 414.218 564.028 421.542 562.101C427.571 560.517 433.256 560.754 438.299 560.927C439.87 560.983 441.377 561.028 442.809 561.015C447.192 558.924 451.523 556.792 455.798 554.598C456.306 553.885 456.827 553.115 457.37 552.316C460.097 548.301 463.362 543.378 468.232 539.129C475.925 532.403 484.044 529.389 492.482 525.918C499.016 523.224 505.77 520.226 512.007 515.059C516.244 511.548 520.454 506.865 524.215 502.186C529.865 495.213 534.442 488.25 538.828 484.642C539.511 484.083 540.317 483.698 541.198 483.408C542.61 482.805 544.184 482.398 545.718 482.029C545.731 482.028 545.745 482.027 545.759 482.026C545.937 481.982 546.113 481.936 546.291 481.892C555.844 468.423 563.417 455.507 567.182 444.009C567.245 442.893 567.286 441.793 567.296 440.732C567.366 435.526 566.517 431.23 564.273 428.608C562.007 425.694 560.771 421.412 558.372 418.323C558.238 417.936 558.102 417.548 557.966 417.16C555.381 409.756 552.428 402.316 549.245 396.616C547.388 393.285 548.048 389.571 548.641 385.694C549.195 382.086 549.686 378.333 548.073 374.962C547.265 373.276 545.937 371.625 544.503 369.917C543.242 368.411 541.895 366.857 540.746 365.167C539.678 363.597 538.932 359.481 537.719 354.354C536.971 351.186 536.039 347.634 534.792 344.093C529.078 336.034 522.957 329.111 516.732 323.604C514.503 323.284 512.153 323.536 509.693 324.457C507.928 325.118 506.037 326.142 504.142 327.233C501.564 328.719 498.967 330.335 496.655 331.431C494.846 332.286 493.734 332.308 493.767 331.352C493.783 330.906 494.04 330.253 494.268 329.659C494.528 328.979 494.751 328.368 494.548 328.233C494.401 328.137 493.957 328.416 493.424 328.759C492.571 329.307 491.494 330.033 490.948 329.696C488.906 328.432 486.937 326.765 484.823 325.284C482.946 323.964 480.969 322.805 478.988 322.214C478.263 321.99 477.538 321.8 476.823 321.654C472.864 320.838 467.308 317.466 460.784 314.379C456.248 312.217 451.37 310.208 446.945 309.152C442.635 308.115 437.845 308.689 433.236 309.367C427.659 310.175 422.287 311.122 417.667 309.415C416.727 309.068 415.541 307.051 414.017 304.539C412.952 302.758 411.703 300.726 410.252 298.86C404.061 298.86 397.828 298.928 391.589 299.059C391.386 299.339 391.176 299.625 390.967 299.917C390.964 299.924 390.96 299.93 390.957 299.937C386.137 306.536 380.207 315.579 369.831 311.327C367.165 310.251 365.32 307.989 363.604 305.96C361.925 303.968 360.4 302.191 358.467 302.001C356.268 301.787 353.981 303.391 351.459 305.163C347.889 307.653 344.077 310.456 339.422 309.02C339.104 308.922 338.761 308.814 338.405 308.708C335.041 307.698 330.079 306.236 324.567 302.657C310.557 303.847 296.455 305.311 282.265 307.083C258.614 310.04 234.741 313.851 210.96 318.711C199.374 321.059 186.695 319.143 175.164 313.04C163.703 306.897 154.345 297.097 149.393 285.079C144.441 273.073 144.314 259.612 149.231 247.339C154.195 235.061 163.865 225.104 175.876 219.606C195.434 210.672 215.425 202.35 235.901 194.916C236.94 194.372 237.986 193.838 239.031 193.323C246.776 189.5 253.594 184.142 260.502 178.869C262.11 177.653 263.723 176.44 265.35 175.255Z" fill="white"/>
<path d="M4183.69 999.221C4183.41 982.583 4194.9 955.525 4201.65 939.353C4201.97 938.596 4202.29 937.857 4202.59 937.138C4202.71 936.852 4202.82 936.565 4202.94 936.277C4204.52 932.504 4205.75 928.963 4207.24 924.627C4210.73 914.413 4215.43 900.628 4228.18 872.008C4230.66 863.276 4233.16 854.664 4235.76 845.922C4262.84 754.784 4293.63 663.576 4326.64 572.744C4327.63 570.002 4328.62 567.274 4329.61 564.559C4329.94 563.355 4330.27 562.133 4330.6 560.9C4337.04 536.89 4345.06 507.202 4352.75 489.285C4362.53 466.469 4369.86 451.246 4376.01 438.718C4394.78 387.997 4413.39 337.214 4431.53 286.197C4440.8 261.549 4446.3 240.461 4463.92 208.57C4467.71 202.008 4475.48 192.2 4482.34 186.63C4497.82 172.342 4523.21 166.412 4540.07 168.889C4561.65 171.791 4571.87 179.477 4581.31 185.124C4585.76 188.007 4589.05 190.908 4591.7 193.493C4615.75 220.817 4619.65 236.075 4630.25 255.158C4631.59 257.815 4632.87 260.437 4634.11 263.05C4641.3 275.522 4647.64 286.923 4653.41 297.516C4661.48 312.375 4668.29 325.524 4672.99 336.729C4676.36 344.746 4679.47 353.198 4682.35 361.745C4689.24 382.179 4694.56 402.985 4698.75 419.67C4699.72 423.562 4700.63 427.205 4701.49 430.599C4708.24 448.677 4714.96 466.881 4721.6 484.565C4721.54 485.543 4721.46 486.507 4721.36 487.459C4721.32 487.859 4721.28 488.261 4721.24 488.663C4719.34 505.391 4726.22 523.613 4737.19 553.844C4741.91 566.906 4747.36 582.248 4753 600.326C4754.41 604.857 4755.16 608.582 4755.58 611.937C4756.23 617.191 4755.91 621.174 4755.61 624.647C4755.47 626.294 4755.33 627.853 4755.32 629.403C4755.24 634.613 4758.61 639.011 4762.52 644.117C4767.62 650.775 4773.72 658.819 4774.58 671.772C4777.28 713.03 4788.52 727.753 4797.14 738.993C4799.65 742.285 4801.93 745.274 4803.67 748.52C4809.31 759.051 4811.83 775.818 4812.31 788.928C4812.56 795.633 4816.01 805.72 4820.37 815.682C4822.79 821.237 4825.47 826.726 4828.06 831.612C4830.83 836.857 4832.99 844.369 4835.5 853.294C4838.09 862.52 4841.04 873.197 4845.42 884.282C4855.49 909.841 4860.88 924.511 4865.09 935.139L4864.68 933.696C4865.14 934.789 4865.58 935.855 4866.01 936.901C4867.43 940.311 4868.73 943.499 4870.05 946.689C4874.19 956.76 4878.81 969.508 4883.32 982.541C4888.72 998.134 4893.94 1014.14 4898.41 1026.22C4899.73 1033.32 4900.98 1040.41 4902.17 1047.53C4902.23 1047.73 4902.33 1048.33 4902.38 1048.53C4902.2 1047.87 4902.18 1048.04 4902.2 1048.3C4902.22 1048.54 4902.32 1049.11 4902.4 1049.57C4902.48 1050.06 4902.6 1050.64 4902.73 1051.3C4902.85 1051.87 4902.98 1052.49 4903.12 1053.16C4903.68 1055.78 4904.33 1058.6 4905.01 1061.51C4906.36 1067.26 4907.8 1073.21 4909.26 1079.17C4912.17 1091.06 4915.19 1103.17 4918.2 1115.29C4922.16 1131.2 4921.33 1148.17 4915.53 1162.58C4909.67 1176.7 4899.65 1188.62 4886.6 1191.94C4873.61 1193.36 4860.23 1192.86 4847.53 1184.81C4834.93 1177.09 4824.59 1164.16 4818.63 1148.92C4809.39 1124.38 4801.07 1106.49 4791.12 1073.59L4791.31 1074.44C4789.19 1067.02 4787.04 1059.62 4784.84 1052.23C4776.46 1024 4767.5 996.003 4758.48 967.586C4758.42 967.279 4758.11 966.386 4758.06 966.077C4755.29 956.335 4752.85 947.107 4750.45 937.915C4743.49 911.034 4736.6 884.502 4729.53 857.779C4728.8 855.01 4728.08 852.274 4727.35 849.523C4726.7 848.08 4726.05 846.62 4725.4 845.146C4716.49 825.177 4707.91 805.466 4702.59 791.096C4697.88 778.346 4696.68 768.343 4695.64 759.773C4694.93 753.877 4694.29 748.661 4692.63 743.712C4691.74 741.062 4690.43 737.456 4688.85 733.122C4682.38 715.417 4671.35 685.422 4665.36 657.15C4664.55 653.304 4663.77 649.176 4663.06 645.043C4661.35 635.422 4659.82 625.082 4658.32 615.158C4655.21 594.564 4652.07 575.426 4647.76 566.696C4640.87 552.776 4635.63 535.056 4631.6 518.189C4631.25 516.698 4630.88 515.145 4630.54 513.673C4626.73 497.312 4623.51 483.236 4618.91 476.144C4613.43 467.677 4611.89 459.417 4609.56 447.166C4607.93 438.673 4605.92 428.256 4601.87 414.631C4599.5 406.64 4597.78 399.752 4596.43 393.632C4595.09 387.642 4594.11 382.365 4593.2 377.515C4590.58 363.66 4588.55 353.21 4580.23 339.933C4570.99 325.21 4562.41 309.801 4557.97 297.72C4557.37 296.089 4556.68 294.408 4555.94 292.779C4553.96 288.422 4551.61 283.872 4549.2 279.364C4544.68 270.884 4539.71 262.159 4537.01 256.029C4535.41 251.966 4534.72 249.505 4538.94 250.256C4538.43 249.406 4537.96 248.59 4537.51 247.816C4536.77 246.533 4536.1 245.369 4535.46 244.359C4532.57 242.786 4530.28 242.395 4531.43 242.667C4531.12 242.647 4530.87 242.643 4530.67 242.648C4530.44 243.053 4530.28 243.515 4530.21 243.99C4530.05 245.146 4530.56 246.436 4531.74 247.255C4532.88 248.105 4534.62 248.332 4535.7 248.338C4535.65 248.431 4535.62 248.514 4535.6 248.586C4538.8 247.308 4531.86 256.358 4526.6 266.648C4522.26 274.771 4517.81 283.997 4514.61 295.348C4513.33 299.858 4512.27 304.592 4511.2 309.755C4510.43 313.562 4509.66 317.545 4508.88 321.539C4506.26 335.212 4503.67 348.789 4499.96 357.653C4498.56 361.023 4496.15 363.449 4493.73 365.956C4493.72 365.966 4493.7 365.976 4493.69 365.987C4493.53 366.156 4493.36 366.328 4493.2 366.498C4487.57 389.123 4482.12 411.768 4476.76 434.431C4476.56 436.502 4476.37 438.541 4476.17 440.579C4475.18 450.615 4474.26 460.247 4475.03 467.017C4475.88 474.276 4472.61 491.079 4469.18 508.779C4466.95 520.339 4464.61 532.402 4463.34 542.299C4462.58 548.175 4459.45 552.917 4456.19 557.933C4453.18 562.52 4450.05 567.363 4448.76 573.111C4448.11 575.999 4447.84 579.319 4447.58 582.764C4447.34 585.815 4447.09 589.057 4446.53 592.39C4446.13 594.815 4444.31 599.241 4441.77 605.07C4441.1 606.619 4440.37 608.268 4439.6 610.002C4437.38 615.054 4434.86 620.769 4432.39 626.855C4428.53 643.641 4424.65 660.442 4420.72 677.239C4421.1 681.081 4422.03 684.57 4423.66 687.58C4424.82 689.739 4426.39 691.736 4427.99 693.784C4430.16 696.572 4432.41 699.453 4433.84 702.968C4434.97 705.714 4434.9 708.574 4433.65 710.16C4433.06 710.899 4432.23 711.361 4431.47 711.78C4430.6 712.261 4429.83 712.691 4429.64 713.421C4429.5 713.948 4429.82 714.623 4430.2 715.451C4430.81 716.773 4431.6 718.489 4431.03 720.617C4428.9 728.534 4425.93 737.381 4423.01 746.063C4419.77 755.707 4416.6 765.148 4414.75 772.858C4412.67 781.491 4407.38 793.17 4402.07 804.868C4398.37 813.024 4394.67 821.207 4392.03 828.384C4389.45 835.408 4388.23 843.173 4387.07 850.636C4385.65 859.669 4384.29 868.337 4380.65 874.987C4379.9 876.347 4377.46 877.604 4374.4 879.165C4372.23 880.276 4369.76 881.524 4367.35 883.105C4364.64 892.209 4361.88 901.148 4358.97 910.234C4359.14 910.628 4359.3 911.033 4359.47 911.439C4359.47 911.446 4359.48 911.453 4359.48 911.46C4363.32 920.623 4368.52 933.301 4359.08 946.275C4356.71 949.482 4353.63 951.236 4350.9 952.661C4348.2 954.096 4345.81 955.298 4344.56 957.92C4343.15 960.874 4343.3 964.731 4343.38 969.163C4343.51 973.746 4343.57 978.967 4341.85 983.502C4341.31 984.945 4340.58 986.344 4339.61 987.671C4339.34 988.049 4339.04 988.455 4338.73 988.879C4335.83 992.924 4331.53 998.833 4325.1 1003.98C4317.39 1022.96 4309.32 1041.68 4301 1060.24C4287.15 1091.19 4272.65 1121.68 4257.92 1152.04C4250.74 1166.82 4239.42 1179.3 4226.24 1186.54C4212.98 1193.92 4199.12 1195.33 4187.1 1190.91C4175.04 1186.51 4165.87 1175.93 4161.02 1161.87C4156.16 1147.88 4156.11 1131.41 4160.55 1115.92C4167.79 1090.73 4174.87 1065.49 4181.86 1040.35C4182.08 1038.98 4182.31 1037.59 4182.55 1036.24C4184.34 1026.12 4184.12 1016.11 4183.86 1006.1C4183.79 1003.81 4183.73 1001.52 4183.69 999.221Z" fill="white"/>
<path d="M4380.71 703.087C4382.31 700.405 4384.53 699.297 4386.91 699.016C4390.04 698.639 4393.35 699.764 4395.56 700.533C4395.63 700.555 4395.7 700.577 4395.77 700.599C4396.72 700.915 4397.54 700.99 4398.56 701.071C4400.98 701.263 4404.23 701.525 4410.89 705.418C4412.81 705.254 4414.79 705.157 4416.71 705.141C4437.62 704.963 4458.12 709.986 4478.62 715.896C4478.88 715.86 4479.14 715.824 4479.41 715.787C4484.56 715.08 4490.93 714.191 4494.92 716.389C4499.99 719.184 4503.45 721.79 4506.28 724.041C4512.31 725.768 4518.34 727.406 4524.37 728.847C4534.59 731.29 4544.85 733.161 4555.12 733.958C4560.23 734.355 4565.36 734.48 4570.48 734.281C4575.19 734.098 4579.9 733.71 4584.62 733.142C4587.32 731.678 4589.91 729.962 4592.3 728.371C4595.65 726.136 4598.63 724.148 4601.13 723.43C4607.13 721.702 4614.04 723.684 4619.19 725.152C4620.03 725.393 4620.83 725.619 4621.57 725.813C4625.59 724.776 4629.63 723.675 4633.68 722.555C4633.96 723.057 4634.25 723.581 4634.54 724.119C4638.22 730.825 4642.48 730.531 4649.25 730.087C4651.65 729.93 4654.39 729.756 4657.51 729.872C4657.83 729.74 4658.91 729.95 4659.24 729.832C4659.94 729.887 4660.66 729.958 4661.39 730.048C4663.95 730.362 4665.22 733.086 4666.27 735.309C4666.58 735.963 4666.87 736.574 4667.16 737.068C4668.16 738.76 4669.27 736.925 4670.6 734.758C4672.32 731.947 4674.35 728.57 4676.96 731.606C4685.22 741.278 4689.03 734.678 4691.9 729.687C4692.74 728.222 4693.5 726.899 4694.28 726.162C4696.79 723.775 4700.28 726.111 4702.89 729.327C4704.98 731.878 4709.21 729.313 4712.46 726.059C4713.68 724.829 4715.31 724.787 4717.24 724.743C4719.21 724.698 4721.53 724.653 4724.01 723.261C4730.27 719.743 4733.53 718.028 4736.21 716.655C4736.96 716.264 4737.66 715.907 4738.37 715.534C4740.58 714.359 4743.32 713.377 4746.09 712.382C4749.4 711.191 4752.73 709.974 4755.21 708.376C4760.56 709.633 4766.07 711.134 4770.49 712.609L4769.29 712.677C4769.85 712.983 4770.6 713.27 4771.43 713.54C4773.96 714.366 4777.56 719.904 4780.83 729.33C4784.12 738.761 4786.77 751.245 4788.05 764.358C4789.32 777.47 4789.22 790.281 4787.65 800.277C4786.06 810.263 4783.08 816.571 4778.84 818.012C4777.43 818.486 4775.95 818.954 4774.31 819.408C4774.11 819.352 4773.49 819.524 4773.3 819.464C4766.51 821.502 4760.56 823.31 4754.48 824.823C4745.7 827.019 4737.04 828.521 4728.42 828.604C4722.4 828.661 4716.39 828.393 4710.39 827.867C4709.77 827.813 4709.15 827.753 4708.54 827.693C4703.45 830.976 4698.4 833.96 4694.84 835.031C4691.9 835.916 4689.81 834.19 4688 832.715C4686.74 831.699 4685.67 830.8 4684.54 830.948C4683.94 831.028 4683.1 831.232 4682.11 831.477C4678.05 832.477 4671.13 834.171 4664.91 831.017C4662.65 829.883 4660.17 827.854 4657.65 825.72L4659.87 825.668C4659.29 825.191 4658.71 824.709 4658.12 824.232C4653.69 820.641 4649.54 817.307 4647.49 818.488C4643.91 820.562 4639.73 819.149 4635.99 817.899C4632.43 816.708 4629.33 815.666 4627.63 817.946C4625.61 820.672 4623.77 819.687 4621.09 818.226C4619.2 817.214 4616.91 815.978 4613.81 815.581C4610.23 815.122 4607.67 813.396 4605.49 811.929C4602.42 809.863 4600.12 808.309 4596.81 811.503C4593.14 815.051 4589.24 817.374 4586.13 816.433C4584.71 816.005 4583.1 816.191 4581.43 816.383C4579.19 816.639 4576.88 816.902 4574.7 815.772C4572.93 814.841 4571.42 812.336 4570.09 810.119C4569.67 809.428 4569.27 808.768 4568.89 808.188C4567.5 808.274 4566.1 808.375 4564.69 808.503C4564.47 808.924 4564.24 809.389 4564 809.869C4562.8 812.279 4561.31 815.235 4559.42 816.748C4556.45 819.143 4553.77 817.802 4550.96 816.376C4548.76 815.265 4546.49 814.104 4543.9 814.628C4542.14 814.986 4540.12 816.095 4538.14 817.191C4535.18 818.82 4532.26 820.419 4530.21 819.51C4529.44 819.17 4528.77 817.578 4528.11 815.995C4528.11 815.985 4528.1 815.975 4528.1 815.966C4528.06 815.858 4528.01 815.753 4527.97 815.646C4526.95 815.926 4525.92 816.211 4524.9 816.499C4520.96 817.611 4517.02 818.788 4513.08 820.003C4512.66 820.426 4512.22 820.843 4511.79 821.253C4509.69 823.26 4507.64 825.207 4506.31 827.94C4504.87 830.902 4501.23 832.677 4497.39 834.542C4494.88 835.763 4492.27 837.022 4490.15 838.682C4488.92 839.652 4487.74 838.012 4486.54 836.32C4485.42 834.741 4484.28 833.121 4483.01 833.543C4482.38 833.755 4481.69 834.451 4480.96 835.196C4480.31 835.851 4479.64 836.546 4478.92 836.975C4478.25 837.372 4476.79 836.489 4474.92 835.363C4473.76 834.667 4472.44 833.882 4471.06 833.238C4467.39 834.315 4463.71 835.346 4460.05 836.304C4459.27 837.766 4458.59 839.66 4458.04 842.088C4457.65 843.83 4457.31 845.911 4456.97 848.038C4456.49 850.933 4456 853.924 4455.34 856.312C4454.82 858.178 4454.22 858.925 4453.83 858.156C4453.65 857.798 4453.52 857.12 4453.4 856.507C4453.26 855.805 4453.13 855.18 4452.97 855.2C4452.85 855.215 4452.73 855.714 4452.58 856.319C4452.33 857.284 4452.01 858.531 4451.55 858.579C4449.81 858.76 4447.83 858.38 4445.91 858.004C4443.74 857.586 4441.68 857.18 4439.99 857.565C4438.12 857.997 4435.46 856.169 4432.83 854.346C4430.96 853.074 4429.16 851.809 4427.55 851.296C4425.99 850.794 4424.36 851.83 4422.77 852.842C4420.89 854.055 4419.04 855.228 4417.54 853.619C4417.23 853.292 4416.88 851.29 4416.41 848.785C4416.08 847.01 4415.71 844.98 4415.28 843.11C4413.34 843.127 4411.35 843.062 4409.44 842.928C4409.37 843.201 4409.29 843.478 4409.22 843.762C4409.22 843.768 4409.22 843.775 4409.22 843.781C4407.53 850.178 4405.28 858.928 4402.3 853.754C4401.53 852.439 4401.06 850 4400.64 847.804C4400.22 845.648 4399.85 843.719 4399.3 843.319C4398.68 842.866 4397.89 844.203 4397.06 845.656C4395.92 847.697 4394.6 849.978 4393.35 847.889C4393.26 847.746 4393.17 847.59 4393.07 847.433C4392.17 845.947 4390.78 843.751 4389.45 839.311C4388.58 839.071 4387.72 838.822 4386.89 838.565C4383.74 837.623 4380.62 836.576 4377.55 835.468C4371.06 833.12 4364.55 830.489 4359.23 828.047C4356.62 826.847 4354.46 821.007 4351.4 811.681C4348.32 802.346 4344.62 790.357 4342.55 777.612C4340.48 764.876 4339.41 752.358 4341.32 742.188C4343.23 732.023 4347.87 725.328 4352.23 723.538C4359.39 720.631 4365.55 718.072 4371.65 715.731C4371.96 715.451 4372.27 715.18 4372.59 714.925C4374.94 713.031 4377.07 709.325 4379.22 705.619C4379.71 704.768 4380.2 703.916 4380.71 703.087Z" fill="white"/>
<path d="M2472.12 462.455C2478.34 467.832 2475.95 478.557 2474.66 484.377C2474.64 484.485 2474.62 484.594 2474.6 484.703C2474.29 486.112 2474.23 487.455 2474.17 489.048C2474.01 492.816 2473.8 497.862 2470.08 508.556C2470.28 511.623 2470.43 514.872 2470.49 517.93C2471.21 551.703 2466.68 586.052 2460.48 620.52C2460.51 620.958 2460.54 621.404 2460.58 621.856C2461.21 630.399 2461.93 641.255 2459.59 647.917C2456.62 656.505 2453.86 662.231 2451.47 666.975C2445.99 694.268 2440.55 721.493 2437.08 748.714C2435.99 757.222 2435.09 765.831 2434.44 774.383C2433.84 782.299 2433.38 790.202 2433.03 798.155C2433.95 802.899 2435.12 807.424 2436.19 811.647C2437.69 817.576 2438.98 822.913 2439.11 827.192C2439.27 832.259 2438.46 837.57 2437.25 842.648L2437.41 841.172C2436.34 846.175 2434.89 850.919 2433.66 854.984C2433.27 856.286 2432.9 857.501 2432.57 858.646C2432.86 865.18 2433.24 871.679 2433.67 878.209C2433.12 878.601 2432.55 878.994 2431.97 879.393C2424.71 884.355 2424.28 891.202 2423.69 901.902C2423.43 906.562 2423.14 911.964 2422.25 918.314C2421.69 922.391 2418.85 924.343 2416.53 925.946C2415.85 926.417 2415.21 926.858 2414.69 927.311C2412.9 928.862 2414.63 930.705 2416.67 932.896C2419.32 935.726 2422.5 939.095 2419.25 943.169C2408.88 956.142 2415.18 962.509 2419.94 967.176C2421.34 968.57 2422.6 969.832 2423.28 971.087C2425.48 975.124 2422.9 980.687 2419.5 984.867C2416.82 988.118 2419.09 995.09 2422.13 1000.33C2423.28 1002.34 2423.21 1004.97 2423.14 1008.08C2423.06 1011.31 2422.96 1015.06 2424.2 1019.06C2427.33 1029.3 2428.84 1034.67 2430.05 1039.1C2430.39 1040.34 2430.7 1041.49 2431.03 1042.68C2432.06 1046.34 2432.87 1050.95 2433.67 1055.59C2433.95 1057.22 2434.22 1058.87 2434.51 1060.43C2435.22 1064.46 2435.99 1068.16 2436.96 1071.37C2434.87 1082.63 2432.36 1093.89 2429.4 1106.18C2427.87 1112.45 2421.24 1118.94 2410.84 1122.55C2400.44 1126.14 2387.54 1125.79 2374.56 1123.58C2361.57 1121.37 2349.52 1116.64 2340.34 1112.12C2331.16 1107.61 2325.7 1103.08 2325.04 1098.04C2323.72 1087.9 2322.12 1076.78 2320.88 1065.74C2320.54 1062.67 2320.22 1059.65 2319.94 1056.52C2318.97 1046.07 2318.45 1035.27 2318.79 1024.59C2319.09 1014.88 2319.73 1005.11 2320.65 995.377C2320.74 994.378 2320.84 993.374 2320.94 992.364C2318 984.03 2315.38 975.698 2314.58 969.817C2313.92 965.029 2315.8 961.563 2317.42 958.657C2318.53 956.639 2319.52 954.848 2319.46 953.012C2319.43 952.021 2319.3 950.659 2319.14 949.004C2318.48 942.313 2317.4 930.871 2321.16 920.711C2322.83 916.177 2325.91 911.029 2328.87 906.129C2333.11 899.078 2337.08 892.579 2336.24 889.103C2334.76 882.95 2336.87 876.205 2338.76 870.246C2340.57 864.558 2342.16 859.576 2340.21 856.534C2337.88 852.884 2339.2 850.007 2341.16 845.796C2342.52 842.854 2344.18 839.276 2345.19 834.272C2345.3 833.697 2345.43 833.14 2345.56 832.599C2345.64 832.369 2345.61 831.629 2345.69 831.402C2347.03 826.803 2349.05 823.522 2350.79 820.68C2353.51 816.243 2355.54 812.863 2353.06 807.264C2350.31 801.048 2348.75 794.767 2350.25 790.025C2350.93 787.87 2351.04 785.344 2351.14 782.719C2351.27 779.247 2351.4 775.589 2352.87 772.341C2354.09 769.667 2356.81 767.587 2359.21 765.736C2359.96 765.159 2360.68 764.604 2361.31 764.062C2361.44 761.862 2361.55 759.664 2361.62 757.443C2361.24 757.057 2360.81 756.65 2360.37 756.226C2358.14 754.098 2355.42 751.495 2354.16 748.429C2352.18 743.585 2353.85 739.54 2355.61 735.237C2356.98 731.895 2358.39 728.412 2358.15 724.34C2357.98 721.536 2357.09 718.315 2356.19 715.139C2354.86 710.418 2353.52 705.812 2354.6 702.626C2355.01 701.439 2356.65 700.467 2358.28 699.502C2358.29 699.498 2358.3 699.494 2358.31 699.49C2358.42 699.425 2358.53 699.359 2358.64 699.293C2357.69 691.483 2356.57 683.605 2355.34 675.808C2354.94 675.126 2354.55 674.438 2354.16 673.757C2352.28 670.432 2350.44 667.136 2347.78 665.003C2344.9 662.657 2343.3 657.051 2341.58 650.97C2340.45 647.015 2339.28 642.958 2337.68 639.663C2336.75 637.747 2338.41 635.878 2340.13 633.995C2341.73 632.233 2343.38 630.423 2342.98 628.442C2342.78 627.45 2342.1 626.379 2341.37 625.24C2340.73 624.235 2340.04 623.185 2339.63 622.069C2339.24 621.021 2340.14 618.691 2341.29 615.72C2342 613.883 2342.79 611.802 2343.44 609.627C2342.4 603.911 2341.37 597.994 2340.4 592.296C2338.94 591.12 2337.05 590.075 2334.62 589.259C2332.88 588.674 2330.81 588.184 2328.68 587.681C2325.79 586.997 2322.8 586.292 2320.41 585.307C2318.55 584.538 2317.8 583.618 2318.56 582.987C2318.92 582.694 2319.59 582.464 2320.21 582.255C2320.9 582.016 2321.53 581.802 2321.51 581.55C2321.49 581.369 2320.99 581.186 2320.39 580.961C2319.42 580.601 2318.17 580.134 2318.12 579.404C2317.92 576.712 2318.28 573.54 2318.63 570.461C2319.02 567.038 2319.39 563.73 2318.97 561.115C2318.51 558.098 2320.28 553.792 2322.05 549.539C2323.28 546.619 2324.5 543.502 2324.97 540.936C2325.43 538.406 2324.36 535.824 2323.32 533.348C2322.06 530.301 2320.84 527.341 2322.41 524.824C2322.73 524.313 2324.71 523.647 2327.2 522.814C2328.96 522.224 2330.98 521.546 2332.84 520.785C2332.77 517.658 2332.78 514.326 2332.87 511.159C2332.6 511.053 2332.32 510.943 2332.03 510.833C2332.03 510.831 2332.02 510.829 2332.01 510.828C2325.59 508.371 2316.81 504.92 2321.91 499.694C2323.2 498.375 2325.63 497.52 2327.81 496.752C2329.95 495.998 2331.87 495.326 2332.26 494.393C2332.7 493.364 2331.35 492.033 2329.88 490.667C2327.83 488.73 2325.53 486.582 2327.6 484.385C2327.74 484.235 2327.9 484.073 2328.05 483.906C2329.52 482.353 2331.7 479.896 2336.12 477.46C2337.22 470.52 2338.54 463.423 2340.06 456.269C2342.61 444.343 2345.58 432.351 2349.36 418.96C2351.23 412.495 2358.01 406.114 2368.6 402.194C2379.17 398.399 2392.18 399.057 2404.43 403.138C2416.73 407.125 2428.48 411.348 2437.76 414.698C2446.99 418.251 2452.67 421.853 2453.79 426.168C2455.61 433.196 2457.72 441.313 2459.77 449.728C2460.04 450.151 2460.29 450.577 2460.53 451.005C2462.33 454.152 2465.97 457.418 2469.62 460.374C2470.46 461.061 2471.31 461.754 2472.12 462.455Z" fill="white"/>
<path d="M2458.38 119.349C2464.84 119.14 2463.47 122.801 2462.73 124.697C2462.72 124.731 2462.71 124.765 2462.7 124.799C2462.53 125.25 2462.57 125.588 2462.63 125.971C2462.76 126.876 2462.91 128.056 2460.2 131.519C2460.57 131.958 2460.88 132.371 2461.09 132.765C2462.85 135.912 2460.38 136.313 2457 138.564C2455.59 139.403 2454.97 141.09 2455.08 143.098C2455.13 143.087 2455.19 143.075 2455.24 143.064C2456.29 142.85 2457.91 142.614 2458.36 145.114C2458.93 148.301 2459.57 151.206 2460.15 153.695C2465.21 159.983 2474.09 165.088 2480.22 166.194C2481.46 166.463 2482.52 166.525 2482.63 166.623C2482.63 166.681 2482.44 166.754 2481.95 166.933C2480.94 167.523 2474.29 168.832 2467.62 179.529C2463.07 184.953 2460.68 191.362 2459.35 195.129C2457.5 200.619 2456.54 202.742 2456.16 203.72C2455.72 205.113 2455.96 204.168 2456.06 202.347C2456.14 201.217 2456.45 200.216 2456.78 199.457C2456.92 199.137 2457.06 198.861 2457.19 198.632C2456.16 198.489 2455.21 199.188 2456.84 202.199C2457.36 201.993 2457.91 201.775 2458.46 201.546C2462 200.107 2464.38 200.103 2468.54 201.412C2472.41 202.595 2480.5 205.541 2489.8 203.852C2497.76 202.461 2502.71 198.615 2504.03 196.686C2504.25 196.378 2504.3 196.034 2504.22 195.67C2503.96 194.506 2502.48 193.166 2501.18 192.087C2500.67 191.673 2500.19 191.304 2499.78 191.023C2498.38 190.06 2499.66 191.403 2501.24 192.899C2503.26 194.887 2505.82 197.104 2502.69 196.372C2492.44 194.598 2496.88 200.411 2500.67 203.918C2501.76 204.997 2502.74 205.972 2503.2 206.7C2504.7 209.018 2501.67 209.909 2498.03 210.114C2495.14 210.26 2496.3 213.871 2498.42 217.086C2499.21 218.319 2498.81 219.308 2498.33 220.52C2497.83 221.763 2497.24 223.233 2497.87 225.306C2499.43 230.578 2500.13 233.341 2500.68 235.569C2500.84 236.2 2500.99 236.788 2501.14 237.382C2501.63 239.269 2501.8 241.417 2501.96 243.616C2502.16 246.247 2502.37 248.935 2503.15 251.225C2499.89 255.137 2496.26 259.005 2492.63 262.932C2490.75 264.947 2484.35 265.171 2474.59 263.455C2464.83 261.733 2452.56 258.233 2440.23 253.607C2427.89 248.981 2416.35 243.558 2407.86 238.424C2399.38 233.291 2394.72 228.882 2394.65 226.068C2394.55 220.413 2394.47 214.708 2394.84 209.086C2395.3 202.229 2396.43 195.513 2399.02 189.135C2400.83 184.684 2403.01 180.28 2405.56 175.866C2405.82 175.412 2406.09 174.962 2406.36 174.513C2405.11 169.29 2404.35 163.932 2404.87 160.45C2405.28 157.598 2407.79 156.484 2409.95 155.517C2411.44 154.863 2412.75 154.302 2413.19 153.19C2413.42 152.591 2413.64 151.77 2413.96 150.691C2415.31 146.372 2417.51 138.63 2427.44 131.383C2429.2 130.132 2431.47 128.721 2434.08 127.339C2438.07 125.186 2442.89 123.013 2448.68 121.003C2462.19 115.323 2484.36 115.651 2493.22 117.083C2510.84 118.353 2520.65 129.246 2524.62 135.3C2528.74 141.529 2530.02 145.711 2533.29 146.549C2537.13 147.54 2537.52 150.212 2537.69 153.709C2537.79 155.799 2537.81 158.185 2538.37 160.708C2538.46 161.114 2538.57 161.534 2538.7 161.968C2539.8 165.6 2539.41 169.296 2538.99 172.572C2538.39 177.396 2537.9 180.543 2541.99 187.114C2546.77 194.061 2547.55 210.435 2540.03 220.442C2536.93 224.866 2533.24 229.501 2529.37 233.074C2524.26 237.823 2519.14 240.808 2514.7 241.51C2510.97 242.101 2507.84 240.455 2505.32 238.889C2504.52 238.401 2503.79 237.919 2503.14 237.49C2502.41 237.716 2501.68 237.932 2500.94 238.138C2499.93 238.428 2498.89 238.706 2497.9 238.964C2497.73 239.423 2497.54 239.927 2497.34 240.447C2496.34 243.061 2495.02 246.246 2493 247.996C2489.79 250.763 2486.69 249.618 2483.65 248.302C2481.29 247.274 2478.95 246.139 2476.4 246.618C2474.62 246.946 2472.64 247.985 2470.64 248.972C2467.65 250.441 2464.62 251.784 2462.68 250.675C2461.95 250.259 2461.42 248.605 2460.94 246.96C2460.94 246.95 2460.94 246.94 2460.93 246.93C2460.9 246.818 2460.87 246.709 2460.83 246.598C2455.95 247.401 2450.98 248.111 2445.86 248.638C2445.36 248.969 2444.86 249.291 2444.36 249.604C2441.91 251.14 2439.46 252.564 2437.49 254.891C2435.35 257.416 2431.11 258.18 2426.43 258.693C2423.36 259.035 2420.12 259.27 2417.17 259.965C2415.45 260.372 2414.65 258.319 2413.9 256.207C2413.19 254.234 2412.51 252.212 2410.95 252.002C2410.17 251.896 2409.14 252.205 2408.01 252.515C2407.03 252.789 2405.97 253.066 2404.97 253.072C2404.05 253.077 2402.71 251.466 2401.06 249.349C2400.04 248.042 2398.88 246.534 2397.62 245.082C2392.93 243.661 2388.12 241.819 2383.26 239.405C2383.08 239.456 2382.91 239.511 2382.73 239.57C2381.13 240.109 2379.39 240.983 2377.5 242.276C2375.99 243.305 2374.33 244.638 2372.61 245.982C2370.27 247.811 2367.82 249.669 2365.48 250.83C2363.66 251.739 2362.41 251.657 2362.4 250.637C2362.4 250.162 2362.66 249.493 2362.89 248.889C2363.17 248.197 2363.41 247.584 2363.2 247.425C2363.05 247.311 2362.57 247.558 2361.99 247.849C2361.06 248.315 2359.85 248.903 2359.24 248.412C2356.96 246.586 2354.84 244.025 2352.92 241.501C2350.78 238.691 2348.87 235.936 2346.88 234.19C2344.63 232.226 2343.45 227.835 2342.62 223.614C2342.02 220.66 2341.58 217.78 2340.79 215.664C2340.02 213.592 2337.99 212.299 2336.03 211.017C2333.69 209.477 2331.48 207.958 2331.92 205.421C2332.01 204.91 2333.52 203.502 2335.42 201.771C2336.77 200.544 2338.33 199.151 2339.72 197.793C2338.62 195.73 2337.65 193.644 2336.81 191.573C2336.53 191.621 2336.24 191.669 2335.96 191.719C2335.95 191.721 2335.94 191.722 2335.94 191.724C2329.42 192.888 2320.33 194.055 2323.66 188.689C2324.51 187.338 2326.53 185.865 2328.36 184.553C2330.15 183.263 2331.77 182.127 2331.91 181.411C2332.07 180.599 2330.53 180.362 2328.87 180.083C2326.53 179.696 2323.91 179.226 2325.37 177.185C2325.47 177.046 2325.59 176.895 2325.7 176.741C2326.74 175.284 2328.3 173.15 2332 170.32C2331.71 166.094 2331.78 161.969 2332.07 157.957C2332.57 151.268 2333.71 144.893 2334.99 138.808C2335.62 135.839 2340.79 131.8 2349.66 127.456C2358.54 123.108 2370.32 118.801 2382.77 115.337C2395.22 111.874 2407.53 109.508 2417.37 108.599C2427.2 107.695 2433.67 108.314 2435.67 110.182C2438.93 113.242 2442.15 116.075 2445.16 118.636C2445.47 118.723 2445.77 118.812 2446.06 118.904C2448.17 119.593 2451.99 119.569 2455.79 119.444C2456.66 119.415 2457.53 119.381 2458.38 119.349Z" fill="white"/>
<path d="M1685.41 336.568C1694.87 351.4 1699.07 383.222 1701.39 400.64C1701.44 400.956 1701.48 401.271 1701.52 401.587C1702.03 405.375 1702.7 408.988 1703.52 413.188C1703.58 413.516 1703.64 413.847 1703.71 414.183C1705.78 424.859 1708.63 439.611 1711.35 470.708C1713.43 479.564 1715.4 488.238 1717.35 497.146C1738.22 592.224 1754.75 688.204 1772.47 783.498C1772.8 784.678 1773.14 785.876 1773.48 787.084C1780.06 810.442 1788.46 839.231 1791.23 857.898C1794.73 881.626 1796.67 897.974 1798.18 911.269C1804.5 939.331 1811.38 967.321 1819.34 993.495C1825.83 1014.81 1834.03 1036.79 1841.55 1048.74C1843.09 1051.38 1844.83 1052.94 1842.85 1051.72C1841.84 1051.19 1839.44 1049.84 1835.36 1049.08C1831.3 1048.25 1825.9 1048.72 1822.55 1049.95C1815.64 1052.66 1816.48 1054.06 1817.77 1052.54C1819.27 1051.12 1821.59 1048.17 1823.97 1044.44C1833.66 1029.23 1842.77 1006.98 1850.51 985.408C1853.64 976.64 1856.59 967.87 1859.54 958.74C1863.28 947.111 1866.96 934.979 1870.39 923.097C1872.87 910.45 1874.8 898.325 1876.57 886.965C1879.02 871.097 1881.1 856.901 1883.66 845.453C1889.87 817.722 1900.32 787.327 1907.98 764.527C1909.23 760.815 1910.42 757.247 1911.49 754.026C1915.41 735.365 1919.18 716.716 1922.86 697.985C1923.67 696.876 1924.5 695.762 1925.34 694.63C1935.91 680.472 1940.6 661.012 1947.78 630.321C1950.9 616.951 1954.5 601.462 1959.22 583.315C1962.25 571.653 1966.3 566.177 1969.59 561.749C1970.56 560.443 1971.47 559.222 1972.26 557.951C1975 553.581 1974.36 548.178 1973.58 541.824C1972.59 533.532 1971.37 523.696 1977.05 512.183C1995.11 475.681 1992.35 457.146 1990.27 443.218C1989.66 439.123 1989.1 435.436 1989.13 431.803C1989.19 426.659 1990.28 420.841 1991.93 415.016C1994.18 407.083 1997.4 399.294 2000.67 392.582C2005.18 383.494 2006.73 363.365 2006.52 348.037C2006.45 342.194 2007.92 334.675 2009.65 325.776C2011.44 316.594 2013.5 305.9 2014.34 294.29C2016.48 264.832 2017.63 249.223 2018.57 236.703C2018.84 233.102 2019.09 229.77 2019.33 226.455C2020.08 215.902 2021.43 202.977 2022.78 189.799C2024.39 174.065 2025.97 158.076 2026.49 145.799C2033.42 114.909 2040.58 83.945 2047.75 52.8753C2051.44 36.9186 2059.82 22.3783 2071.32 12.5498C2082.83 2.70897 2096.44 -1.61139 2109.43 0.541222C2122.43 2.71309 2133.9 11.1943 2141.63 24.1812C2149.36 37.1561 2152.66 53.5705 2151.04 69.881C2147.75 102.731 2144.43 135.678 2140.49 168.619C2135.71 208.709 2129.98 248.88 2122.49 288.625C2117.24 316.48 2111.52 344.141 2105.35 371.855C2104.73 374.67 2104.09 377.5 2103.45 380.345C2102.11 401.004 2100.46 421.552 2098.45 437.522C2098.13 440.029 2097.81 442.429 2097.48 444.701C2095.44 458.462 2091.64 467.872 2088.38 475.968C2086.14 481.508 2084.12 486.528 2083.14 491.693C2082.61 494.479 2081.98 498.315 2081.2 502.968C2078.06 521.866 2072.6 554.047 2062.88 582.243C2058.57 594.753 2052.42 609.047 2046.52 622.647C2038.08 642.111 2030.14 660.207 2028.89 670.005C2026.71 687.226 2020.45 706.074 2014.86 722.699C2009.52 738.576 2004.79 752.442 2004.88 760.996C2004.96 771.303 2001.84 779.188 1997.14 791.005C1993.89 799.135 1989.89 809.17 1985.61 823.154C1980.68 839.215 1975.76 850.262 1971.57 859.602C1965.66 872.749 1961.17 882.655 1959.69 898.828C1958.05 916.788 1954.75 935.435 1949.38 949.198C1946.96 955.42 1944.73 962.928 1942.44 970.495C1941.01 975.198 1939.52 980.041 1937.94 984.645C1935.97 990.385 1933.96 995.561 1931.46 1000.8C1927.76 1008.46 1922.92 1014.4 1918.67 1019.37C1917.32 1021 1916.02 1022.54 1914.83 1024.03C1912.5 1030.31 1910 1036.82 1907.37 1043.36C1907.31 1044.57 1907.27 1045.84 1907.22 1047.16C1906.96 1053.81 1906.43 1062.29 1903.14 1072.07C1897.25 1087.85 1889.89 1100.77 1870.24 1116.47C1862.49 1122.15 1849.86 1130.07 1831.83 1130.36C1813.62 1130.6 1799.31 1121.79 1790.7 1114.7C1778.67 1104.7 1770.98 1094.69 1764.04 1085.2C1754.02 1071.17 1746.67 1057.94 1743.45 1047.86C1742.32 1044.23 1742.56 1040.54 1742.81 1036.84C1742.82 1036.82 1742.82 1036.8 1742.82 1036.78C1742.84 1036.53 1742.85 1036.27 1742.87 1036.04C1741.1 1032.13 1739.31 1028.08 1737.51 1023.89C1729.61 1005.6 1722.4 987.284 1715.5 969.156C1714.47 967.243 1713.5 965.481 1712.51 963.641C1707.67 954.625 1703.08 945.882 1698.69 940.509C1693.91 934.682 1687.49 918.678 1680.89 901.569C1676.6 890.512 1672.22 878.96 1668.06 869.679C1665.63 864.222 1665.84 858.54 1666.03 852.558C1666.21 846.956 1666.43 841.342 1664.55 835.67C1663.61 832.833 1662.14 829.866 1660.57 826.703C1659.2 823.952 1657.75 821.033 1656.52 817.892C1655.38 814.983 1654.53 807.984 1653.5 799.143C1652.86 793.667 1652.11 787.37 1651.19 780.911C1646.04 764.381 1641.01 747.856 1636.1 731.306C1633.85 728.143 1631.3 725.542 1628.37 723.7C1626.28 722.377 1623.91 721.388 1621.49 720.368C1618.19 718.98 1614.79 717.541 1611.78 715.155C1609.43 713.29 1608.07 710.756 1608.4 708.762C1608.55 707.834 1609.05 707.029 1609.51 706.299C1610.03 705.462 1610.5 704.717 1610.31 703.985C1610.17 703.458 1609.56 703.02 1608.81 702.478C1607.62 701.614 1606.08 700.487 1605.54 698.351C1603.51 690.415 1601.77 681.219 1600.1 672.258C1598.23 662.257 1596.43 652.531 1594.31 644.897C1591.93 636.355 1590.93 623.644 1589.96 610.962C1589.28 602.095 1588.59 593.205 1587.46 585.742C1586.33 578.329 1583.69 571.161 1581.09 564.02C1577.97 555.492 1575.01 547.402 1575 539.856C1575.01 538.341 1576.57 536.12 1578.52 533.347C1579.91 531.374 1581.5 529.161 1582.86 526.625C1580.84 517.439 1578.96 508.439 1577.12 499.261C1576.79 499 1576.45 498.73 1576.1 498.461C1576.09 498.457 1576.08 498.453 1576.08 498.449C1568.25 492.438 1557.52 484.047 1559.47 468.485C1559.98 464.558 1561.88 461.819 1563.58 459.283C1565.25 456.758 1566.74 454.51 1566.56 451.76C1566.39 449.084 1564.85 446.31 1563.02 443.381C1562.71 442.869 1562.39 442.352 1562.07 441.831C1558.88 436.637 1555.43 431.332 1556.14 424.592C1556.19 424.14 1556.25 423.655 1556.3 423.151C1556.81 418.396 1557.58 411.419 1560.54 403.922C1557.56 384.279 1554.84 364.756 1552.22 344.905C1547.91 312.048 1544.01 278.999 1540.41 245.805C1538.68 229.634 1541.74 213.195 1549.21 200.227C1556.69 187.245 1567.84 178.759 1580.55 176.414C1593.27 174.071 1606.7 178.1 1618.31 187.384C1629.91 196.67 1638.67 210.351 1643.13 225.597C1650.35 250.462 1657.82 275.388 1665.19 300.409C1665.73 301.69 1666.29 303.062 1666.79 304.284C1670.63 313.808 1676.13 322.306 1681.63 330.732C1682.91 332.735 1684.17 334.634 1685.41 336.568Z" fill="white"/>
</svg>
